<?xml version="1.0" encoding="us-ascii" standalone="no"?><svg xmlns="http://www.w3.org/2000/svg" xmlns:xlink="http://www.w3.org/1999/xlink" contentStyleType="text/css" height="409px" preserveAspectRatio="none" style="width:1234px;height:409px;background:#FFFFFF;" version="1.1" viewBox="0 0 1234 409" width="1234px" zoomAndPan="magnify"><defs/><g><rect fill="#F5F5DC" height="390.1875" style="stroke:#181818;stroke-width:0.5;" width="618.5" x="466" y="6"/><text fill="#000000" font-family="sans-serif" font-size="13" font-weight="bold" lengthAdjust="spacing" textLength="175" x="687.75" y="18.0669">ePA-Aktensystem / VAU</text><rect fill="#FFFFFF" height="29.1328" style="stroke:#0000FF;stroke-width:1.0;" width="10" x="566" y="127.9922"/><rect fill="#FFFFFF" height="29.1328" style="stroke:#0000FF;stroke-width:1.0;" width="10" x="566" y="246.5234"/><rect fill="#FFFFFF" height="159.7969" style="stroke:#0000FF;stroke-width:1.0;" width="10" x="975" y="217.3906"/><rect fill="none" height="75.3984" style="stroke:#000000;stroke-width:1.5;" width="672" x="10" y="89.7266"/><rect fill="none" height="206.0625" style="stroke:#000000;stroke-width:1.5;" width="1064" x="164" y="179.125"/><line style="stroke:#0000FF;stroke-width:0.5;stroke-dasharray:5.0,5.0;" x1="92" x2="92" y1="72.7266" y2="402.1875"/><line style="stroke:#0000FF;stroke-width:0.5;stroke-dasharray:5.0,5.0;" x1="247" x2="247" y1="72.7266" y2="402.1875"/><line style="stroke:#0000FF;stroke-width:0.5;stroke-dasharray:5.0,5.0;" x1="571" x2="571" y1="72.7266" y2="402.1875"/><line style="stroke:#0000FF;stroke-width:0.5;stroke-dasharray:5.0,5.0;" x1="979.5" x2="979.5" y1="72.7266" y2="402.1875"/><rect fill="#3483EB" height="30.2969" rx="2.5" ry="2.5" style="stroke:#3483EB;stroke-width:0.5;" width="104" x="40" y="41.4297"/><text fill="#FFFFFF" font-family="sans-serif" font-size="14" lengthAdjust="spacing" textLength="90" x="47" y="61.4248">Kostentr&#228;ger</text><rect fill="#3483EB" height="30.2969" rx="2.5" ry="2.5" style="stroke:#3483EB;stroke-width:0.5;" width="107" x="194" y="41.4297"/><text fill="#FFFFFF" font-family="sans-serif" font-size="14" lengthAdjust="spacing" textLength="93" x="201" y="61.4248">Prim&#228;rsystem</text><rect fill="#EB5E34" height="46.5938" rx="2.5" ry="2.5" style="stroke:#3483EB;stroke-width:0.5;" width="162" x="490" y="25.1328"/><text fill="#FFFFFF" font-family="sans-serif" font-size="14" lengthAdjust="spacing" textLength="28" x="557" y="45.1279">VAU</text><text fill="#FFFFFF" font-family="sans-serif" font-size="14" lengthAdjust="spacing" textLength="148" x="497" y="61.4248">&#171;Patient-Information&#187;</text><rect fill="#EB5E34" height="46.5938" rx="2.5" ry="2.5" style="stroke:#3483EB;stroke-width:0.5;" width="161" x="899.5" y="25.1328"/><text fill="#FFFFFF" font-family="sans-serif" font-size="14" lengthAdjust="spacing" textLength="28" x="966" y="45.1279">VAU</text><text fill="#FFFFFF" font-family="sans-serif" font-size="14" lengthAdjust="spacing" textLength="147" x="906.5" y="61.4248">&#171;Medication Service&#187;</text><rect fill="#FFFFFF" height="29.1328" style="stroke:#0000FF;stroke-width:1.0;" width="10" x="566" y="127.9922"/><rect fill="#FFFFFF" height="29.1328" style="stroke:#0000FF;stroke-width:1.0;" width="10" x="566" y="246.5234"/><rect fill="#FFFFFF" height="159.7969" style="stroke:#0000FF;stroke-width:1.0;" width="10" x="975" y="217.3906"/><path d="M10,89.7266 L409,89.7266 L409,96.8594 L399,106.8594 L10,106.8594 L10,89.7266 " fill="#EEEEEE" style="stroke:#000000;stroke-width:1.5;"/><rect fill="none" height="75.3984" style="stroke:#000000;stroke-width:1.5;" width="672" x="10" y="89.7266"/><text fill="#000000" font-family="sans-serif" font-size="13" font-weight="bold" lengthAdjust="spacing" textLength="354" x="25" y="102.7935">&#220;bermittlung demografische Versichertendaten</text><polygon fill="#1E90FF" points="554,123.9922,564,127.9922,554,131.9922,558,127.9922" style="stroke:#1E90FF;stroke-width:1.0;"/><line style="stroke:#1E90FF;stroke-width:1.0;" x1="92" x2="560" y1="127.9922" y2="127.9922"/><text fill="#000000" font-family="sans-serif" font-size="13" lengthAdjust="spacing" textLength="327" x="99" y="122.9263">Aktuelle demografische Daten f&#252;r den Versicherten</text><polygon fill="#1E90FF" points="103,153.125,93,157.125,103,161.125,99,157.125" style="stroke:#1E90FF;stroke-width:1.0;"/><line style="stroke:#1E90FF;stroke-width:1.0;stroke-dasharray:2.0,2.0;" x1="97" x2="570" y1="157.125" y2="157.125"/><text fill="#000000" font-family="sans-serif" font-size="13" lengthAdjust="spacing" textLength="450" x="109" y="152.0591">Aktuelle demografische Daten f&#252;r den Versicherten wurden eingespielt</text><path d="M164,179.125 L516,179.125 L516,186.2578 L506,196.2578 L164,196.2578 L164,179.125 " fill="#EEEEEE" style="stroke:#000000;stroke-width:1.5;"/><rect fill="none" height="206.0625" style="stroke:#000000;stroke-width:1.5;" width="1064" x="164" y="179.125"/><text fill="#000000" font-family="sans-serif" font-size="13" font-weight="bold" lengthAdjust="spacing" textLength="307" x="179" y="192.1919">Abrufen des Medikationsplan-Dokuments</text><polygon fill="#1E90FF" points="963,213.3906,973,217.3906,963,221.3906,967,217.3906" style="stroke:#1E90FF;stroke-width:1.0;"/><line style="stroke:#1E90FF;stroke-width:1.0;" x1="247.5" x2="969" y1="217.3906" y2="217.3906"/><text fill="#000000" font-family="sans-serif" font-size="13" lengthAdjust="spacing" textLength="108" x="254.5" y="212.3247">Abrufen des eMP</text><polygon fill="#1E90FF" points="587,242.5234,577,246.5234,587,250.5234,583,246.5234" style="stroke:#1E90FF;stroke-width:1.0;"/><line style="stroke:#1E90FF;stroke-width:1.0;" x1="581" x2="974" y1="246.5234" y2="246.5234"/><text fill="#000000" font-family="sans-serif" font-size="13" lengthAdjust="spacing" textLength="380" x="593" y="241.4575">Anfrage aktuelle demografische Daten f&#252;r den Versicherten</text><polygon fill="#1E90FF" points="963,271.6563,973,275.6563,963,279.6563,967,275.6563" style="stroke:#1E90FF;stroke-width:1.0;"/><line style="stroke:#1E90FF;stroke-width:1.0;stroke-dasharray:2.0,2.0;" x1="571" x2="969" y1="275.6563" y2="275.6563"/><text fill="#000000" font-family="sans-serif" font-size="13" lengthAdjust="spacing" textLength="327" x="578" y="270.5903">Aktuelle demografische Daten f&#252;r den Versicherten</text><line style="stroke:#1E90FF;stroke-width:1.0;" x1="985" x2="1027" y1="335.0547" y2="335.0547"/><line style="stroke:#1E90FF;stroke-width:1.0;" x1="1027" x2="1027" y1="335.0547" y2="348.0547"/><line style="stroke:#1E90FF;stroke-width:1.0;" x1="986" x2="1027" y1="348.0547" y2="348.0547"/><polygon fill="#1E90FF" points="996,344.0547,986,348.0547,996,352.0547,992,348.0547" style="stroke:#1E90FF;stroke-width:1.0;"/><text fill="#000000" font-family="sans-serif" font-size="13" lengthAdjust="spacing" textLength="224" x="992" y="299.7231">Erstellung des eMP FHIR Document</text><text fill="#000000" font-family="sans-serif" font-size="13" lengthAdjust="spacing" textLength="218" x="992" y="314.856">mit den aktuellen demografischen</text><text fill="#000000" font-family="sans-serif" font-size="13" lengthAdjust="spacing" textLength="118" x="992" y="329.9888">Versichertendaten</text><polygon fill="#1E90FF" points="258.5,373.1875,248.5,377.1875,258.5,381.1875,254.5,377.1875" style="stroke:#1E90FF;stroke-width:1.0;"/><line style="stroke:#1E90FF;stroke-width:1.0;" x1="252.5" x2="979" y1="377.1875" y2="377.1875"/><text fill="#000000" font-family="sans-serif" font-size="13" lengthAdjust="spacing" textLength="130" x="264.5" y="372.1216">eMP FHIR Document</text><!--SRC=[hLJ1RjD04BtlLuoI0wU8bWG9LLMaX50HjKPM3UMIoyOxTbQnTytikYaW_eHZFuDRVeondJHsqoA1yC6ozxrvC-_jscwjJI59vX2jfB8RRL98PEPGk0SabEHrh0jfV2YLgYYlJbhurDxjrqzFH0jm-AL44oDy5y3NXCXktjhC4ioiIf6cMOaD4djBKqiAwKdyIYTufGssAJLOewtvfZ9UfsHBenfIVpXwCyJb4QsbympbmXeVwMy8fwEdeARsyqhxtH2DXJ-qhmcFLJzOZyyL_H1YfHL2OgrVsZln0cJfhIdp9P8GnM4Uw5rQvz5usjvpQZsG3Yu_NdSf8UbyUq_kApFpcX96GWWMXXw6ay5apGeD2Y_XPlAf1_qfwhJPW8uKWmjpViwHUCrT1tEJMChvnHeOZnljEVHn-Hg7e-VB0rGwRgeYf5lDvsHN7KGFrMWKLEP5bL01svziFjVUPoMVDeMvJKacsiKhX1iaf_c1s8YIV1E2Ku31k9hc3DXWYLc6Zwfc5HEIxIzYm7H4X8ozlcMS1GHh35YgKlmNBTYKLAqXVoNe2esP5mhR3IghOkzpigGoORf2L-UqhdDoHIRDO6RNPSwvEo72gBB7SPrrAZ083xC7aGYYGmec8PaYoF-IHjFvxwMwpeE3YtV41p3RRMvj12xUpw_vVn3NdXU6Dx_MsnimtRPcOOxFmSv_rU18iJqBHrNlmcy0]--></g></svg>