<?xml version="1.0" encoding="us-ascii" standalone="no"?><svg xmlns="http://www.w3.org/2000/svg" xmlns:xlink="http://www.w3.org/1999/xlink" contentStyleType="text/css" height="411px" preserveAspectRatio="none" style="width:1210px;height:411px;background:#FFFFFF;" version="1.1" viewBox="0 0 1210 411" width="1210px" zoomAndPan="magnify"><defs/><g><rect fill="#F5F5DC" height="392.7031" style="stroke:#181818;stroke-width:0.5;" width="590" x="477" y="6"/><text fill="#000000" font-family="sans-serif" font-size="13" font-weight="bold" lengthAdjust="spacing" textLength="166" x="689" y="18.5684">ePA-Aktensystem / VAU</text><rect fill="#FFFFFF" height="29.3105" style="stroke:#0000FF;stroke-width:1.0;" width="10" x="559.5" y="128.9082"/><rect fill="#FFFFFF" height="29.3105" style="stroke:#0000FF;stroke-width:1.0;" width="10" x="559.5" y="248.1504"/><rect fill="#FFFFFF" height="160.8633" style="stroke:#0000FF;stroke-width:1.0;" width="10" x="960.5" y="218.8398"/><rect fill="none" height="75.9316" style="stroke:#000000;stroke-width:1.5;" width="648" x="10" y="90.2871"/><rect fill="none" height="207.4844" style="stroke:#000000;stroke-width:1.5;" width="1041.5" x="163" y="180.2188"/><line style="stroke:#0000FF;stroke-width:0.5;stroke-dasharray:5.0,5.0;" x1="91" x2="91" y1="73.2871" y2="404.7031"/><line style="stroke:#0000FF;stroke-width:0.5;stroke-dasharray:5.0,5.0;" x1="246" x2="246" y1="73.2871" y2="404.7031"/><line style="stroke:#0000FF;stroke-width:0.5;stroke-dasharray:5.0,5.0;" x1="564" x2="564" y1="73.2871" y2="404.7031"/><line style="stroke:#0000FF;stroke-width:0.5;stroke-dasharray:5.0,5.0;" x1="965" x2="965" y1="73.2871" y2="404.7031"/><rect fill="#3483EB" height="30.4883" rx="2.5" ry="2.5" style="stroke:#3483EB;stroke-width:0.5;" width="103" x="40" y="41.7988"/><text fill="#FFFFFF" font-family="sans-serif" font-size="14" lengthAdjust="spacing" textLength="89" x="47" y="62.334">Kostentr&#228;ger</text><rect fill="#3483EB" height="30.4883" rx="2.5" ry="2.5" style="stroke:#3483EB;stroke-width:0.5;" width="106" x="193" y="41.7988"/><text fill="#FFFFFF" font-family="sans-serif" font-size="14" lengthAdjust="spacing" textLength="92" x="200" y="62.334">Prim&#228;rsystem</text><rect fill="#EB5E34" height="46.9766" rx="2.5" ry="2.5" style="stroke:#3483EB;stroke-width:0.5;" width="127" x="501" y="25.3105"/><text fill="#FFFFFF" font-family="sans-serif" font-size="14" lengthAdjust="spacing" textLength="29" x="550" y="45.8457">VAU</text><text fill="#FFFFFF" font-family="sans-serif" font-size="14" lengthAdjust="spacing" textLength="113" x="508" y="62.334">&#171;Patient Service&#187;</text><rect fill="#EB5E34" height="46.9766" rx="2.5" ry="2.5" style="stroke:#3483EB;stroke-width:0.5;" width="155" x="888" y="25.3105"/><text fill="#FFFFFF" font-family="sans-serif" font-size="14" lengthAdjust="spacing" textLength="29" x="951" y="45.8457">VAU</text><text fill="#FFFFFF" font-family="sans-serif" font-size="14" lengthAdjust="spacing" textLength="141" x="895" y="62.334">&#171;Medication Service&#187;</text><rect fill="#FFFFFF" height="29.3105" style="stroke:#0000FF;stroke-width:1.0;" width="10" x="559.5" y="128.9082"/><rect fill="#FFFFFF" height="29.3105" style="stroke:#0000FF;stroke-width:1.0;" width="10" x="559.5" y="248.1504"/><rect fill="#FFFFFF" height="160.8633" style="stroke:#0000FF;stroke-width:1.0;" width="10" x="960.5" y="218.8398"/><path d="M10,90.2871 L380,90.2871 L380,97.5977 L370,107.5977 L10,107.5977 L10,90.2871 " fill="#EEEEEE" style="stroke:#000000;stroke-width:1.5;"/><rect fill="none" height="75.9316" style="stroke:#000000;stroke-width:1.5;" width="648" x="10" y="90.2871"/><text fill="#000000" font-family="sans-serif" font-size="13" font-weight="bold" lengthAdjust="spacing" textLength="325" x="25" y="103.8555">&#220;bermittlung demografische Versichertendaten</text><polygon fill="#1E90FF" points="547.5,124.9082,557.5,128.9082,547.5,132.9082,551.5,128.9082" style="stroke:#1E90FF;stroke-width:1.0;"/><line style="stroke:#1E90FF;stroke-width:1.0;" x1="91.5" x2="553.5" y1="128.9082" y2="128.9082"/><text fill="#000000" font-family="sans-serif" font-size="13" lengthAdjust="spacing" textLength="321" x="98.5" y="124.166">Aktuelle demografische Daten f&#252;r den Versicherten</text><polygon fill="#1E90FF" points="102.5,154.2188,92.5,158.2188,102.5,162.2188,98.5,158.2188" style="stroke:#1E90FF;stroke-width:1.0;"/><line style="stroke:#1E90FF;stroke-width:1.0;stroke-dasharray:2.0,2.0;" x1="96.5" x2="563.5" y1="158.2188" y2="158.2188"/><text fill="#000000" font-family="sans-serif" font-size="13" lengthAdjust="spacing" textLength="444" x="108.5" y="153.4766">Aktuelle demografische Daten f&#252;r den Versicherten wurden eingespielt</text><path d="M163,180.2188 L405,180.2188 L405,187.5293 L395,197.5293 L163,197.5293 L163,180.2188 " fill="#EEEEEE" style="stroke:#000000;stroke-width:1.5;"/><rect fill="none" height="207.4844" style="stroke:#000000;stroke-width:1.5;" width="1041.5" x="163" y="180.2188"/><text fill="#000000" font-family="sans-serif" font-size="13" font-weight="bold" lengthAdjust="spacing" textLength="197" x="178" y="193.7871">Abrufen der Medikationsliste</text><polygon fill="#1E90FF" points="948.5,214.8398,958.5,218.8398,948.5,222.8398,952.5,218.8398" style="stroke:#1E90FF;stroke-width:1.0;"/><line style="stroke:#1E90FF;stroke-width:1.0;" x1="246" x2="954.5" y1="218.8398" y2="218.8398"/><text fill="#000000" font-family="sans-serif" font-size="13" lengthAdjust="spacing" textLength="103" x="253" y="214.0977">Abrufen der eML</text><polygon fill="#1E90FF" points="580.5,244.1504,570.5,248.1504,580.5,252.1504,576.5,248.1504" style="stroke:#1E90FF;stroke-width:1.0;"/><line style="stroke:#1E90FF;stroke-width:1.0;" x1="574.5" x2="959.5" y1="248.1504" y2="248.1504"/><text fill="#000000" font-family="sans-serif" font-size="13" lengthAdjust="spacing" textLength="372" x="586.5" y="243.4082">Anfrage aktuelle demografische Daten f&#252;r den Versicherten</text><polygon fill="#1E90FF" points="948.5,273.4609,958.5,277.4609,948.5,281.4609,952.5,277.4609" style="stroke:#1E90FF;stroke-width:1.0;"/><line style="stroke:#1E90FF;stroke-width:1.0;stroke-dasharray:2.0,2.0;" x1="564.5" x2="954.5" y1="277.4609" y2="277.4609"/><text fill="#000000" font-family="sans-serif" font-size="13" lengthAdjust="spacing" textLength="321" x="571.5" y="272.7188">Aktuelle demografische Daten f&#252;r den Versicherten</text><line style="stroke:#1E90FF;stroke-width:1.0;" x1="970.5" x2="1012.5" y1="337.3926" y2="337.3926"/><line style="stroke:#1E90FF;stroke-width:1.0;" x1="1012.5" x2="1012.5" y1="337.3926" y2="350.3926"/><line style="stroke:#1E90FF;stroke-width:1.0;" x1="971.5" x2="1012.5" y1="350.3926" y2="350.3926"/><polygon fill="#1E90FF" points="981.5,346.3926,971.5,350.3926,981.5,354.3926,977.5,350.3926" style="stroke:#1E90FF;stroke-width:1.0;"/><text fill="#000000" font-family="sans-serif" font-size="13" lengthAdjust="spacing" textLength="116" x="977.5" y="302.0293">Erstellung der eML</text><text fill="#000000" font-family="sans-serif" font-size="13" lengthAdjust="spacing" textLength="215" x="977.5" y="317.3398">mit den aktuellen demografischen</text><text fill="#000000" font-family="sans-serif" font-size="13" lengthAdjust="spacing" textLength="113" x="977.5" y="332.6504">Versichertendaten</text><polygon fill="#1E90FF" points="257,375.7031,247,379.7031,257,383.7031,253,379.7031" style="stroke:#1E90FF;stroke-width:1.0;"/><line style="stroke:#1E90FF;stroke-width:1.0;" x1="251" x2="964.5" y1="379.7031" y2="379.7031"/><text fill="#000000" font-family="sans-serif" font-size="13" lengthAdjust="spacing" textLength="104" x="263" y="374.9609">eML FHIR Bundle</text><!--SRC=[hLF1RjD04BtlLuoI0wU8bWG9LLMac59HDKPM3UMIoyOxTbQnTyFikYaW_eHZFuDRVeondJHssY21yC6ozhrvC-_DsYsrMKcI1SGBgUnQcmnIcJiKxX6997cTw9KqFf9ALPHN9oqyiFUxyzCJqG8SVYdH90ZV1V0p8RBhjpQt11TMPKX1NcA39DvIO4aXFOjFTOfJRR1DgS4QRSqNo6IPaIsDQaZzuUZD4ETFQ2sT8vHBQtoilo6SZfw3cjhF2-stGpGM_j2-9XogVh0UZnNz46AX5K9ghP_RU_42PEcjAOivaX2h_JpGkxREe_6qUU3KUY0TN7-ywL8YqiNcWTnNPXOr9Og542mCFOmcWycI5HeKNiBjv5CF-W7gh5b0Huh1cJa_vqYyvguG8zrftl9utEXUGH_dht4uEbuQej89brjpM1t6ZzLe55J6HPNE2ZO_sNYXlSzBlcaA2vkHJBLB5WYtI4xp1x499Vab12S0Wt4rpHcmkHBp70-gBYecf9jVn83fY0YPU7t7E0i8rXYmLANuBrgmBgawG_v3qAqqvbueR3Ueh8gTpycSofJfV4Fhd9PrJYxNhhfhKLovufJEEaGCf_kHmrY4yTwyIKbc2FA_XD1q_dkfhk5mx-8TiQzykzFQoCpmbck5tSYcsyZCpDE5RnrNagm1b- -lRY3Wdoh7Tc-EfWxxDm00]--></g></svg>