<?xml version="1.0" encoding="UTF-8" standalone="no"?><svg xmlns="http://www.w3.org/2000/svg" xmlns:xlink="http://www.w3.org/1999/xlink" contentStyleType="text/css" height="365px" preserveAspectRatio="none" style="width:602px;height:365px;background:#FFFFFF;" version="1.1" viewBox="0 0 602 365" width="602px" zoomAndPan="magnify"><defs/><g><ellipse cx="288.5" cy="20" fill="#222222" rx="10" ry="10" style="stroke:#222222;stroke-width:1.0;"/><rect fill="#F1F1F1" height="33.9688" rx="12.5" ry="12.5" style="stroke:#181818;stroke-width:0.5;" width="239" x="169" y="50"/><text fill="#000000" font-family="sans-serif" font-size="12" lengthAdjust="spacing" textLength="219" x="179" y="71.1387">Empfang der Verschreibungsdaten</text><rect fill="#F1F1F1" height="33.9688" rx="12.5" ry="12.5" style="stroke:#181818;stroke-width:0.5;" width="201" x="188" y="166.7852"/><text fill="#000000" font-family="sans-serif" font-size="12" lengthAdjust="spacing" textLength="181" x="198" y="187.9238">Durchführung der Verlinkung</text><rect fill="#F1F1F1" height="33.9688" rx="12.5" ry="12.5" style="stroke:#181818;stroke-width:0.5;" width="555" x="11" y="234.6504"/><text fill="#000000" font-family="sans-serif" font-size="12" lengthAdjust="spacing" textLength="20" x="21" y="255.7891">Die</text><text fill="#000000" font-family="sans-serif" font-size="12" font-weight="bold" lengthAdjust="spacing" textLength="33" x="45" y="255.7891">Task</text><text fill="#000000" font-family="sans-serif" font-size="12" lengthAdjust="spacing" textLength="384" x="78" y="255.7891">-Ressource wird vollständig vom Medication Service entfernt (</text><text fill="#000000" font-family="sans-serif" font-size="12" font-weight="bold" lengthAdjust="spacing" textLength="85" x="462" y="255.7891">Hard Delete</text><text fill="#000000" font-family="sans-serif" font-size="12" lengthAdjust="spacing" textLength="9" x="547" y="255.7891">).</text><polygon fill="#F1F1F1" points="52.5,103.9688,524.5,103.9688,536.5,123.1758,524.5,142.3828,52.5,142.3828,40.5,123.1758,52.5,103.9688" style="stroke:#181818;stroke-width:0.5;"/><text fill="#000000" font-family="sans-serif" font-size="11" lengthAdjust="spacing" textLength="10" x="292.5" y="152.5933">JA</text><text fill="#000000" font-family="sans-serif" font-size="11" lengthAdjust="spacing" textLength="4" x="286.5" y="114.1792"> </text><text fill="#000000" font-family="sans-serif" font-size="11" lengthAdjust="spacing" textLength="202" x="52.5" y="126.9839">Existiert eine nicht abgeschlossene</text><text fill="#000000" font-family="sans-serif" font-size="11" font-weight="bold" lengthAdjust="spacing" textLength="30" x="258.5" y="126.9839">Task</text><text fill="#000000" font-family="sans-serif" font-size="11" lengthAdjust="spacing" textLength="236" x="288.5" y="126.9839">-Ressource für die Verschreibungsdaten?</text><text fill="#000000" font-family="sans-serif" font-size="11" lengthAdjust="spacing" textLength="4" x="286.5" y="139.7886"> </text><text fill="#000000" font-family="sans-serif" font-size="11" lengthAdjust="spacing" textLength="26" x="536.5" y="120.5815">NEIN</text><polygon fill="#F1F1F1" points="288.5,288.6191,300.5,300.6191,288.5,312.6191,276.5,300.6191,288.5,288.6191" style="stroke:#181818;stroke-width:0.5;"/><ellipse cx="288.5" cy="343.6191" fill="none" rx="11" ry="11" style="stroke:#222222;stroke-width:1.0;"/><ellipse cx="288.5" cy="343.6191" fill="#222222" rx="6" ry="6" style="stroke:#111111;stroke-width:1.0;"/><line style="stroke:#181818;stroke-width:1.0;" x1="288.5" x2="288.5" y1="30" y2="50"/><polygon fill="#181818" points="284.5,40,288.5,50,292.5,40,288.5,44" style="stroke:#181818;stroke-width:1.0;"/><line style="stroke:#181818;stroke-width:1.0;" x1="288.5" x2="288.5" y1="200.7539" y2="234.6504"/><polygon fill="#181818" points="284.5,224.6504,288.5,234.6504,292.5,224.6504,288.5,228.6504" style="stroke:#181818;stroke-width:1.0;"/><line style="stroke:#181818;stroke-width:1.0;" x1="288.5" x2="288.5" y1="142.3828" y2="166.7852"/><polygon fill="#181818" points="284.5,156.7852,288.5,166.7852,292.5,156.7852,288.5,160.7852" style="stroke:#181818;stroke-width:1.0;"/><line style="stroke:#181818;stroke-width:1.0;" x1="536.5" x2="576" y1="123.1758" y2="123.1758"/><polygon fill="#181818" points="572,204.6504,576,214.6504,580,204.6504,576,208.6504" style="stroke:#181818;stroke-width:1.0;"/><line style="stroke:#181818;stroke-width:1.0;" x1="576" x2="576" y1="123.1758" y2="300.6191"/><line style="stroke:#181818;stroke-width:1.0;" x1="576" x2="300.5" y1="300.6191" y2="300.6191"/><polygon fill="#181818" points="310.5,296.6191,300.5,300.6191,310.5,304.6191,306.5,300.6191" style="stroke:#181818;stroke-width:1.0;"/><line style="stroke:#181818;stroke-width:1.0;" x1="288.5" x2="288.5" y1="268.6191" y2="288.6191"/><polygon fill="#181818" points="284.5,278.6191,288.5,288.6191,292.5,278.6191,288.5,282.6191" style="stroke:#181818;stroke-width:1.0;"/><line style="stroke:#181818;stroke-width:1.0;" x1="288.5" x2="288.5" y1="83.9688" y2="103.9688"/><polygon fill="#181818" points="284.5,93.9688,288.5,103.9688,292.5,93.9688,288.5,97.9688" style="stroke:#181818;stroke-width:1.0;"/><line style="stroke:#181818;stroke-width:1.0;" x1="288.5" x2="288.5" y1="312.6191" y2="332.6191"/><polygon fill="#181818" points="284.5,322.6191,288.5,332.6191,292.5,322.6191,288.5,326.6191" style="stroke:#181818;stroke-width:1.0;"/><!--MD5=[9c76070e3016cd518dabdcd2cb32ceaa]
@startuml concept.operation.link-prescription-process.in.erp.op
skinparam defaultTextAlignment center
skinparam title {
  backgroundColor SkyBlue
  borderColor Gray
} 
' title Bearbeitung ausstehender Tasks durch die Operation $provide-prescription-erp

start
    :Empfang der Verschreibungsdaten;

    if(\nExistiert eine nicht abgeschlossene <b>Task</b>-Ressource für die Verschreibungsdaten?\n) then (JA)
        :Durchführung der Verlinkung;
        :Die <b>Task</b>-Ressource wird vollständig vom Medication Service entfernt (<b>Hard Delete</b>).;
    else (NEIN)
    endif
  
stop
@enduml

@startuml concept.operation.link-prescription-process.in.erp.op
skinparam defaultTextAlignment center
skinparam title {
  backgroundColor SkyBlue
  borderColor Gray
} 

start
    :Empfang der Verschreibungsdaten;

    if(\nExistiert eine nicht abgeschlossene <b>Task</b>-Ressource für die Verschreibungsdaten?\n) then (JA)
        :Durchführung der Verlinkung;
        :Die <b>Task</b>-Ressource wird vollständig vom Medication Service entfernt (<b>Hard Delete</b>).;
    else (NEIN)
    endif
  
stop
@enduml

PlantUML version 1.2022.7(Mon Aug 22 19:01:30 CEST 2022)
(GPL source distribution)
Java Runtime: OpenJDK Runtime Environment
JVM: OpenJDK 64-Bit Server VM
Default Encoding: UTF-8
Language: en
Country: US
--></g></svg>