<?xml version="1.0" encoding="UTF-8" standalone="no"?><svg xmlns="http://www.w3.org/2000/svg" xmlns:xlink="http://www.w3.org/1999/xlink" contentStyleType="text/css" height="296px" preserveAspectRatio="none" style="width:729px;height:296px;background:#FFFFFF;" version="1.1" viewBox="0 0 729 296" width="729px" zoomAndPan="magnify"><defs/><g><ellipse cx="348" cy="20" fill="#222222" rx="10" ry="10" style="stroke:#222222;stroke-width:1.0;"/><rect fill="#F1F1F1" height="33.9688" rx="12.5" ry="12.5" style="stroke:#181818;stroke-width:0.5;" width="201" x="247.5" y="50"/><text fill="#000000" font-family="sans-serif" font-size="12" font-weight="bold" lengthAdjust="spacing" textLength="181" x="257.5" y="71.1387">Initiierung der Verlinkung</text><polygon fill="#F1F1F1" points="202,103.9688,494,103.9688,506,129.5781,494,155.1875,202,155.1875,190,129.5781,202,103.9688" style="stroke:#181818;stroke-width:0.5;"/><text fill="#000000" font-family="sans-serif" font-size="11" lengthAdjust="spacing" textLength="4" x="346" y="114.1792"> </text><text fill="#000000" font-family="sans-serif" font-size="11" lengthAdjust="spacing" textLength="279" x="208.5" y="126.9839">Sind die relevanten Verschreibungsdaten bereits</text><text fill="#000000" font-family="sans-serif" font-size="11" lengthAdjust="spacing" textLength="292" x="202" y="139.7886">durch den E-Rezept-Fachdienst übermittelt worden?</text><text fill="#000000" font-family="sans-serif" font-size="11" lengthAdjust="spacing" textLength="4" x="346" y="152.5933"> </text><text fill="#000000" font-family="sans-serif" font-size="11" lengthAdjust="spacing" textLength="180" x="10" y="126.9839">Verschreibungsdaten verfügbar</text><text fill="#000000" font-family="sans-serif" font-size="11" lengthAdjust="spacing" textLength="211" x="506" y="126.9839">Verschreibungsdaten nicht verfügbar</text><rect fill="#F1F1F1" height="33.9688" rx="12.5" ry="12.5" style="stroke:#181818;stroke-width:0.5;" width="295" x="32.5" y="165.1875"/><text fill="#000000" font-family="sans-serif" font-size="12" lengthAdjust="spacing" textLength="275" x="42.5" y="186.3262">Verschreibungsdaten werden sofort verlinkt</text><rect fill="#F1F1F1" height="47.9375" rx="12.5" ry="12.5" style="stroke:#181818;stroke-width:0.5;" width="265" x="383.5" y="165.1875"/><text fill="#000000" font-family="sans-serif" font-size="12" lengthAdjust="spacing" textLength="27" x="410.5" y="186.3262">Eine</text><text fill="#000000" font-family="sans-serif" font-size="12" font-weight="bold" lengthAdjust="spacing" textLength="33" x="441.5" y="186.3262">Task</text><text fill="#000000" font-family="sans-serif" font-size="12" lengthAdjust="spacing" textLength="147" x="474.5" y="186.3262">-Ressource wird erstellt</text><text fill="#000000" font-family="sans-serif" font-size="12" lengthAdjust="spacing" textLength="113" x="393.5" y="200.2949">und ihr Status auf</text><text fill="#000000" font-family="sans-serif" font-size="12" font-weight="bold" lengthAdjust="spacing" textLength="74" x="510.5" y="200.2949">requested</text><text fill="#000000" font-family="sans-serif" font-size="12" lengthAdjust="spacing" textLength="50" x="588.5" y="200.2949">gesetzt.</text><polygon fill="#F1F1F1" points="348,219.125,360,231.125,348,243.125,336,231.125,348,219.125" style="stroke:#181818;stroke-width:0.5;"/><ellipse cx="348" cy="274.125" fill="none" rx="11" ry="11" style="stroke:#222222;stroke-width:1.0;"/><ellipse cx="348" cy="274.125" fill="#222222" rx="6" ry="6" style="stroke:#111111;stroke-width:1.0;"/><line style="stroke:#181818;stroke-width:1.0;" x1="348" x2="348" y1="30" y2="50"/><polygon fill="#181818" points="344,40,348,50,352,40,348,44" style="stroke:#181818;stroke-width:1.0;"/><line style="stroke:#181818;stroke-width:1.0;" x1="190" x2="180" y1="129.5781" y2="129.5781"/><line style="stroke:#181818;stroke-width:1.0;" x1="180" x2="180" y1="129.5781" y2="165.1875"/><polygon fill="#181818" points="176,155.1875,180,165.1875,184,155.1875,180,159.1875" style="stroke:#181818;stroke-width:1.0;"/><line style="stroke:#181818;stroke-width:1.0;" x1="506" x2="516" y1="129.5781" y2="129.5781"/><line style="stroke:#181818;stroke-width:1.0;" x1="516" x2="516" y1="129.5781" y2="165.1875"/><polygon fill="#181818" points="512,155.1875,516,165.1875,520,155.1875,516,159.1875" style="stroke:#181818;stroke-width:1.0;"/><line style="stroke:#181818;stroke-width:1.0;" x1="180" x2="180" y1="199.1563" y2="231.125"/><line style="stroke:#181818;stroke-width:1.0;" x1="180" x2="336" y1="231.125" y2="231.125"/><polygon fill="#181818" points="326,227.125,336,231.125,326,235.125,330,231.125" style="stroke:#181818;stroke-width:1.0;"/><line style="stroke:#181818;stroke-width:1.0;" x1="516" x2="516" y1="213.125" y2="231.125"/><line style="stroke:#181818;stroke-width:1.0;" x1="516" x2="360" y1="231.125" y2="231.125"/><polygon fill="#181818" points="370,227.125,360,231.125,370,235.125,366,231.125" style="stroke:#181818;stroke-width:1.0;"/><line style="stroke:#181818;stroke-width:1.0;" x1="348" x2="348" y1="83.9688" y2="103.9688"/><polygon fill="#181818" points="344,93.9688,348,103.9688,352,93.9688,348,97.9688" style="stroke:#181818;stroke-width:1.0;"/><line style="stroke:#181818;stroke-width:1.0;" x1="348" x2="348" y1="243.125" y2="263.125"/><polygon fill="#181818" points="344,253.125,348,263.125,352,253.125,348,257.125" style="stroke:#181818;stroke-width:1.0;"/><!--MD5=[fd12259236b3665b1dbc78835c2ab7de]
@startuml concept.operation.link-prescription-process
skinparam defaultTextAlignment center
skinparam title {
  backgroundColor SkyBlue
  borderColor Gray
} 
' title Initiierung der Verlinkung über $link-prescription-process

start
    :<b>Initiierung der Verlinkung</b>;

    if(\nSind die relevanten Verschreibungsdaten bereits\ndurch den E-Rezept-Fachdienst übermittelt worden?\n) then (Verschreibungsdaten verfügbar)
        :Verschreibungsdaten werden sofort verlinkt;
    else (Verschreibungsdaten nicht verfügbar)
        :Eine <b>Task</b>-Ressource wird erstellt\nund ihr Status auf <b>requested</b> gesetzt.;
    endif
  
stop
@enduml

@startuml concept.operation.link-prescription-process
skinparam defaultTextAlignment center
skinparam title {
  backgroundColor SkyBlue
  borderColor Gray
} 

start
    :<b>Initiierung der Verlinkung</b>;

    if(\nSind die relevanten Verschreibungsdaten bereits\ndurch den E-Rezept-Fachdienst übermittelt worden?\n) then (Verschreibungsdaten verfügbar)
        :Verschreibungsdaten werden sofort verlinkt;
    else (Verschreibungsdaten nicht verfügbar)
        :Eine <b>Task</b>-Ressource wird erstellt\nund ihr Status auf <b>requested</b> gesetzt.;
    endif
  
stop
@enduml

PlantUML version 1.2022.7(Mon Aug 22 19:01:30 CEST 2022)
(GPL source distribution)
Java Runtime: OpenJDK Runtime Environment
JVM: OpenJDK 64-Bit Server VM
Default Encoding: UTF-8
Language: en
Country: US
--></g></svg>