<?xml version="1.0" encoding="us-ascii" standalone="no"?><svg xmlns="http://www.w3.org/2000/svg" xmlns:xlink="http://www.w3.org/1999/xlink" contentStyleType="text/css" height="803px" preserveAspectRatio="none" style="width:1474px;height:803px;background:#FFFFFF;" version="1.1" viewBox="0 0 1474 803" width="1474px" zoomAndPan="magnify"><defs/><g><rect fill="#D3D3D3" height="784.207" style="stroke:#181818;stroke-width:0.5;" width="195" x="853" y="6"/><text fill="#000000" font-family="sans-serif" font-size="13" font-weight="bold" lengthAdjust="spacing" textLength="122" x="889.5" y="18.5684">ePA-Aktensystem</text><rect fill="#F5F5DC" height="784.207" style="stroke:#181818;stroke-width:0.5;" width="342" x="1070" y="6"/><text fill="#000000" font-family="sans-serif" font-size="13" font-weight="bold" lengthAdjust="spacing" textLength="166" x="1158" y="18.5684">ePA-Aktensystem / VAU</text><rect fill="none" height="410.8145" style="stroke:#000000;stroke-width:1.5;" width="1242.5" x="225" y="368.3926"/><rect fill="none" height="133.2422" style="stroke:#000000;stroke-width:1.5;" width="1183" x="235" y="638.9648"/><line style="stroke:#0000FF;stroke-width:0.5;stroke-dasharray:5.0,5.0;" x1="58" x2="58" y1="89.7754" y2="796.207"/><line style="stroke:#0000FF;stroke-width:0.5;stroke-dasharray:5.0,5.0;" x1="344" x2="344" y1="89.7754" y2="796.207"/><line style="stroke:#0000FF;stroke-width:0.5;stroke-dasharray:5.0,5.0;" x1="950" x2="950" y1="89.7754" y2="796.207"/><line style="stroke:#0000FF;stroke-width:0.5;stroke-dasharray:5.0,5.0;" x1="1145" x2="1145" y1="89.7754" y2="796.207"/><line style="stroke:#0000FF;stroke-width:0.5;stroke-dasharray:5.0,5.0;" x1="1317" x2="1317" y1="89.7754" y2="796.207"/><rect fill="#3483EB" height="30.4883" rx="2.5" ry="2.5" style="stroke:#3483EB;stroke-width:0.5;" width="67" x="25" y="58.2871"/><text fill="#FFFFFF" font-family="sans-serif" font-size="14" lengthAdjust="spacing" textLength="53" x="32" y="78.8223">PVS/KIS</text><rect fill="#3483EB" height="30.4883" rx="2.5" ry="2.5" style="stroke:#3483EB;stroke-width:0.5;" width="159" x="265" y="58.2871"/><text fill="#FFFFFF" font-family="sans-serif" font-size="14" lengthAdjust="spacing" textLength="145" x="272" y="78.8223">E-Rezept-Fachdienst</text><rect fill="#3483EB" height="30.4883" rx="2.5" ry="2.5" style="stroke:#3483EB;stroke-width:0.5;" width="147" x="877" y="58.2871"/><text fill="#FFFFFF" font-family="sans-serif" font-size="14" lengthAdjust="spacing" textLength="133" x="884" y="78.8223">Information Service</text><rect fill="#EB5E34" height="63.4648" rx="2.5" ry="2.5" style="stroke:#3483EB;stroke-width:0.5;" width="103" x="1094" y="25.3105"/><text fill="#FFFFFF" font-family="sans-serif" font-size="14" lengthAdjust="spacing" textLength="29" x="1129" y="45.8457">VAU</text><text fill="#FFFFFF" font-family="sans-serif" font-size="14" lengthAdjust="spacing" textLength="52" x="1117.5" y="62.334">Session</text><text fill="#FFFFFF" font-family="sans-serif" font-size="14" lengthAdjust="spacing" textLength="89" x="1101" y="78.8223">Management</text><rect fill="#3483EB" height="30.4883" rx="2.5" ry="2.5" style="stroke:#3483EB;stroke-width:0.5;" width="141" x="1247" y="58.2871"/><text fill="#FFFFFF" font-family="sans-serif" font-size="14" lengthAdjust="spacing" textLength="127" x="1254" y="78.8223">Medication Service</text><polygon fill="#1E90FF" points="332.5,117.0859,342.5,121.0859,332.5,125.0859,336.5,121.0859" style="stroke:#1E90FF;stroke-width:1.0;"/><line style="stroke:#1E90FF;stroke-width:1.0;" x1="58.5" x2="338.5" y1="121.0859" y2="121.0859"/><text fill="#000000" font-family="sans-serif" font-size="13" font-weight="bold" lengthAdjust="spacing" textLength="9" x="65.5" y="116.3438">1</text><text fill="#000000" font-family="sans-serif" font-size="13" lengthAdjust="spacing" textLength="249" x="78.5" y="116.3438">Anfrage: Verordnungsdaten &#252;bermitteln</text><line style="stroke:#1E90FF;stroke-width:1.0;" x1="344.5" x2="386.5" y1="150.3965" y2="150.3965"/><line style="stroke:#1E90FF;stroke-width:1.0;" x1="386.5" x2="386.5" y1="150.3965" y2="163.3965"/><line style="stroke:#1E90FF;stroke-width:1.0;" x1="345.5" x2="386.5" y1="163.3965" y2="163.3965"/><polygon fill="#1E90FF" points="355.5,159.3965,345.5,163.3965,355.5,167.3965,351.5,163.3965" style="stroke:#1E90FF;stroke-width:1.0;"/><text fill="#000000" font-family="sans-serif" font-size="13" font-weight="bold" lengthAdjust="spacing" textLength="9" x="351.5" y="145.6543">2</text><text fill="#000000" font-family="sans-serif" font-size="13" lengthAdjust="spacing" textLength="499" x="364.5" y="145.6543">Durchf&#252;hren der standardm&#228;&#223;igen Workflow-Logik des E-Rezept-Fachdienstes</text><polygon fill="#1E90FF" points="69.5,188.707,59.5,192.707,69.5,196.707,65.5,192.707" style="stroke:#1E90FF;stroke-width:1.0;"/><line style="stroke:#1E90FF;stroke-width:1.0;stroke-dasharray:2.0,2.0;" x1="63.5" x2="343.5" y1="192.707" y2="192.707"/><text fill="#000000" font-family="sans-serif" font-size="13" font-weight="bold" lengthAdjust="spacing" textLength="9" x="75.5" y="187.9648">3</text><text fill="#000000" font-family="sans-serif" font-size="13" lengthAdjust="spacing" textLength="95" x="88.5" y="187.9648">Antwort: Erfolg</text><line style="stroke:#1E90FF;stroke-width:1.0;" x1="344.5" x2="386.5" y1="237.3281" y2="237.3281"/><line style="stroke:#1E90FF;stroke-width:1.0;" x1="386.5" x2="386.5" y1="237.3281" y2="250.3281"/><line style="stroke:#1E90FF;stroke-width:1.0;" x1="345.5" x2="386.5" y1="250.3281" y2="250.3281"/><polygon fill="#1E90FF" points="355.5,246.3281,345.5,250.3281,355.5,254.3281,351.5,250.3281" style="stroke:#1E90FF;stroke-width:1.0;"/><text fill="#000000" font-family="sans-serif" font-size="13" font-weight="bold" lengthAdjust="spacing" textLength="9" x="351.5" y="224.9307">4</text><text fill="#000000" font-family="sans-serif" font-size="13" lengthAdjust="spacing" textLength="362" x="364.5" y="217.2754">Persistieren der Verordnungsdaten in einer Warteschlange</text><text fill="#000000" font-family="sans-serif" font-size="13" lengthAdjust="spacing" textLength="199" x="364.5" y="232.5859">f&#252;r die asynchrone &#220;bertragung</text><rect fill="none" height="39.4434" style="stroke:#000000;stroke-width:1.5;" width="805" x="242" y="258.3281"/><path d="M242,258.3281 L306,258.3281 L306,265.3281 L296,275.3281 L242,275.3281 L242,258.3281 " fill="#EEEEEE" style="stroke:#000000;stroke-width:2.0;"/><text fill="#000000" font-family="sans-serif" font-size="13" font-weight="bold" lengthAdjust="spacing" textLength="19" x="255" y="272.8965">ref</text><text fill="#000000" font-family="sans-serif" font-size="12" lengthAdjust="spacing" textLength="452" x="418.5" y="290.9297">Lokalisierung der Service-Endpunkte der ePA und der Akte eines Versicherten</text><polygon fill="#1E90FF" points="938.5,320.082,948.5,324.082,938.5,328.082,942.5,324.082" style="stroke:#1E90FF;stroke-width:1.0;"/><line style="stroke:#1E90FF;stroke-width:1.0;" x1="344.5" x2="944.5" y1="324.082" y2="324.082"/><text fill="#000000" font-family="sans-serif" font-size="13" font-weight="bold" lengthAdjust="spacing" textLength="9" x="351.5" y="319.3398">5</text><text fill="#000000" font-family="sans-serif" font-size="13" lengthAdjust="spacing" textLength="504" x="364.5" y="319.3398">Anfrage: Widerspruchsinformationen zum Einstellen durch E-Rezept-Fachdienst</text><polygon fill="#1E90FF" points="355.5,349.3926,345.5,353.3926,355.5,357.3926,351.5,353.3926" style="stroke:#1E90FF;stroke-width:1.0;"/><line style="stroke:#1E90FF;stroke-width:1.0;stroke-dasharray:2.0,2.0;" x1="349.5" x2="949.5" y1="353.3926" y2="353.3926"/><text fill="#000000" font-family="sans-serif" font-size="13" font-weight="bold" lengthAdjust="spacing" textLength="9" x="361.5" y="348.6504">6</text><text fill="#000000" font-family="sans-serif" font-size="13" lengthAdjust="spacing" textLength="232" x="374.5" y="348.6504">Antwort: Widerspruchsinformationen</text><path d="M225,368.3926 L287,368.3926 L287,375.7031 L277,385.7031 L225,385.7031 L225,368.3926 " fill="#EEEEEE" style="stroke:#000000;stroke-width:1.5;"/><rect fill="none" height="410.8145" style="stroke:#000000;stroke-width:1.5;" width="1242.5" x="225" y="368.3926"/><text fill="#000000" font-family="sans-serif" font-size="13" font-weight="bold" lengthAdjust="spacing" textLength="17" x="240" y="381.9609">alt</text><text fill="#000000" font-family="sans-serif" font-size="11" font-weight="bold" lengthAdjust="spacing" textLength="385" x="302" y="381.0273">[Widerspruch zum Einstellen durch E-Rezept-Fachdienst vorhanden]</text><line style="stroke:#1E90FF;stroke-width:1.0;" x1="344.5" x2="386.5" y1="407.0137" y2="407.0137"/><line style="stroke:#1E90FF;stroke-width:1.0;" x1="386.5" x2="386.5" y1="407.0137" y2="420.0137"/><line style="stroke:#1E90FF;stroke-width:1.0;" x1="345.5" x2="386.5" y1="420.0137" y2="420.0137"/><polygon fill="#1E90FF" points="355.5,416.0137,345.5,420.0137,355.5,424.0137,351.5,420.0137" style="stroke:#1E90FF;stroke-width:1.0;"/><text fill="#000000" font-family="sans-serif" font-size="13" font-weight="bold" lengthAdjust="spacing" textLength="9" x="351.5" y="402.2715">7</text><text fill="#000000" font-family="sans-serif" font-size="13" lengthAdjust="spacing" textLength="401" x="364.5" y="402.2715">Abbruch. L&#246;schen der Verordnungsdaten aus der Warteschlange</text><line style="stroke:#000000;stroke-width:1.0;stroke-dasharray:2.0,2.0;" x1="225" x2="1467.5" y1="429.0137" y2="429.0137"/><text fill="#000000" font-family="sans-serif" font-size="11" font-weight="bold" lengthAdjust="spacing" textLength="351" x="230" y="439.6484">[Kein Widerspruch zum Einstellen durch E-Rezept-Fachdienst]</text><rect fill="none" height="39.4434" style="stroke:#000000;stroke-width:1.5;" width="978" x="242" y="442.9688"/><path d="M242,442.9688 L306,442.9688 L306,449.9688 L296,459.9688 L242,459.9688 L242,442.9688 " fill="#EEEEEE" style="stroke:#000000;stroke-width:2.0;"/><text fill="#000000" font-family="sans-serif" font-size="13" font-weight="bold" lengthAdjust="spacing" textLength="19" x="255" y="457.5371">ref</text><text fill="#000000" font-family="sans-serif" font-size="12" lengthAdjust="spacing" textLength="197" x="632.5" y="475.5703">Login in die Akte des Versicherten</text><line style="stroke:#1E90FF;stroke-width:1.0;" x1="344.5" x2="386.5" y1="524.0332" y2="524.0332"/><line style="stroke:#1E90FF;stroke-width:1.0;" x1="386.5" x2="386.5" y1="524.0332" y2="537.0332"/><line style="stroke:#1E90FF;stroke-width:1.0;" x1="345.5" x2="386.5" y1="537.0332" y2="537.0332"/><polygon fill="#1E90FF" points="355.5,533.0332,345.5,537.0332,355.5,541.0332,351.5,537.0332" style="stroke:#1E90FF;stroke-width:1.0;"/><text fill="#000000" font-family="sans-serif" font-size="13" font-weight="bold" lengthAdjust="spacing" textLength="9" x="351.5" y="511.6357">8</text><text fill="#000000" font-family="sans-serif" font-size="13" lengthAdjust="spacing" textLength="563" x="364.5" y="503.9805">Erzeugen der FHIR-Ressourcen MedicationRequest, Medication, Practitioner, Organization</text><text fill="#000000" font-family="sans-serif" font-size="13" lengthAdjust="spacing" textLength="468" x="364.5" y="519.291">auf Grundlage der Verordnungsdaten sowie rxPrescriptionProcessIdentifier</text><polygon fill="#1E90FF" points="1305.5,562.3438,1315.5,566.3438,1305.5,570.3438,1309.5,566.3438" style="stroke:#1E90FF;stroke-width:1.0;"/><line style="stroke:#1E90FF;stroke-width:1.0;" x1="344.5" x2="1311.5" y1="566.3438" y2="566.3438"/><text fill="#000000" font-family="sans-serif" font-size="13" font-weight="bold" lengthAdjust="spacing" textLength="9" x="351.5" y="561.6016">9</text><text fill="#000000" font-family="sans-serif" font-size="13" lengthAdjust="spacing" textLength="504" x="364.5" y="561.6016">&#220;bermittlung der erzeugten FHIR-Ressourcen als FHIR Operation per HTTP POST</text><line style="stroke:#1E90FF;stroke-width:1.0;" x1="1317.5" x2="1359.5" y1="610.9648" y2="610.9648"/><line style="stroke:#1E90FF;stroke-width:1.0;" x1="1359.5" x2="1359.5" y1="610.9648" y2="623.9648"/><line style="stroke:#1E90FF;stroke-width:1.0;" x1="1318.5" x2="1359.5" y1="623.9648" y2="623.9648"/><polygon fill="#1E90FF" points="1328.5,619.9648,1318.5,623.9648,1328.5,627.9648,1324.5,623.9648" style="stroke:#1E90FF;stroke-width:1.0;"/><text fill="#000000" font-family="sans-serif" font-size="13" font-weight="bold" lengthAdjust="spacing" textLength="18" x="1324.5" y="598.5674">10</text><text fill="#000000" font-family="sans-serif" font-size="13" lengthAdjust="spacing" textLength="109" x="1346.5" y="590.9121">FHIR-Ressourcen</text><text fill="#000000" font-family="sans-serif" font-size="13" lengthAdjust="spacing" textLength="74" x="1346.5" y="606.2227">persistieren</text><path d="M235,638.9648 L297,638.9648 L297,646.2754 L287,656.2754 L235,656.2754 L235,638.9648 " fill="#EEEEEE" style="stroke:#000000;stroke-width:1.5;"/><rect fill="none" height="133.2422" style="stroke:#000000;stroke-width:1.5;" width="1183" x="235" y="638.9648"/><text fill="#000000" font-family="sans-serif" font-size="13" font-weight="bold" lengthAdjust="spacing" textLength="17" x="250" y="652.5332">alt</text><text fill="#000000" font-family="sans-serif" font-size="11" font-weight="bold" lengthAdjust="spacing" textLength="95" x="312" y="651.5996">[successful case]</text><polygon fill="#1E90FF" points="355.5,673.5859,345.5,677.5859,355.5,681.5859,351.5,677.5859" style="stroke:#1E90FF;stroke-width:1.0;"/><line style="stroke:#1E90FF;stroke-width:1.0;stroke-dasharray:2.0,2.0;" x1="349.5" x2="1316.5" y1="677.5859" y2="677.5859"/><text fill="#000000" font-family="sans-serif" font-size="13" font-weight="bold" lengthAdjust="spacing" textLength="18" x="361.5" y="672.8438">11</text><text fill="#000000" font-family="sans-serif" font-size="13" lengthAdjust="spacing" textLength="205" x="383.5" y="672.8438">Antwort: Transaktion erfolgreich</text><line style="stroke:#1E90FF;stroke-width:1.0;" x1="344.5" x2="386.5" y1="706.8965" y2="706.8965"/><line style="stroke:#1E90FF;stroke-width:1.0;" x1="386.5" x2="386.5" y1="706.8965" y2="719.8965"/><line style="stroke:#1E90FF;stroke-width:1.0;" x1="345.5" x2="386.5" y1="719.8965" y2="719.8965"/><polygon fill="#1E90FF" points="355.5,715.8965,345.5,719.8965,355.5,723.8965,351.5,719.8965" style="stroke:#1E90FF;stroke-width:1.0;"/><text fill="#000000" font-family="sans-serif" font-size="13" font-weight="bold" lengthAdjust="spacing" textLength="18" x="351.5" y="702.1543">12</text><text fill="#000000" font-family="sans-serif" font-size="13" lengthAdjust="spacing" textLength="340" x="373.5" y="702.1543">L&#246;schen der Verordnungsdaten aus der Warteschlange</text><line style="stroke:#000000;stroke-width:1.0;stroke-dasharray:2.0,2.0;" x1="235" x2="1418" y1="728.8965" y2="728.8965"/><line style="stroke:#1E90FF;stroke-width:1.0;" x1="344.5" x2="386.5" y1="751.207" y2="751.207"/><line style="stroke:#1E90FF;stroke-width:1.0;" x1="386.5" x2="386.5" y1="751.207" y2="764.207"/><line style="stroke:#1E90FF;stroke-width:1.0;" x1="345.5" x2="386.5" y1="764.207" y2="764.207"/><polygon fill="#1E90FF" points="355.5,760.207,345.5,764.207,355.5,768.207,351.5,764.207" style="stroke:#1E90FF;stroke-width:1.0;"/><text fill="#000000" font-family="sans-serif" font-size="13" font-weight="bold" lengthAdjust="spacing" textLength="18" x="351.5" y="746.4648">13</text><text fill="#000000" font-family="sans-serif" font-size="13" lengthAdjust="spacing" textLength="570" x="373.5" y="746.4648">Abbruch. Die Verordnungsdaten bleiben in der Warteschlange f&#252;r eine sp&#228;tere &#220;bertragung</text><!--SRC=[dLLDRziu4BtpLmoIQxpzI1PO-530tZYjKNSZHDdauWijZIJ2CgaEgNous7-om5xw6_RKc_zOXvGTovPT5FL9u0pVl7dpEBPpfIj9SW5n8LFpg7GEcImj2liIYIGvbQXAQXV9DFKfRr-tuaFpj3b_yrgq0XO_rwWJX2y2-3SWCez_cj8GN9eqHngMDJQHn1aQ6agH3iOdAiE9qjXE2S4GRV4RocIUawbrsYITdb_ySOwpJbeBvqZAbT4kLak4DnU7GitT-qAvDOccXH-K3mdxg7yPXySk_ID4eLA4p1WtCqz2rixeUZ534gBQie6Jw2v-zN4Sdu2qmD-xmL7l1fTOkTwLJ8fKeROk98vkhYw5O5mumMZG6ymTXvwjmyK9d4vKNhZt99y3oHsyiSuCBQHJHaECzA0I37ZZMA1EmHCzY0glu6xmDsCFKUNOnUKWJ7MCrdhagVuajSnnWRgXwyEdEFiTpo-wTpzXgf8kfL4qs79YOQ3tBhJTXu7EYD7xS8V4Lj2rpcqgcIkilh6-2-KSbbhuvEsbovgI8bjzAuZps3vWdTIff7In-hhwZvlIS6zedfNciJSnkPfp4fFewezsZSpGJClJSO-6N1z6b9ao5tk58oIhh5EuATnXhJGWFmys9Ck2DYbAgNESQcPBm4LPZMUT56GqmkfVxj1n-tnT2C8Cp0FVzANEU8fzc9YvB9NbSfmHwgr5xOrqMjMQPnfEUS30fWtVVj21WlNah4eAhe5wsyauRgb-pxOcMr6T55Pj_SIDBEi5Z9JNg2nzirxoGnAASHpasunphTzHO25awThXdwu43uOAdZDZUD_jJcOmctcmts2o-fzLFpOUMTiGs9cEGDwoy955-oLUpTRP6n-_4Z-_N0LB-C4FccdjZwNRoeYMMEVh3gu-Z6-ufBM6o_FPze7T-9LktLdhw0mYaebJGMawWslAfLRB49jgMMVmdfsKbZpwm_9O_jj1eAU8M1nIbRyOaKcu_fXrTofZB-vIZWRzniZ-gPORdsBemKFkDy3_QE4ChYkaPbFm1toulOqWkevl6tGsz0Py3s2ggzOZRFJpZh9rucbcTGc9jCrQUu7g-lEMfBPo7kfZUEk4F9JjjPsH_8gfF8etrX785yDUik8To5c9QjQiamuoX5tYdpZOQlNLiGwxgoHKrgdmArTy1m00]--></g></svg>