<?xml version="1.0" encoding="us-ascii" standalone="no"?><svg xmlns="http://www.w3.org/2000/svg" xmlns:xlink="http://www.w3.org/1999/xlink" contentStyleType="text/css" height="760px" preserveAspectRatio="none" style="width:1693px;height:760px;background:#FFFFFF;" version="1.1" viewBox="0 0 1693 760" width="1693px" zoomAndPan="magnify"><defs/><g><rect fill="#D3D3D3" height="741.8965" style="stroke:#181818;stroke-width:0.5;" width="195" x="933" y="6"/><text fill="#000000" font-family="sans-serif" font-size="13" font-weight="bold" lengthAdjust="spacing" textLength="122" x="969.5" y="18.5684">ePA-Aktensystem</text><rect fill="#F5F5DC" height="741.8965" style="stroke:#181818;stroke-width:0.5;" width="342" x="1150" y="6"/><text fill="#000000" font-family="sans-serif" font-size="13" font-weight="bold" lengthAdjust="spacing" textLength="166" x="1238" y="18.5684">ePA-Aktensystem / VAU</text><rect fill="none" height="368.5039" style="stroke:#000000;stroke-width:1.5;" width="1457.5" x="229" y="368.3926"/><rect fill="none" height="148.5527" style="stroke:#000000;stroke-width:1.5;" width="1259" x="239" y="581.3438"/><line style="stroke:#0000FF;stroke-width:0.5;stroke-dasharray:5.0,5.0;" x1="45" x2="45" y1="89.7754" y2="753.8965"/><line style="stroke:#0000FF;stroke-width:0.5;stroke-dasharray:5.0,5.0;" x1="348" x2="348" y1="89.7754" y2="753.8965"/><line style="stroke:#0000FF;stroke-width:0.5;stroke-dasharray:5.0,5.0;" x1="1030" x2="1030" y1="89.7754" y2="753.8965"/><line style="stroke:#0000FF;stroke-width:0.5;stroke-dasharray:5.0,5.0;" x1="1225" x2="1225" y1="89.7754" y2="753.8965"/><line style="stroke:#0000FF;stroke-width:0.5;stroke-dasharray:5.0,5.0;" x1="1397" x2="1397" y1="89.7754" y2="753.8965"/><rect fill="#3483EB" height="30.4883" rx="2.5" ry="2.5" style="stroke:#3483EB;stroke-width:0.5;" width="41" x="25" y="58.2871"/><text fill="#FFFFFF" font-family="sans-serif" font-size="14" lengthAdjust="spacing" textLength="27" x="32" y="78.8223">AVS</text><rect fill="#3483EB" height="30.4883" rx="2.5" ry="2.5" style="stroke:#3483EB;stroke-width:0.5;" width="159" x="269" y="58.2871"/><text fill="#FFFFFF" font-family="sans-serif" font-size="14" lengthAdjust="spacing" textLength="145" x="276" y="78.8223">E-Rezept-Fachdienst</text><rect fill="#3483EB" height="30.4883" rx="2.5" ry="2.5" style="stroke:#3483EB;stroke-width:0.5;" width="147" x="957" y="58.2871"/><text fill="#FFFFFF" font-family="sans-serif" font-size="14" lengthAdjust="spacing" textLength="133" x="964" y="78.8223">Information Service</text><rect fill="#EB5E34" height="63.4648" rx="2.5" ry="2.5" style="stroke:#3483EB;stroke-width:0.5;" width="103" x="1174" y="25.3105"/><text fill="#FFFFFF" font-family="sans-serif" font-size="14" lengthAdjust="spacing" textLength="29" x="1209" y="45.8457">VAU</text><text fill="#FFFFFF" font-family="sans-serif" font-size="14" lengthAdjust="spacing" textLength="52" x="1197.5" y="62.334">Session</text><text fill="#FFFFFF" font-family="sans-serif" font-size="14" lengthAdjust="spacing" textLength="89" x="1181" y="78.8223">Management</text><rect fill="#3483EB" height="30.4883" rx="2.5" ry="2.5" style="stroke:#3483EB;stroke-width:0.5;" width="141" x="1327" y="58.2871"/><text fill="#FFFFFF" font-family="sans-serif" font-size="14" lengthAdjust="spacing" textLength="127" x="1334" y="78.8223">Medication Service</text><polygon fill="#1E90FF" points="336.5,117.0859,346.5,121.0859,336.5,125.0859,340.5,121.0859" style="stroke:#1E90FF;stroke-width:1.0;"/><line style="stroke:#1E90FF;stroke-width:1.0;" x1="45.5" x2="342.5" y1="121.0859" y2="121.0859"/><text fill="#000000" font-family="sans-serif" font-size="13" font-weight="bold" lengthAdjust="spacing" textLength="9" x="52.5" y="116.3438">1</text><text fill="#000000" font-family="sans-serif" font-size="13" lengthAdjust="spacing" textLength="266" x="65.5" y="116.3438">Anfrage: Dispensierinformationen l&#246;schen</text><line style="stroke:#1E90FF;stroke-width:1.0;" x1="348.5" x2="390.5" y1="150.3965" y2="150.3965"/><line style="stroke:#1E90FF;stroke-width:1.0;" x1="390.5" x2="390.5" y1="150.3965" y2="163.3965"/><line style="stroke:#1E90FF;stroke-width:1.0;" x1="349.5" x2="390.5" y1="163.3965" y2="163.3965"/><polygon fill="#1E90FF" points="359.5,159.3965,349.5,163.3965,359.5,167.3965,355.5,163.3965" style="stroke:#1E90FF;stroke-width:1.0;"/><text fill="#000000" font-family="sans-serif" font-size="13" font-weight="bold" lengthAdjust="spacing" textLength="9" x="355.5" y="145.6543">2</text><text fill="#000000" font-family="sans-serif" font-size="13" lengthAdjust="spacing" textLength="492" x="368.5" y="145.6543">Durchf&#252;hren der standardisierten Workflow-Logik des E-Rezept-Fachdienstes</text><polygon fill="#1E90FF" points="56.5,188.707,46.5,192.707,56.5,196.707,52.5,192.707" style="stroke:#1E90FF;stroke-width:1.0;"/><line style="stroke:#1E90FF;stroke-width:1.0;stroke-dasharray:2.0,2.0;" x1="50.5" x2="347.5" y1="192.707" y2="192.707"/><text fill="#000000" font-family="sans-serif" font-size="13" font-weight="bold" lengthAdjust="spacing" textLength="9" x="62.5" y="187.9648">3</text><text fill="#000000" font-family="sans-serif" font-size="13" lengthAdjust="spacing" textLength="95" x="75.5" y="187.9648">Antwort: Erfolg</text><line style="stroke:#1E90FF;stroke-width:1.0;" x1="348.5" x2="390.5" y1="237.3281" y2="237.3281"/><line style="stroke:#1E90FF;stroke-width:1.0;" x1="390.5" x2="390.5" y1="237.3281" y2="250.3281"/><line style="stroke:#1E90FF;stroke-width:1.0;" x1="349.5" x2="390.5" y1="250.3281" y2="250.3281"/><polygon fill="#1E90FF" points="359.5,246.3281,349.5,250.3281,359.5,254.3281,355.5,250.3281" style="stroke:#1E90FF;stroke-width:1.0;"/><text fill="#000000" font-family="sans-serif" font-size="13" font-weight="bold" lengthAdjust="spacing" textLength="9" x="355.5" y="224.9307">4</text><text fill="#000000" font-family="sans-serif" font-size="13" lengthAdjust="spacing" textLength="635" x="368.5" y="217.2754">Persistieren der Resource ID der zu stornierenden Dispensierinformationen (aus MedicationDispense)</text><text fill="#000000" font-family="sans-serif" font-size="13" lengthAdjust="spacing" textLength="345" x="368.5" y="232.5859">in einer Warteschlange f&#252;r die asynchrone &#220;bertragung</text><rect fill="none" height="39.4434" style="stroke:#000000;stroke-width:1.5;" width="881" x="246" y="258.3281"/><path d="M246,258.3281 L310,258.3281 L310,265.3281 L300,275.3281 L246,275.3281 L246,258.3281 " fill="#EEEEEE" style="stroke:#000000;stroke-width:2.0;"/><text fill="#000000" font-family="sans-serif" font-size="13" font-weight="bold" lengthAdjust="spacing" textLength="19" x="259" y="272.8965">ref</text><text fill="#000000" font-family="sans-serif" font-size="12" lengthAdjust="spacing" textLength="452" x="460.5" y="290.9297">Lokalisierung der Service-Endpunkte der ePA und der Akte eines Versicherten</text><polygon fill="#1E90FF" points="1018.5,320.082,1028.5,324.082,1018.5,328.082,1022.5,324.082" style="stroke:#1E90FF;stroke-width:1.0;"/><line style="stroke:#1E90FF;stroke-width:1.0;" x1="348.5" x2="1024.5" y1="324.082" y2="324.082"/><text fill="#000000" font-family="sans-serif" font-size="13" font-weight="bold" lengthAdjust="spacing" textLength="9" x="355.5" y="319.3398">5</text><text fill="#000000" font-family="sans-serif" font-size="13" lengthAdjust="spacing" textLength="504" x="368.5" y="319.3398">Anfrage: Widerspruchsinformationen zum Einstellen durch E-Rezept-Fachdienst</text><polygon fill="#1E90FF" points="359.5,349.3926,349.5,353.3926,359.5,357.3926,355.5,353.3926" style="stroke:#1E90FF;stroke-width:1.0;"/><line style="stroke:#1E90FF;stroke-width:1.0;stroke-dasharray:2.0,2.0;" x1="353.5" x2="1029.5" y1="353.3926" y2="353.3926"/><text fill="#000000" font-family="sans-serif" font-size="13" font-weight="bold" lengthAdjust="spacing" textLength="9" x="365.5" y="348.6504">6</text><text fill="#000000" font-family="sans-serif" font-size="13" lengthAdjust="spacing" textLength="232" x="378.5" y="348.6504">Antwort: Widerspruchsinformationen</text><path d="M229,368.3926 L291,368.3926 L291,375.7031 L281,385.7031 L229,385.7031 L229,368.3926 " fill="#EEEEEE" style="stroke:#000000;stroke-width:1.5;"/><rect fill="none" height="368.5039" style="stroke:#000000;stroke-width:1.5;" width="1457.5" x="229" y="368.3926"/><text fill="#000000" font-family="sans-serif" font-size="13" font-weight="bold" lengthAdjust="spacing" textLength="17" x="244" y="381.9609">alt</text><text fill="#000000" font-family="sans-serif" font-size="11" font-weight="bold" lengthAdjust="spacing" textLength="385" x="306" y="381.0273">[Widerspruch zum Einstellen durch E-Rezept-Fachdienst vorhanden]</text><line style="stroke:#1E90FF;stroke-width:1.0;" x1="348.5" x2="390.5" y1="407.0137" y2="407.0137"/><line style="stroke:#1E90FF;stroke-width:1.0;" x1="390.5" x2="390.5" y1="407.0137" y2="420.0137"/><line style="stroke:#1E90FF;stroke-width:1.0;" x1="349.5" x2="390.5" y1="420.0137" y2="420.0137"/><polygon fill="#1E90FF" points="359.5,416.0137,349.5,420.0137,359.5,424.0137,355.5,420.0137" style="stroke:#1E90FF;stroke-width:1.0;"/><text fill="#000000" font-family="sans-serif" font-size="13" font-weight="bold" lengthAdjust="spacing" textLength="9" x="355.5" y="402.2715">7</text><text fill="#000000" font-family="sans-serif" font-size="13" lengthAdjust="spacing" textLength="655" x="368.5" y="402.2715">Abbruch. L&#246;schen der Resource ID der zu stornierenden Dispensierinformationen aus der Warteschlange</text><line style="stroke:#000000;stroke-width:1.0;stroke-dasharray:2.0,2.0;" x1="229" x2="1686.5" y1="429.0137" y2="429.0137"/><text fill="#000000" font-family="sans-serif" font-size="11" font-weight="bold" lengthAdjust="spacing" textLength="351" x="234" y="439.6484">[Kein Widerspruch zum Einstellen durch E-Rezept-Fachdienst]</text><rect fill="none" height="39.4434" style="stroke:#000000;stroke-width:1.5;" width="1054" x="246" y="442.9688"/><path d="M246,442.9688 L310,442.9688 L310,449.9688 L300,459.9688 L246,459.9688 L246,442.9688 " fill="#EEEEEE" style="stroke:#000000;stroke-width:2.0;"/><text fill="#000000" font-family="sans-serif" font-size="13" font-weight="bold" lengthAdjust="spacing" textLength="19" x="259" y="457.5371">ref</text><text fill="#000000" font-family="sans-serif" font-size="12" lengthAdjust="spacing" textLength="197" x="674.5" y="475.5703">Login in die Akte des Versicherten</text><polygon fill="#1E90FF" points="1385.5,504.7227,1395.5,508.7227,1385.5,512.7227,1389.5,508.7227" style="stroke:#1E90FF;stroke-width:1.0;"/><line style="stroke:#1E90FF;stroke-width:1.0;" x1="348.5" x2="1391.5" y1="508.7227" y2="508.7227"/><text fill="#000000" font-family="sans-serif" font-size="13" font-weight="bold" lengthAdjust="spacing" textLength="9" x="355.5" y="503.9805">8</text><text fill="#000000" font-family="sans-serif" font-size="13" lengthAdjust="spacing" textLength="542" x="368.5" y="503.9805">&#220;bermittlung des rxPrescriptionProcessIdentifier in der FHIR Operation per HTTP POST</text><line style="stroke:#1E90FF;stroke-width:1.0;" x1="1397.5" x2="1439.5" y1="553.3438" y2="553.3438"/><line style="stroke:#1E90FF;stroke-width:1.0;" x1="1439.5" x2="1439.5" y1="553.3438" y2="566.3438"/><line style="stroke:#1E90FF;stroke-width:1.0;" x1="1398.5" x2="1439.5" y1="566.3438" y2="566.3438"/><polygon fill="#1E90FF" points="1408.5,562.3438,1398.5,566.3438,1408.5,570.3438,1404.5,566.3438" style="stroke:#1E90FF;stroke-width:1.0;"/><text fill="#000000" font-family="sans-serif" font-size="13" font-weight="bold" lengthAdjust="spacing" textLength="9" x="1404.5" y="540.9463">9</text><text fill="#000000" font-family="sans-serif" font-size="13" lengthAdjust="spacing" textLength="257" x="1417.5" y="533.291">MedicationDispense.status = "cancelled"</text><text fill="#000000" font-family="sans-serif" font-size="13" lengthAdjust="spacing" textLength="81" x="1417.5" y="548.6016">aktualisieren</text><path d="M239,581.3438 L301,581.3438 L301,588.6543 L291,598.6543 L239,598.6543 L239,581.3438 " fill="#EEEEEE" style="stroke:#000000;stroke-width:1.5;"/><rect fill="none" height="148.5527" style="stroke:#000000;stroke-width:1.5;" width="1259" x="239" y="581.3438"/><text fill="#000000" font-family="sans-serif" font-size="13" font-weight="bold" lengthAdjust="spacing" textLength="17" x="254" y="594.9121">alt</text><text fill="#000000" font-family="sans-serif" font-size="11" font-weight="bold" lengthAdjust="spacing" textLength="95" x="316" y="593.9785">[successful case]</text><polygon fill="#1E90FF" points="359.5,615.9648,349.5,619.9648,359.5,623.9648,355.5,619.9648" style="stroke:#1E90FF;stroke-width:1.0;"/><line style="stroke:#1E90FF;stroke-width:1.0;stroke-dasharray:2.0,2.0;" x1="353.5" x2="1396.5" y1="619.9648" y2="619.9648"/><text fill="#000000" font-family="sans-serif" font-size="13" font-weight="bold" lengthAdjust="spacing" textLength="18" x="365.5" y="615.2227">10</text><text fill="#000000" font-family="sans-serif" font-size="13" lengthAdjust="spacing" textLength="205" x="387.5" y="615.2227">Antwort: Transaktion erfolgreich</text><line style="stroke:#1E90FF;stroke-width:1.0;" x1="348.5" x2="390.5" y1="649.2754" y2="649.2754"/><line style="stroke:#1E90FF;stroke-width:1.0;" x1="390.5" x2="390.5" y1="649.2754" y2="662.2754"/><line style="stroke:#1E90FF;stroke-width:1.0;" x1="349.5" x2="390.5" y1="662.2754" y2="662.2754"/><polygon fill="#1E90FF" points="359.5,658.2754,349.5,662.2754,359.5,666.2754,355.5,662.2754" style="stroke:#1E90FF;stroke-width:1.0;"/><text fill="#000000" font-family="sans-serif" font-size="13" font-weight="bold" lengthAdjust="spacing" textLength="18" x="355.5" y="644.5332">11</text><text fill="#000000" font-family="sans-serif" font-size="13" lengthAdjust="spacing" textLength="594" x="377.5" y="644.5332">L&#246;schen der Resource ID der zu stornierenden Dispensierinformationen aus der Warteschlange</text><line style="stroke:#000000;stroke-width:1.0;stroke-dasharray:2.0,2.0;" x1="239" x2="1498" y1="671.2754" y2="671.2754"/><line style="stroke:#1E90FF;stroke-width:1.0;" x1="348.5" x2="390.5" y1="708.8965" y2="708.8965"/><line style="stroke:#1E90FF;stroke-width:1.0;" x1="390.5" x2="390.5" y1="708.8965" y2="721.8965"/><line style="stroke:#1E90FF;stroke-width:1.0;" x1="349.5" x2="390.5" y1="721.8965" y2="721.8965"/><polygon fill="#1E90FF" points="359.5,717.8965,349.5,721.8965,359.5,725.8965,355.5,721.8965" style="stroke:#1E90FF;stroke-width:1.0;"/><text fill="#000000" font-family="sans-serif" font-size="13" font-weight="bold" lengthAdjust="spacing" textLength="18" x="355.5" y="696.499">12</text><text fill="#000000" font-family="sans-serif" font-size="13" lengthAdjust="spacing" textLength="630" x="377.5" y="688.8438">Abbruch. Die Resource ID der zu stornierenden Dispensierinformationen bleibt in der Warteschlange</text><text fill="#000000" font-family="sans-serif" font-size="13" lengthAdjust="spacing" textLength="180" x="377.5" y="704.1543">f&#252;r eine sp&#228;tere &#220;bertragung</text><!--SRC=[jLLDZzis4BtpLmoybnQeqwIx1G83BI3NtiQeamYhxUx55reSIOHbKXrI-rNqd_IOtz1JRlvZ7LBs-cjT52bg6B3i6RvvC-yDxHRQD9Ba4h9AAdklJGc5h1qAznn99NcTwqOQdqgbGifthtVYG_km-VtDQx4JSFXRYoP7-5q0ln8YU_-JhIt1oAeIQLYts4LoRsbeII6z69_g0gVQu6vA3CRe3h-Xp1SbsTQeBkdi_EBjESwFqdPmJgHSMkCp_OJmvkAbK7Vsjj9-JQ9huH_AnuH3r0_Muwb3VmXHQOLGMEldza78rblJBkT8GZHRDj1BRh8UI0VfJROV6FUly0aRtx-KUQKq6kTZulZgSYG4Oq8FqwIVB3o77ft7PG_Efhgi_Cya7oF1FRo9AImjfTVMG8PqftECU9DCe54GIBw82j_2JV8hOmzHbtYCoq6OcGoT2yWpyruQMU8IJKStXCzm_ZsUNnoVVOzAvyUKnccovSI3WVwFiUq19AOWHX_0IBk66MealUqB3TIhlrnUeH4XVtjkr59U5QlF5N4EkmUSbqP9KZf0SAzmQsbHrFQ-FxMbNd0EqpXM0DqQc96PM23axotv0Oofi7Kf3kgcI4uxppNMTQ_GMUQ2C1d5xqyjKx5aOeRYf5EDVILR1zjvhTFmwvdH1f3NYmtDeqNklfQcPEUjFXCmQnxeeyahOXHO_Sa6z3p1rZ1LmWBi7HyCNBzX8mnWQXUoZZFXZ4XmhKj_R5JJ6hP5_9Kz0kpv-1oy4XcmsA5T7d-Ow7OKasn7k5lU2d8DjNdbzZjyQfSmrc78THsc5IHxIGCnoUByDuvO2t0IM0XP-ztmlwu4TvOg6MI9rjsNDfdF0zWhcAujzz_q3VAgGn45ycKEl_1mluX_TxaToCmB6NGk6PFVmI19f-gXV7ijfycWSyzIUrztvd103oanMT9Dw28bc_CrCE4slIwumrY0FoxVJQxWOuFKhJe_mBlhwnJIZzbrLuRjjAboxF5NlAoUn_C3z7B9_qZSjEhDZ5puTctM3TqWj6lpmA9eQyYbwowivnh7jhacQHn31M8OTvYGPx0zjYVw_wbrg1RqFb7wsMyZbkoBIyzhr7E_4MQFmCp4AoDiChXczSaprlwD4HaQ9SBbBFu6]--></g></svg>