<?xml version="1.0" encoding="us-ascii" standalone="no"?><svg xmlns="http://www.w3.org/2000/svg" xmlns:xlink="http://www.w3.org/1999/xlink" contentStyleType="text/css" height="855px" preserveAspectRatio="none" style="width:1914px;height:855px;background:#FFFFFF;" version="1.1" viewBox="0 0 1914 855" width="1914px" zoomAndPan="magnify"><defs/><g><g id="elem_Practitioner"><rect fill="#696969" height="48.2656" rx="5" ry="5" style="stroke:#000000;stroke-width:0.5;" width="142" x="603" y="132.33"/><text fill="#FFFFFF" font-family="sans-serif" font-size="12" lengthAdjust="spacing" textLength="36" x="656" y="145.9316">&#171;Arzt&#187;</text><text fill="#FFFFFF" font-family="sans-serif" font-size="12" font-weight="bold" lengthAdjust="spacing" textLength="128" x="610" y="160.0644">PractitionerDirectory</text><line style="stroke:#000000;stroke-width:0.5;" x1="604" x2="744" y1="164.5956" y2="164.5956"/></g><g id="elem_Organization"><rect fill="#696969" height="48.2656" rx="5" ry="5" style="stroke:#000000;stroke-width:0.5;" width="152" x="416" y="132.33"/><text fill="#FFFFFF" font-family="sans-serif" font-size="12" lengthAdjust="spacing" textLength="84" x="450" y="145.9316">&#171;Organisation&#187;</text><text fill="#FFFFFF" font-family="sans-serif" font-size="12" font-weight="bold" lengthAdjust="spacing" textLength="138" x="423" y="160.0644">OrganizationDirectory</text><line style="stroke:#000000;stroke-width:0.5;" x1="417" x2="567" y1="164.5956" y2="164.5956"/></g><g id="elem_DispenserOrganization"><rect fill="#696969" height="48.2656" rx="5" ry="5" style="stroke:#000000;stroke-width:0.5;" width="152" x="1405" y="132.33"/><text fill="#FFFFFF" font-family="sans-serif" font-size="12" lengthAdjust="spacing" textLength="67" x="1447.5" y="145.9316">&#171;Apotheke&#187;</text><text fill="#FFFFFF" font-family="sans-serif" font-size="12" font-weight="bold" lengthAdjust="spacing" textLength="138" x="1412" y="160.0644">OrganizationDirectory</text><line style="stroke:#000000;stroke-width:0.5;" x1="1406" x2="1556" y1="164.5956" y2="164.5956"/></g><g id="elem_PractitionerRole"><rect fill="#696969" height="34.1328" rx="5" ry="5" style="stroke:#000000;stroke-width:0.5;" width="104" x="743" y="257.66"/><text fill="#FFFFFF" font-family="sans-serif" font-size="12" lengthAdjust="spacing" textLength="90" x="750" y="271.2616">PractitionerRole</text><line style="stroke:#000000;stroke-width:0.5;" x1="744" x2="846" y1="275.7928" y2="275.7928"/></g><g id="elem_Observation"><rect fill="#20B2AA" height="139.1953" rx="5" ry="5" style="stroke:#000000;stroke-width:0.5;" width="380" x="7" y="581.85"/><text fill="#000000" font-family="sans-serif" font-size="12" lengthAdjust="spacing" textLength="253" x="70.5" y="595.4516">&#171;K&#246;rpergr&#246;&#223;e (EPAObservationBodyHeight)&#187;</text><text fill="#000000" font-family="sans-serif" font-size="12" lengthAdjust="spacing" textLength="260" x="67" y="609.5844">&#171;K&#246;rpergewicht(EPAObservationBodyWeight)&#187;</text><text fill="#000000" font-family="sans-serif" font-size="12" lengthAdjust="spacing" textLength="281" x="56.5" y="623.7172">&#171;Stillstatus (EPAObservationBreastfeedingStatus)&#187;</text><text fill="#000000" font-family="sans-serif" font-size="12" lengthAdjust="spacing" textLength="292" x="51" y="637.85">&#171;Serumkreatinin-Wert (EPAObservationCreatinine)&#187;</text><text fill="#000000" font-family="sans-serif" font-size="12" lengthAdjust="spacing" textLength="343" x="25.5" y="651.9828">&#171;Schwangerschaftsstatus (EPAObservationPregnancyStatus)&#187;</text><text fill="#000000" font-family="sans-serif" font-size="12" lengthAdjust="spacing" textLength="366" x="14" y="666.1156">&#171;Entbindungstermin (EPAObservationEstimatedDateOfDelivery)&#187;</text><text fill="#000000" font-family="sans-serif" font-size="12" lengthAdjust="spacing" textLength="326" x="34" y="680.2484">&#171;Glomerul&#228;re Filtrationsrate (GFR) (EPAObservationGFR)&#187;</text><text fill="#000000" font-family="sans-serif" font-size="12" font-weight="bold" lengthAdjust="spacing" textLength="99" x="147.5" y="694.3812">EPAObservation</text><line style="stroke:#000000;stroke-width:0.5;" x1="8" x2="386" y1="698.9125" y2="698.9125"/><ellipse cx="18" cy="711.4789" fill="#84BE84" rx="3" ry="3" style="stroke:#038048;stroke-width:1.0;"/><text fill="#000000" font-family="sans-serif" font-size="12" lengthAdjust="spacing" textLength="223" x="27" y="714.5141">performer: Reference(PractitionerRole)</text></g><g id="elem_ManagementNote"><rect fill="#20B2AA" height="54.3984" rx="5" ry="5" style="stroke:#000000;stroke-width:0.5;" width="290" x="422" y="624.25"/><text fill="#000000" font-family="sans-serif" font-size="12" lengthAdjust="spacing" textLength="148" x="493" y="637.8516">&#171;&#220;bergreifender Hinweis&#187;</text><text fill="#000000" font-family="sans-serif" font-size="12" font-weight="bold" lengthAdjust="spacing" textLength="276" x="429" y="651.9844">EPAObservationMedicationManagementNote</text><line style="stroke:#000000;stroke-width:0.5;" x1="423" x2="711" y1="656.5156" y2="656.5156"/><ellipse cx="433" cy="669.082" fill="#84BE84" rx="3" ry="3" style="stroke:#038048;stroke-width:1.0;"/><text fill="#000000" font-family="sans-serif" font-size="12" lengthAdjust="spacing" textLength="223" x="442" y="672.1172">performer: Reference(PractitionerRole)</text></g><g id="elem_AllergyIntolerance"><rect fill="#20B2AA" height="68.5313" rx="5" ry="5" style="stroke:#000000;stroke-width:0.5;" width="240" x="747" y="617.19"/><text fill="#000000" font-family="sans-serif" font-size="12" lengthAdjust="spacing" textLength="147" x="793.5" y="630.7916">&#171;Allergie oder Intoleranz&#187;</text><text fill="#000000" font-family="sans-serif" font-size="12" font-weight="bold" lengthAdjust="spacing" textLength="136" x="799" y="644.9244">EPAAllergyIntolerance</text><line style="stroke:#000000;stroke-width:0.5;" x1="748" x2="986" y1="649.4556" y2="649.4556"/><ellipse cx="758" cy="662.022" fill="#84BE84" rx="3" ry="3" style="stroke:#038048;stroke-width:1.0;"/><text fill="#000000" font-family="sans-serif" font-size="12" lengthAdjust="spacing" textLength="153" x="767" y="665.0572">patient: Reference(Patient)</text><ellipse cx="758" cy="676.1548" fill="#84BE84" rx="3" ry="3" style="stroke:#038048;stroke-width:1.0;"/><text fill="#000000" font-family="sans-serif" font-size="12" lengthAdjust="spacing" textLength="214" x="767" y="679.19">recorder: Reference(PractitionerRole)</text></g><g id="elem_Provenance"><rect fill="#20B2AA" height="129.0625" rx="5" ry="5" style="stroke:#000000;stroke-width:0.5;" width="334" x="400" y="365.79"/><text fill="#000000" font-family="sans-serif" font-size="12" lengthAdjust="spacing" textLength="120" x="507" y="379.3916">&#171;Herkunftsnachweis&#187;</text><text fill="#000000" font-family="sans-serif" font-size="12" lengthAdjust="spacing" textLength="85" x="524.5" y="393.5244">&#171;Verifizierung&#187;</text><text fill="#000000" font-family="sans-serif" font-size="12" font-weight="bold" lengthAdjust="spacing" textLength="93" x="520.5" y="407.6572">EPAProvenance</text><line style="stroke:#000000;stroke-width:0.5;" x1="401" x2="733" y1="412.1884" y2="412.1884"/><ellipse cx="411" cy="424.7548" fill="none" rx="3" ry="3" style="stroke:#038048;stroke-width:1.0;"/><text fill="#000000" font-family="sans-serif" font-size="12" lengthAdjust="spacing" textLength="162" x="420" y="427.79">activity = CREATE | UPDATE</text><ellipse cx="411" cy="438.8877" fill="none" rx="3" ry="3" style="stroke:#038048;stroke-width:1.0;"/><text fill="#000000" font-family="sans-serif" font-size="12" lengthAdjust="spacing" textLength="308" x="420" y="441.9228">agent.type = enterer | performer | author | informant</text><ellipse cx="411" cy="471.1533" fill="none" rx="3" ry="3" style="stroke:#038048;stroke-width:1.0;"/><text fill="#000000" font-family="sans-serif" font-size="12" lengthAdjust="spacing" textLength="79" x="420" y="474.1884">activity = VRF</text><ellipse cx="411" cy="485.2861" fill="none" rx="3" ry="3" style="stroke:#038048;stroke-width:1.0;"/><text fill="#000000" font-family="sans-serif" font-size="12" lengthAdjust="spacing" textLength="119" x="420" y="488.3212">agent.type = verifier</text><line style="stroke:#000000;stroke-width:1.0;" x1="401" x2="560" y1="455.5205" y2="455.5205"/><text fill="#000000" font-family="sans-serif" font-size="12" lengthAdjust="spacing" textLength="14" x="560" y="459.5556">--</text><line style="stroke:#000000;stroke-width:1.0;" x1="574" x2="733" y1="455.5205" y2="455.5205"/></g><g id="elem_MedicationStatement"><rect fill="#20B2AA" height="68.5313" rx="5" ry="5" style="stroke:#000000;stroke-width:0.5;" width="293" x="888.5" y="396.06"/><text fill="#000000" font-family="sans-serif" font-size="12" lengthAdjust="spacing" textLength="186" x="942" y="409.6616">&#171;Medikamentzusatzinformation&#187;</text><text fill="#000000" font-family="sans-serif" font-size="12" font-weight="bold" lengthAdjust="spacing" textLength="154" x="958" y="423.7944">EPAMedicationStatement</text><line style="stroke:#000000;stroke-width:0.5;" x1="889.5" x2="1180.5" y1="428.3256" y2="428.3256"/><ellipse cx="899.5" cy="440.892" fill="#84BE84" rx="3" ry="3" style="stroke:#038048;stroke-width:1.0;"/><text fill="#000000" font-family="sans-serif" font-size="12" lengthAdjust="spacing" textLength="155" x="908.5" y="443.9272">subject: Reference(Patient)</text><ellipse cx="899.5" cy="455.0248" fill="#84BE84" rx="3" ry="3" style="stroke:#038048;stroke-width:1.0;"/><text fill="#000000" font-family="sans-serif" font-size="12" lengthAdjust="spacing" textLength="267" x="908.5" y="458.06">informationSource: Reference(PractitionerRole)</text></g><g id="elem_PlanMedication"><rect fill="#20B2AA" height="48.2656" rx="5" ry="5" style="stroke:#000000;stroke-width:0.5;" width="105" x="1329.5" y="406.19"/><text fill="#000000" font-family="sans-serif" font-size="12" lengthAdjust="spacing" textLength="83" x="1340.5" y="419.7916">&#171;Medikament&#187;</text><text fill="#000000" font-family="sans-serif" font-size="12" font-weight="bold" lengthAdjust="spacing" textLength="91" x="1336.5" y="433.9244">EPAMedication</text><line style="stroke:#000000;stroke-width:0.5;" x1="1330.5" x2="1433.5" y1="438.4556" y2="438.4556"/></g><g id="elem_Medication"><rect fill="#8FBC8F" height="48.2656" rx="5" ry="5" style="stroke:#000000;stroke-width:0.5;" width="186" x="841" y="7"/><text fill="#000000" font-family="sans-serif" font-size="12" lengthAdjust="spacing" textLength="172" x="848" y="20.6016">&#171;verschriebenes Arzneimittel&#187;</text><text fill="#000000" font-family="sans-serif" font-size="12" font-weight="bold" lengthAdjust="spacing" textLength="91" x="888.5" y="34.7344">EPAMedication</text><line style="stroke:#000000;stroke-width:0.5;" x1="842" x2="1026" y1="39.2656" y2="39.2656"/></g><g id="elem_MedicationRequest"><rect fill="#8FBC8F" height="54.3984" rx="5" ry="5" style="stroke:#000000;stroke-width:0.5;" width="181" x="779.5" y="129.26"/><text fill="#000000" font-family="sans-serif" font-size="12" lengthAdjust="spacing" textLength="162" x="789" y="142.8616">&#171;Arzneimittelverschreibung&#187;</text><text fill="#000000" font-family="sans-serif" font-size="12" font-weight="bold" lengthAdjust="spacing" textLength="141" x="799.5" y="156.9944">EPAMedicationRequest</text><line style="stroke:#000000;stroke-width:0.5;" x1="780.5" x2="959.5" y1="161.5256" y2="161.5256"/><ellipse cx="790.5" cy="174.092" fill="#84BE84" rx="3" ry="3" style="stroke:#038048;stroke-width:1.0;"/><text fill="#000000" font-family="sans-serif" font-size="12" lengthAdjust="spacing" textLength="155" x="799.5" y="177.1272">subject: Reference(Patient)</text></g><g id="elem_MedicationDispense"><rect fill="#8FBC8F" height="48.2656" rx="5" ry="5" style="stroke:#000000;stroke-width:0.5;" width="163" x="1124.5" y="132.33"/><text fill="#000000" font-family="sans-serif" font-size="12" lengthAdjust="spacing" textLength="94" x="1159" y="145.9316">&#171;Dispensierung&#187;</text><text fill="#000000" font-family="sans-serif" font-size="12" font-weight="bold" lengthAdjust="spacing" textLength="149" x="1131.5" y="160.0644">EPAMedicationDispense</text><line style="stroke:#000000;stroke-width:0.5;" x1="1125.5" x2="1286.5" y1="164.5956" y2="164.5956"/></g><g id="elem_AltMedication"><rect fill="#8FBC8F" height="48.2656" rx="5" ry="5" style="stroke:#000000;stroke-width:0.5;" width="176" x="1118" y="7"/><text fill="#000000" font-family="sans-serif" font-size="12" lengthAdjust="spacing" textLength="162" x="1125" y="20.6016">&#171;Substituiertes Arzneimittel&#187;</text><text fill="#000000" font-family="sans-serif" font-size="12" font-weight="bold" lengthAdjust="spacing" textLength="91" x="1160.5" y="34.7344">EPAMedication</text><line style="stroke:#000000;stroke-width:0.5;" x1="1119" x2="1293" y1="39.2656" y2="39.2656"/></g><g id="elem_WithoutPrescriptionMedication"><rect fill="#FF7F50" height="48.2656" rx="5" ry="5" style="stroke:#000000;stroke-width:0.5;" width="220" x="1681" y="7"/><text fill="#000000" font-family="sans-serif" font-size="12" lengthAdjust="spacing" textLength="206" x="1688" y="20.6016">&#171;Verschreibungsfreies Arzneimittel&#187;</text><text fill="#000000" font-family="sans-serif" font-size="12" font-weight="bold" lengthAdjust="spacing" textLength="91" x="1745.5" y="34.7344">EPAMedication</text><line style="stroke:#000000;stroke-width:0.5;" x1="1682" x2="1900" y1="39.2656" y2="39.2656"/></g><g id="elem_WithoutPrescriptionMedicationDispense"><rect fill="#FF7F50" height="48.2656" rx="5" ry="5" style="stroke:#000000;stroke-width:0.5;" width="234" x="1674" y="132.33"/><text fill="#000000" font-family="sans-serif" font-size="12" lengthAdjust="spacing" textLength="220" x="1681" y="145.9316">&#171;Verschreibungsfreiee Dispensierung&#187;</text><text fill="#000000" font-family="sans-serif" font-size="12" font-weight="bold" lengthAdjust="spacing" textLength="149" x="1716.5" y="160.0644">EPAMedicationDispense</text><line style="stroke:#000000;stroke-width:0.5;" x1="1675" x2="1907" y1="164.5956" y2="164.5956"/></g><!--link Provenance to ManagementNote--><g id="link_Provenance_ManagementNote"><path codeLine="61" d="M567,495.29 C567,538.12 567,586.25 567,617.95 " fill="none" id="Provenance-to-ManagementNote" style="stroke:#5C7AAB;stroke-width:1.0;"/><polygon fill="#5C7AAB" points="567,623.95,571,614.95,567,618.95,563,614.95,567,623.95" style="stroke:#5C7AAB;stroke-width:1.0;"/><text fill="#777777" font-family="sans-serif" font-size="11" lengthAdjust="spacing" textLength="32" x="609.5" y="536.4848">target</text><text fill="#777777" font-family="sans-serif" font-size="11" lengthAdjust="spacing" textLength="115" x="571" y="549.4398">[versioned reference]</text></g><!--link Provenance to Observation--><g id="link_Provenance_Observation"><path codeLine="62" d="M458.99,495.29 C413.34,522.33 365.2424,550.8123 318.7124,578.3723 " fill="none" id="Provenance-to-Observation" style="stroke:#5C7AAB;stroke-width:1.0;"/><polygon fill="#5C7AAB" points="313.55,581.43,323.3321,580.285,317.852,578.8819,319.2551,573.4018,313.55,581.43" style="stroke:#5C7AAB;stroke-width:1.0;"/><text fill="#777777" font-family="sans-serif" font-size="11" lengthAdjust="spacing" textLength="32" x="447.5" y="536.4848">target</text><text fill="#777777" font-family="sans-serif" font-size="11" lengthAdjust="spacing" textLength="115" x="409" y="549.4398">[versioned reference]</text></g><!--link Provenance to AllergyIntolerance--><g id="link_Provenance_AllergyIntolerance"><path codeLine="63" d="M654.58,495.29 C709.06,535.09 772.0648,581.1111 816.2048,613.3511 " fill="none" id="Provenance-to-AllergyIntolerance" style="stroke:#5C7AAB;stroke-width:1.0;"/><polygon fill="#5C7AAB" points="821.05,616.89,816.1415,608.3515,817.0123,613.9409,811.4229,614.8117,821.05,616.89" style="stroke:#5C7AAB;stroke-width:1.0;"/><text fill="#777777" font-family="sans-serif" font-size="11" lengthAdjust="spacing" textLength="32" x="768.5" y="536.4848">target</text><text fill="#777777" font-family="sans-serif" font-size="11" lengthAdjust="spacing" textLength="115" x="730" y="549.4398">[versioned reference]</text></g><!--link Provenance to MedicationStatement--><g id="link_Provenance_MedicationStatement"><path codeLine="64" d="M734.31,430.32 C784.56,430.32 833.28,430.32 882.1,430.32 " fill="none" id="Provenance-to-MedicationStatement" style="stroke:#5C7AAB;stroke-width:1.0;"/><polygon fill="#5C7AAB" points="888.1,430.32,879.1,426.32,883.1,430.32,879.1,434.32,888.1,430.32" style="stroke:#5C7AAB;stroke-width:1.0;"/><text fill="#777777" font-family="sans-serif" font-size="11" lengthAdjust="spacing" textLength="32" x="793.75" y="411.9548">target</text><text fill="#777777" font-family="sans-serif" font-size="11" lengthAdjust="spacing" textLength="115" x="755.25" y="424.9098">[versioned reference]</text></g><!--reverse link PractitionerRole to Provenance--><g id="link_PractitionerRole_Provenance"><path codeLine="65" d="M761.7516,295.1744 C747.2916,303.7644 734.61,311.56 719,321.79 C698.05,335.53 675.85,350.8 655.09,365.42 " fill="none" id="PractitionerRole-backto-Provenance" style="stroke:#5C7AAB;stroke-width:1.0;"/><polygon fill="#5C7AAB" points="766.91,292.11,757.1294,293.2676,762.6113,294.6637,761.2153,300.1455,766.91,292.11" style="stroke:#5C7AAB;stroke-width:1.0;"/><text fill="#777777" font-family="sans-serif" font-size="11" lengthAdjust="spacing" textLength="63" x="720" y="333.4248">agent[].who</text></g><!--reverse link Organization to Provenance--><g id="link_Organization_Provenance"><path codeLine="66" d="M499.9862,186.4238 C511.1662,226.9338 533.02,306.16 549.38,365.45 " fill="none" id="Organization-backto-Provenance" style="stroke:#5C7AAB;stroke-width:1.0;"/><polygon fill="#5C7AAB" points="498.39,180.64,496.9285,190.3798,499.7202,185.4598,504.6402,188.2515,498.39,180.64" style="stroke:#5C7AAB;stroke-width:1.0;"/><text fill="#777777" font-family="sans-serif" font-size="11" lengthAdjust="spacing" textLength="63" x="530" y="279.3648">agent[].who</text></g><!--reverse link Practitioner to Provenance--><g id="link_Practitioner_Provenance"><path codeLine="67" d="M662.6819,186.2228 C646.7319,226.7328 615.47,306.16 592.14,365.45 " fill="none" id="Practitioner-backto-Provenance" style="stroke:#5C7AAB;stroke-width:1.0;"/><polygon fill="#5C7AAB" points="664.88,180.64,657.8609,187.5489,663.0482,185.2924,665.3047,190.4797,664.88,180.64" style="stroke:#5C7AAB;stroke-width:1.0;"/><text fill="#777777" font-family="sans-serif" font-size="11" lengthAdjust="spacing" textLength="63" x="634" y="279.3648">agent[].who</text></g><!--link MedicationStatement to PlanMedication--><g id="link_MedicationStatement_PlanMedication"><path codeLine="69" d="M1181.91,430.32 C1234.22,430.32 1283.83,430.32 1323.12,430.32 " fill="none" id="MedicationStatement-to-PlanMedication" style="stroke:#5C7AAB;stroke-width:1.0;"/><polygon fill="#5C7AAB" points="1329.12,430.32,1320.12,426.32,1324.12,430.32,1320.12,434.32,1329.12,430.32" style="stroke:#5C7AAB;stroke-width:1.0;"/><text fill="#777777" font-family="sans-serif" font-size="11" lengthAdjust="spacing" textLength="112" x="1199.5" y="424.9548">medicationReference</text></g><!--reverse link PractitionerRole to MedicationStatement--><g id="link_PractitionerRole_MedicationStatement"><path codeLine="70" d="M802.4954,297.7371 C807.5454,310.9971 814.14,323.77 827,335.79 C854.62,361.62 890.58,381.19 924.81,395.59 " fill="none" id="PractitionerRole-backto-MedicationStatement" style="stroke:#5C7AAB;stroke-width:1.0;"/><polygon fill="#5C7AAB" points="800.36,292.13,799.8251,301.9643,802.1395,296.8026,807.3013,299.1171,800.36,292.13" style="stroke:#5C7AAB;stroke-width:1.0;"/><text fill="#777777" font-family="sans-serif" font-size="11" lengthAdjust="spacing" textLength="100" x="828" y="333.4248">informationSource</text></g><!--reverse link Medication to MedicationRequest--><g id="link_Medication_MedicationRequest"><path codeLine="73" d="M905.3765,60.211 C897.5665,68.851 893.55,74.67 888,85.26 C880.88,98.86 876.46,115.44 873.78,129.07 " fill="none" id="Medication-backto-MedicationRequest" style="stroke:#5C7AAB;stroke-width:1.0;"/><polygon fill="#5C7AAB" points="909.4,55.76,900.3975,59.7543,906.0471,59.4692,906.3322,65.1189,909.4,55.76" style="stroke:#5C7AAB;stroke-width:1.0;"/><text fill="#777777" font-family="sans-serif" font-size="11" lengthAdjust="spacing" textLength="112" x="889" y="96.8948">medicationReference</text></g><!--link MedicationRequest to PractitionerRole--><g id="link_MedicationRequest_PractitionerRole"><path codeLine="74" d="M852.79,184.13 C838.26,206.66 821.1614,233.1573 808.8914,252.1873 " fill="none" id="MedicationRequest-to-PractitionerRole" style="stroke:#5C7AAB;stroke-width:1.0;"/><polygon fill="#5C7AAB" points="805.64,257.23,813.8788,251.8336,808.3495,253.0278,807.1553,247.4984,805.64,257.23" style="stroke:#5C7AAB;stroke-width:1.0;"/><text fill="#777777" font-family="sans-serif" font-size="11" lengthAdjust="spacing" textLength="52" x="834" y="225.2948">requester</text></g><!--link MedicationRequest to MedicationStatement--><g id="link_MedicationRequest_MedicationStatement"><path codeLine="75" d="M886.12,184.02 C916.37,233.86 978.4468,336.1408 1011.6168,390.7908 " fill="none" id="MedicationRequest-to-MedicationStatement" style="stroke:#5C7AAB;stroke-width:1.0;"/><polygon fill="#5C7AAB" points="1014.73,395.92,1013.4797,386.1508,1012.1357,391.6457,1006.6408,390.3017,1014.73,395.92" style="stroke:#5C7AAB;stroke-width:1.0;"/><text fill="#777777" font-family="sans-serif" font-size="11" lengthAdjust="spacing" textLength="189" x="951" y="272.8648">MedicationRequestLinkedStatement</text><text fill="#777777" font-family="sans-serif" font-size="11" lengthAdjust="spacing" textLength="61" x="1015" y="285.8198">(Extension)</text></g><!--reverse link Medication to MedicationDispense--><g id="link_Medication_MedicationDispense"><path codeLine="77" d="M991.2648,58.097 C1039.5148,79.967 1105.6,109.93 1153.93,131.85 " fill="none" id="Medication-backto-MedicationDispense" style="stroke:#5C7AAB;stroke-width:1.0;"/><polygon fill="#5C7AAB" points="985.8,55.62,992.3459,62.9787,990.354,57.6842,995.6486,55.6923,985.8,55.62" style="stroke:#5C7AAB;stroke-width:1.0;"/><text fill="#777777" font-family="sans-serif" font-size="11" lengthAdjust="spacing" textLength="112" x="1080" y="96.8948">medicationReference</text></g><!--reverse link AltMedication to MedicationDispense--><g id="link_AltMedication_MedicationDispense"><path codeLine="78" d="M1206,61.62 C1206,83.56 1206,110.14 1206,132.06 " fill="none" id="AltMedication-backto-MedicationDispense" style="stroke:#5C7AAB;stroke-width:1.0;"/><polygon fill="#5C7AAB" points="1206,55.62,1202,64.62,1206,60.62,1210,64.62,1206,55.62" style="stroke:#5C7AAB;stroke-width:1.0;"/><text fill="#777777" font-family="sans-serif" font-size="11" lengthAdjust="spacing" textLength="112" x="1207" y="96.8948">medicationReference</text></g><!--reverse link MedicationRequest to MedicationDispense--><g id="link_MedicationRequest_MedicationDispense"><path codeLine="79" d="M966.93,156.46 C1017.85,156.46 1074.83,156.46 1124.19,156.46 " fill="none" id="MedicationRequest-backto-MedicationDispense" style="stroke:#5C7AAB;stroke-width:1.0;"/><polygon fill="#5C7AAB" points="960.93,156.46,969.93,160.46,965.93,156.46,969.93,152.46,960.93,156.46" style="stroke:#5C7AAB;stroke-width:1.0;"/><text fill="#777777" font-family="sans-serif" font-size="11" lengthAdjust="spacing" textLength="127" x="979" y="151.0948">authorizingPrescription</text></g><!--link MedicationDispense to DispenserOrganization--><g id="link_MedicationDispense_DispenserOrganization"><path codeLine="80" d="M1287.76,156.46 C1324.81,156.46 1362.36,156.46 1398.73,156.46 " fill="none" id="MedicationDispense-to-DispenserOrganization" style="stroke:#5C7AAB;stroke-width:1.0;"/><polygon fill="#5C7AAB" points="1404.73,156.46,1395.73,152.46,1399.73,156.46,1395.73,160.46,1404.73,156.46" style="stroke:#5C7AAB;stroke-width:1.0;"/><text fill="#777777" font-family="sans-serif" font-size="11" lengthAdjust="spacing" textLength="81" x="1305.75" y="151.0948">perfomer.actor</text></g><!--reverse link Practitioner to PractitionerRole--><g id="link_Practitioner_PractitionerRole"><path codeLine="82" d="M702.8161,185.1475 C726.4261,207.8375 757.23,237.44 777.96,257.35 " fill="none" id="Practitioner-backto-PractitionerRole" style="stroke:#5C7AAB;stroke-width:1.0;"/><polygon fill="#5C7AAB" points="698.49,180.99,702.2075,190.1103,702.0951,184.4546,707.7508,184.3422,698.49,180.99" style="stroke:#5C7AAB;stroke-width:1.0;"/><text fill="#777777" font-family="sans-serif" font-size="11" lengthAdjust="spacing" textLength="63" x="747" y="225.2948">practitioner</text></g><!--reverse link Organization to PractitionerRole--><g id="link_Organization_PractitionerRole"><path codeLine="83" d="M549.812,183.4063 C582.042,197.5863 618.87,213.21 657,227.66 C684.99,238.27 716.63,248.92 742.56,257.31 " fill="none" id="Organization-backto-PractitionerRole" style="stroke:#5C7AAB;stroke-width:1.0;"/><polygon fill="#5C7AAB" points="544.32,180.99,550.9471,188.2757,548.8966,183.0036,554.1688,180.9531,544.32,180.99" style="stroke:#5C7AAB;stroke-width:1.0;"/><text fill="#777777" font-family="sans-serif" font-size="11" lengthAdjust="spacing" textLength="68" x="658" y="225.2948">organization</text></g><!--reverse link WithoutPrescriptionMedication to WithoutPrescriptionMedicationDispense--><g id="link_WithoutPrescriptionMedication_WithoutPrescriptionMedicationDispense"><path codeLine="85" d="M1791,61.62 C1791,83.56 1791,110.14 1791,132.06 " fill="none" id="WithoutPrescriptionMedication-backto-WithoutPrescriptionMedicationDispense" style="stroke:#5C7AAB;stroke-width:1.0;"/><polygon fill="#5C7AAB" points="1791,55.62,1787,64.62,1791,60.62,1795,64.62,1791,55.62" style="stroke:#5C7AAB;stroke-width:1.0;"/><text fill="#777777" font-family="sans-serif" font-size="11" lengthAdjust="spacing" textLength="112" x="1792" y="96.8948">medicationReference</text></g><!--reverse link DispenserOrganization to WithoutPrescriptionMedicationDispense--><g id="link_DispenserOrganization_WithoutPrescriptionMedicationDispense"><path codeLine="86" d="M1563.23,156.46 C1598.28,156.46 1634.65,156.46 1673.63,156.46 " fill="none" id="DispenserOrganization-backto-WithoutPrescriptionMedicationDispense" style="stroke:#5C7AAB;stroke-width:1.0;"/><polygon fill="#5C7AAB" points="1557.23,156.46,1566.23,160.46,1562.23,156.46,1566.23,152.46,1557.23,156.46" style="stroke:#5C7AAB;stroke-width:1.0;"/><text fill="#777777" font-family="sans-serif" font-size="11" lengthAdjust="spacing" textLength="81" x="1575" y="151.0948">perfomer.actor</text></g><!--reverse link WithoutPrescriptionMedicationDispense to Provenance--><g id="link_WithoutPrescriptionMedicationDispense_Provenance"><path codeLine="87" d="M1678.9327,182.3508 C1465.7727,229.6908 990.31,335.3 734.38,392.15 " fill="none" id="WithoutPrescriptionMedicationDispense-backto-Provenance" style="stroke:#5C7AAB;stroke-width:1.0;"/><polygon fill="#5C7AAB" points="1684.79,181.05,1675.1368,179.0964,1679.9089,182.134,1676.8713,186.9061,1684.79,181.05" style="stroke:#5C7AAB;stroke-width:1.0;"/><text fill="#777777" font-family="sans-serif" font-size="11" lengthAdjust="spacing" textLength="32" x="1363.5" y="272.8648">target</text><text fill="#777777" font-family="sans-serif" font-size="11" lengthAdjust="spacing" textLength="115" x="1325" y="285.8198">[versioned reference]</text></g><rect fill="none" height="96.4414" id="_legend" rx="5" ry="5" style="stroke:#000000;stroke-width:1.0;" width="312" x="1576" y="739.0453"/><text fill="#000000" font-family="sans-serif" font-size="14" lengthAdjust="spacing" textLength="39" x="1585" y="759.5805">Farbe</text><text fill="#000000" font-family="sans-serif" font-size="14" lengthAdjust="spacing" textLength="99" x="1632" y="759.5805">Datenherkunft</text><rect fill="#8FBC8F" height="16.4883" style="stroke:none;stroke-width:1.0;" width="47" x="1581" y="762.5336"/><text fill="#000000" font-family="sans-serif" font-size="14" lengthAdjust="spacing" textLength="4" x="1581" y="776.0687">&#160;</text><text fill="#000000" font-family="sans-serif" font-size="14" lengthAdjust="spacing" textLength="206" x="1632" y="776.0687">Verschreibung/Dispensierung</text><rect fill="#FF7F50" height="16.4883" style="stroke:none;stroke-width:1.0;" width="47" x="1581" y="779.0219"/><text fill="#000000" font-family="sans-serif" font-size="14" lengthAdjust="spacing" textLength="4" x="1581" y="792.557">&#160;</text><text fill="#000000" font-family="sans-serif" font-size="14" lengthAdjust="spacing" textLength="247" x="1632" y="792.557">Verschreibungsfreier Dispensierung</text><rect fill="#20B2AA" height="16.4883" style="stroke:none;stroke-width:1.0;" width="47" x="1581" y="795.5102"/><text fill="#000000" font-family="sans-serif" font-size="14" lengthAdjust="spacing" textLength="4" x="1581" y="809.0453">&#160;</text><text fill="#000000" font-family="sans-serif" font-size="14" lengthAdjust="spacing" textLength="140" x="1632" y="809.0453">Medikationsplanung</text><rect fill="#696969" height="16.4883" style="stroke:none;stroke-width:1.0;" width="47" x="1581" y="811.9984"/><text fill="#000000" font-family="sans-serif" font-size="14" lengthAdjust="spacing" textLength="4" x="1581" y="825.5336">&#160;</text><text fill="#000000" font-family="sans-serif" font-size="14" lengthAdjust="spacing" textLength="46" x="1632" y="825.5336">Akteur</text><line style="stroke:#000000;stroke-width:1.0;" x1="1581" x2="1883" y1="746.0453" y2="746.0453"/><line style="stroke:#000000;stroke-width:1.0;" x1="1581" x2="1883" y1="762.5336" y2="762.5336"/><line style="stroke:#000000;stroke-width:1.0;" x1="1581" x2="1883" y1="779.0219" y2="779.0219"/><line style="stroke:#000000;stroke-width:1.0;" x1="1581" x2="1883" y1="795.5102" y2="795.5102"/><line style="stroke:#000000;stroke-width:1.0;" x1="1581" x2="1883" y1="811.9984" y2="811.9984"/><line style="stroke:#000000;stroke-width:1.0;" x1="1581" x2="1883" y1="828.4867" y2="828.4867"/><line style="stroke:#000000;stroke-width:1.0;" x1="1581" x2="1581" y1="746.0453" y2="828.4867"/><line style="stroke:#000000;stroke-width:1.0;" x1="1628" x2="1628" y1="746.0453" y2="828.4867"/><line style="stroke:#000000;stroke-width:1.0;" x1="1883" x2="1883" y1="746.0453" y2="828.4867"/><!--SRC=[fLZDKYCt4BxFKwZC8K0A4h99ROeYL0669HKIA3k1mx87UTos5SkIjqTZhnto9gdA9S-mBy2BfQNviJGp1Zln0OzR_VDrg_kJXcGir9GZdx21-7GXC9PmmtiWRsU0aa-dGWtPWCi4egJKH9sgVgnH0RAZhxq5tViTOiF-Y1Xzpday7ZhL2oqrihQOl4DOP6iQ-u2P_5oIefEU8Ufv9jpvBdxBUS-9hxGoNR44TlHD-JlJugdH4sv4xEI_Q0FLe3jlllt-3VHMxbV6Es_T9rpAuXn5VtfPtS0GLB_g-M4a34GiodDkdPoGbwLXfwUFQd__3dbiX16QQjGMI1eQ5_lxBSOJvg_vvhSuv4eatAxaRZBHqecgRlor0CLKcn6COGCNRP5CGIM0ZRvyd1qjeGRU2YC_z4_Fdt4AECJdpyz_0zkzl3kxxP7xcNDyhlkBQn33aTcpq3nzc8juP1hK7mBrhX5I9eQRDAdvHk296G3qgM6xJgMq0amdOretGWbry01egjONnIgKHl5epjKGC8b7V62IvgXt24F5LRm88rugqnEgdwfXOW0dGbNjBXCZg6-XtwO_juCsI47ZjYZitqaz8T3o-Hy4TYMaGMULq1SLzTrLPw_gqCgoxGxbHQki96pdnfQq2vo64LG-gryoseQ1HWfxp3em00GLmsvri_TeBhpjVlwhPpSRn83cWxZWMgWvY8Gr8VcPTYREdhZYGvY0CdPWSuIXy7-33EP1Ia8fW6cByKTbI0UvMgvWPXgBSYakKDKNrYAZr0XyW2iJxUKQD7cEz5w5xcE_1XodYlfFSMh8ehQqS0ye1c8fg4s8eCjCxb3FG7aPh0Jha5i4Cs4Mx0TsqRay-_MIFR7VxjhqK2WG-vb3ivW2gT0ZOKVIAVU2dec7Hze-26LbN1bdU-0-zJZtdQictpEN4t5Yk7-sSyRSjiOo9N9SvZ4ybgJ4L-rbHz4rKj5PzPLgASfQ9AaB-y8kUi6xEiKOjXYNLI9Dk8iDazoRbGhIe2upHquee0SA4dluA10JOGp85_pxljiSnwNhy1mhNULHGFI2HbkvwS37599wjNDv66MZIWT5ou-eQgEluXHdM0r0iT28u0l2CET9D-qH5PkKgFYO6KmXNmmn55e4mcnUwJDfrXRRztxlLpWPqCFcCHu43Lvgw1nAOXJJa6ZPpeL6Bb-91LkN-CMWgwfdmIEFWGxw1wTLfZzcBSFf1c3OesBlRRVPyUaJNUPzyQ5LS-4VP__5le7MjtM3DfC6PjdMJqf-ghHXdJXYVF_XS3xITGF_jlQgik-zfXmrvU2Ig_0G6KwyqSwJQJNRo-QaQjmP-V4Bld2WjufSMlRN51Cp1S2rLcksigPz8zGO-gNEezgz_6Jix6YrrwANWOOvs3wVq3IaaMsiPH2uoDUsW3kkwVQWXluGDtknpT3udc0zkKi0tG4EkNsjQDbfhvI_iGUdtk_M6fjgAEtzfa2RaP3pz399hgleXW7aDkMfpkPcCJRXb2YIxYsLeRqlk5FiYLrnx05zsxSCDSglakmfMpq9JgJJf_1i-2ey54eRH-fLvUmWGRR69hZ2a6rs3t9lD5DYcK0t_oS1QPsD3QHqfumegomtcY_sBm00]--></g></svg>