<?xml version="1.0" encoding="us-ascii" standalone="no"?><svg xmlns="http://www.w3.org/2000/svg" xmlns:xlink="http://www.w3.org/1999/xlink" contentStyleType="text/css" height="582px" preserveAspectRatio="none" style="width:659px;height:582px;background:#FFFFFF;" version="1.1" viewBox="0 0 659 582" width="659px" zoomAndPan="magnify"><defs/><g><g id="elem_MedicationStatement"><rect fill="#20B2AA" height="53.9063" rx="5" ry="5" style="stroke:#000000;stroke-width:0.5;" width="223" x="337.5" y="290"/><text fill="#FFFFFF" font-family="sans-serif" font-size="12" lengthAdjust="spacing" textLength="199" x="349.5" y="303.1387">&#171;Medikamentzusatzinformation&#187;</text><text fill="#FFFFFF" font-family="sans-serif" font-size="12" font-weight="bold" lengthAdjust="spacing" textLength="153" x="372.5" y="317.1074">MedicationStatement</text><line style="stroke:#000000;stroke-width:0.5;" x1="338.5" x2="559.5" y1="321.9375" y2="321.9375"/><ellipse cx="348.5" cy="334.4219" fill="#84BE84" rx="3" ry="3" style="stroke:#038048;stroke-width:1.0;"/><text fill="#FFFFFF" font-family="sans-serif" font-size="12" lengthAdjust="spacing" textLength="197" x="357.5" y="337.0762">subject: Reference(EPAPatient)</text></g><g id="elem_PlanMedication"><rect fill="#20B2AA" height="47.9375" rx="5" ry="5" style="stroke:#000000;stroke-width:0.5;" width="118" x="390" y="418"/><text fill="#FFFFFF" font-family="sans-serif" font-size="12" lengthAdjust="spacing" textLength="90" x="404" y="431.1387">&#171;Medikament&#187;</text><text fill="#FFFFFF" font-family="sans-serif" font-size="12" font-weight="bold" lengthAdjust="spacing" textLength="104" x="397" y="445.1074">EPAMedication</text><line style="stroke:#000000;stroke-width:0.5;" x1="391" x2="507" y1="449.9375" y2="449.9375"/></g><g id="elem_Medication"><rect fill="#8FBC8F" height="47.9375" rx="5" ry="5" style="stroke:#000000;stroke-width:0.5;" width="202" x="73" y="293"/><text fill="#FFFFFF" font-family="sans-serif" font-size="12" lengthAdjust="spacing" textLength="188" x="80" y="306.1387">&#171;Verschriebenes Arzneimittel&#187;</text><text fill="#FFFFFF" font-family="sans-serif" font-size="12" font-weight="bold" lengthAdjust="spacing" textLength="104" x="122" y="320.1074">EPAMedication</text><line style="stroke:#000000;stroke-width:0.5;" x1="74" x2="274" y1="324.9375" y2="324.9375"/></g><g id="elem_MedicationRequest"><rect fill="#8FBC8F" height="67.875" rx="5" ry="5" style="stroke:#000000;stroke-width:0.5;" width="294" x="302" y="135"/><text fill="#FFFFFF" font-family="sans-serif" font-size="12" lengthAdjust="spacing" textLength="175" x="361.5" y="148.1387">&#171;Arzneimittelverschreibung&#187;</text><text fill="#FFFFFF" font-family="sans-serif" font-size="12" font-weight="bold" lengthAdjust="spacing" textLength="163" x="367.5" y="162.1074">EPAMedicationRequest</text><line style="stroke:#000000;stroke-width:0.5;" x1="303" x2="595" y1="166.9375" y2="166.9375"/><ellipse cx="313" cy="179.4219" fill="#84BE84" rx="3" ry="3" style="stroke:#038048;stroke-width:1.0;"/><text fill="#FFFFFF" font-family="sans-serif" font-size="12" lengthAdjust="spacing" textLength="197" x="322" y="182.0762">subject: Reference(EPAPatient)</text><ellipse cx="313" cy="193.3906" fill="#84BE84" rx="3" ry="3" style="stroke:#038048;stroke-width:1.0;"/><text fill="#FFFFFF" font-family="sans-serif" font-size="12" lengthAdjust="spacing" textLength="268" x="322" y="196.0449">requester: Reference(EPAPractitionerRole)</text></g><g id="elem_MedicationDispense"><rect fill="#8FBC8F" height="53.9063" rx="5" ry="5" style="stroke:#000000;stroke-width:0.5;" width="336" x="7" y="7"/><text fill="#FFFFFF" font-family="sans-serif" font-size="12" lengthAdjust="spacing" textLength="104" x="123" y="20.1387">&#171;Dispensierung&#187;</text><text fill="#FFFFFF" font-family="sans-serif" font-size="12" font-weight="bold" lengthAdjust="spacing" textLength="170" x="90" y="34.1074">EPAMedicationDispense</text><line style="stroke:#000000;stroke-width:0.5;" x1="8" x2="342" y1="38.9375" y2="38.9375"/><ellipse cx="18" cy="51.4219" fill="#84BE84" rx="3" ry="3" style="stroke:#038048;stroke-width:1.0;"/><text fill="#FFFFFF" font-family="sans-serif" font-size="12" lengthAdjust="spacing" textLength="310" x="27" y="54.0762">perfomer.actor: Reference(OrganizationDirectory)</text></g><!--link MedicationStatement to PlanMedication--><g id="link_MedicationStatement_PlanMedication"><path codeLine="29" d="M449,344.09 C449,365.95 449,390.86 449,411.86 " fill="none" id="MedicationStatement-to-PlanMedication" style="stroke:#5C7AAB;stroke-width:1.0;"/><polygon fill="#5C7AAB" points="449,417.86,453,408.86,449,412.86,445,408.86,449,417.86" style="stroke:#5C7AAB;stroke-width:1.0;"/><text fill="#777777" font-family="sans-serif" font-size="11" lengthAdjust="spacing" textLength="119" x="450" y="385.2104">medicationReference</text></g><!--link MedicationRequest to Medication--><g id="link_MedicationRequest_Medication"><path codeLine="31" d="M379.31,203.05 C359.98,212.48 339.07,222.94 320,233 C283.26,252.39 247.3614,272.8846 218.1614,289.9346 " fill="none" id="MedicationRequest-to-Medication" style="stroke:#5C7AAB;stroke-width:1.0;"/><polygon fill="#5C7AAB" points="212.98,292.96,222.769,291.8761,217.2978,290.4388,218.7351,284.9676,212.98,292.96" style="stroke:#5C7AAB;stroke-width:1.0;"/><text fill="#777777" font-family="sans-serif" font-size="11" lengthAdjust="spacing" textLength="119" x="321" y="250.7104">medicationReference</text></g><!--link MedicationRequest to MedicationStatement--><g id="link_MedicationRequest_MedicationStatement"><path codeLine="32" d="M449,203.13 C449,229.38 449,259.55 449,283.8 " fill="none" id="MedicationRequest-to-MedicationStatement" style="stroke:#5C7AAB;stroke-width:1.0;"/><polygon fill="#5C7AAB" points="449,289.8,453,280.8,449,284.8,445,280.8,449,289.8" style="stroke:#5C7AAB;stroke-width:1.0;"/><text fill="#777777" font-family="sans-serif" font-size="11" lengthAdjust="spacing" textLength="201" x="450" y="244.2104">MedicationRequestLinkedStatement</text><text fill="#777777" font-family="sans-serif" font-size="11" lengthAdjust="spacing" textLength="63" x="519" y="257.0151">(Extension)</text></g><!--link MedicationDispense to Medication--><g id="link_MedicationDispense_Medication"><path codeLine="34" d="M171.32,61.25 C168.69,81.39 165.38,109.89 164,135 C160.89,191.72 166.4559,252.4791 170.4059,286.8991 " fill="none" id="MedicationDispense-to-Medication" style="stroke:#5C7AAB;stroke-width:1.0;"/><polygon fill="#5C7AAB" points="171.09,292.86,174.0378,283.4626,170.5199,287.8926,166.09,284.3747,171.09,292.86" style="stroke:#5C7AAB;stroke-width:1.0;"/><text fill="#777777" font-family="sans-serif" font-size="11" lengthAdjust="spacing" textLength="119" x="165" y="173.2104">medicationReference</text></g><!--link MedicationDispense to MedicationRequest--><g id="link_MedicationDispense_MedicationRequest"><path codeLine="35" d="M228.81,61.12 C272.37,82.26 328.5926,109.5494 375.5726,132.3594 " fill="none" id="MedicationDispense-to-MedicationRequest" style="stroke:#5C7AAB;stroke-width:1.0;"/><polygon fill="#5C7AAB" points="380.97,134.98,374.6209,127.4508,376.4721,132.7962,371.1268,134.6474,380.97,134.98" style="stroke:#5C7AAB;stroke-width:1.0;"/><text fill="#777777" font-family="sans-serif" font-size="11" lengthAdjust="spacing" textLength="130" x="313" y="102.2104">authorizingPrescription</text></g><rect fill="none" height="79.1875" id="_legend" rx="5" ry="5" style="stroke:#000000;stroke-width:1.0;" width="180" x="12" y="482.9375"/><text fill="#000000" font-family="sans-serif" font-size="14" lengthAdjust="spacing" textLength="36" x="21" y="502.9326">Color</text><text fill="#000000" font-family="sans-serif" font-size="14" lengthAdjust="spacing" textLength="32" x="65" y="502.9326">Data</text><rect fill="#8FBC8F" height="16.2969" style="stroke:none;stroke-width:1.0;" width="44" x="17" y="506.2344"/><text fill="#000000" font-family="sans-serif" font-size="14" lengthAdjust="spacing" textLength="4" x="17" y="519.2295">&#160;</text><text fill="#000000" font-family="sans-serif" font-size="14" lengthAdjust="spacing" textLength="118" x="65" y="519.2295">Prescription Data</text><rect fill="#20B2AA" height="16.2969" style="stroke:none;stroke-width:1.0;" width="44" x="17" y="522.5313"/><text fill="#000000" font-family="sans-serif" font-size="14" lengthAdjust="spacing" textLength="4" x="17" y="535.5264">&#160;</text><text fill="#000000" font-family="sans-serif" font-size="14" lengthAdjust="spacing" textLength="65" x="65" y="535.5264">Plan Data</text><rect fill="#696969" height="16.2969" style="stroke:none;stroke-width:1.0;" width="44" x="17" y="538.8281"/><text fill="#000000" font-family="sans-serif" font-size="14" lengthAdjust="spacing" textLength="4" x="17" y="551.8232">&#160;</text><text fill="#000000" font-family="sans-serif" font-size="14" lengthAdjust="spacing" textLength="36" x="65" y="551.8232">Actor</text><line style="stroke:#000000;stroke-width:1.0;" x1="17" x2="187" y1="489.9375" y2="489.9375"/><line style="stroke:#000000;stroke-width:1.0;" x1="17" x2="187" y1="506.2344" y2="506.2344"/><line style="stroke:#000000;stroke-width:1.0;" x1="17" x2="187" y1="522.5313" y2="522.5313"/><line style="stroke:#000000;stroke-width:1.0;" x1="17" x2="187" y1="538.8281" y2="538.8281"/><line style="stroke:#000000;stroke-width:1.0;" x1="17" x2="187" y1="555.125" y2="555.125"/><line style="stroke:#000000;stroke-width:1.0;" x1="17" x2="17" y1="489.9375" y2="555.125"/><line style="stroke:#000000;stroke-width:1.0;" x1="61" x2="61" y1="489.9375" y2="555.125"/><line style="stroke:#000000;stroke-width:1.0;" x1="187" x2="187" y1="489.9375" y2="555.125"/><!--SRC=[bLJ1Rjf04Btp5IEu95IfIjCgLOIGI4XxeGq2gRtaihR7PifwrvrTfmcb_zwrru1je4rzyyoRzzw-iTUiI6M2HGenFTqIXnAd8a1v_uWiHPQHIY0Mqc37x92iSnM5cXKo3DxK6ZhuZg65Nnrmpuq8Lqa9lTLICqme_SJux7kQ8sHVlv4EM5R7pFgdB_RUXrT216NverPsGMk4mTlTkqTzMvB5ilP5MsmBzYxVVRZ4O4-z7-nTbK-pvJK6dT-r4qqnGHMrcIlTJdNUxd08dp6YbKXHsNLkX5sJYZMdmf9MC1ezg7w_G8HbOM65nGBQxtT163ZIWTwKagLTe72PeO8gqrTWybBp6kOO8wCAyUnkDfwvQJTrxhmVzLHPSCYzLYK-aqBjYotTEjjNP1CkcJ10XSR5jbP8ALcByY_qTUg9uDKnvZhLerT12dBtvHtXdUEF7CrXT5MzgVBIs3o8FGLo6yOYj5I88C-rn5RC4p8PAaF89onN03pml6sSC9qXnpf5VktaTSFKFIT2qReYOIpwpuMjph5lwIAw6BNtV0tTj9PTHToj4smJBSTVCFhFoRqZHt60df9QORJ3FAYpkoTRvAhLUSFNBhN_DtPgT6lOCOZSBZMJ-u6J6QC9cR82uHp8yYu0YR4j5xG1VnjiO2AiW8ql3Xkx76sWpj92Dlwr0kfsr2RpjwPhZeibkuRpu9su2mZ-0000]--></g></svg>