<?xml version="1.0" encoding="us-ascii" standalone="no"?><svg xmlns="http://www.w3.org/2000/svg" xmlns:xlink="http://www.w3.org/1999/xlink" contentStyleType="text/css" height="756px" preserveAspectRatio="none" style="width:1711px;height:756px;background:#FFFFFF;" version="1.1" viewBox="0 0 1711 756" width="1711px" zoomAndPan="magnify"><defs/><g><rect fill="#D3D3D3" height="737.2891" style="stroke:#181818;stroke-width:0.5;" width="193" x="946" y="6"/><text fill="#000000" font-family="sans-serif" font-size="13" font-weight="bold" lengthAdjust="spacing" textLength="130" x="977.5" y="18.0669">ePA-Aktensystem</text><rect fill="#F5F5DC" height="737.2891" style="stroke:#181818;stroke-width:0.5;" width="346" x="1161" y="6"/><text fill="#000000" font-family="sans-serif" font-size="13" font-weight="bold" lengthAdjust="spacing" textLength="175" x="1246.5" y="18.0669">ePA-Aktensystem / VAU</text><rect fill="none" height="366.2344" style="stroke:#000000;stroke-width:1.5;" width="1474.5" x="230" y="366.0547"/><rect fill="none" height="147.6641" style="stroke:#000000;stroke-width:1.5;" width="1273" x="240" y="577.625"/><line style="stroke:#0000FF;stroke-width:0.5;stroke-dasharray:5.0,5.0;" x1="45" x2="45" y1="89.0234" y2="749.2891"/><line style="stroke:#0000FF;stroke-width:0.5;stroke-dasharray:5.0,5.0;" x1="349" x2="349" y1="89.0234" y2="749.2891"/><line style="stroke:#0000FF;stroke-width:0.5;stroke-dasharray:5.0,5.0;" x1="1042" x2="1042" y1="89.0234" y2="749.2891"/><line style="stroke:#0000FF;stroke-width:0.5;stroke-dasharray:5.0,5.0;" x1="1237" x2="1237" y1="89.0234" y2="749.2891"/><line style="stroke:#0000FF;stroke-width:0.5;stroke-dasharray:5.0,5.0;" x1="1411" x2="1411" y1="89.0234" y2="749.2891"/><rect fill="#3483EB" height="30.2969" rx="2.5" ry="2.5" style="stroke:#3483EB;stroke-width:0.5;" width="41" x="25" y="57.7266"/><text fill="#FFFFFF" font-family="sans-serif" font-size="14" lengthAdjust="spacing" textLength="27" x="32" y="77.7217">AVS</text><rect fill="#3483EB" height="30.2969" rx="2.5" ry="2.5" style="stroke:#3483EB;stroke-width:0.5;" width="159" x="270" y="57.7266"/><text fill="#FFFFFF" font-family="sans-serif" font-size="14" lengthAdjust="spacing" textLength="145" x="277" y="77.7217">E-Rezept-Fachdienst</text><rect fill="#3483EB" height="30.2969" rx="2.5" ry="2.5" style="stroke:#3483EB;stroke-width:0.5;" width="145" x="970" y="57.7266"/><text fill="#FFFFFF" font-family="sans-serif" font-size="14" lengthAdjust="spacing" textLength="131" x="977" y="77.7217">Information Service</text><rect fill="#EB5E34" height="62.8906" rx="2.5" ry="2.5" style="stroke:#3483EB;stroke-width:0.5;" width="105" x="1185" y="25.1328"/><text fill="#FFFFFF" font-family="sans-serif" font-size="14" lengthAdjust="spacing" textLength="28" x="1221.5" y="45.1279">VAU</text><text fill="#FFFFFF" font-family="sans-serif" font-size="14" lengthAdjust="spacing" textLength="55" x="1208" y="61.4248">Session</text><text fill="#FFFFFF" font-family="sans-serif" font-size="14" lengthAdjust="spacing" textLength="91" x="1192" y="77.7217">Management</text><rect fill="#3483EB" height="30.2969" rx="2.5" ry="2.5" style="stroke:#3483EB;stroke-width:0.5;" width="143" x="1340" y="57.7266"/><text fill="#FFFFFF" font-family="sans-serif" font-size="14" lengthAdjust="spacing" textLength="129" x="1347" y="77.7217">Medication Service</text><polygon fill="#1E90FF" points="337.5,116.1563,347.5,120.1563,337.5,124.1563,341.5,120.1563" style="stroke:#1E90FF;stroke-width:1.0;"/><line style="stroke:#1E90FF;stroke-width:1.0;" x1="45.5" x2="343.5" y1="120.1563" y2="120.1563"/><text fill="#000000" font-family="sans-serif" font-size="13" font-weight="bold" lengthAdjust="spacing" textLength="9" x="52.5" y="115.0903">1</text><text fill="#000000" font-family="sans-serif" font-size="13" lengthAdjust="spacing" textLength="267" x="65.5" y="115.0903">Anfrage: Dispensierinformationen l&#246;schen</text><line style="stroke:#1E90FF;stroke-width:1.0;" x1="349.5" x2="391.5" y1="149.2891" y2="149.2891"/><line style="stroke:#1E90FF;stroke-width:1.0;" x1="391.5" x2="391.5" y1="149.2891" y2="162.2891"/><line style="stroke:#1E90FF;stroke-width:1.0;" x1="350.5" x2="391.5" y1="162.2891" y2="162.2891"/><polygon fill="#1E90FF" points="360.5,158.2891,350.5,162.2891,360.5,166.2891,356.5,162.2891" style="stroke:#1E90FF;stroke-width:1.0;"/><text fill="#000000" font-family="sans-serif" font-size="13" font-weight="bold" lengthAdjust="spacing" textLength="9" x="356.5" y="144.2231">2</text><text fill="#000000" font-family="sans-serif" font-size="13" lengthAdjust="spacing" textLength="486" x="369.5" y="144.2231">Durchf&#252;hren der standardisierten Workflow-Logik des E-Rezept-Fachdienstes</text><polygon fill="#1E90FF" points="56.5,187.4219,46.5,191.4219,56.5,195.4219,52.5,191.4219" style="stroke:#1E90FF;stroke-width:1.0;"/><line style="stroke:#1E90FF;stroke-width:1.0;stroke-dasharray:2.0,2.0;" x1="50.5" x2="348.5" y1="191.4219" y2="191.4219"/><text fill="#000000" font-family="sans-serif" font-size="13" font-weight="bold" lengthAdjust="spacing" textLength="9" x="62.5" y="186.356">3</text><text fill="#000000" font-family="sans-serif" font-size="13" lengthAdjust="spacing" textLength="93" x="75.5" y="186.356">Antwort: Erfolg</text><line style="stroke:#1E90FF;stroke-width:1.0;" x1="349.5" x2="391.5" y1="235.6875" y2="235.6875"/><line style="stroke:#1E90FF;stroke-width:1.0;" x1="391.5" x2="391.5" y1="235.6875" y2="248.6875"/><line style="stroke:#1E90FF;stroke-width:1.0;" x1="350.5" x2="391.5" y1="248.6875" y2="248.6875"/><polygon fill="#1E90FF" points="360.5,244.6875,350.5,248.6875,360.5,252.6875,356.5,248.6875" style="stroke:#1E90FF;stroke-width:1.0;"/><text fill="#000000" font-family="sans-serif" font-size="13" font-weight="bold" lengthAdjust="spacing" textLength="9" x="356.5" y="223.0552">4</text><text fill="#000000" font-family="sans-serif" font-size="13" lengthAdjust="spacing" textLength="646" x="369.5" y="215.4888">Persistieren der Resource ID der zu stornierenden Dispensierinformationen (aus MedicationDispense)</text><text fill="#000000" font-family="sans-serif" font-size="13" lengthAdjust="spacing" textLength="352" x="369.5" y="230.6216">in einer Warteschlange f&#252;r die asynchrone &#220;bertragung</text><rect fill="none" height="39.1016" style="stroke:#000000;stroke-width:1.5;" width="891" x="247" y="256.6875"/><path d="M247,256.6875 L313,256.6875 L313,263.6875 L303,273.6875 L247,273.6875 L247,256.6875 " fill="#EEEEEE" style="stroke:#000000;stroke-width:2.0;"/><text fill="#000000" font-family="sans-serif" font-size="13" font-weight="bold" lengthAdjust="spacing" textLength="21" x="260" y="270.7544">ref</text><text fill="#000000" font-family="sans-serif" font-size="12" lengthAdjust="spacing" textLength="488" x="448.5" y="288.8262">Lokalisierung der Service-Endpunkte der ePA und der Akte eines Versicherten</text><polygon fill="#1E90FF" points="1030.5,317.9219,1040.5,321.9219,1030.5,325.9219,1034.5,321.9219" style="stroke:#1E90FF;stroke-width:1.0;"/><line style="stroke:#1E90FF;stroke-width:1.0;" x1="349.5" x2="1036.5" y1="321.9219" y2="321.9219"/><text fill="#000000" font-family="sans-serif" font-size="13" font-weight="bold" lengthAdjust="spacing" textLength="9" x="356.5" y="316.856">5</text><text fill="#000000" font-family="sans-serif" font-size="13" lengthAdjust="spacing" textLength="504" x="369.5" y="316.856">Anfrage: Widerspruchsinformationen zum Einstellen durch E-Rezept-Fachdienst</text><polygon fill="#1E90FF" points="360.5,347.0547,350.5,351.0547,360.5,355.0547,356.5,351.0547" style="stroke:#1E90FF;stroke-width:1.0;"/><line style="stroke:#1E90FF;stroke-width:1.0;stroke-dasharray:2.0,2.0;" x1="354.5" x2="1041.5" y1="351.0547" y2="351.0547"/><text fill="#000000" font-family="sans-serif" font-size="13" font-weight="bold" lengthAdjust="spacing" textLength="9" x="366.5" y="345.9888">6</text><text fill="#000000" font-family="sans-serif" font-size="13" lengthAdjust="spacing" textLength="231" x="379.5" y="345.9888">Antwort: Widerspruchsinformationen</text><path d="M230,366.0547 L294,366.0547 L294,373.1875 L284,383.1875 L230,383.1875 L230,366.0547 " fill="#EEEEEE" style="stroke:#000000;stroke-width:1.5;"/><rect fill="none" height="366.2344" style="stroke:#000000;stroke-width:1.5;" width="1474.5" x="230" y="366.0547"/><text fill="#000000" font-family="sans-serif" font-size="13" font-weight="bold" lengthAdjust="spacing" textLength="19" x="245" y="379.1216">alt</text><text fill="#000000" font-family="sans-serif" font-size="11" font-weight="bold" lengthAdjust="spacing" textLength="438" x="309" y="378.2651">[Widerspruch zum Einstellen durch E-Rezept-Fachdienst vorhanden]</text><line style="stroke:#1E90FF;stroke-width:1.0;" x1="349.5" x2="391.5" y1="404.3203" y2="404.3203"/><line style="stroke:#1E90FF;stroke-width:1.0;" x1="391.5" x2="391.5" y1="404.3203" y2="417.3203"/><line style="stroke:#1E90FF;stroke-width:1.0;" x1="350.5" x2="391.5" y1="417.3203" y2="417.3203"/><polygon fill="#1E90FF" points="360.5,413.3203,350.5,417.3203,360.5,421.3203,356.5,417.3203" style="stroke:#1E90FF;stroke-width:1.0;"/><text fill="#000000" font-family="sans-serif" font-size="13" font-weight="bold" lengthAdjust="spacing" textLength="9" x="356.5" y="399.2544">7</text><text fill="#000000" font-family="sans-serif" font-size="13" lengthAdjust="spacing" textLength="666" x="369.5" y="399.2544">Abbruch. L&#246;schen der Resource ID der zu stornierenden Dispensierinformationen aus der Warteschlange</text><line style="stroke:#000000;stroke-width:1.0;stroke-dasharray:2.0,2.0;" x1="230" x2="1704.5" y1="426.3203" y2="426.3203"/><text fill="#000000" font-family="sans-serif" font-size="11" font-weight="bold" lengthAdjust="spacing" textLength="399" x="235" y="436.5308">[Kein Widerspruch zum Einstellen durch E-Rezept-Fachdienst]</text><rect fill="none" height="39.1016" style="stroke:#000000;stroke-width:1.5;" width="1066" x="247" y="440.125"/><path d="M247,440.125 L313,440.125 L313,447.125 L303,457.125 L247,457.125 L247,440.125 " fill="#EEEEEE" style="stroke:#000000;stroke-width:2.0;"/><text fill="#000000" font-family="sans-serif" font-size="13" font-weight="bold" lengthAdjust="spacing" textLength="21" x="260" y="454.1919">ref</text><text fill="#000000" font-family="sans-serif" font-size="12" lengthAdjust="spacing" textLength="214" x="673" y="472.2637">Login in die Akte des Versicherten</text><polygon fill="#1E90FF" points="1399.5,501.3594,1409.5,505.3594,1399.5,509.3594,1403.5,505.3594" style="stroke:#1E90FF;stroke-width:1.0;"/><line style="stroke:#1E90FF;stroke-width:1.0;" x1="349.5" x2="1405.5" y1="505.3594" y2="505.3594"/><text fill="#000000" font-family="sans-serif" font-size="13" font-weight="bold" lengthAdjust="spacing" textLength="9" x="356.5" y="500.2935">8</text><text fill="#000000" font-family="sans-serif" font-size="13" lengthAdjust="spacing" textLength="545" x="369.5" y="500.2935">&#220;bermittlung des rxPrescriptionProcessIdentifier in der FHIR Operation per HTTP POST</text><line style="stroke:#1E90FF;stroke-width:1.0;" x1="1411.5" x2="1453.5" y1="549.625" y2="549.625"/><line style="stroke:#1E90FF;stroke-width:1.0;" x1="1453.5" x2="1453.5" y1="549.625" y2="562.625"/><line style="stroke:#1E90FF;stroke-width:1.0;" x1="1412.5" x2="1453.5" y1="562.625" y2="562.625"/><polygon fill="#1E90FF" points="1422.5,558.625,1412.5,562.625,1422.5,566.625,1418.5,562.625" style="stroke:#1E90FF;stroke-width:1.0;"/><text fill="#000000" font-family="sans-serif" font-size="13" font-weight="bold" lengthAdjust="spacing" textLength="9" x="1418.5" y="536.9927">9</text><text fill="#000000" font-family="sans-serif" font-size="13" lengthAdjust="spacing" textLength="261" x="1431.5" y="529.4263">MedicationDispense.status = "cancelled"</text><text fill="#000000" font-family="sans-serif" font-size="13" lengthAdjust="spacing" textLength="81" x="1431.5" y="544.5591">aktualisieren</text><path d="M240,577.625 L304,577.625 L304,584.7578 L294,594.7578 L240,594.7578 L240,577.625 " fill="#EEEEEE" style="stroke:#000000;stroke-width:1.5;"/><rect fill="none" height="147.6641" style="stroke:#000000;stroke-width:1.5;" width="1273" x="240" y="577.625"/><text fill="#000000" font-family="sans-serif" font-size="13" font-weight="bold" lengthAdjust="spacing" textLength="19" x="255" y="590.6919">alt</text><text fill="#000000" font-family="sans-serif" font-size="11" font-weight="bold" lengthAdjust="spacing" textLength="112" x="319" y="589.8354">[successful case]</text><polygon fill="#1E90FF" points="360.5,611.8906,350.5,615.8906,360.5,619.8906,356.5,615.8906" style="stroke:#1E90FF;stroke-width:1.0;"/><line style="stroke:#1E90FF;stroke-width:1.0;stroke-dasharray:2.0,2.0;" x1="354.5" x2="1410.5" y1="615.8906" y2="615.8906"/><text fill="#000000" font-family="sans-serif" font-size="13" font-weight="bold" lengthAdjust="spacing" textLength="18" x="366.5" y="610.8247">10</text><text fill="#000000" font-family="sans-serif" font-size="13" lengthAdjust="spacing" textLength="202" x="388.5" y="610.8247">Antwort: Transaktion erfolgreich</text><line style="stroke:#1E90FF;stroke-width:1.0;" x1="349.5" x2="391.5" y1="645.0234" y2="645.0234"/><line style="stroke:#1E90FF;stroke-width:1.0;" x1="391.5" x2="391.5" y1="645.0234" y2="658.0234"/><line style="stroke:#1E90FF;stroke-width:1.0;" x1="350.5" x2="391.5" y1="658.0234" y2="658.0234"/><polygon fill="#1E90FF" points="360.5,654.0234,350.5,658.0234,360.5,662.0234,356.5,658.0234" style="stroke:#1E90FF;stroke-width:1.0;"/><text fill="#000000" font-family="sans-serif" font-size="13" font-weight="bold" lengthAdjust="spacing" textLength="18" x="356.5" y="639.9575">11</text><text fill="#000000" font-family="sans-serif" font-size="13" lengthAdjust="spacing" textLength="605" x="378.5" y="639.9575">L&#246;schen der Resource ID der zu stornierenden Dispensierinformationen aus der Warteschlange</text><line style="stroke:#000000;stroke-width:1.0;stroke-dasharray:2.0,2.0;" x1="240" x2="1513" y1="667.0234" y2="667.0234"/><line style="stroke:#1E90FF;stroke-width:1.0;" x1="349.5" x2="391.5" y1="704.2891" y2="704.2891"/><line style="stroke:#1E90FF;stroke-width:1.0;" x1="391.5" x2="391.5" y1="704.2891" y2="717.2891"/><line style="stroke:#1E90FF;stroke-width:1.0;" x1="350.5" x2="391.5" y1="717.2891" y2="717.2891"/><polygon fill="#1E90FF" points="360.5,713.2891,350.5,717.2891,360.5,721.2891,356.5,717.2891" style="stroke:#1E90FF;stroke-width:1.0;"/><text fill="#000000" font-family="sans-serif" font-size="13" font-weight="bold" lengthAdjust="spacing" textLength="18" x="356.5" y="691.6567">12</text><text fill="#000000" font-family="sans-serif" font-size="13" lengthAdjust="spacing" textLength="636" x="378.5" y="684.0903">Abbruch. Die Resource ID der zu stornierenden Dispensierinformationen bleibt in der Warteschlange</text><text fill="#000000" font-family="sans-serif" font-size="13" lengthAdjust="spacing" textLength="186" x="378.5" y="699.2231">f&#252;r eine sp&#228;tere &#220;bertragung</text><!--SRC=[jLLDZzis4BtpLmoybnQeqwIx1G83BI3NtiQeamYhxUx55reSIOHbKXrI-rNqd_IOtz1JRlvZ7LBs-cjT52bg6B3i6RvvC-yDxHRQD9Ba4h9AAdklJGc5h1qAznn99NcTwqOQdqgbGifthtVYG_km-VtDQx4JSFXRYoP7-5q0ln8YU_-JhIt1oAeIQLYts4LoRsbeII6z69_g0gVQu6vA3CRe3h-Xp1SbsTQeBkdi_EBjESwFqdPmJgHSMkCp_OJmvkAbK7Vsjj9-JQ9huH_AnuH3r0_Muwb3VmXHQOLGMEldza78rblJBkT8GZHRDj1BRh8UI0VfJROV6FUly0aRtx-KUQKq6kTZulZgSYG4Oq8FqwIVB3o77ft7PG_Efhgi_Cya7oF1FRo9AImjfTVMG8PqftECU9DCe54GIBw82j_2JV8hOmzHbtYCoq6OcGoT2yWpyruQMU8IJKStXCzm_ZsUNnoVVOzAvyUKnccovSI3WVwFiUq19AOWHX_0IBk66MealUqB3TIhlrnUeH4XVtjkr59U5QlF5N4EkmUSbqP9KZf0SAzmQsbHrFQ-FxMbNd0EqpXM0DqQc96PM23axotv0Oofi7Kf3kgcI4uxppNMTQ_GMUQ2C1d5xqyjKx5aOeRYf5EDVILR1zjvhTFmwvdH1f3NYmtDeqNklfQcPEUjFXCmQnxeeyahOXHO_Sa6z3p1rZ1LmWBi7HyCNBzX8mnWQXUoZZFXZ4XmhKj_R5JJ6hP5_9Kz0kpv-1oy4XcmsA5T7d-Ow7OKasn7k5lU2d8DjNdbzZjyQfSmrc78THsc5IHxIGCnoUByDuvO2t0IM0XP-ztmlwu4TvOg6MI9rjsNDfdF0zWhcAujzz_q3VAgGn45ycKEl_1mluX_TxaToCmB6NGk6PFVmI19f-gXV7ijfycWSyzIUrztvd103oanMT9Dw28bc_CrCE4slIwumrY0FoxVJQxWOuFKhJe_mBlhwnJIZzbrLuRjjAboxF5NlAoUn_C3z7B9_qZSjEhDZ5puTctM3TqWj6lpmA9eQyYbwowivnh7jhacQHn31M8OTvYGPx0zjYVw_wbrg1RqFb7wsMyZbkoBIyzhr7E_4MQFmCp4AoDiChXczSaprlwD4HaQ9SBbBFu6]--></g></svg>