<?xml version="1.0" encoding="us-ascii" standalone="no"?><svg xmlns="http://www.w3.org/2000/svg" xmlns:xlink="http://www.w3.org/1999/xlink" contentStyleType="text/css" height="535px" preserveAspectRatio="none" style="width:723px;height:535px;background:#FFFFFF;" version="1.1" viewBox="0 0 723 535" width="723px" zoomAndPan="magnify"><defs/><g><g id="elem_Patient"><rect fill="#696969" height="47.9375" rx="5" ry="5" style="stroke:#000000;stroke-width:0.5;" width="105" x="264" y="7"/><text fill="#FFFFFF" font-family="sans-serif" font-size="12" lengthAdjust="spacing" textLength="91" x="271" y="20.1387">&#171;Versicherter&#187;</text><text fill="#FFFFFF" font-family="sans-serif" font-size="12" font-weight="bold" lengthAdjust="spacing" textLength="78" x="277.5" y="34.1074">EPAPatient</text><line style="stroke:#000000;stroke-width:0.5;" x1="265" x2="368" y1="38.9375" y2="38.9375"/></g><g id="elem_PrescribingPractitioner"><rect fill="#696969" height="47.9375" rx="5" ry="5" style="stroke:#000000;stroke-width:0.5;" width="163" x="7" y="135"/><text fill="#FFFFFF" font-family="sans-serif" font-size="12" lengthAdjust="spacing" textLength="136" x="20.5" y="148.1387">&#171;Verschreibender LE&#187;</text><text fill="#FFFFFF" font-family="sans-serif" font-size="12" font-weight="bold" lengthAdjust="spacing" textLength="149" x="14" y="162.1074">PractitionerDirectory</text><line style="stroke:#000000;stroke-width:0.5;" x1="8" x2="169" y1="166.9375" y2="166.9375"/></g><g id="elem_PrescribingOrganization"><rect fill="#696969" height="47.9375" rx="5" ry="5" style="stroke:#000000;stroke-width:0.5;" width="172" x="105.5" y="388"/><text fill="#FFFFFF" font-family="sans-serif" font-size="12" lengthAdjust="spacing" textLength="134" x="124.5" y="401.1387">&#171;Verschreibende LEI&#187;</text><text fill="#FFFFFF" font-family="sans-serif" font-size="12" font-weight="bold" lengthAdjust="spacing" textLength="158" x="112.5" y="415.1074">OrganizationDirectory</text><line style="stroke:#000000;stroke-width:0.5;" x1="106.5" x2="276.5" y1="419.9375" y2="419.9375"/></g><g id="elem_DispenserOrganization"><rect fill="#696969" height="47.9375" rx="5" ry="5" style="stroke:#000000;stroke-width:0.5;" width="172" x="322.5" y="388"/><text fill="#FFFFFF" font-family="sans-serif" font-size="12" lengthAdjust="spacing" textLength="107" x="355" y="401.1387">&#171;Abgebende LEI&#187;</text><text fill="#FFFFFF" font-family="sans-serif" font-size="12" font-weight="bold" lengthAdjust="spacing" textLength="158" x="329.5" y="415.1074">OrganizationDirectory</text><line style="stroke:#000000;stroke-width:0.5;" x1="323.5" x2="493.5" y1="419.9375" y2="419.9375"/></g><g id="elem_PractionerRole"><rect fill="#696969" height="33.9688" rx="5" ry="5" style="stroke:#000000;stroke-width:0.5;" width="138" x="122.5" y="270"/><text fill="#FFFFFF" font-family="sans-serif" font-size="12" lengthAdjust="spacing" textLength="124" x="129.5" y="283.1387">EPAPractitionerRole</text><line style="stroke:#000000;stroke-width:0.5;" x1="123.5" x2="259.5" y1="287.9688" y2="287.9688"/></g><g id="elem_Medication"><rect fill="#8FBC8F" height="47.9375" rx="5" ry="5" style="stroke:#000000;stroke-width:0.5;" width="118" x="599.5" y="135"/><text fill="#FFFFFF" font-family="sans-serif" font-size="12" lengthAdjust="spacing" textLength="86" x="615.5" y="148.1387">&#171;Arzneimittel&#187;</text><text fill="#FFFFFF" font-family="sans-serif" font-size="12" font-weight="bold" lengthAdjust="spacing" textLength="104" x="606.5" y="162.1074">EPAMedication</text><line style="stroke:#000000;stroke-width:0.5;" x1="600.5" x2="716.5" y1="166.9375" y2="166.9375"/></g><g id="elem_MedicationRequest"><rect fill="#8FBC8F" height="53.9063" rx="5" ry="5" style="stroke:#000000;stroke-width:0.5;" width="223" x="205" y="132"/><text fill="#FFFFFF" font-family="sans-serif" font-size="12" lengthAdjust="spacing" textLength="175" x="229" y="145.1387">&#171;Arzneimittelverschreibung&#187;</text><text fill="#FFFFFF" font-family="sans-serif" font-size="12" font-weight="bold" lengthAdjust="spacing" textLength="163" x="235" y="159.1074">EPAMedicationRequest</text><line style="stroke:#000000;stroke-width:0.5;" x1="206" x2="427" y1="163.9375" y2="163.9375"/><ellipse cx="216" cy="176.4219" fill="#84BE84" rx="3" ry="3" style="stroke:#038048;stroke-width:1.0;"/><text fill="#FFFFFF" font-family="sans-serif" font-size="12" lengthAdjust="spacing" textLength="197" x="225" y="179.0762">subject: Reference(EPAPatient)</text></g><g id="elem_MedicationDispense"><rect fill="#8FBC8F" height="47.9375" rx="5" ry="5" style="stroke:#000000;stroke-width:0.5;" width="184" x="316.5" y="263"/><text fill="#FFFFFF" font-family="sans-serif" font-size="12" lengthAdjust="spacing" textLength="104" x="356.5" y="276.1387">&#171;Dispensierung&#187;</text><text fill="#FFFFFF" font-family="sans-serif" font-size="12" font-weight="bold" lengthAdjust="spacing" textLength="170" x="323.5" y="290.1074">EPAMedicationDispense</text><line style="stroke:#000000;stroke-width:0.5;" x1="317.5" x2="499.5" y1="294.9375" y2="294.9375"/></g><!--reverse link Patient to MedicationRequest--><g id="link_Patient_MedicationRequest"><path codeLine="26" d="M316.5,61.11 C316.5,82.85 316.5,109.36 316.5,131.99 " fill="none" id="Patient-backto-MedicationRequest" style="stroke:#5C7AAB;stroke-width:1.0;"/><polygon fill="#5C7AAB" points="316.5,55.11,312.5,64.11,316.5,60.11,320.5,64.11,316.5,55.11" style="stroke:#5C7AAB;stroke-width:1.0;"/><text fill="#777777" font-family="sans-serif" font-size="13" lengthAdjust="spacing" textLength="46" x="317.5" y="98.0669">subject</text></g><!--link MedicationRequest to Medication--><g id="link_MedicationRequest_Medication"><path codeLine="27" d="M428.01,159 C485.12,159 546.35,159 593.41,159 " fill="none" id="MedicationRequest-to-Medication" style="stroke:#5C7AAB;stroke-width:1.0;"/><polygon fill="#5C7AAB" points="599.41,159,590.41,155,594.41,159,590.41,163,599.41,159" style="stroke:#5C7AAB;stroke-width:1.0;"/><text fill="#777777" font-family="sans-serif" font-size="13" lengthAdjust="spacing" textLength="135" x="446.25" y="152.0669">medicationReference</text></g><!--link MedicationRequest to PractionerRole--><g id="link_MedicationRequest_PractionerRole"><path codeLine="28" d="M290.6,186.11 C265.57,211.34 232.6755,244.4903 211.6955,265.6403 " fill="none" id="MedicationRequest-to-PractionerRole" style="stroke:#5C7AAB;stroke-width:1.0;"/><polygon fill="#5C7AAB" points="207.47,269.9,216.648,266.3274,210.9912,266.3502,210.9684,260.6934,207.47,269.9" style="stroke:#5C7AAB;stroke-width:1.0;"/><text fill="#777777" font-family="sans-serif" font-size="13" lengthAdjust="spacing" textLength="62" x="258.5" y="229.0669">requester</text></g><!--reverse link PrescribingPractitioner to PractionerRole--><g id="link_PrescribingPractitioner_PractionerRole"><path codeLine="30" d="M100.9788,188.487 C108.0888,203.567 116.05,217.8 128.5,233 C140,247.04 155.6,260.2 168.39,269.89 " fill="none" id="PrescribingPractitioner-backto-PractionerRole" style="stroke:#5C7AAB;stroke-width:1.0;"/><polygon fill="#5C7AAB" points="98.42,183.06,98.6401,192.9064,100.5523,187.5825,105.8762,189.4947,98.42,183.06" style="stroke:#5C7AAB;stroke-width:1.0;"/><text fill="#777777" font-family="sans-serif" font-size="13" lengthAdjust="spacing" textLength="73" x="129.5" y="229.0669">practitioner</text></g><!--link PractionerRole to PrescribingOrganization--><g id="link_PractionerRole_PrescribingOrganization"><path codeLine="31" d="M191.5,304.08 C191.5,325.44 191.5,357.31 191.5,381.77 " fill="none" id="PractionerRole-to-PrescribingOrganization" style="stroke:#5C7AAB;stroke-width:1.0;"/><polygon fill="#5C7AAB" points="191.5,387.77,195.5,378.77,191.5,382.77,187.5,378.77,191.5,387.77" style="stroke:#5C7AAB;stroke-width:1.0;"/><text fill="#777777" font-family="sans-serif" font-size="13" lengthAdjust="spacing" textLength="79" x="192.5" y="354.0669">organization</text></g><!--reverse link Medication to MedicationDispense--><g id="link_Medication_MedicationDispense"><path codeLine="33" d="M612.252,185.9583 C585.672,200.6883 555.43,217.03 523.5,233 C503.05,243.23 480.24,253.89 460.36,262.95 " fill="none" id="Medication-backto-MedicationDispense" style="stroke:#5C7AAB;stroke-width:1.0;"/><polygon fill="#5C7AAB" points="617.5,183.05,607.6891,183.9138,613.1267,185.4736,611.5669,190.9112,617.5,183.05" style="stroke:#5C7AAB;stroke-width:1.0;"/><text fill="#777777" font-family="sans-serif" font-size="13" lengthAdjust="spacing" textLength="135" x="553.5" y="229.0669">medicationReference</text></g><!--reverse link MedicationRequest to MedicationDispense--><g id="link_MedicationRequest_MedicationDispense"><path codeLine="34" d="M339.0991,190.9551 C355.6291,213.5851 375.78,241.18 391.63,262.89 " fill="none" id="MedicationRequest-backto-MedicationDispense" style="stroke:#5C7AAB;stroke-width:1.0;"/><polygon fill="#5C7AAB" points="335.56,186.11,337.6386,195.737,338.5092,190.1476,344.0987,191.0183,335.56,186.11" style="stroke:#5C7AAB;stroke-width:1.0;"/><text fill="#777777" font-family="sans-serif" font-size="13" lengthAdjust="spacing" textLength="146" x="368.5" y="229.0669">authorizingPrescription</text></g><!--link MedicationDispense to DispenserOrganization--><g id="link_MedicationDispense_DispenserOrganization"><path codeLine="35" d="M408.5,311.14 C408.5,333.13 408.5,360.01 408.5,381.97 " fill="none" id="MedicationDispense-to-DispenserOrganization" style="stroke:#5C7AAB;stroke-width:1.0;"/><polygon fill="#5C7AAB" points="408.5,387.97,412.5,378.97,408.5,382.97,404.5,378.97,408.5,387.97" style="stroke:#5C7AAB;stroke-width:1.0;"/><text fill="#777777" font-family="sans-serif" font-size="13" lengthAdjust="spacing" textLength="96" x="409.5" y="354.0669">perfomer.actor</text></g><rect fill="none" height="62.8906" id="_legend" rx="5" ry="5" style="stroke:#000000;stroke-width:1.0;" width="180" x="517.5" y="452.9375"/><text fill="#000000" font-family="sans-serif" font-size="14" lengthAdjust="spacing" textLength="36" x="526.5" y="472.9326">Color</text><text fill="#000000" font-family="sans-serif" font-size="14" lengthAdjust="spacing" textLength="32" x="570.5" y="472.9326">Data</text><rect fill="#8FBC8F" height="16.2969" style="stroke:none;stroke-width:1.0;" width="44" x="522.5" y="476.2344"/><text fill="#000000" font-family="sans-serif" font-size="14" lengthAdjust="spacing" textLength="4" x="522.5" y="489.2295">&#160;</text><text fill="#000000" font-family="sans-serif" font-size="14" lengthAdjust="spacing" textLength="118" x="570.5" y="489.2295">Prescription Data</text><rect fill="#696969" height="16.2969" style="stroke:none;stroke-width:1.0;" width="44" x="522.5" y="492.5313"/><text fill="#000000" font-family="sans-serif" font-size="14" lengthAdjust="spacing" textLength="4" x="522.5" y="505.5264">&#160;</text><text fill="#000000" font-family="sans-serif" font-size="14" lengthAdjust="spacing" textLength="36" x="570.5" y="505.5264">Actor</text><line style="stroke:#000000;stroke-width:1.0;" x1="522.5" x2="692.5" y1="459.9375" y2="459.9375"/><line style="stroke:#000000;stroke-width:1.0;" x1="522.5" x2="692.5" y1="476.2344" y2="476.2344"/><line style="stroke:#000000;stroke-width:1.0;" x1="522.5" x2="692.5" y1="492.5313" y2="492.5313"/><line style="stroke:#000000;stroke-width:1.0;" x1="522.5" x2="692.5" y1="508.8281" y2="508.8281"/><line style="stroke:#000000;stroke-width:1.0;" x1="522.5" x2="522.5" y1="459.9375" y2="508.8281"/><line style="stroke:#000000;stroke-width:1.0;" x1="566.5" x2="566.5" y1="459.9375" y2="508.8281"/><line style="stroke:#000000;stroke-width:1.0;" x1="692.5" x2="692.5" y1="459.9375" y2="508.8281"/><!--SRC=[bLHDRzD04BtxLuoQ2mGLKGegYg98QLCGKcYZL88Bb_LwuWnnTiruNMW8_vtrsexNZeDKtppxFcPcdvrjIAM2nHPMzFk6M2Ou5o4czu_8YKXJKZ6iH99Xa1sGh7CLISqA6IxUU0Sw_87Im9y0x7Cjv2Psq1kTQ8OPRJynFfLdcYFaidwTMA2hJfdrhx8uU2-lX0XT-QDMve5s21Tl3-ybwjkQ3BhQdJRODHnSlljmYM4ZtH07L-u9_dhDpp565NL5IekWckniF8Qlo1d9DRAnuqyctzLmUBkOBeGXL6OuF0EHGVK6NPvSCr9eRInrVbkn5ooa8KFQxdD6RF6QdseXnamoXVOQVDXfNIlxkTAzvrWesec2yXzT7-RhJiCOdoCveon5bI7t2XOhyWPOwWIhHefYNMhvyquXRSaOJ9ezVy68f9EkR9i236Q2DmyeRCnGmIcjnyE-Sflj7k4b_imnCqVwLRrZKwNz5MIvynl14bV8g2I-Q7BnqaRDwwVQ5I6VwA5Uvb4JzK5ts20uRlGyFv_08OkZkiC-95kajyaHR3rCDKuVBxAyzXLQBfUdDgP1vynrT2BJbfZw4UzIepRLJvcbQZzqGS- -dFKpHco8IOjOZpu2aPkrPjgvELnVgNFlqoYQx_r0YgcHLtgB_5eKdvEzoSJzYO0fNXiNhZsKFwCzp8GHi2-BurO49dlmk-WYov-l1KqB4tjW7KgVVm00]--></g></svg>