<?xml version="1.0" encoding="us-ascii" standalone="no"?><svg xmlns="http://www.w3.org/2000/svg" xmlns:xlink="http://www.w3.org/1999/xlink" contentStyleType="text/css" height="803px" preserveAspectRatio="none" style="width:1494px;height:803px;background:#FFFFFF;" version="1.1" viewBox="0 0 1494 803" width="1494px" zoomAndPan="magnify"><defs/><g><rect fill="#D3D3D3" height="784.207" style="stroke:#181818;stroke-width:0.5;" width="195" x="922" y="6"/><text fill="#000000" font-family="sans-serif" font-size="13" font-weight="bold" lengthAdjust="spacing" textLength="122" x="958.5" y="18.5684">ePA-Aktensystem</text><rect fill="#F5F5DC" height="784.207" style="stroke:#181818;stroke-width:0.5;" width="342" x="1139" y="6"/><text fill="#000000" font-family="sans-serif" font-size="13" font-weight="bold" lengthAdjust="spacing" textLength="166" x="1227" y="18.5684">ePA-Aktensystem / VAU</text><rect fill="none" height="410.8145" style="stroke:#000000;stroke-width:1.5;" width="1234" x="253" y="368.3926"/><rect fill="none" height="133.2422" style="stroke:#000000;stroke-width:1.5;" width="1071" x="263" y="638.9648"/><line style="stroke:#0000FF;stroke-width:0.5;stroke-dasharray:5.0,5.0;" x1="45" x2="45" y1="89.7754" y2="796.207"/><line style="stroke:#0000FF;stroke-width:0.5;stroke-dasharray:5.0,5.0;" x1="372" x2="372" y1="89.7754" y2="796.207"/><line style="stroke:#0000FF;stroke-width:0.5;stroke-dasharray:5.0,5.0;" x1="1019" x2="1019" y1="89.7754" y2="796.207"/><line style="stroke:#0000FF;stroke-width:0.5;stroke-dasharray:5.0,5.0;" x1="1233" x2="1233" y1="89.7754" y2="796.207"/><line style="stroke:#0000FF;stroke-width:0.5;stroke-dasharray:5.0,5.0;" x1="1405" x2="1405" y1="89.7754" y2="796.207"/><rect fill="#3483EB" height="30.4883" rx="2.5" ry="2.5" style="stroke:#3483EB;stroke-width:0.5;" width="41" x="25" y="58.2871"/><text fill="#FFFFFF" font-family="sans-serif" font-size="14" lengthAdjust="spacing" textLength="27" x="32" y="78.8223">AVS</text><rect fill="#3483EB" height="30.4883" rx="2.5" ry="2.5" style="stroke:#3483EB;stroke-width:0.5;" width="159" x="293" y="58.2871"/><text fill="#FFFFFF" font-family="sans-serif" font-size="14" lengthAdjust="spacing" textLength="145" x="300" y="78.8223">E-Rezept-Fachdienst</text><rect fill="#3483EB" height="30.4883" rx="2.5" ry="2.5" style="stroke:#3483EB;stroke-width:0.5;" width="147" x="946" y="58.2871"/><text fill="#FFFFFF" font-family="sans-serif" font-size="14" lengthAdjust="spacing" textLength="133" x="953" y="78.8223">Information Service</text><rect fill="#3483EB" height="30.4883" rx="2.5" ry="2.5" style="stroke:#3483EB;stroke-width:0.5;" width="141" x="1163" y="58.2871"/><text fill="#FFFFFF" font-family="sans-serif" font-size="14" lengthAdjust="spacing" textLength="127" x="1170" y="78.8223">Medication Service</text><rect fill="#EB5E34" height="63.4648" rx="2.5" ry="2.5" style="stroke:#3483EB;stroke-width:0.5;" width="103" x="1354" y="25.3105"/><text fill="#FFFFFF" font-family="sans-serif" font-size="14" lengthAdjust="spacing" textLength="29" x="1389" y="45.8457">VAU</text><text fill="#FFFFFF" font-family="sans-serif" font-size="14" lengthAdjust="spacing" textLength="52" x="1377.5" y="62.334">Session</text><text fill="#FFFFFF" font-family="sans-serif" font-size="14" lengthAdjust="spacing" textLength="89" x="1361" y="78.8223">Management</text><polygon fill="#1E90FF" points="360.5,117.0859,370.5,121.0859,360.5,125.0859,364.5,121.0859" style="stroke:#1E90FF;stroke-width:1.0;"/><line style="stroke:#1E90FF;stroke-width:1.0;" x1="45.5" x2="366.5" y1="121.0859" y2="121.0859"/><text fill="#000000" font-family="sans-serif" font-size="13" font-weight="bold" lengthAdjust="spacing" textLength="9" x="52.5" y="116.3438">1</text><text fill="#000000" font-family="sans-serif" font-size="13" lengthAdjust="spacing" textLength="290" x="65.5" y="116.3438">Anfrage: Dispensierinformationen &#252;bermitteln</text><line style="stroke:#1E90FF;stroke-width:1.0;" x1="372.5" x2="414.5" y1="150.3965" y2="150.3965"/><line style="stroke:#1E90FF;stroke-width:1.0;" x1="414.5" x2="414.5" y1="150.3965" y2="163.3965"/><line style="stroke:#1E90FF;stroke-width:1.0;" x1="373.5" x2="414.5" y1="163.3965" y2="163.3965"/><polygon fill="#1E90FF" points="383.5,159.3965,373.5,163.3965,383.5,167.3965,379.5,163.3965" style="stroke:#1E90FF;stroke-width:1.0;"/><text fill="#000000" font-family="sans-serif" font-size="13" font-weight="bold" lengthAdjust="spacing" textLength="9" x="379.5" y="145.6543">2</text><text fill="#000000" font-family="sans-serif" font-size="13" lengthAdjust="spacing" textLength="499" x="392.5" y="145.6543">Durchf&#252;hren der standardm&#228;&#223;igen Workflow-Logik des E-Rezept-Fachdienstes</text><polygon fill="#1E90FF" points="56.5,188.707,46.5,192.707,56.5,196.707,52.5,192.707" style="stroke:#1E90FF;stroke-width:1.0;"/><line style="stroke:#1E90FF;stroke-width:1.0;stroke-dasharray:2.0,2.0;" x1="50.5" x2="371.5" y1="192.707" y2="192.707"/><text fill="#000000" font-family="sans-serif" font-size="13" font-weight="bold" lengthAdjust="spacing" textLength="9" x="62.5" y="187.9648">3</text><text fill="#000000" font-family="sans-serif" font-size="13" lengthAdjust="spacing" textLength="95" x="75.5" y="187.9648">Antwort: Erfolg</text><line style="stroke:#1E90FF;stroke-width:1.0;" x1="372.5" x2="414.5" y1="237.3281" y2="237.3281"/><line style="stroke:#1E90FF;stroke-width:1.0;" x1="414.5" x2="414.5" y1="237.3281" y2="250.3281"/><line style="stroke:#1E90FF;stroke-width:1.0;" x1="373.5" x2="414.5" y1="250.3281" y2="250.3281"/><polygon fill="#1E90FF" points="383.5,246.3281,373.5,250.3281,383.5,254.3281,379.5,250.3281" style="stroke:#1E90FF;stroke-width:1.0;"/><text fill="#000000" font-family="sans-serif" font-size="13" font-weight="bold" lengthAdjust="spacing" textLength="9" x="379.5" y="224.9307">4</text><text fill="#000000" font-family="sans-serif" font-size="13" lengthAdjust="spacing" textLength="403" x="392.5" y="217.2754">Persistieren der Dispensierinformationen in einer Warteschlange</text><text fill="#000000" font-family="sans-serif" font-size="13" lengthAdjust="spacing" textLength="199" x="392.5" y="232.5859">f&#252;r die asynchrone &#220;bertragung</text><rect fill="none" height="39.4434" style="stroke:#000000;stroke-width:1.5;" width="846" x="270" y="258.3281"/><path d="M270,258.3281 L334,258.3281 L334,265.3281 L324,275.3281 L270,275.3281 L270,258.3281 " fill="#EEEEEE" style="stroke:#000000;stroke-width:2.0;"/><text fill="#000000" font-family="sans-serif" font-size="13" font-weight="bold" lengthAdjust="spacing" textLength="19" x="283" y="272.8965">ref</text><text fill="#000000" font-family="sans-serif" font-size="12" lengthAdjust="spacing" textLength="452" x="467" y="290.9297">Lokalisierung der Service-Endpunkte der ePA und der Akte eines Versicherten</text><polygon fill="#1E90FF" points="1007.5,320.082,1017.5,324.082,1007.5,328.082,1011.5,324.082" style="stroke:#1E90FF;stroke-width:1.0;"/><line style="stroke:#1E90FF;stroke-width:1.0;" x1="372.5" x2="1013.5" y1="324.082" y2="324.082"/><text fill="#000000" font-family="sans-serif" font-size="13" font-weight="bold" lengthAdjust="spacing" textLength="9" x="379.5" y="319.3398">5</text><text fill="#000000" font-family="sans-serif" font-size="13" lengthAdjust="spacing" textLength="504" x="392.5" y="319.3398">Anfrage: Widerspruchsinformationen zum Einstellen durch E-Rezept-Fachdienst</text><polygon fill="#1E90FF" points="383.5,349.3926,373.5,353.3926,383.5,357.3926,379.5,353.3926" style="stroke:#1E90FF;stroke-width:1.0;"/><line style="stroke:#1E90FF;stroke-width:1.0;stroke-dasharray:2.0,2.0;" x1="377.5" x2="1018.5" y1="353.3926" y2="353.3926"/><text fill="#000000" font-family="sans-serif" font-size="13" font-weight="bold" lengthAdjust="spacing" textLength="9" x="389.5" y="348.6504">6</text><text fill="#000000" font-family="sans-serif" font-size="13" lengthAdjust="spacing" textLength="232" x="402.5" y="348.6504">Antwort: Widerspruchsinformationen</text><path d="M253,368.3926 L315,368.3926 L315,375.7031 L305,385.7031 L253,385.7031 L253,368.3926 " fill="#EEEEEE" style="stroke:#000000;stroke-width:1.5;"/><rect fill="none" height="410.8145" style="stroke:#000000;stroke-width:1.5;" width="1234" x="253" y="368.3926"/><text fill="#000000" font-family="sans-serif" font-size="13" font-weight="bold" lengthAdjust="spacing" textLength="17" x="268" y="381.9609">alt</text><text fill="#000000" font-family="sans-serif" font-size="11" font-weight="bold" lengthAdjust="spacing" textLength="385" x="330" y="381.0273">[Widerspruch zum Einstellen durch E-Rezept-Fachdienst vorhanden]</text><line style="stroke:#1E90FF;stroke-width:1.0;" x1="372.5" x2="414.5" y1="407.0137" y2="407.0137"/><line style="stroke:#1E90FF;stroke-width:1.0;" x1="414.5" x2="414.5" y1="407.0137" y2="420.0137"/><line style="stroke:#1E90FF;stroke-width:1.0;" x1="373.5" x2="414.5" y1="420.0137" y2="420.0137"/><polygon fill="#1E90FF" points="383.5,416.0137,373.5,420.0137,383.5,424.0137,379.5,420.0137" style="stroke:#1E90FF;stroke-width:1.0;"/><text fill="#000000" font-family="sans-serif" font-size="13" font-weight="bold" lengthAdjust="spacing" textLength="9" x="379.5" y="402.2715">7</text><text fill="#000000" font-family="sans-serif" font-size="13" lengthAdjust="spacing" textLength="442" x="392.5" y="402.2715">Abbruch. L&#246;schen der Dispensierinformationen aus der Warteschlange</text><line style="stroke:#000000;stroke-width:1.0;stroke-dasharray:2.0,2.0;" x1="253" x2="1487" y1="429.0137" y2="429.0137"/><text fill="#000000" font-family="sans-serif" font-size="11" font-weight="bold" lengthAdjust="spacing" textLength="351" x="258" y="439.6484">[Kein Widerspruch zum Einstellen durch E-Rezept-Fachdienst]</text><rect fill="none" height="39.4434" style="stroke:#000000;stroke-width:1.5;" width="1210" x="270" y="442.9688"/><path d="M270,442.9688 L334,442.9688 L334,449.9688 L324,459.9688 L270,459.9688 L270,442.9688 " fill="#EEEEEE" style="stroke:#000000;stroke-width:2.0;"/><text fill="#000000" font-family="sans-serif" font-size="13" font-weight="bold" lengthAdjust="spacing" textLength="19" x="283" y="457.5371">ref</text><text fill="#000000" font-family="sans-serif" font-size="12" lengthAdjust="spacing" textLength="197" x="776.5" y="475.5703">Login in die Akte des Versicherten</text><line style="stroke:#1E90FF;stroke-width:1.0;" x1="372.5" x2="414.5" y1="524.0332" y2="524.0332"/><line style="stroke:#1E90FF;stroke-width:1.0;" x1="414.5" x2="414.5" y1="524.0332" y2="537.0332"/><line style="stroke:#1E90FF;stroke-width:1.0;" x1="373.5" x2="414.5" y1="537.0332" y2="537.0332"/><polygon fill="#1E90FF" points="383.5,533.0332,373.5,537.0332,383.5,541.0332,379.5,537.0332" style="stroke:#1E90FF;stroke-width:1.0;"/><text fill="#000000" font-family="sans-serif" font-size="13" font-weight="bold" lengthAdjust="spacing" textLength="9" x="379.5" y="511.6357">8</text><text fill="#000000" font-family="sans-serif" font-size="13" lengthAdjust="spacing" textLength="491" x="392.5" y="503.9805">Erzeugen der FHIR-Ressourcen MedicationDispense, Medication, Organization</text><text fill="#000000" font-family="sans-serif" font-size="13" lengthAdjust="spacing" textLength="272" x="392.5" y="519.291">auf Grundlage der Dispensierinformationen</text><polygon fill="#1E90FF" points="1221.5,562.3438,1231.5,566.3438,1221.5,570.3438,1225.5,566.3438" style="stroke:#1E90FF;stroke-width:1.0;"/><line style="stroke:#1E90FF;stroke-width:1.0;" x1="372.5" x2="1227.5" y1="566.3438" y2="566.3438"/><text fill="#000000" font-family="sans-serif" font-size="13" font-weight="bold" lengthAdjust="spacing" textLength="9" x="379.5" y="561.6016">9</text><text fill="#000000" font-family="sans-serif" font-size="13" lengthAdjust="spacing" textLength="504" x="392.5" y="561.6016">&#220;bermittlung der erzeugten FHIR-Ressourcen als FHIR Operation per HTTP POST</text><line style="stroke:#1E90FF;stroke-width:1.0;" x1="1233.5" x2="1275.5" y1="610.9648" y2="610.9648"/><line style="stroke:#1E90FF;stroke-width:1.0;" x1="1275.5" x2="1275.5" y1="610.9648" y2="623.9648"/><line style="stroke:#1E90FF;stroke-width:1.0;" x1="1234.5" x2="1275.5" y1="623.9648" y2="623.9648"/><polygon fill="#1E90FF" points="1244.5,619.9648,1234.5,623.9648,1244.5,627.9648,1240.5,623.9648" style="stroke:#1E90FF;stroke-width:1.0;"/><text fill="#000000" font-family="sans-serif" font-size="13" font-weight="bold" lengthAdjust="spacing" textLength="18" x="1240.5" y="598.5674">10</text><text fill="#000000" font-family="sans-serif" font-size="13" lengthAdjust="spacing" textLength="109" x="1262.5" y="590.9121">FHIR-Ressourcen</text><text fill="#000000" font-family="sans-serif" font-size="13" lengthAdjust="spacing" textLength="74" x="1262.5" y="606.2227">persistieren</text><path d="M263,638.9648 L325,638.9648 L325,646.2754 L315,656.2754 L263,656.2754 L263,638.9648 " fill="#EEEEEE" style="stroke:#000000;stroke-width:1.5;"/><rect fill="none" height="133.2422" style="stroke:#000000;stroke-width:1.5;" width="1071" x="263" y="638.9648"/><text fill="#000000" font-family="sans-serif" font-size="13" font-weight="bold" lengthAdjust="spacing" textLength="17" x="278" y="652.5332">alt</text><text fill="#000000" font-family="sans-serif" font-size="11" font-weight="bold" lengthAdjust="spacing" textLength="95" x="340" y="651.5996">[successful case]</text><polygon fill="#1E90FF" points="383.5,673.5859,373.5,677.5859,383.5,681.5859,379.5,677.5859" style="stroke:#1E90FF;stroke-width:1.0;"/><line style="stroke:#1E90FF;stroke-width:1.0;stroke-dasharray:2.0,2.0;" x1="377.5" x2="1232.5" y1="677.5859" y2="677.5859"/><text fill="#000000" font-family="sans-serif" font-size="13" font-weight="bold" lengthAdjust="spacing" textLength="18" x="389.5" y="672.8438">11</text><text fill="#000000" font-family="sans-serif" font-size="13" lengthAdjust="spacing" textLength="205" x="411.5" y="672.8438">Antwort: Transaktion erfolgreich</text><line style="stroke:#1E90FF;stroke-width:1.0;" x1="372.5" x2="414.5" y1="706.8965" y2="706.8965"/><line style="stroke:#1E90FF;stroke-width:1.0;" x1="414.5" x2="414.5" y1="706.8965" y2="719.8965"/><line style="stroke:#1E90FF;stroke-width:1.0;" x1="373.5" x2="414.5" y1="719.8965" y2="719.8965"/><polygon fill="#1E90FF" points="383.5,715.8965,373.5,719.8965,383.5,723.8965,379.5,719.8965" style="stroke:#1E90FF;stroke-width:1.0;"/><text fill="#000000" font-family="sans-serif" font-size="13" font-weight="bold" lengthAdjust="spacing" textLength="18" x="379.5" y="702.1543">12</text><text fill="#000000" font-family="sans-serif" font-size="13" lengthAdjust="spacing" textLength="381" x="401.5" y="702.1543">L&#246;schen der Dispensierinformationen aus der Warteschlange</text><line style="stroke:#000000;stroke-width:1.0;stroke-dasharray:2.0,2.0;" x1="263" x2="1334" y1="728.8965" y2="728.8965"/><line style="stroke:#1E90FF;stroke-width:1.0;" x1="372.5" x2="414.5" y1="751.207" y2="751.207"/><line style="stroke:#1E90FF;stroke-width:1.0;" x1="414.5" x2="414.5" y1="751.207" y2="764.207"/><line style="stroke:#1E90FF;stroke-width:1.0;" x1="373.5" x2="414.5" y1="764.207" y2="764.207"/><polygon fill="#1E90FF" points="383.5,760.207,373.5,764.207,383.5,768.207,379.5,764.207" style="stroke:#1E90FF;stroke-width:1.0;"/><text fill="#000000" font-family="sans-serif" font-size="13" font-weight="bold" lengthAdjust="spacing" textLength="18" x="379.5" y="746.4648">13</text><text fill="#000000" font-family="sans-serif" font-size="13" lengthAdjust="spacing" textLength="611" x="401.5" y="746.4648">Abbruch. Die Dispensierinformationen bleiben in der Warteschlange f&#252;r eine sp&#228;tere &#220;bertragung</text><!--SRC=[fLN1Rjj64BtlLmpigzKcjGiKEXIWAZaHejI4wTeNNLRaa5o8scLcbtQi87yIe9TyGq-vwSSwkvGjIhJIejL9sfbzy-QzsP5TAbrBaYj8IfcP1wKBo6LbKTZdI2p9gLJLKhjOPfbF-UbL9puo7v_ENxyIdO353mtg5E6J0Fv4HERXDrCPWh792gHHrM0RIPsXaQ4CwSNuJEKuKngxAI4OeXr-8vak2pADpjgaq_EBNyvnqKlhu1n9kJJQ9MgDyFhYfL1xzwvKRakYRU4xvKF28Uhlnk6nIv-5A5M6a1lZ5kQZa8qpkbaja8IeTspW9BfDJa1QY6-J_S1aS8rhhDtWKgPbfb1R5n8drvTZ8HWJJZ2E1j7ISUZHEboTmEbC5QLxG_8n4Dp3c-hSq4ewPJGaIFSgnO0tJGJg33p95r7XHxYD_c3i4Qe2-xZlCLDf7tOIH_rS1eAvJj1QdpxNxwMM1QvGjwtvy2akViRpYnqd5WO6luQsXn3fdFZ64CRArinG8QbTNwXXyuqbNYddiDB2tzdT7JUKbldcMqcSnnC4racTISfMcw-RFxat3NU6bdbb7WOpKwWb9t4VVHlGRf4PcjbvLkx1a1l2X79J5UAWS8nabNNCTLlu67cb0VcXy6YoQ6ZJifAwmBbcqWHScpLwr6b9d0oRBzoeOp4QpGK9Sp3tVDDNF6DFXp0pIrafNuGpGjcjFOE9pkf6iyFXbEq67j_mtTiUAB0NddHQSWtKkuQcISU3EnvmiZKrQMdt6ratAvWeBrLL-PwzyYyfAQP9KF79tAsCHu65a9NhXlzr9RWtLBBTZE6dSj-WQB7mO3_0RFCNg_uFBid6XlYUIG9vxS8xrku_qMlNq86B_1oyZOKAa-7zZrhJ3jtfTpIXDJR5jf7BjzDhBccjuV9yjdknsnRnh7Ds1bTKIAtMuTTSooQ7Dpn3MSMcVq-OVHfnD6ndr3_6wca4CV1YqZrI_BSLpk2gHchN2N-1jpStCSHNoKsBphFw17u0CDTrvvcrclXXiKsQSbBUL91As-wlPwZ-wDsGr5OkGtqChvcGXTvTsvFvVyoB1_CpSmJvUIJ7RFinv4M5Qj7kZLu124l3lsMmzUQhOrNsTqOWe3FXDwtu6m00]--></g></svg>