<?xml version="1.0" encoding="us-ascii" standalone="no"?><svg xmlns="http://www.w3.org/2000/svg" xmlns:xlink="http://www.w3.org/1999/xlink" contentStyleType="text/css" height="537px" preserveAspectRatio="none" style="width:675px;height:537px;background:#FFFFFF;" version="1.1" viewBox="0 0 675 537" width="675px" zoomAndPan="magnify"><defs/><g><g id="elem_Patient"><rect fill="#696969" height="48.2656" rx="5" ry="5" style="stroke:#000000;stroke-width:0.5;" width="96" x="237" y="7"/><text fill="#FFFFFF" font-family="sans-serif" font-size="12" lengthAdjust="spacing" textLength="82" x="244" y="20.6016">&#171;Versicherter&#187;</text><text fill="#FFFFFF" font-family="sans-serif" font-size="12" font-weight="bold" lengthAdjust="spacing" textLength="66" x="252" y="34.7344">EPAPatient</text><line style="stroke:#000000;stroke-width:0.5;" x1="238" x2="332" y1="39.2656" y2="39.2656"/></g><g id="elem_PrescribingPractitioner"><rect fill="#696969" height="48.2656" rx="5" ry="5" style="stroke:#000000;stroke-width:0.5;" width="142" x="7" y="135.34"/><text fill="#FFFFFF" font-family="sans-serif" font-size="12" lengthAdjust="spacing" textLength="125" x="15.5" y="148.9416">&#171;Verschreibender LE&#187;</text><text fill="#FFFFFF" font-family="sans-serif" font-size="12" font-weight="bold" lengthAdjust="spacing" textLength="128" x="14" y="163.0744">PractitionerDirectory</text><line style="stroke:#000000;stroke-width:0.5;" x1="8" x2="148" y1="167.6056" y2="167.6056"/></g><g id="elem_PrescribingOrganization"><rect fill="#696969" height="48.2656" rx="5" ry="5" style="stroke:#000000;stroke-width:0.5;" width="152" x="132" y="388.93"/><text fill="#FFFFFF" font-family="sans-serif" font-size="12" lengthAdjust="spacing" textLength="123" x="146.5" y="402.5316">&#171;Verschreibende LEI&#187;</text><text fill="#FFFFFF" font-family="sans-serif" font-size="12" font-weight="bold" lengthAdjust="spacing" textLength="138" x="139" y="416.6644">OrganizationDirectory</text><line style="stroke:#000000;stroke-width:0.5;" x1="133" x2="283" y1="421.1956" y2="421.1956"/></g><g id="elem_DispenserOrganization"><rect fill="#696969" height="48.2656" rx="5" ry="5" style="stroke:#000000;stroke-width:0.5;" width="152" x="333" y="388.93"/><text fill="#FFFFFF" font-family="sans-serif" font-size="12" lengthAdjust="spacing" textLength="99" x="359.5" y="402.5316">&#171;Abgebende LEI&#187;</text><text fill="#FFFFFF" font-family="sans-serif" font-size="12" font-weight="bold" lengthAdjust="spacing" textLength="138" x="340" y="416.6644">OrganizationDirectory</text><line style="stroke:#000000;stroke-width:0.5;" x1="334" x2="484" y1="421.1956" y2="421.1956"/></g><g id="elem_PractionerRole"><rect fill="#696969" height="34.1328" rx="5" ry="5" style="stroke:#000000;stroke-width:0.5;" width="126" x="145" y="270.74"/><text fill="#FFFFFF" font-family="sans-serif" font-size="12" lengthAdjust="spacing" textLength="112" x="152" y="284.3416">EPAPractitionerRole</text><line style="stroke:#000000;stroke-width:0.5;" x1="146" x2="270" y1="288.8728" y2="288.8728"/></g><g id="elem_Medication"><rect fill="#8FBC8F" height="48.2656" rx="5" ry="5" style="stroke:#000000;stroke-width:0.5;" width="105" x="553.5" y="135.34"/><text fill="#FFFFFF" font-family="sans-serif" font-size="12" lengthAdjust="spacing" textLength="81" x="565.5" y="148.9416">&#171;Arzneimittel&#187;</text><text fill="#FFFFFF" font-family="sans-serif" font-size="12" font-weight="bold" lengthAdjust="spacing" textLength="91" x="560.5" y="163.0744">EPAMedication</text><line style="stroke:#000000;stroke-width:0.5;" x1="554.5" x2="657.5" y1="167.6056" y2="167.6056"/></g><g id="elem_MedicationRequest"><rect fill="#8FBC8F" height="54.3984" rx="5" ry="5" style="stroke:#000000;stroke-width:0.5;" width="203" x="183.5" y="132.27"/><text fill="#FFFFFF" font-family="sans-serif" font-size="12" lengthAdjust="spacing" textLength="162" x="204" y="145.8716">&#171;Arzneimittelverschreibung&#187;</text><text fill="#FFFFFF" font-family="sans-serif" font-size="12" font-weight="bold" lengthAdjust="spacing" textLength="141" x="214.5" y="160.0044">EPAMedicationRequest</text><line style="stroke:#000000;stroke-width:0.5;" x1="184.5" x2="385.5" y1="164.5356" y2="164.5356"/><ellipse cx="194.5" cy="177.102" fill="#84BE84" rx="3" ry="3" style="stroke:#038048;stroke-width:1.0;"/><text fill="#FFFFFF" font-family="sans-serif" font-size="12" lengthAdjust="spacing" textLength="177" x="203.5" y="180.1372">subject: Reference(EPAPatient)</text></g><g id="elem_MedicationDispense"><rect fill="#8FBC8F" height="48.2656" rx="5" ry="5" style="stroke:#000000;stroke-width:0.5;" width="163" x="327.5" y="263.67"/><text fill="#FFFFFF" font-family="sans-serif" font-size="12" lengthAdjust="spacing" textLength="94" x="362" y="277.2716">&#171;Dispensierung&#187;</text><text fill="#FFFFFF" font-family="sans-serif" font-size="12" font-weight="bold" lengthAdjust="spacing" textLength="149" x="334.5" y="291.4044">EPAMedicationDispense</text><line style="stroke:#000000;stroke-width:0.5;" x1="328.5" x2="489.5" y1="295.9356" y2="295.9356"/></g><!--reverse link Patient to MedicationRequest--><g id="link_Patient_MedicationRequest"><path codeLine="26" d="M285,61.6 C285,83.3 285,109.49 285,132.07 " fill="none" id="Patient-backto-MedicationRequest" style="stroke:#5C7AAB;stroke-width:1.0;"/><polygon fill="#5C7AAB" points="285,55.6,281,64.6,285,60.6,289,64.6,285,55.6" style="stroke:#5C7AAB;stroke-width:1.0;"/><text fill="#777777" font-family="sans-serif" font-size="13" lengthAdjust="spacing" textLength="46" x="286" y="98.8384">subject</text></g><!--link MedicationRequest to Medication--><g id="link_MedicationRequest_Medication"><path codeLine="27" d="M386.57,159.47 C441.85,159.47 501.97,159.47 547.08,159.47 " fill="none" id="MedicationRequest-to-Medication" style="stroke:#5C7AAB;stroke-width:1.0;"/><polygon fill="#5C7AAB" points="553.08,159.47,544.08,155.47,548.08,159.47,544.08,163.47,553.08,159.47" style="stroke:#5C7AAB;stroke-width:1.0;"/><text fill="#777777" font-family="sans-serif" font-size="13" lengthAdjust="spacing" textLength="131" x="404.5" y="153.0384">medicationReference</text></g><!--link MedicationRequest to PractionerRole--><g id="link_MedicationRequest_PractionerRole"><path codeLine="28" d="M268.86,186.95 C253.51,212.13 234.0321,244.0863 221.1321,265.2563 " fill="none" id="MedicationRequest-to-PractionerRole" style="stroke:#5C7AAB;stroke-width:1.0;"/><polygon fill="#5C7AAB" points="218.01,270.38,226.109,264.7759,220.6118,266.1103,219.2774,260.613,218.01,270.38" style="stroke:#5C7AAB;stroke-width:1.0;"/><text fill="#777777" font-family="sans-serif" font-size="13" lengthAdjust="spacing" textLength="59" x="249" y="230.2384">requester</text></g><!--reverse link PrescribingPractitioner to PractionerRole--><g id="link_PrescribingPractitioner_PractionerRole"><path codeLine="30" d="M106.453,188.1214 C132.293,213.2314 168.33,248.25 191.02,270.3 " fill="none" id="PrescribingPractitioner-backto-PractionerRole" style="stroke:#5C7AAB;stroke-width:1.0;"/><polygon fill="#5C7AAB" points="102.15,183.94,105.8169,193.0808,105.7358,187.4245,111.3921,187.3435,102.15,183.94" style="stroke:#5C7AAB;stroke-width:1.0;"/><text fill="#777777" font-family="sans-serif" font-size="13" lengthAdjust="spacing" textLength="73" x="151" y="230.2384">practitioner</text></g><!--link PractionerRole to PrescribingOrganization--><g id="link_PractionerRole_PrescribingOrganization"><path codeLine="31" d="M208,305.17 C208,326.52 208,358.02 208,382.45 " fill="none" id="PractionerRole-to-PrescribingOrganization" style="stroke:#5C7AAB;stroke-width:1.0;"/><polygon fill="#5C7AAB" points="208,388.45,212,379.45,208,383.45,204,379.45,208,388.45" style="stroke:#5C7AAB;stroke-width:1.0;"/><text fill="#777777" font-family="sans-serif" font-size="13" lengthAdjust="spacing" textLength="79" x="209" y="355.4984">organization</text></g><!--reverse link Medication to MedicationDispense--><g id="link_Medication_MedicationDispense"><path codeLine="33" d="M573.6233,187.7259 C555.1633,202.8059 534.69,218.54 511,233.67 C494.42,244.25 475.5,254.56 458.5,263.23 " fill="none" id="Medication-backto-MedicationDispense" style="stroke:#5C7AAB;stroke-width:1.0;"/><polygon fill="#5C7AAB" points="578.27,183.93,568.7694,186.526,574.3978,187.0932,573.8306,192.7216,578.27,183.93" style="stroke:#5C7AAB;stroke-width:1.0;"/><text fill="#777777" font-family="sans-serif" font-size="13" lengthAdjust="spacing" textLength="131" x="536" y="230.2384">medicationReference</text></g><!--reverse link MedicationRequest to MedicationDispense--><g id="link_MedicationRequest_MedicationDispense"><path codeLine="34" d="M315.1926,191.2323 C337.3526,213.8123 364.7,241.67 385.96,263.33 " fill="none" id="MedicationRequest-backto-MedicationDispense" style="stroke:#5C7AAB;stroke-width:1.0;"/><polygon fill="#5C7AAB" points="310.99,186.95,314.4391,196.1752,314.4922,190.5186,320.1488,190.5717,310.99,186.95" style="stroke:#5C7AAB;stroke-width:1.0;"/><text fill="#777777" font-family="sans-serif" font-size="13" lengthAdjust="spacing" textLength="147" x="355" y="230.2384">authorizingPrescription</text></g><!--link MedicationDispense to DispenserOrganization--><g id="link_MedicationDispense_DispenserOrganization"><path codeLine="35" d="M409,312.28 C409,334.21 409,360.77 409,382.68 " fill="none" id="MedicationDispense-to-DispenserOrganization" style="stroke:#5C7AAB;stroke-width:1.0;"/><polygon fill="#5C7AAB" points="409,388.68,413,379.68,409,383.68,405,379.68,409,388.68" style="stroke:#5C7AAB;stroke-width:1.0;"/><text fill="#777777" font-family="sans-serif" font-size="13" lengthAdjust="spacing" textLength="93" x="410" y="355.4984">perfomer.actor</text></g><rect fill="none" height="63.4648" id="_legend" rx="5" ry="5" style="stroke:#000000;stroke-width:1.0;" width="181" x="468" y="454.1956"/><text fill="#000000" font-family="sans-serif" font-size="14" lengthAdjust="spacing" textLength="38" x="477" y="474.7308">Color</text><text fill="#000000" font-family="sans-serif" font-size="14" lengthAdjust="spacing" textLength="31" x="523" y="474.7308">Data</text><rect fill="#8FBC8F" height="16.4883" style="stroke:none;stroke-width:1.0;" width="46" x="473" y="477.6839"/><text fill="#000000" font-family="sans-serif" font-size="14" lengthAdjust="spacing" textLength="4" x="473" y="491.2191">&#160;</text><text fill="#000000" font-family="sans-serif" font-size="14" lengthAdjust="spacing" textLength="117" x="523" y="491.2191">Prescription Data</text><rect fill="#696969" height="16.4883" style="stroke:none;stroke-width:1.0;" width="46" x="473" y="494.1722"/><text fill="#000000" font-family="sans-serif" font-size="14" lengthAdjust="spacing" textLength="4" x="473" y="507.7073">&#160;</text><text fill="#000000" font-family="sans-serif" font-size="14" lengthAdjust="spacing" textLength="37" x="523" y="507.7073">Actor</text><line style="stroke:#000000;stroke-width:1.0;" x1="473" x2="644" y1="461.1956" y2="461.1956"/><line style="stroke:#000000;stroke-width:1.0;" x1="473" x2="644" y1="477.6839" y2="477.6839"/><line style="stroke:#000000;stroke-width:1.0;" x1="473" x2="644" y1="494.1722" y2="494.1722"/><line style="stroke:#000000;stroke-width:1.0;" x1="473" x2="644" y1="510.6605" y2="510.6605"/><line style="stroke:#000000;stroke-width:1.0;" x1="473" x2="473" y1="461.1956" y2="510.6605"/><line style="stroke:#000000;stroke-width:1.0;" x1="519" x2="519" y1="461.1956" y2="510.6605"/><line style="stroke:#000000;stroke-width:1.0;" x1="644" x2="644" y1="461.1956" y2="510.6605"/><!--SRC=[bLHDRzD04BtxLuoQ2mGLKGegYg98QLCGKcYZL88Bb_LwuWnnTiruNMW8_vtrsexNZeDKtppxFcPcdvrjIAM2nHPMzFk6M2Ou5o4czu_8YKXJKZ6iH99Xa1sGh7CLISqA6IxUU0Sw_87Im9y0x7Cjv2Psq1kTQ8OPRJynFfLdcYFaidwTMA2hJfdrhx8uU2-lX0XT-QDMve5s21Tl3-ybwjkQ3BhQdJRODHnSlljmYM4ZtH07L-u9_dhDpp565NL5IekWckniF8Qlo1d9DRAnuqyctzLmUBkOBeGXL6OuF0EHGVK6NPvSCr9eRInrVbkn5ooa8KFQxdD6RF6QdseXnamoXVOQVDXfNIlxkTAzvrWesec2yXzT7-RhJiCOdoCveon5bI7t2XOhyWPOwWIhHefYNMhvyquXRSaOJ9ezVy68f9EkR9i236Q2DmyeRCnGmIcjnyE-Sflj7k4b_imnCqVwLRrZKwNz5MIvynl14bV8g2I-Q7BnqaRDwwVQ5I6VwA5Uvb4JzK5ts20uRlGyFv_08OkZkiC-95kajyaHR3rCDKuVBxAyzXLQBfUdDgP1vynrT2BJbfZw4UzIepRLJvcbQZzqGS- -dFKpHco8IOjOZpu2aPkrPjgvELnVgNFlqoYQx_r0YgcHLtgB_5eKdvEzoSJzYO0fNXiNhZsKFwCzp8GHi2-BurO49dlmk-WYov-l1KqB4tjW7KgVVm00]--></g></svg>