<?xml version="1.0" encoding="us-ascii" standalone="no"?><svg xmlns="http://www.w3.org/2000/svg" xmlns:xlink="http://www.w3.org/1999/xlink" contentStyleType="text/css" height="1201px" preserveAspectRatio="none" style="width:1283px;height:1201px;background:#FFFFFF;" version="1.1" viewBox="0 0 1283 1201" width="1283px" zoomAndPan="magnify"><defs/><g><g id="elem_Practitioner"><rect fill="#696969" height="48.2656" rx="5" ry="5" style="stroke:#000000;stroke-width:0.5;" width="142" x="349" y="132.34"/><text fill="#FFFFFF" font-family="sans-serif" font-size="12" lengthAdjust="spacing" textLength="101" x="369.5" y="145.9416">&#171;Arzt / Zahnarzt&#187;</text><text fill="#FFFFFF" font-family="sans-serif" font-size="12" font-weight="bold" lengthAdjust="spacing" textLength="128" x="356" y="160.0744">PractitionerDirectory</text><line style="stroke:#000000;stroke-width:0.5;" x1="350" x2="490" y1="164.6056" y2="164.6056"/></g><g id="elem_Organization"><rect fill="#696969" height="48.2656" rx="5" ry="5" style="stroke:#000000;stroke-width:0.5;" width="152" x="538" y="132.34"/><text fill="#FFFFFF" font-family="sans-serif" font-size="12" lengthAdjust="spacing" textLength="84" x="572" y="145.9416">&#171;Organisation&#187;</text><text fill="#FFFFFF" font-family="sans-serif" font-size="12" font-weight="bold" lengthAdjust="spacing" textLength="138" x="545" y="160.0744">OrganizationDirectory</text><line style="stroke:#000000;stroke-width:0.5;" x1="539" x2="689" y1="164.6056" y2="164.6056"/></g><g id="elem_DispenserOrganization"><rect fill="#696969" height="48.2656" rx="5" ry="5" style="stroke:#000000;stroke-width:0.5;" width="152" x="1082" y="257.67"/><text fill="#FFFFFF" font-family="sans-serif" font-size="12" lengthAdjust="spacing" textLength="67" x="1124.5" y="271.2716">&#171;Apotheke&#187;</text><text fill="#FFFFFF" font-family="sans-serif" font-size="12" font-weight="bold" lengthAdjust="spacing" textLength="138" x="1089" y="285.4044">OrganizationDirectory</text><line style="stroke:#000000;stroke-width:0.5;" x1="1083" x2="1233" y1="289.9356" y2="289.9356"/></g><g id="elem_PractitionerRole"><rect fill="#696969" height="34.1328" rx="5" ry="5" style="stroke:#000000;stroke-width:0.5;" width="126" x="634" y="264.73"/><text fill="#FFFFFF" font-family="sans-serif" font-size="12" lengthAdjust="spacing" textLength="112" x="641" y="278.3316">EPAPractitionerRole</text><line style="stroke:#000000;stroke-width:0.5;" x1="635" x2="759" y1="282.8628" y2="282.8628"/></g><g id="elem_Observation"><rect fill="#20B2AA" height="153.3281" rx="5" ry="5" style="stroke:#000000;stroke-width:0.5;" width="372" x="470" y="596"/><text fill="#000000" font-family="sans-serif" font-size="12" lengthAdjust="spacing" textLength="245" x="533.5" y="609.6016">&#171;K&#246;rpergr&#246;&#223;e&#187; EPAObservationBodyHeight</text><text fill="#000000" font-family="sans-serif" font-size="12" lengthAdjust="spacing" textLength="256" x="528" y="623.7344">&#171;K&#246;rpergewicht&#187; EPAObservationBodyWeight</text><text fill="#000000" font-family="sans-serif" font-size="12" lengthAdjust="spacing" textLength="273" x="519.5" y="637.8672">&#171;Stillstatus&#187; EPAObservationBreastfeedingStatus</text><text fill="#000000" font-family="sans-serif" font-size="12" lengthAdjust="spacing" textLength="284" x="514" y="652">&#171;Serumkreatinin-Wert&#187; EPAObservationCreatinine</text><text fill="#000000" font-family="sans-serif" font-size="12" lengthAdjust="spacing" textLength="335" x="488.5" y="666.1328">&#171;Schwangerschaftsstatus&#187; EPAObservationPregnancyStatus</text><text fill="#000000" font-family="sans-serif" font-size="12" lengthAdjust="spacing" textLength="358" x="477" y="680.2656">&#171;Entbindungstermin&#187; EPAObservationEstimatedDateOfDelivery</text><text fill="#000000" font-family="sans-serif" font-size="12" lengthAdjust="spacing" textLength="283" x="514.5" y="694.3984">&#171;Glomerul&#228;re Filtrationsrate&#187; EPAObservationGFR</text><text fill="#000000" font-family="sans-serif" font-size="12" font-weight="bold" lengthAdjust="spacing" textLength="99" x="603.5" y="708.5313">EPAObservation</text><text fill="#000000" font-family="sans-serif" font-size="12" lengthAdjust="spacing" textLength="6" x="702.5" y="708.5313">*</text><line style="stroke:#000000;stroke-width:0.5;" x1="471" x2="841" y1="713.0625" y2="713.0625"/><ellipse cx="481" cy="732.6953" fill="#84BE84" rx="3" ry="3" style="stroke:#038048;stroke-width:1.0;"/><text fill="#000000" font-family="sans-serif" font-size="12" lengthAdjust="spacing" textLength="249" x="490" y="728.6641">performer: Reference(EPAPractitionerRole |</text><text fill="#000000" font-family="sans-serif" font-size="12" lengthAdjust="spacing" textLength="129" x="494" y="742.7969">OrganizationDirectory)</text></g><g id="elem_ManagementNote"><rect fill="#20B2AA" height="54.3984" rx="5" ry="5" style="stroke:#000000;stroke-width:0.5;" width="290" x="7" y="779.32"/><text fill="#000000" font-family="sans-serif" font-size="12" lengthAdjust="spacing" textLength="148" x="78" y="792.9216">&#171;&#220;bergreifender Hinweis&#187;</text><text fill="#000000" font-family="sans-serif" font-size="12" font-weight="bold" lengthAdjust="spacing" textLength="276" x="14" y="807.0544">EPAObservationMedicationManagementNote</text><line style="stroke:#000000;stroke-width:0.5;" x1="8" x2="296" y1="811.5856" y2="811.5856"/><ellipse cx="18" cy="824.152" fill="#84BE84" rx="3" ry="3" style="stroke:#038048;stroke-width:1.0;"/><text fill="#000000" font-family="sans-serif" font-size="12" lengthAdjust="spacing" textLength="245" x="27" y="827.1872">performer: Reference(EPAPractitionerRole)</text></g><g id="elem_AllergyIntolerance"><rect fill="#20B2AA" height="68.5313" rx="5" ry="5" style="stroke:#000000;stroke-width:0.5;" width="262" x="173" y="638.39"/><text fill="#000000" font-family="sans-serif" font-size="12" lengthAdjust="spacing" textLength="147" x="230.5" y="651.9916">&#171;Allergie oder Intoleranz&#187;</text><text fill="#000000" font-family="sans-serif" font-size="12" font-weight="bold" lengthAdjust="spacing" textLength="136" x="236" y="666.1244">EPAAllergyIntolerance</text><line style="stroke:#000000;stroke-width:0.5;" x1="174" x2="434" y1="670.6556" y2="670.6556"/><ellipse cx="184" cy="683.222" fill="#84BE84" rx="3" ry="3" style="stroke:#038048;stroke-width:1.0;"/><text fill="#000000" font-family="sans-serif" font-size="12" lengthAdjust="spacing" textLength="153" x="193" y="686.2572">patient: Reference(Patient)</text><ellipse cx="184" cy="697.3548" fill="#84BE84" rx="3" ry="3" style="stroke:#038048;stroke-width:1.0;"/><text fill="#000000" font-family="sans-serif" font-size="12" lengthAdjust="spacing" textLength="236" x="193" y="700.39">recorder: Reference(EPAPractitionerRole)</text></g><g id="elem_Provenance"><rect fill="#20B2AA" height="129.0625" rx="5" ry="5" style="stroke:#000000;stroke-width:0.5;" width="334" x="221" y="379.93"/><text fill="#000000" font-family="sans-serif" font-size="12" lengthAdjust="spacing" textLength="120" x="328" y="393.5316">&#171;Herkunftsnachweis&#187;</text><text fill="#000000" font-family="sans-serif" font-size="12" lengthAdjust="spacing" textLength="85" x="345.5" y="407.6644">&#171;Verifizierung&#187;</text><text fill="#000000" font-family="sans-serif" font-size="12" font-weight="bold" lengthAdjust="spacing" textLength="93" x="341.5" y="421.7972">EPAProvenance</text><line style="stroke:#000000;stroke-width:0.5;" x1="222" x2="554" y1="426.3284" y2="426.3284"/><ellipse cx="232" cy="438.8948" fill="none" rx="3" ry="3" style="stroke:#038048;stroke-width:1.0;"/><text fill="#000000" font-family="sans-serif" font-size="12" lengthAdjust="spacing" textLength="162" x="241" y="441.93">activity = CREATE | UPDATE</text><ellipse cx="232" cy="453.0277" fill="none" rx="3" ry="3" style="stroke:#038048;stroke-width:1.0;"/><text fill="#000000" font-family="sans-serif" font-size="12" lengthAdjust="spacing" textLength="308" x="241" y="456.0628">agent.type = enterer | performer | author | informant</text><ellipse cx="232" cy="485.2933" fill="none" rx="3" ry="3" style="stroke:#038048;stroke-width:1.0;"/><text fill="#000000" font-family="sans-serif" font-size="12" lengthAdjust="spacing" textLength="79" x="241" y="488.3284">activity = VRF</text><ellipse cx="232" cy="499.4261" fill="none" rx="3" ry="3" style="stroke:#038048;stroke-width:1.0;"/><text fill="#000000" font-family="sans-serif" font-size="12" lengthAdjust="spacing" textLength="119" x="241" y="502.4612">agent.type = verifier</text><line style="stroke:#000000;stroke-width:1.0;" x1="222" x2="381" y1="469.6605" y2="469.6605"/><text fill="#000000" font-family="sans-serif" font-size="12" lengthAdjust="spacing" textLength="14" x="381" y="473.6956">--</text><line style="stroke:#000000;stroke-width:1.0;" x1="395" x2="554" y1="469.6605" y2="469.6605"/></g><g id="elem_MedicationStatement"><rect fill="#20B2AA" height="68.5313" rx="5" ry="5" style="stroke:#000000;stroke-width:0.5;" width="315" x="709.5" y="410.2"/><text fill="#000000" font-family="sans-serif" font-size="12" lengthAdjust="spacing" textLength="186" x="774" y="423.8016">&#171;Medikamentzusatzinformation&#187;</text><text fill="#000000" font-family="sans-serif" font-size="12" font-weight="bold" lengthAdjust="spacing" textLength="154" x="790" y="437.9344">EPAMedicationStatement</text><line style="stroke:#000000;stroke-width:0.5;" x1="710.5" x2="1023.5" y1="442.4656" y2="442.4656"/><ellipse cx="720.5" cy="455.032" fill="#84BE84" rx="3" ry="3" style="stroke:#038048;stroke-width:1.0;"/><text fill="#000000" font-family="sans-serif" font-size="12" lengthAdjust="spacing" textLength="155" x="729.5" y="458.0672">subject: Reference(Patient)</text><ellipse cx="720.5" cy="469.1648" fill="#84BE84" rx="3" ry="3" style="stroke:#038048;stroke-width:1.0;"/><text fill="#000000" font-family="sans-serif" font-size="12" lengthAdjust="spacing" textLength="289" x="729.5" y="472.2">informationSource: Reference(EPAPractitionerRole)</text></g><g id="elem_PlanMedication"><rect fill="#20B2AA" height="48.2656" rx="5" ry="5" style="stroke:#000000;stroke-width:0.5;" width="105" x="1172.5" y="420.33"/><text fill="#000000" font-family="sans-serif" font-size="12" lengthAdjust="spacing" textLength="83" x="1183.5" y="433.9316">&#171;Medikament&#187;</text><text fill="#000000" font-family="sans-serif" font-size="12" font-weight="bold" lengthAdjust="spacing" textLength="91" x="1179.5" y="448.0644">EPAMedication</text><line style="stroke:#000000;stroke-width:0.5;" x1="1173.5" x2="1276.5" y1="452.5956" y2="452.5956"/></g><g id="elem_MedicationList"><rect fill="#FFFFF0" height="48.2656" rx="5" ry="5" style="stroke:#000000;stroke-width:0.5;" width="217" x="783.5" y="782.39"/><text fill="#000000" font-family="sans-serif" font-size="12" lengthAdjust="spacing" textLength="186" x="799" y="795.9916">&#171;Medikamentzusatzinformation&#187;</text><text fill="#000000" font-family="sans-serif" font-size="12" font-weight="bold" lengthAdjust="spacing" textLength="203" x="790.5" y="810.1244">EPAPlanMedicationStatementList</text><line style="stroke:#000000;stroke-width:0.5;" x1="784.5" x2="999.5" y1="814.6556" y2="814.6556"/></g><g id="elem_AllergyIntoleranceList"><rect fill="#FFFFF0" height="48.2656" rx="5" ry="5" style="stroke:#000000;stroke-width:0.5;" width="200" x="331" y="863.72"/><text fill="#000000" font-family="sans-serif" font-size="12" lengthAdjust="spacing" textLength="186" x="338" y="877.3216">&#171;Allergien / Unvertr&#228;glichkeiten&#187;</text><text fill="#000000" font-family="sans-serif" font-size="12" font-weight="bold" lengthAdjust="spacing" textLength="185" x="338.5" y="891.4544">EPAPlanAllergyIntoleranceList</text><line style="stroke:#000000;stroke-width:0.5;" x1="332" x2="530" y1="895.9856" y2="895.9856"/></g><g id="elem_ObservationList"><rect fill="#FFFFF0" height="48.2656" rx="5" ry="5" style="stroke:#000000;stroke-width:0.5;" width="162" x="570" y="863.72"/><text fill="#000000" font-family="sans-serif" font-size="12" lengthAdjust="spacing" textLength="100" x="601" y="877.3216">&#171;Beobachtungen&#187;</text><text fill="#000000" font-family="sans-serif" font-size="12" font-weight="bold" lengthAdjust="spacing" textLength="148" x="577" y="891.4544">EPAPlanObservationList</text><line style="stroke:#000000;stroke-width:0.5;" x1="571" x2="731" y1="895.9856" y2="895.9856"/></g><g id="elem_Composition"><rect fill="#FFFFF0" height="68.5313" rx="5" ry="5" style="stroke:#000000;stroke-width:0.5;" width="231" x="439.5" y="998.99"/><text fill="#000000" font-family="sans-serif" font-size="12" font-style="italic" lengthAdjust="spacing" textLength="217" x="446.5" y="1012.5916">Interne Versionskontrolle f&#252;r den Plan</text><text fill="#000000" font-family="sans-serif" font-size="12" lengthAdjust="spacing" textLength="93" x="508.5" y="1026.7244">&#171;eMP-Ausgabe&#187;</text><text fill="#000000" font-family="sans-serif" font-size="12" font-weight="bold" lengthAdjust="spacing" textLength="130" x="490" y="1040.8572">EPAPlanComposition</text><line style="stroke:#000000;stroke-width:0.5;" x1="440.5" x2="669.5" y1="1045.3884" y2="1045.3884"/><ellipse cx="450.5" cy="1057.9548" fill="#84BE84" rx="3" ry="3" style="stroke:#038048;stroke-width:1.0;"/><text fill="#000000" font-family="sans-serif" font-size="12" lengthAdjust="spacing" textLength="149" x="459.5" y="1060.99">author: Reference(Device)</text></g><g id="elem_Medication"><rect fill="#8FBC8F" height="48.2656" rx="5" ry="5" style="stroke:#000000;stroke-width:0.5;" width="186" x="793" y="7"/><text fill="#000000" font-family="sans-serif" font-size="12" lengthAdjust="spacing" textLength="172" x="800" y="20.6016">&#171;verschriebenes Arzneimittel&#187;</text><text fill="#000000" font-family="sans-serif" font-size="12" font-weight="bold" lengthAdjust="spacing" textLength="91" x="840.5" y="34.7344">EPAMedication</text><line style="stroke:#000000;stroke-width:0.5;" x1="794" x2="978" y1="39.2656" y2="39.2656"/></g><g id="elem_MedicationRequest"><rect fill="#8FBC8F" height="54.3984" rx="5" ry="5" style="stroke:#000000;stroke-width:0.5;" width="181" x="731.5" y="129.27"/><text fill="#000000" font-family="sans-serif" font-size="12" lengthAdjust="spacing" textLength="162" x="741" y="142.8716">&#171;Arzneimittelverschreibung&#187;</text><text fill="#000000" font-family="sans-serif" font-size="12" font-weight="bold" lengthAdjust="spacing" textLength="141" x="751.5" y="157.0044">EPAMedicationRequest</text><line style="stroke:#000000;stroke-width:0.5;" x1="732.5" x2="911.5" y1="161.5356" y2="161.5356"/><ellipse cx="742.5" cy="174.102" fill="#84BE84" rx="3" ry="3" style="stroke:#038048;stroke-width:1.0;"/><text fill="#000000" font-family="sans-serif" font-size="12" lengthAdjust="spacing" textLength="155" x="751.5" y="177.1372">subject: Reference(Patient)</text></g><g id="elem_MedicationDispense"><rect fill="#8FBC8F" height="48.2656" rx="5" ry="5" style="stroke:#000000;stroke-width:0.5;" width="163" x="1076.5" y="132.34"/><text fill="#000000" font-family="sans-serif" font-size="12" lengthAdjust="spacing" textLength="94" x="1111" y="145.9416">&#171;Dispensierung&#187;</text><text fill="#000000" font-family="sans-serif" font-size="12" font-weight="bold" lengthAdjust="spacing" textLength="149" x="1083.5" y="160.0744">EPAMedicationDispense</text><line style="stroke:#000000;stroke-width:0.5;" x1="1077.5" x2="1238.5" y1="164.6056" y2="164.6056"/></g><g id="elem_AltMedication"><rect fill="#8FBC8F" height="48.2656" rx="5" ry="5" style="stroke:#000000;stroke-width:0.5;" width="176" x="1070" y="7"/><text fill="#000000" font-family="sans-serif" font-size="12" lengthAdjust="spacing" textLength="162" x="1077" y="20.6016">&#171;Substituiertes Arzneimittel&#187;</text><text fill="#000000" font-family="sans-serif" font-size="12" font-weight="bold" lengthAdjust="spacing" textLength="91" x="1112.5" y="34.7344">EPAMedication</text><line style="stroke:#000000;stroke-width:0.5;" x1="1071" x2="1245" y1="39.2656" y2="39.2656"/></g><!--link Provenance to ManagementNote--><g id="link_Provenance_ManagementNote"><path codeLine="64" d="M233.86,509.31 C200.82,531.29 171.04,559.78 155,596 C128.05,656.87 136.9673,731.8879 144.8873,773.0879 " fill="none" id="Provenance-to-ManagementNote" style="stroke:#5C7AAB;stroke-width:1.0;"/><polygon fill="#5C7AAB" points="146.02,778.98,148.2491,769.3867,145.0761,774.0699,140.3929,770.8969,146.02,778.98" style="stroke:#5C7AAB;stroke-width:1.0;"/><text fill="#777777" font-family="sans-serif" font-size="11" lengthAdjust="spacing" textLength="32" x="237.5" y="550.6348">target</text><text fill="#777777" font-family="sans-serif" font-size="11" lengthAdjust="spacing" textLength="115" x="199" y="563.5898">[versioned reference]</text></g><!--link Provenance to Observation--><g id="link_Provenance_Observation"><path codeLine="65" d="M463.72,509.38 C495.61,536.29 528.3747,563.9502 561.6347,592.0202 " fill="none" id="Provenance-to-Observation" style="stroke:#5C7AAB;stroke-width:1.0;"/><polygon fill="#5C7AAB" points="566.22,595.89,561.9219,587.0285,562.3989,592.6652,556.7622,593.1422,566.22,595.89" style="stroke:#5C7AAB;stroke-width:1.0;"/><text fill="#777777" font-family="sans-serif" font-size="11" lengthAdjust="spacing" textLength="32" x="573.5" y="550.6348">target</text><text fill="#777777" font-family="sans-serif" font-size="11" lengthAdjust="spacing" textLength="115" x="535" y="563.5898">[versioned reference]</text></g><!--link Provenance to AllergyIntolerance--><g id="link_Provenance_AllergyIntolerance"><path codeLine="66" d="M364.27,509.38 C348.74,551.18 331.1683,598.4952 318.6083,632.3252 " fill="none" id="Provenance-to-AllergyIntolerance" style="stroke:#5C7AAB;stroke-width:1.0;"/><polygon fill="#5C7AAB" points="316.52,637.95,323.4024,630.9049,318.2603,633.2626,315.9026,628.1205,316.52,637.95" style="stroke:#5C7AAB;stroke-width:1.0;"/><text fill="#777777" font-family="sans-serif" font-size="11" lengthAdjust="spacing" textLength="32" x="394.5" y="550.6348">target</text><text fill="#777777" font-family="sans-serif" font-size="11" lengthAdjust="spacing" textLength="115" x="356" y="563.5898">[versioned reference]</text></g><!--link Provenance to MedicationStatement--><g id="link_Provenance_MedicationStatement"><path codeLine="67" d="M555.19,444.47 C605.12,444.47 653.68,444.47 703,444.47 " fill="none" id="Provenance-to-MedicationStatement" style="stroke:#5C7AAB;stroke-width:1.0;"/><polygon fill="#5C7AAB" points="709,444.47,700,440.47,704,444.47,700,448.47,709,444.47" style="stroke:#5C7AAB;stroke-width:1.0;"/><text fill="#777777" font-family="sans-serif" font-size="11" lengthAdjust="spacing" textLength="32" x="614.75" y="426.1048">target</text><text fill="#777777" font-family="sans-serif" font-size="11" lengthAdjust="spacing" textLength="115" x="576.25" y="439.0598">[versioned reference]</text></g><!--reverse link PractitionerRole to Provenance--><g id="link_PractitionerRole_Provenance"><path codeLine="68" d="M660.0566,302.0078 C623.6866,320.9178 567.05,350.37 510.91,379.56 " fill="none" id="PractitionerRole-backto-Provenance" style="stroke:#5C7AAB;stroke-width:1.0;"/><polygon fill="#5C7AAB" points="665.38,299.24,655.5496,299.8428,660.9438,301.5465,659.2401,306.9407,665.38,299.24" style="stroke:#5C7AAB;stroke-width:1.0;"/><text fill="#777777" font-family="sans-serif" font-size="11" lengthAdjust="spacing" textLength="63" x="590" y="347.5648">agent[].who</text></g><!--reverse link Organization to Provenance--><g id="link_Organization_Provenance"><path codeLine="69" d="M591.7898,185.5775 C557.8398,228.5375 488.24,316.62 438.49,379.57 " fill="none" id="Organization-backto-Provenance" style="stroke:#5C7AAB;stroke-width:1.0;"/><polygon fill="#5C7AAB" points="595.51,180.87,586.7914,185.4511,592.4099,184.7929,593.0681,190.4113,595.51,180.87" style="stroke:#5C7AAB;stroke-width:1.0;"/><text fill="#777777" font-family="sans-serif" font-size="11" lengthAdjust="spacing" textLength="63" x="536" y="286.4348">agent[].who</text></g><!--reverse link Practitioner to Provenance--><g id="link_Practitioner_Provenance"><path codeLine="70" d="M416.7124,186.8327 C411.9024,229.7927 402.19,316.62 395.15,379.57 " fill="none" id="Practitioner-backto-Provenance" style="stroke:#5C7AAB;stroke-width:1.0;"/><polygon fill="#5C7AAB" points="417.38,180.87,412.4034,189.369,416.8237,185.839,420.3537,190.2592,417.38,180.87" style="stroke:#5C7AAB;stroke-width:1.0;"/><text fill="#777777" font-family="sans-serif" font-size="11" lengthAdjust="spacing" textLength="63" x="410" y="286.4348">agent[].who</text></g><!--link MedicationStatement to PlanMedication--><g id="link_MedicationStatement_PlanMedication"><path codeLine="72" d="M1024.81,444.47 C1077.67,444.47 1127.03,444.47 1166.1,444.47 " fill="none" id="MedicationStatement-to-PlanMedication" style="stroke:#5C7AAB;stroke-width:1.0;"/><polygon fill="#5C7AAB" points="1172.1,444.47,1163.1,440.47,1167.1,444.47,1163.1,448.47,1172.1,444.47" style="stroke:#5C7AAB;stroke-width:1.0;"/><text fill="#777777" font-family="sans-serif" font-size="11" lengthAdjust="spacing" textLength="112" x="1042.5" y="439.1048">medicationReference</text></g><!--reverse link PractitionerRole to MedicationStatement--><g id="link_PractitionerRole_MedicationStatement"><path codeLine="73" d="M700.6088,305.067 C703.4788,319.647 708.26,335.03 720,349.93 C739.46,374.65 767.37,394.72 793.66,409.84 " fill="none" id="PractitionerRole-backto-MedicationStatement" style="stroke:#5C7AAB;stroke-width:1.0;"/><polygon fill="#5C7AAB" points="699.45,299.18,697.2636,308.7831,700.4157,304.0859,705.1129,307.238,699.45,299.18" style="stroke:#5C7AAB;stroke-width:1.0;"/><text fill="#777777" font-family="sans-serif" font-size="11" lengthAdjust="spacing" textLength="100" x="721" y="347.5648">informationSource</text></g><!--reverse link MedicationStatement to MedicationList--><g id="link_MedicationStatement_MedicationList"><path codeLine="75" d="M869.7458,485.0056 C874.7658,557.2756 886.07,720.16 890.38,782.16 " fill="none" id="MedicationStatement-backto-MedicationList" style="stroke:#5C7AAB;stroke-width:1.0;"/><polygon fill="#5C7AAB" points="869.33,479.02,865.9633,488.2755,869.6765,484.008,873.944,487.7212,869.33,479.02" style="stroke:#5C7AAB;stroke-width:1.0;"/><text fill="#777777" font-family="sans-serif" font-size="11" lengthAdjust="spacing" textLength="62" x="903.5" y="550.6348">entry[].item</text><text fill="#777777" font-family="sans-serif" font-size="11" lengthAdjust="spacing" textLength="115" x="880" y="563.5898">[versioned reference]</text></g><!--reverse link AllergyIntolerance to AllergyIntoleranceList--><g id="link_AllergyIntolerance_AllergyIntoleranceList"><path codeLine="76" d="M326.9113,712.1244 C352.8013,755.5744 394.36,825.35 416.98,863.33 " fill="none" id="AllergyIntolerance-backto-AllergyIntoleranceList" style="stroke:#5C7AAB;stroke-width:1.0;"/><polygon fill="#5C7AAB" points="323.84,706.97,325.0107,716.749,326.3994,711.2653,331.8831,712.654,323.84,706.97" style="stroke:#5C7AAB;stroke-width:1.0;"/><text fill="#777777" font-family="sans-serif" font-size="11" lengthAdjust="spacing" textLength="62" x="424.5" y="804.6548">entry[].item</text><text fill="#777777" font-family="sans-serif" font-size="11" lengthAdjust="spacing" textLength="115" x="401" y="817.6098">[versioned reference]</text></g><!--reverse link Observation to ObservationList--><g id="link_Observation_ObservationList"><path codeLine="77" d="M647.4482,755.7606 C646.6482,765.6906 646.45,769.75 646,779.32 C644.86,803.47 644.87,809.57 646,833.72 C646.46,843.44 647.38,854.13 648.31,863.35 " fill="none" id="Observation-backto-ObservationList" style="stroke:#5C7AAB;stroke-width:1.0;"/><polygon fill="#5C7AAB" points="647.93,749.78,643.2202,758.4297,647.5285,754.7639,651.1943,759.0721,647.93,749.78" style="stroke:#5C7AAB;stroke-width:1.0;"/><text fill="#777777" font-family="sans-serif" font-size="11" lengthAdjust="spacing" textLength="62" x="673.5" y="804.6548">entry[].item</text><text fill="#777777" font-family="sans-serif" font-size="11" lengthAdjust="spacing" textLength="115" x="650" y="817.6098">[versioned reference]</text></g><!--reverse link ManagementNote to Composition--><g id="link_ManagementNote_Composition"><path codeLine="79" d="M157.0793,839.6489 C161.8793,863.1789 171.09,891.21 193,911.99 C259.8,975.32 360.78,1005.34 439.13,1019.54 " fill="none" id="ManagementNote-backto-Composition" style="stroke:#5C7AAB;stroke-width:1.0;"/><polygon fill="#5C7AAB" points="155.88,833.77,153.7596,843.3879,156.8794,838.6691,161.5982,841.7889,155.88,833.77" style="stroke:#5C7AAB;stroke-width:1.0;"/><text fill="#777777" font-family="sans-serif" font-size="11" lengthAdjust="spacing" textLength="78" x="212.5" y="885.9948">section[].entry</text><text fill="#777777" font-family="sans-serif" font-size="11" lengthAdjust="spacing" textLength="115" x="197" y="898.9498">[versioned reference]</text></g><!--reverse link MedicationList to Composition--><g id="link_MedicationList_Composition"><path codeLine="80" d="M872.7982,835.9276 C848.2582,870.8176 801.1,931.33 743,968.99 C721.04,983.22 695.55,994.58 670.56,1003.52 " fill="none" id="MedicationList-backto-Composition" style="stroke:#5C7AAB;stroke-width:1.0;"/><polygon fill="#5C7AAB" points="876.25,831.02,867.8005,836.0803,873.3735,835.1097,874.344,840.6827,876.25,831.02" style="stroke:#5C7AAB;stroke-width:1.0;"/><text fill="#777777" font-family="sans-serif" font-size="11" lengthAdjust="spacing" textLength="78" x="870.5" y="885.9948">section[].entry</text><text fill="#777777" font-family="sans-serif" font-size="11" lengthAdjust="spacing" textLength="115" x="855" y="898.9498">[versioned reference]</text></g><!--reverse link AllergyIntoleranceList to Composition--><g id="link_AllergyIntoleranceList_Composition"><path codeLine="81" d="M442.4098,917.7222 C449.6798,934.6322 458.66,951.9 473,968.99 C482.02,979.73 493.15,989.8 504.27,998.61 " fill="none" id="AllergyIntoleranceList-backto-Composition" style="stroke:#5C7AAB;stroke-width:1.0;"/><polygon fill="#5C7AAB" points="440.04,912.21,439.9199,922.0581,442.0148,916.8035,447.2695,918.8984,440.04,912.21" style="stroke:#5C7AAB;stroke-width:1.0;"/><text fill="#777777" font-family="sans-serif" font-size="11" lengthAdjust="spacing" textLength="78" x="492.5" y="953.6248">section[].entry</text><text fill="#777777" font-family="sans-serif" font-size="11" lengthAdjust="spacing" textLength="115" x="477" y="966.5798">[versioned reference]</text></g><!--reverse link ObservationList to Composition--><g id="link_ObservationList_Composition"><path codeLine="82" d="M632.024,917.1971 C616.304,940.6971 595.23,972.16 577.44,998.73 " fill="none" id="ObservationList-backto-Composition" style="stroke:#5C7AAB;stroke-width:1.0;"/><polygon fill="#5C7AAB" points="635.36,912.21,627.0312,917.4666,632.58,916.3659,633.6807,921.9146,635.36,912.21" style="stroke:#5C7AAB;stroke-width:1.0;"/><text fill="#777777" font-family="sans-serif" font-size="11" lengthAdjust="spacing" textLength="78" x="634.5" y="953.6248">section[].entry</text><text fill="#777777" font-family="sans-serif" font-size="11" lengthAdjust="spacing" textLength="115" x="619" y="966.5798">[versioned reference]</text></g><!--reverse link Medication to MedicationRequest--><g id="link_Medication_MedicationRequest"><path codeLine="84" d="M857.3765,60.221 C849.5665,68.861 845.55,74.68 840,85.27 C832.88,98.87 828.46,115.45 825.78,129.08 " fill="none" id="Medication-backto-MedicationRequest" style="stroke:#5C7AAB;stroke-width:1.0;"/><polygon fill="#5C7AAB" points="861.4,55.77,852.3975,59.7643,858.0471,59.4792,858.3322,65.1289,861.4,55.77" style="stroke:#5C7AAB;stroke-width:1.0;"/><text fill="#777777" font-family="sans-serif" font-size="11" lengthAdjust="spacing" textLength="112" x="841" y="96.9048">medicationReference</text></g><!--link MedicationRequest to PractitionerRole--><g id="link_MedicationRequest_PractitionerRole"><path codeLine="85" d="M795.18,183.93 C770.36,208.42 738.5213,239.8362 717.7113,260.3662 " fill="none" id="MedicationRequest-to-PractitionerRole" style="stroke:#5C7AAB;stroke-width:1.0;"/><polygon fill="#5C7AAB" points="713.44,264.58,722.6561,261.1068,716.9994,261.0685,717.0377,255.4118,713.44,264.58" style="stroke:#5C7AAB;stroke-width:1.0;"/><text fill="#777777" font-family="sans-serif" font-size="11" lengthAdjust="spacing" textLength="52" x="765" y="225.3048">requester</text></g><!--link MedicationRequest to MedicationStatement--><g id="link_MedicationRequest_MedicationStatement"><path codeLine="86" d="M826.19,184.12 C834.42,236.4 851.728,346.3728 860.768,403.8628 " fill="none" id="MedicationRequest-to-MedicationStatement" style="stroke:#5C7AAB;stroke-width:1.0;"/><polygon fill="#5C7AAB" points="861.7,409.79,864.2534,400.2779,860.9233,404.8507,856.3505,401.5206,861.7,409.79" style="stroke:#5C7AAB;stroke-width:1.0;"/><text fill="#777777" font-family="sans-serif" font-size="11" lengthAdjust="spacing" textLength="189" x="847" y="279.9348">MedicationRequestLinkedStatement</text><text fill="#777777" font-family="sans-serif" font-size="11" lengthAdjust="spacing" textLength="61" x="911" y="292.8898">(Extension)</text></g><!--reverse link Medication to MedicationDispense--><g id="link_Medication_MedicationDispense"><path codeLine="88" d="M943.2648,58.107 C991.5148,79.977 1057.6,109.94 1105.93,131.86 " fill="none" id="Medication-backto-MedicationDispense" style="stroke:#5C7AAB;stroke-width:1.0;"/><polygon fill="#5C7AAB" points="937.8,55.63,944.3459,62.9887,942.354,57.6942,947.6486,55.7023,937.8,55.63" style="stroke:#5C7AAB;stroke-width:1.0;"/><text fill="#777777" font-family="sans-serif" font-size="11" lengthAdjust="spacing" textLength="112" x="1032" y="96.9048">medicationReference</text></g><!--reverse link AltMedication to MedicationDispense--><g id="link_AltMedication_MedicationDispense"><path codeLine="89" d="M1158,61.63 C1158,83.57 1158,110.15 1158,132.07 " fill="none" id="AltMedication-backto-MedicationDispense" style="stroke:#5C7AAB;stroke-width:1.0;"/><polygon fill="#5C7AAB" points="1158,55.63,1154,64.63,1158,60.63,1162,64.63,1158,55.63" style="stroke:#5C7AAB;stroke-width:1.0;"/><text fill="#777777" font-family="sans-serif" font-size="11" lengthAdjust="spacing" textLength="112" x="1159" y="96.9048">medicationReference</text></g><!--reverse link MedicationRequest to MedicationDispense--><g id="link_MedicationRequest_MedicationDispense"><path codeLine="90" d="M918.93,156.47 C969.85,156.47 1026.83,156.47 1076.19,156.47 " fill="none" id="MedicationRequest-backto-MedicationDispense" style="stroke:#5C7AAB;stroke-width:1.0;"/><polygon fill="#5C7AAB" points="912.93,156.47,921.93,160.47,917.93,156.47,921.93,152.47,912.93,156.47" style="stroke:#5C7AAB;stroke-width:1.0;"/><text fill="#777777" font-family="sans-serif" font-size="11" lengthAdjust="spacing" textLength="127" x="931" y="151.1048">authorizingPrescription</text></g><!--link MedicationDispense to DispenserOrganization--><g id="link_MedicationDispense_DispenserOrganization"><path codeLine="91" d="M1158,180.96 C1158,202.9 1158,229.48 1158,251.4 " fill="none" id="MedicationDispense-to-DispenserOrganization" style="stroke:#5C7AAB;stroke-width:1.0;"/><polygon fill="#5C7AAB" points="1158,257.4,1162,248.4,1158,252.4,1154,248.4,1158,257.4" style="stroke:#5C7AAB;stroke-width:1.0;"/><text fill="#777777" font-family="sans-serif" font-size="11" lengthAdjust="spacing" textLength="81" x="1159" y="225.3048">perfomer.actor</text></g><!--reverse link Practitioner to PractitionerRole--><g id="link_Practitioner_PractitionerRole"><path codeLine="93" d="M472.0134,183.7196 C500.2534,197.7496 531.75,212.95 565,227.67 C594.37,240.67 627.95,254.17 653.89,264.31 " fill="none" id="Practitioner-backto-PractitionerRole" style="stroke:#5C7AAB;stroke-width:1.0;"/><polygon fill="#5C7AAB" points="466.64,181.05,472.9204,188.6366,471.1178,183.2746,476.4798,181.4721,466.64,181.05" style="stroke:#5C7AAB;stroke-width:1.0;"/><text fill="#777777" font-family="sans-serif" font-size="11" lengthAdjust="spacing" textLength="63" x="566" y="225.3048">practitioner</text></g><!--reverse link Organization to PractitionerRole--><g id="link_Organization_PractitionerRole"><path codeLine="94" d="M624.0863,186.6106 C629.4563,200.7806 635.21,213.22 645,227.67 C654.19,241.24 667.06,254.42 677.7,264.26 " fill="none" id="Organization-backto-PractitionerRole" style="stroke:#5C7AAB;stroke-width:1.0;"/><polygon fill="#5C7AAB" points="621.96,181,621.409,190.8334,623.7319,185.6755,628.8898,187.9984,621.96,181" style="stroke:#5C7AAB;stroke-width:1.0;"/><text fill="#777777" font-family="sans-serif" font-size="11" lengthAdjust="spacing" textLength="68" x="646" y="225.3048">organization</text></g><rect fill="none" height="96.4414" id="_legend" rx="5" ry="5" style="stroke:#000000;stroke-width:1.0;" width="271" x="986.5" y="1085.5213"/><text fill="#000000" font-family="sans-serif" font-size="14" lengthAdjust="spacing" textLength="39" x="995.5" y="1106.0564">Farbe</text><text fill="#000000" font-family="sans-serif" font-size="14" lengthAdjust="spacing" textLength="99" x="1042.5" y="1106.0564">Datenherkunft</text><rect fill="#8FBC8F" height="16.4883" style="stroke:none;stroke-width:1.0;" width="47" x="991.5" y="1109.0095"/><text fill="#000000" font-family="sans-serif" font-size="14" lengthAdjust="spacing" textLength="4" x="991.5" y="1122.5447">&#160;</text><text fill="#000000" font-family="sans-serif" font-size="14" lengthAdjust="spacing" textLength="206" x="1042.5" y="1122.5447">Verschreibung/Dispensierung</text><rect fill="#20B2AA" height="16.4883" style="stroke:none;stroke-width:1.0;" width="47" x="991.5" y="1125.4978"/><text fill="#000000" font-family="sans-serif" font-size="14" lengthAdjust="spacing" textLength="4" x="991.5" y="1139.033">&#160;</text><text fill="#000000" font-family="sans-serif" font-size="14" lengthAdjust="spacing" textLength="140" x="1042.5" y="1139.033">Medikationsplanung</text><rect fill="#FFFFF0" height="16.4883" style="stroke:none;stroke-width:1.0;" width="47" x="991.5" y="1141.9861"/><text fill="#000000" font-family="sans-serif" font-size="14" lengthAdjust="spacing" textLength="4" x="991.5" y="1155.5213">&#160;</text><text fill="#000000" font-family="sans-serif" font-size="14" lengthAdjust="spacing" textLength="195" x="1042.5" y="1155.5213">Medikationsplanung (intern)</text><rect fill="#696969" height="16.4883" style="stroke:none;stroke-width:1.0;" width="47" x="991.5" y="1158.4744"/><text fill="#000000" font-family="sans-serif" font-size="14" lengthAdjust="spacing" textLength="4" x="991.5" y="1172.0095">&#160;</text><text fill="#000000" font-family="sans-serif" font-size="14" lengthAdjust="spacing" textLength="46" x="1042.5" y="1172.0095">Akteur</text><line style="stroke:#000000;stroke-width:1.0;" x1="991.5" x2="1252.5" y1="1092.5213" y2="1092.5213"/><line style="stroke:#000000;stroke-width:1.0;" x1="991.5" x2="1252.5" y1="1109.0095" y2="1109.0095"/><line style="stroke:#000000;stroke-width:1.0;" x1="991.5" x2="1252.5" y1="1125.4978" y2="1125.4978"/><line style="stroke:#000000;stroke-width:1.0;" x1="991.5" x2="1252.5" y1="1141.9861" y2="1141.9861"/><line style="stroke:#000000;stroke-width:1.0;" x1="991.5" x2="1252.5" y1="1158.4744" y2="1158.4744"/><line style="stroke:#000000;stroke-width:1.0;" x1="991.5" x2="1252.5" y1="1174.9627" y2="1174.9627"/><line style="stroke:#000000;stroke-width:1.0;" x1="991.5" x2="991.5" y1="1092.5213" y2="1174.9627"/><line style="stroke:#000000;stroke-width:1.0;" x1="1038.5" x2="1038.5" y1="1092.5213" y2="1174.9627"/><line style="stroke:#000000;stroke-width:1.0;" x1="1252.5" x2="1252.5" y1="1092.5213" y2="1174.9627"/><!--SRC=[fLZDKYCt4BxFKwZC8K0A2DcaDaKHgW33GeKDBfDTghBiGHwtnuh7ajFIs6k7l4cgSjbds5DkVh6qD6DRCoCJ4to0SVzy_QFkLe_rGCWHHpvaFV7fN62SmWtlG7ex1apvQ2HamdeyrH3ffIIgJ7PZXHAG7NxZCLJdDuWD-oDYz3dZyI1nekSgLSYQOlW6OPhp57O1S_fPIeAEUege9Zbnw_luDUSTHxvKqjo96R33RvVVSocU6JNaHiIE_hCoK3MwzUgx7rv1PmM_KjvwxJvbLcxdCFhJY-e64f3TAl9zNnY8M5J4t3W-9fIPOGViLzwNt3wUd3p8tTqMyjW88nIbgocGX1LETtSRZ6lcytoaMqou59fRJW6JasQEL8NnUIM7HihqOG0RG3I57e7KW46iYzQfxsfRfL3ptn8Zt_fFyoyu0anm_cN-j_M14SnjXsoC7VgPwawlG2Hzyo0zSPY8k6_2ulShyJiZqbGRRZ8Ta4NWslG0kbI_TqueLmBCXWDY6Y65tBi731WwN_0Xrudx4ouJG1ttUS_eTJPR28daCfvwzYwawGZPpMIY3U1GoBhQXJQ2QXYwJVfpssj2AgZrfaxzJQg6v74w_up0BaLgqAbe-XV8vvlBjZtbCd5tKI8h4jkwiLcy0qxz2B9erwyP9R-da0mUiJRq0476i1quUVR87YGB5jCEDOvN0VE_ElRyGVIeWMXON0av0Q6BSYmx-fREAiwVkEG9344Qsz65_sNYIqEmVfOQ9Kt9KG5CMJUlfI4Pv7AsyZINc2vPySAnEcEjSnGT-U-xrif9EuK4PT4Dnasyzzs_0XnaacfJSYhMHOQ9yHvGzCHCK17H75y6qq8r1ka5iIAiSzvwC1Pcodvav-sBqrykg0hUjPhqi12W8MdspNG494AFv3wIpF94w9d6TL_P1o4jZKlZTFVSfsxdVVioX3rsCT6yB1-XhPy1jmKoosXmpWeRtWIbm5T5PflKbTEYlkgSQYgMkT2PC_l4GNh6xrI6CMnmei5OGgulpYpbNjDKd7rsPifeonpS25tFa2MohUinDNoeYIJTWUya7PF1-USafMa-0BehAyRgVUFP2ZC3Diz0TQZc3PLtrO0tMppa2hKAUN1mRKjNWcqTRMVjWBO2LEGFwyt_GTObCnRzuC0r6BnjxPrcEg6LgMpzN0r7IWlll3nAONNLNAun_1ffmbZ4jJ4rTfSG2kY016tt3GbYA8o1z8b2yOkaoN4GgX4Vgh02ebCQ6YkODloUGQ0k2dhPoaPTKwh-OXMf3gsLdSMkKdDWmGXwy1NvCE7wBklGZMiokd6FcC4C2cRPXuKKEM4sp_HfQjOcE_9cx5vtxwHwensnXk6q_HXxkNuOvzK7NReJYcnzRDGW_4lz_-W7xgxdmg2D930xdukJ4KvjqI0GD_e_VDoVz5LTmTz1_bFOHwy9Hw4ON72LCKkAGw_WYs0QOVqq75JjTl3Dkwda75wJLlg7K_ARHkhmYUIk6Q4EENpk6m9N9sX-4kLAt10gycTY7dEjAJIr9B49p84-WLO7AoVrPM1hylaoq6ekduKMrITl9UmDgdMfsLtJW9WB0AxLMbEdDUaR8GVGNSeyoEsBJyOEUYLt6lGc7PZZpu-dh5eUoC_HJak65_7QiU7kQjgfPK9lV3f6CR8IOHIRdk2RjKLogp5jnllSlZirx0rHINzmResyxuqrEbLJoljEXgBK_QJ1qAwCxlvxP9SSE_RLphw6odxnGi4US-vnwIuxUNJRqN97E2ZVs4kTqaPAIlaYwjvWHpHLIx9k8GhBR0ktakrupkG_9P7uwS10HgyK4OMJ1qM5nFu5]--></g></svg>