<?xml version="1.0" encoding="UTF-8" standalone="no"?><svg xmlns="http://www.w3.org/2000/svg" xmlns:xlink="http://www.w3.org/1999/xlink" contentStyleType="text/css" height="529px" preserveAspectRatio="none" style="width:725px;height:529px;background:#FFFFFF;" version="1.1" viewBox="0 0 725 529" width="725px" zoomAndPan="magnify"><defs/><g><g id="elem_Patient"><rect fill="#696969" height="47.9375" rx="5" ry="5" style="stroke:#000000;stroke-width:0.5;" width="139" x="244" y="7"/><text fill="#FFFFFF" font-family="sans-serif" font-size="12" lengthAdjust="spacing" textLength="125" x="251" y="20.1387">&lt;&lt; Versicherter &gt;&gt;</text><text fill="#FFFFFF" font-family="sans-serif" font-size="12" font-weight="bold" lengthAdjust="spacing" textLength="52" x="287.5" y="34.1074">Patient</text><line style="stroke:#000000;stroke-width:0.5;" x1="245" x2="382" y1="38.9375" y2="38.9375"/></g><g id="elem_PrescribingPractitioner"><rect fill="#696969" height="47.9375" rx="5" ry="5" style="stroke:#000000;stroke-width:0.5;" width="167" x="7" y="135"/><text fill="#FFFFFF" font-family="sans-serif" font-size="12" lengthAdjust="spacing" textLength="153" x="14" y="148.1387">&lt;&lt; Verordnender LE &gt;&gt;</text><text fill="#FFFFFF" font-family="sans-serif" font-size="12" font-weight="bold" lengthAdjust="spacing" textLength="149" x="16" y="162.1074">PractitionerDirectory</text><line style="stroke:#000000;stroke-width:0.5;" x1="8" x2="173" y1="166.9375" y2="166.9375"/></g><g id="elem_PrescribingOrganization"><rect fill="#696969" height="47.9375" rx="5" ry="5" style="stroke:#000000;stroke-width:0.5;" width="172" x="104.5" y="388"/><text fill="#FFFFFF" font-family="sans-serif" font-size="12" lengthAdjust="spacing" textLength="151" x="115" y="401.1387">&lt;&lt; Verordnende LEI &gt;&gt;</text><text fill="#FFFFFF" font-family="sans-serif" font-size="12" font-weight="bold" lengthAdjust="spacing" textLength="158" x="111.5" y="415.1074">OrganizationDirectory</text><line style="stroke:#000000;stroke-width:0.5;" x1="105.5" x2="275.5" y1="419.9375" y2="419.9375"/></g><g id="elem_DispenserOrganization"><rect fill="#696969" height="47.9375" rx="5" ry="5" style="stroke:#000000;stroke-width:0.5;" width="172" x="319.5" y="388"/><text fill="#FFFFFF" font-family="sans-serif" font-size="12" lengthAdjust="spacing" textLength="141" x="335" y="401.1387">&lt;&lt; Abgebende LEI &gt;&gt;</text><text fill="#FFFFFF" font-family="sans-serif" font-size="12" font-weight="bold" lengthAdjust="spacing" textLength="158" x="326.5" y="415.1074">OrganizationDirectory</text><line style="stroke:#000000;stroke-width:0.5;" x1="320.5" x2="490.5" y1="419.9375" y2="419.9375"/></g><g id="elem_PractionerRole"><rect fill="#696969" height="33.9688" rx="5" ry="5" style="stroke:#000000;stroke-width:0.5;" width="114" x="133.5" y="270"/><text fill="#FFFFFF" font-family="sans-serif" font-size="12" lengthAdjust="spacing" textLength="100" x="140.5" y="283.1387">PractitionerRole</text><line style="stroke:#000000;stroke-width:0.5;" x1="134.5" x2="246.5" y1="287.9688" y2="287.9688"/></g><g id="elem_Medication"><rect fill="#8FBC8F" height="47.9375" rx="5" ry="5" style="stroke:#000000;stroke-width:0.5;" width="130" x="589.5" y="135"/><text fill="#FFFFFF" font-family="sans-serif" font-size="12" lengthAdjust="spacing" textLength="116" x="596.5" y="148.1387">&lt;&lt; Medikation &gt;&gt;</text><text fill="#FFFFFF" font-family="sans-serif" font-size="12" font-weight="bold" lengthAdjust="spacing" textLength="104" x="602.5" y="162.1074">EPAMedication</text><line style="stroke:#000000;stroke-width:0.5;" x1="590.5" x2="718.5" y1="166.9375" y2="166.9375"/></g><g id="elem_MedicationRequest"><rect fill="#8FBC8F" height="53.9063" rx="5" ry="5" style="stroke:#000000;stroke-width:0.5;" width="209" x="209" y="132"/><text fill="#FFFFFF" font-family="sans-serif" font-size="12" lengthAdjust="spacing" textLength="195" x="216" y="145.1387">&lt;&lt; Medikationsverordnung &gt;&gt;</text><text fill="#FFFFFF" font-family="sans-serif" font-size="12" font-weight="bold" lengthAdjust="spacing" textLength="163" x="232" y="159.1074">EPAMedicationRequest</text><line style="stroke:#000000;stroke-width:0.5;" x1="210" x2="417" y1="163.9375" y2="163.9375"/><ellipse cx="220" cy="176.4219" fill="#84BE84" rx="3" ry="3" style="stroke:#038048;stroke-width:1.0;"/><text fill="#FFFFFF" font-family="sans-serif" font-size="12" lengthAdjust="spacing" textLength="173" x="229" y="179.0762">subject: Reference(Patient)</text></g><g id="elem_MedicationDispense"><rect fill="#8FBC8F" height="47.9375" rx="5" ry="5" style="stroke:#000000;stroke-width:0.5;" width="184" x="313.5" y="263"/><text fill="#FFFFFF" font-family="sans-serif" font-size="12" lengthAdjust="spacing" textLength="138" x="336.5" y="276.1387">&lt;&lt; Dispensierung &gt;&gt;</text><text fill="#FFFFFF" font-family="sans-serif" font-size="12" font-weight="bold" lengthAdjust="spacing" textLength="170" x="320.5" y="290.1074">EPAMedicationDispense</text><line style="stroke:#000000;stroke-width:0.5;" x1="314.5" x2="496.5" y1="294.9375" y2="294.9375"/></g><!--MD5=[e88533d027283ce78cfe810d170f734d]
reverse link Patient to MedicationRequest--><g id="link_Patient_MedicationRequest"><path codeLine="26" d="M313.5,60.12 C313.5,81.62 313.5,111.04 313.5,131.99 " fill="none" id="Patient-backto-MedicationRequest" style="stroke:#5C7AAB;stroke-width:1.0;"/><polygon fill="#5C7AAB" points="313.5,55.11,309.5,64.11,313.5,60.11,317.5,64.11,313.5,55.11" style="stroke:#5C7AAB;stroke-width:1.0;"/><text fill="#777777" font-family="sans-serif" font-size="13" lengthAdjust="spacing" textLength="46" x="314.5" y="98.0669">subject</text></g><!--MD5=[e037c5b0cf5af68b20f52b821fa27588]
link MedicationRequest to Medication--><g id="link_MedicationRequest_Medication"><path codeLine="27" d="M418.13,159 C472.06,159 536.38,159 584.3,159 " fill="none" id="MedicationRequest-to-Medication" style="stroke:#5C7AAB;stroke-width:1.0;"/><polygon fill="#5C7AAB" points="589.47,159,580.47,155,584.47,159,580.47,163,589.47,159" style="stroke:#5C7AAB;stroke-width:1.0;"/><text fill="#777777" font-family="sans-serif" font-size="13" lengthAdjust="spacing" textLength="135" x="436.25" y="152.0669">medicationReference</text></g><!--MD5=[819832f9120a7f791203d54b6c113f23]
link MedicationRequest to PractionerRole--><g id="link_MedicationRequest_PractionerRole"><path codeLine="28" d="M288.01,186.11 C264.73,209.96 230.82,244.7 209.74,266.29 " fill="none" id="MedicationRequest-to-PractionerRole" style="stroke:#5C7AAB;stroke-width:1.0;"/><polygon fill="#5C7AAB" points="206.21,269.9,215.359,266.2535,209.7025,266.322,209.6341,260.6655,206.21,269.9" style="stroke:#5C7AAB;stroke-width:1.0;"/><text fill="#777777" font-family="sans-serif" font-size="13" lengthAdjust="spacing" textLength="62" x="256.5" y="229.0669">requester</text></g><!--MD5=[731f89a912ad360ad557a958d8e3150a]
reverse link PrescribingPractitioner to PractionerRole--><g id="link_PrescribingPractitioner_PractionerRole"><path codeLine="30" d="M101.42,187.83 C107.8,202.15 116.72,219.39 127.5,233 C138.69,247.11 154.12,260.17 166.92,269.8 " fill="none" id="PrescribingPractitioner-backto-PractionerRole" style="stroke:#5C7AAB;stroke-width:1.0;"/><polygon fill="#5C7AAB" points="99.36,183.1,99.2915,192.9486,101.3588,187.6831,106.6244,189.7505,99.36,183.1" style="stroke:#5C7AAB;stroke-width:1.0;"/><text fill="#777777" font-family="sans-serif" font-size="13" lengthAdjust="spacing" textLength="73" x="128.5" y="229.0669">practitioner</text></g><!--MD5=[ca5725c82dfe9edd839e04a06dfe1d10]
link PractionerRole to PrescribingOrganization--><g id="link_PractionerRole_PrescribingOrganization"><path codeLine="31" d="M190.5,304.08 C190.5,324.02 190.5,358.35 190.5,382.73 " fill="none" id="PractionerRole-to-PrescribingOrganization" style="stroke:#5C7AAB;stroke-width:1.0;"/><polygon fill="#5C7AAB" points="190.5,387.77,194.5,378.77,190.5,382.77,186.5,378.77,190.5,387.77" style="stroke:#5C7AAB;stroke-width:1.0;"/><text fill="#777777" font-family="sans-serif" font-size="13" lengthAdjust="spacing" textLength="79" x="191.5" y="354.0669">organization</text></g><!--MD5=[3c5c0425ec93b336fbe4308777a1877f]
reverse link Medication to MedicationDispense--><g id="link_Medication_MedicationDispense"><path codeLine="33" d="M609.42,185.54 C583.61,199.91 550.49,217.94 520.5,233 C500.07,243.26 477.26,253.93 457.37,262.98 " fill="none" id="Medication-backto-MedicationDispense" style="stroke:#5C7AAB;stroke-width:1.0;"/><polygon fill="#5C7AAB" points="613.82,183.08,604.0122,183.9786,609.4553,185.5191,607.9148,190.9622,613.82,183.08" style="stroke:#5C7AAB;stroke-width:1.0;"/><text fill="#777777" font-family="sans-serif" font-size="13" lengthAdjust="spacing" textLength="135" x="550.5" y="229.0669">medicationReference</text></g><!--MD5=[ffea7c70ec61b81797f2f87bac41fd53]
reverse link MedicationRequest to MedicationDispense--><g id="link_MedicationRequest_MedicationDispense"><path codeLine="34" d="M335.54,190.18 C351.84,212.51 373.71,242.46 388.63,262.89 " fill="none" id="MedicationRequest-backto-MedicationDispense" style="stroke:#5C7AAB;stroke-width:1.0;"/><polygon fill="#5C7AAB" points="332.56,186.11,334.6611,195.7321,335.5187,190.1407,341.1101,190.9982,332.56,186.11" style="stroke:#5C7AAB;stroke-width:1.0;"/><text fill="#777777" font-family="sans-serif" font-size="13" lengthAdjust="spacing" textLength="146" x="365.5" y="229.0669">authorizingPrescription</text></g><!--MD5=[521936c65e7d94cdfe5dba8806268c61]
link MedicationDispense to DispenserOrganization--><g id="link_MedicationDispense_DispenserOrganization"><path codeLine="35" d="M405.5,311.14 C405.5,331.49 405.5,361.19 405.5,382.91 " fill="none" id="MedicationDispense-to-DispenserOrganization" style="stroke:#5C7AAB;stroke-width:1.0;"/><polygon fill="#5C7AAB" points="405.5,387.97,409.5,378.97,405.5,382.97,401.5,378.97,405.5,387.97" style="stroke:#5C7AAB;stroke-width:1.0;"/><text fill="#777777" font-family="sans-serif" font-size="13" lengthAdjust="spacing" textLength="96" x="406.5" y="354.0669">perfomer.actor</text></g><rect fill="#FFFFFF" height="64.8906" id="_legend" rx="5" ry="5" style="stroke:#000000;stroke-width:1.0;" width="180" x="523.5" y="448.9375"/><text fill="#000000" font-family="sans-serif" font-size="14" lengthAdjust="spacing" textLength="36" x="533.5" y="469.9326">Color</text><text fill="#000000" font-family="sans-serif" font-size="14" lengthAdjust="spacing" textLength="32" x="577.5" y="469.9326">Data</text><rect fill="#8FBC8F" height="16.2969" style="stroke:none;stroke-width:1.0;" width="44" x="529.5" y="473.2344"/><text fill="#000000" font-family="sans-serif" font-size="14" lengthAdjust="spacing" textLength="4" x="529.5" y="486.2295"> </text><text fill="#000000" font-family="sans-serif" font-size="14" lengthAdjust="spacing" textLength="116" x="577.5" y="486.2295">Prescription data</text><rect fill="#696969" height="16.2969" style="stroke:none;stroke-width:1.0;" width="44" x="529.5" y="489.5313"/><text fill="#000000" font-family="sans-serif" font-size="14" lengthAdjust="spacing" textLength="4" x="529.5" y="502.5264"> </text><text fill="#000000" font-family="sans-serif" font-size="14" lengthAdjust="spacing" textLength="44" x="581.5" y="502.5264">Actors</text><line style="stroke:#000000;stroke-width:1.0;" x1="529.5" x2="697.5" y1="456.9375" y2="456.9375"/><line style="stroke:#000000;stroke-width:1.0;" x1="529.5" x2="697.5" y1="473.2344" y2="473.2344"/><line style="stroke:#000000;stroke-width:1.0;" x1="529.5" x2="697.5" y1="489.5313" y2="489.5313"/><line style="stroke:#000000;stroke-width:1.0;" x1="529.5" x2="697.5" y1="505.8281" y2="505.8281"/><line style="stroke:#000000;stroke-width:1.0;" x1="529.5" x2="529.5" y1="456.9375" y2="505.8281"/><line style="stroke:#000000;stroke-width:1.0;" x1="573.5" x2="573.5" y1="456.9375" y2="505.8281"/><line style="stroke:#000000;stroke-width:1.0;" x1="697.5" x2="697.5" y1="456.9375" y2="505.8281"/><!--MD5=[0fbc574dcf216fa5819deba4329c7375]
@startuml medication.fhir.model
skinparam fixCircleLabelOverlapping false 
skinparam roundcorner 10
skinparam object {
    BackgroundColor DimGrey
    BorderColor Black
    ArrowColor #5c7aab
    FontSize 12
    FontColor White
    NoteBackgroundColor #3483eb
    ArrowFontColor #777777
}
skinparam LegendBackgroundColor White

object "<< Versicherter >>\n**Patient**" as Patient 
object "<< Verordnender LE >>\n**PractitionerDirectory**" as PrescribingPractitioner
object "<< Verordnende LEI >>\n**OrganizationDirectory**" as PrescribingOrganization
object "<< Abgebende LEI >>\n**OrganizationDirectory**" as DispenserOrganization
object "PractitionerRole" as PractionerRole
object "<< Medikation >>\n**EPAMedication**" as Medication #DarkSeaGreen 
object "<< Medikationsverordnung >>\n**EPAMedicationRequest**" as MedicationRequest #DarkSeaGreen  {
    + subject: Reference(Patient)
}
object "<< Dispensierung >>\n**EPAMedicationDispense**" as MedicationDispense #DarkSeaGreen 


MedicationRequest -u->  Patient : subject
MedicationRequest -r-> Medication : medicationReference
MedicationRequest -d-> PractionerRole : requester

PractionerRole -u-> PrescribingPractitioner : practitioner
PractionerRole -d-> PrescribingOrganization : organization

MedicationDispense -u-> Medication : medicationReference
MedicationDispense -l-> MedicationRequest : authorizingPrescription
MedicationDispense -d-> DispenserOrganization : perfomer.actor


legend right
    | Color | Data |
    |<#DarkSeaGreen>| Prescription data |
    |<#DimGrey>|  Actors |
endlegend
@enduml

PlantUML version 1.2022.7(Mon Aug 22 19:01:30 CEST 2022)
(GPL source distribution)
Java Runtime: OpenJDK Runtime Environment
JVM: OpenJDK 64-Bit Server VM
Default Encoding: UTF-8
Language: en
Country: US
--></g></svg>