<?xml version="1.0" encoding="us-ascii" standalone="no"?><svg xmlns="http://www.w3.org/2000/svg" xmlns:xlink="http://www.w3.org/1999/xlink" contentStyleType="text/css" height="543px" preserveAspectRatio="none" style="width:903px;height:543px;background:#FFFFFF;" version="1.1" viewBox="0 0 903 543" width="903px" zoomAndPan="magnify"><defs/><g><g id="elem_Patient"><rect fill="#696969" height="48.2656" rx="5" ry="5" style="stroke:#000000;stroke-width:0.5;" width="96" x="384" y="395.06"/><text fill="#FFFFFF" font-family="sans-serif" font-size="12" lengthAdjust="spacing" textLength="82" x="391" y="408.6616">&#171;Versicherter&#187;</text><text fill="#FFFFFF" font-family="sans-serif" font-size="12" font-weight="bold" lengthAdjust="spacing" textLength="66" x="399" y="422.7944">EPAPatient</text><line style="stroke:#000000;stroke-width:0.5;" x1="385" x2="479" y1="427.3256" y2="427.3256"/></g><g id="elem_PrescribingPractitioner"><rect fill="#696969" height="48.2656" rx="5" ry="5" style="stroke:#000000;stroke-width:0.5;" width="142" x="568" y="395.06"/><text fill="#FFFFFF" font-family="sans-serif" font-size="12" lengthAdjust="spacing" textLength="125" x="576.5" y="408.6616">&#171;Verschreibender LE&#187;</text><text fill="#FFFFFF" font-family="sans-serif" font-size="12" font-weight="bold" lengthAdjust="spacing" textLength="128" x="575" y="422.7944">PractitionerDirectory</text><line style="stroke:#000000;stroke-width:0.5;" x1="569" x2="709" y1="427.3256" y2="427.3256"/></g><g id="elem_PrescribingOrganization"><rect fill="#696969" height="48.2656" rx="5" ry="5" style="stroke:#000000;stroke-width:0.5;" width="152" x="745" y="395.06"/><text fill="#FFFFFF" font-family="sans-serif" font-size="12" lengthAdjust="spacing" textLength="123" x="759.5" y="408.6616">&#171;Verschreibende LEI&#187;</text><text fill="#FFFFFF" font-family="sans-serif" font-size="12" font-weight="bold" lengthAdjust="spacing" textLength="138" x="752" y="422.7944">OrganizationDirectory</text><line style="stroke:#000000;stroke-width:0.5;" x1="746" x2="896" y1="427.3256" y2="427.3256"/></g><g id="elem_PharmOrganization"><rect fill="#696969" height="48.2656" rx="5" ry="5" style="stroke:#000000;stroke-width:0.5;" width="152" x="356" y="7"/><text fill="#FFFFFF" font-family="sans-serif" font-size="12" lengthAdjust="spacing" textLength="99" x="382.5" y="20.6016">&#171;Abgebende LEI&#187;</text><text fill="#FFFFFF" font-family="sans-serif" font-size="12" font-weight="bold" lengthAdjust="spacing" textLength="138" x="363" y="34.7344">OrganizationDirectory</text><line style="stroke:#000000;stroke-width:0.5;" x1="357" x2="507" y1="39.2656" y2="39.2656"/></g><g id="elem_PractionerRole"><rect fill="#696969" height="34.1328" rx="5" ry="5" style="stroke:#000000;stroke-width:0.5;" width="126" x="629" y="273.8"/><text fill="#FFFFFF" font-family="sans-serif" font-size="12" lengthAdjust="spacing" textLength="112" x="636" y="287.4016">EPAPractitionerRole</text><line style="stroke:#000000;stroke-width:0.5;" x1="630" x2="754" y1="291.9328" y2="291.9328"/></g><g id="elem_Medication"><rect fill="#8FBC8F" height="48.2656" rx="5" ry="5" style="stroke:#000000;stroke-width:0.5;" width="105" x="58.5" y="266.73"/><text fill="#FFFFFF" font-family="sans-serif" font-size="12" lengthAdjust="spacing" textLength="81" x="70.5" y="280.3316">&#171;Arzneimittel&#187;</text><text fill="#FFFFFF" font-family="sans-serif" font-size="12" font-weight="bold" lengthAdjust="spacing" textLength="91" x="65.5" y="294.4644">EPAMedication</text><line style="stroke:#000000;stroke-width:0.5;" x1="59.5" x2="162.5" y1="298.9956" y2="298.9956"/></g><g id="elem_MedicationRequest"><rect fill="#8FBC8F" height="54.3984" rx="5" ry="5" style="stroke:#000000;stroke-width:0.5;" width="203" x="330.5" y="263.67"/><text fill="#FFFFFF" font-family="sans-serif" font-size="12" lengthAdjust="spacing" textLength="162" x="351" y="277.2716">&#171;Arzneimittelverschreibung&#187;</text><text fill="#FFFFFF" font-family="sans-serif" font-size="12" font-weight="bold" lengthAdjust="spacing" textLength="141" x="361.5" y="291.4044">EPAMedicationRequest</text><line style="stroke:#000000;stroke-width:0.5;" x1="331.5" x2="532.5" y1="295.9356" y2="295.9356"/><ellipse cx="341.5" cy="308.502" fill="#84BE84" rx="3" ry="3" style="stroke:#038048;stroke-width:1.0;"/><text fill="#FFFFFF" font-family="sans-serif" font-size="12" lengthAdjust="spacing" textLength="177" x="350.5" y="311.5372">subject: Reference(EPAPatient)</text></g><g id="elem_AltMedication"><rect fill="#8FBC8F" height="48.2656" rx="5" ry="5" style="stroke:#000000;stroke-width:0.5;" width="176" x="7" y="135.33"/><text fill="#FFFFFF" font-family="sans-serif" font-size="12" lengthAdjust="spacing" textLength="162" x="14" y="148.9316">&#171;Substituiertes Arzneimittel&#187;</text><text fill="#FFFFFF" font-family="sans-serif" font-size="12" font-weight="bold" lengthAdjust="spacing" textLength="91" x="49.5" y="163.0644">EPAMedication</text><line style="stroke:#000000;stroke-width:0.5;" x1="8" x2="182" y1="167.5956" y2="167.5956"/></g><g id="elem_MedicationDispense"><rect fill="#8FBC8F" height="54.3984" rx="5" ry="5" style="stroke:#000000;stroke-width:0.5;" width="163" x="350.5" y="132.27"/><text fill="#FFFFFF" font-family="sans-serif" font-size="12" lengthAdjust="spacing" textLength="138" x="363" y="145.8716">&#171;Dispensierinformation&#187;</text><text fill="#FFFFFF" font-family="sans-serif" font-size="12" font-weight="bold" lengthAdjust="spacing" textLength="149" x="357.5" y="160.0044">EPAMedicationDispense</text><line style="stroke:#000000;stroke-width:0.5;" x1="351.5" x2="512.5" y1="164.5356" y2="164.5356"/><ellipse cx="361.5" cy="177.102" fill="none" rx="3" ry="3" style="stroke:#038048;stroke-width:1.0;"/><text fill="#FFFFFF" font-family="sans-serif" font-size="12" lengthAdjust="spacing" textLength="117" x="370.5" y="180.1372">wasSubstituted: true</text></g><!--link MedicationRequest to Patient--><g id="link_MedicationRequest_Patient"><path codeLine="28" d="M432,318.35 C432,340.92 432,367.06 432,388.73 " fill="none" id="MedicationRequest-to-Patient" style="stroke:#5C7AAB;stroke-width:1.0;"/><polygon fill="#5C7AAB" points="432,394.73,436,385.73,432,389.73,428,385.73,432,394.73" style="stroke:#5C7AAB;stroke-width:1.0;"/><text fill="#777777" font-family="sans-serif" font-size="13" lengthAdjust="spacing" textLength="46" x="433" y="361.6284">subject</text></g><!--reverse link Medication to MedicationRequest--><g id="link_Medication_MedicationRequest"><path codeLine="29" d="M169.65,290.87 C214.65,290.87 274.7,290.87 330.01,290.87 " fill="none" id="Medication-backto-MedicationRequest" style="stroke:#5C7AAB;stroke-width:1.0;"/><polygon fill="#5C7AAB" points="163.65,290.87,172.65,294.87,168.65,290.87,172.65,286.87,163.65,290.87" style="stroke:#5C7AAB;stroke-width:1.0;"/><text fill="#777777" font-family="sans-serif" font-size="13" lengthAdjust="spacing" textLength="131" x="181.5" y="284.4384">medicationReference</text></g><!--link MedicationRequest to PractionerRole--><g id="link_MedicationRequest_PractionerRole"><path codeLine="30" d="M533.64,290.87 C565.69,290.87 594.15,290.87 622.72,290.87 " fill="none" id="MedicationRequest-to-PractionerRole" style="stroke:#5C7AAB;stroke-width:1.0;"/><polygon fill="#5C7AAB" points="628.72,290.87,619.72,286.87,623.72,290.87,619.72,294.87,628.72,290.87" style="stroke:#5C7AAB;stroke-width:1.0;"/><text fill="#777777" font-family="sans-serif" font-size="13" lengthAdjust="spacing" textLength="59" x="551.75" y="284.4384">requester</text></g><!--link PractionerRole to PrescribingPractitioner--><g id="link_PractionerRole_PrescribingPractitioner"><path codeLine="32" d="M685.07,308.38 C675.81,330.45 661.6704,364.1568 651.1404,389.2668 " fill="none" id="PractionerRole-to-PrescribingPractitioner" style="stroke:#5C7AAB;stroke-width:1.0;"/><polygon fill="#5C7AAB" points="648.82,394.8,655.9893,388.0472,650.7536,390.189,648.6118,384.9533,648.82,394.8" style="stroke:#5C7AAB;stroke-width:1.0;"/><text fill="#777777" font-family="sans-serif" font-size="13" lengthAdjust="spacing" textLength="73" x="669" y="361.6284">practitioner</text></g><!--link PractionerRole to PrescribingOrganization--><g id="link_PractionerRole_PrescribingOrganization"><path codeLine="33" d="M709.41,308.23 C721.21,319.38 737.14,334.52 751,348.06 C766.75,363.45 780.0276,376.7172 793.5876,390.4072 " fill="none" id="PractionerRole-to-PrescribingOrganization" style="stroke:#5C7AAB;stroke-width:1.0;"/><polygon fill="#5C7AAB" points="797.81,394.67,794.3184,385.4608,794.2914,391.1176,788.6346,391.0907,797.81,394.67" style="stroke:#5C7AAB;stroke-width:1.0;"/><text fill="#777777" font-family="sans-serif" font-size="13" lengthAdjust="spacing" textLength="79" x="767" y="361.6284">organization</text></g><!--reverse link AltMedication to MedicationDispense--><g id="link_AltMedication_MedicationDispense"><path codeLine="35" d="M189.1,159.47 C240.78,159.47 299.64,159.47 350.19,159.47 " fill="none" id="AltMedication-backto-MedicationDispense" style="stroke:#5C7AAB;stroke-width:1.0;"/><polygon fill="#5C7AAB" points="183.1,159.47,192.1,163.47,188.1,159.47,192.1,155.47,183.1,159.47" style="stroke:#5C7AAB;stroke-width:1.0;"/><text fill="#777777" font-family="sans-serif" font-size="13" lengthAdjust="spacing" textLength="131" x="201.25" y="153.0384">medicationReference</text></g><!--link MedicationDispense to MedicationRequest--><g id="link_MedicationDispense_MedicationRequest"><path codeLine="36" d="M432,186.96 C432,209.29 432,235.08 432,257.4 " fill="none" id="MedicationDispense-to-MedicationRequest" style="stroke:#5C7AAB;stroke-width:1.0;"/><polygon fill="#5C7AAB" points="432,263.4,436,254.4,432,258.4,428,254.4,432,263.4" style="stroke:#5C7AAB;stroke-width:1.0;"/><text fill="#777777" font-family="sans-serif" font-size="13" lengthAdjust="spacing" textLength="147" x="433" y="230.2384">authorizingPrescription</text></g><!--reverse link PharmOrganization to MedicationDispense--><g id="link_PharmOrganization_MedicationDispense"><path codeLine="37" d="M432,61.6 C432,83.29 432,109.49 432,132.07 " fill="none" id="PharmOrganization-backto-MedicationDispense" style="stroke:#5C7AAB;stroke-width:1.0;"/><polygon fill="#5C7AAB" points="432,55.6,428,64.6,432,60.6,436,64.6,432,55.6" style="stroke:#5C7AAB;stroke-width:1.0;"/><text fill="#777777" font-family="sans-serif" font-size="13" lengthAdjust="spacing" textLength="93" x="433" y="98.8384">perfomer.actor</text></g><rect fill="none" height="63.4648" id="_legend" rx="5" ry="5" style="stroke:#000000;stroke-width:1.0;" width="181" x="12" y="460.3256"/><text fill="#000000" font-family="sans-serif" font-size="14" lengthAdjust="spacing" textLength="38" x="21" y="480.8608">Color</text><text fill="#000000" font-family="sans-serif" font-size="14" lengthAdjust="spacing" textLength="31" x="67" y="480.8608">Data</text><rect fill="#8FBC8F" height="16.4883" style="stroke:none;stroke-width:1.0;" width="46" x="17" y="483.8139"/><text fill="#000000" font-family="sans-serif" font-size="14" lengthAdjust="spacing" textLength="4" x="17" y="497.3491">&#160;</text><text fill="#000000" font-family="sans-serif" font-size="14" lengthAdjust="spacing" textLength="117" x="67" y="497.3491">Prescription Data</text><rect fill="#696969" height="16.4883" style="stroke:none;stroke-width:1.0;" width="46" x="17" y="500.3022"/><text fill="#000000" font-family="sans-serif" font-size="14" lengthAdjust="spacing" textLength="4" x="17" y="513.8373">&#160;</text><text fill="#000000" font-family="sans-serif" font-size="14" lengthAdjust="spacing" textLength="44" x="67" y="513.8373">Actors</text><line style="stroke:#000000;stroke-width:1.0;" x1="17" x2="188" y1="467.3256" y2="467.3256"/><line style="stroke:#000000;stroke-width:1.0;" x1="17" x2="188" y1="483.8139" y2="483.8139"/><line style="stroke:#000000;stroke-width:1.0;" x1="17" x2="188" y1="500.3022" y2="500.3022"/><line style="stroke:#000000;stroke-width:1.0;" x1="17" x2="188" y1="516.7905" y2="516.7905"/><line style="stroke:#000000;stroke-width:1.0;" x1="17" x2="17" y1="467.3256" y2="516.7905"/><line style="stroke:#000000;stroke-width:1.0;" x1="63" x2="63" y1="467.3256" y2="516.7905"/><line style="stroke:#000000;stroke-width:1.0;" x1="188" x2="188" y1="467.3256" y2="516.7905"/><!--SRC=[bLHHRzCm47xFhpYjBr0qn1XegAegTUj0I6EhMWbUU76IIslgsE7iRAoK_uxZ98sJfcpaBNVVzzrzvxFrXikC4KiXuR-kE4K2RrY8ukuUIR0iut852HCQ8T1xAAbSnf4YYGHdRxo42dzWPE1t0FQxPD5cvQ1NIYY26Ky_4JwMEKKnKXc_51ReebCYzL061- -Z2yP25_wef5doBSBPs_r_YVgsvWPTx5OPx1OSdB_xS8vX8zqG1nVk2_vupT_W2cNS5IbB19Mpa_4OlY9f7gsHZBK_cNoNm-7rV3fdXgCqm-49C0tL7tHvqPgGXxQCfTvSL-mviSXmmvMTvuoJnIjwh8K8TKGyjEVWmuxhMjdFbUuThPZaMrPG_g7hmtpTQRZ2_v9SCqfxnOhnUCqlbC2gYI9OXrgrQIkHfzmO5CsCls3C8oTTbMm2C9WnsYoHsHL3UKpgVZ-gtEvrZ-u2V-QepO5y5MzNgVRy5UZSbHl10XCab16-Q3RYfLqohvrb7cexY9mN-wEVQtGgp7EyphZEK6ghpMMYA2tXFR8L40-CreaZJX-OhWqOZ4TWA4VhBpYSr6byEe7zFHZLC-f32elqt8qWzJ3LGFjuP7dj5R9SAhFsYWITdEleo7sonCo_NazG_IstLEKlVT0pJ6UnVOPFkMouSMiyjViHiDoi5V6ji-9Qorm3VHfvqN_tVXQcaHAL8hrcnKqE0k7UG12O67VYEoXVmHtCc66mAuFZrd9CTk3NxoBBLz-2faK9RJEsGbddBm00]--></g></svg>