<?xml version="1.0" encoding="us-ascii" standalone="no"?><svg xmlns="http://www.w3.org/2000/svg" xmlns:xlink="http://www.w3.org/1999/xlink" contentStyleType="text/css" height="1568px" preserveAspectRatio="none" style="width:2271px;height:1568px;background:#FFFFFF;" version="1.1" viewBox="0 0 2271 1568" width="2271px" zoomAndPan="magnify"><defs/><g><g id="elem_Practitioner"><rect fill="#696969" height="48.2656" rx="5" ry="5" style="stroke:#000000;stroke-width:0.5;" width="142" x="651" y="1066.25"/><text fill="#FFFFFF" font-family="sans-serif" font-size="12" lengthAdjust="spacing" textLength="101" x="671.5" y="1079.8516">&#171;Arzt / Zahnarzt&#187;</text><text fill="#FFFFFF" font-family="sans-serif" font-size="12" font-weight="bold" lengthAdjust="spacing" textLength="128" x="658" y="1093.9844">PractitionerDirectory</text><line style="stroke:#000000;stroke-width:0.5;" x1="652" x2="792" y1="1098.5156" y2="1098.5156"/></g><g id="elem_Organization"><rect fill="#696969" height="76.5313" rx="5" ry="5" style="stroke:#000000;stroke-width:0.5;" width="152" x="934" y="771.25"/><text fill="#FFFFFF" font-family="sans-serif" font-size="12" lengthAdjust="spacing" textLength="47" x="986.5" y="784.8516">&#171;Praxis&#187;</text><text fill="#FFFFFF" font-family="sans-serif" font-size="12" lengthAdjust="spacing" textLength="87" x="966.5" y="798.9844">&#171;Krankenhaus&#187;</text><text fill="#FFFFFF" font-family="sans-serif" font-size="12" lengthAdjust="spacing" textLength="67" x="976.5" y="813.1172">&#171;Apotheke&#187;</text><text fill="#FFFFFF" font-family="sans-serif" font-size="12" font-weight="bold" lengthAdjust="spacing" textLength="138" x="941" y="827.25">OrganizationDirectory</text><line style="stroke:#000000;stroke-width:0.5;" x1="935" x2="1085" y1="831.7813" y2="831.7813"/></g><g id="elem_PractitionerRole"><rect fill="#696969" height="48.2656" rx="5" ry="5" style="stroke:#000000;stroke-width:0.5;" width="176" x="810" y="924.85"/><text fill="#FFFFFF" font-family="sans-serif" font-size="12" lengthAdjust="spacing" textLength="162" x="817" y="938.4516">&#171;Medizinische Fachrichtung&#187;</text><text fill="#FFFFFF" font-family="sans-serif" font-size="12" font-weight="bold" lengthAdjust="spacing" textLength="121" x="837.5" y="952.5844">EPAPractitionerRole</text><line style="stroke:#000000;stroke-width:0.5;" x1="811" x2="985" y1="957.1156" y2="957.1156"/></g><g id="elem_RelatedPerson"><rect fill="#696969" height="48.2656" rx="5" ry="5" style="stroke:#000000;stroke-width:0.5;" width="207" x="939.5" y="363.32"/><text fill="#FFFFFF" font-family="sans-serif" font-size="12" lengthAdjust="spacing" textLength="193" x="946.5" y="376.9216">&#171;Kontakt- oder Bezugspersonen&#187;</text><text fill="#FFFFFF" font-family="sans-serif" font-size="12" lengthAdjust="spacing" textLength="105" x="990.5" y="391.0544">EPARelatedPerson</text><line style="stroke:#000000;stroke-width:0.5;" x1="940.5" x2="1145.5" y1="395.5856" y2="395.5856"/></g><g id="elem_Observation"><rect fill="#20B2AA" height="139.1953" rx="5" ry="5" style="stroke:#000000;stroke-width:0.5;" width="408" x="187" y="7"/><text fill="#000000" font-family="sans-serif" font-size="12" lengthAdjust="spacing" textLength="245" x="268.5" y="20.6016">&#171;K&#246;rpergr&#246;&#223;e&#187; EPAObservationBodyHeight</text><text fill="#000000" font-family="sans-serif" font-size="12" lengthAdjust="spacing" textLength="256" x="263" y="34.7344">&#171;K&#246;rpergewicht&#187; EPAObservationBodyWeight</text><text fill="#000000" font-family="sans-serif" font-size="12" lengthAdjust="spacing" textLength="273" x="254.5" y="48.8672">&#171;Stillstatus&#187; EPAObservationBreastfeedingStatus</text><text fill="#000000" font-family="sans-serif" font-size="12" lengthAdjust="spacing" textLength="284" x="249" y="63">&#171;Serumkreatinin-Wert&#187; EPAObservationCreatinine</text><text fill="#000000" font-family="sans-serif" font-size="12" lengthAdjust="spacing" textLength="335" x="223.5" y="77.1328">&#171;Schwangerschaftsstatus&#187; EPAObservationPregnancyStatus</text><text fill="#000000" font-family="sans-serif" font-size="12" lengthAdjust="spacing" textLength="358" x="212" y="91.2656">&#171;Entbindungstermin&#187; EPAObservationEstimatedDateOfDelivery</text><text fill="#000000" font-family="sans-serif" font-size="12" lengthAdjust="spacing" textLength="283" x="249.5" y="105.3984">&#171;Glomerul&#228;re Filtrationsrate&#187; EPAObservationGFR</text><text fill="#000000" font-family="sans-serif" font-size="12" font-weight="bold" lengthAdjust="spacing" textLength="99" x="341.5" y="119.5313">EPAObservation</text><line style="stroke:#000000;stroke-width:0.5;" x1="188" x2="594" y1="124.0625" y2="124.0625"/><ellipse cx="198" cy="136.6289" fill="#84BE84" rx="3" ry="3" style="stroke:#038048;stroke-width:1.0;"/><text fill="#000000" font-family="sans-serif" font-size="12" lengthAdjust="spacing" textLength="382" x="207" y="139.6641">performer: Reference(EPAPractitionerRole | OrganizationDirectory)</text></g><g id="elem_ManagementNote"><rect fill="#20B2AA" height="54.3984" rx="5" ry="5" style="stroke:#000000;stroke-width:0.5;" width="408" x="7" y="360.26"/><text fill="#000000" font-family="sans-serif" font-size="12" lengthAdjust="spacing" textLength="148" x="137" y="373.8616">&#171;&#220;bergreifender Hinweis&#187;</text><text fill="#000000" font-family="sans-serif" font-size="12" font-weight="bold" lengthAdjust="spacing" textLength="276" x="73" y="387.9944">EPAObservationMedicationManagementNote</text><line style="stroke:#000000;stroke-width:0.5;" x1="8" x2="414" y1="392.5256" y2="392.5256"/><ellipse cx="18" cy="405.092" fill="#84BE84" rx="3" ry="3" style="stroke:#038048;stroke-width:1.0;"/><text fill="#000000" font-family="sans-serif" font-size="12" lengthAdjust="spacing" textLength="382" x="27" y="408.1272">performer: Reference(EPAPractitionerRole | OrganizationDirectory)</text></g><g id="elem_AllergyIntolerance"><rect fill="#20B2AA" height="68.5313" rx="5" ry="5" style="stroke:#000000;stroke-width:0.5;" width="399" x="861.5" y="628.72"/><text fill="#000000" font-family="sans-serif" font-size="12" lengthAdjust="spacing" textLength="147" x="987.5" y="642.3216">&#171;Allergie oder Intoleranz&#187;</text><text fill="#000000" font-family="sans-serif" font-size="12" font-weight="bold" lengthAdjust="spacing" textLength="136" x="993" y="656.4544">EPAAllergyIntolerance</text><line style="stroke:#000000;stroke-width:0.5;" x1="862.5" x2="1259.5" y1="660.9856" y2="660.9856"/><ellipse cx="872.5" cy="673.552" fill="#84BE84" rx="3" ry="3" style="stroke:#038048;stroke-width:1.0;"/><text fill="#000000" font-family="sans-serif" font-size="12" lengthAdjust="spacing" textLength="175" x="881.5" y="676.5872">patient: Reference(EPAPatient)</text><ellipse cx="872.5" cy="687.6848" fill="#84BE84" rx="3" ry="3" style="stroke:#038048;stroke-width:1.0;"/><text fill="#000000" font-family="sans-serif" font-size="12" lengthAdjust="spacing" textLength="373" x="881.5" y="690.72">recorder: Reference(EPAPractitionerRole | OrganizationDirectory)</text></g><g id="elem_Provenance"><rect fill="#C2F0FF" height="308.5234" rx="5" ry="5" style="stroke:#000000;stroke-width:0.5;" width="334" x="570" y="233.2"/><text fill="#000000" font-family="sans-serif" font-size="12" lengthAdjust="spacing" textLength="120" x="677" y="246.8016">&#171;Herkunftsnachweis&#187;</text><text fill="#000000" font-family="sans-serif" font-size="12" lengthAdjust="spacing" textLength="85" x="694.5" y="260.9344">&#171;Verifizierung&#187;</text><text fill="#000000" font-family="sans-serif" font-size="12" font-weight="bold" lengthAdjust="spacing" textLength="93" x="690.5" y="275.0672">EPAProvenance</text><line style="stroke:#000000;stroke-width:0.5;" x1="571" x2="903" y1="279.5984" y2="279.5984"/><ellipse cx="581" cy="292.1648" fill="none" rx="3" ry="3" style="stroke:#038048;stroke-width:1.0;"/><text fill="#000000" font-family="sans-serif" font-size="12" lengthAdjust="spacing" textLength="162" x="590" y="295.2">activity = CREATE | UPDATE</text><ellipse cx="581" cy="306.2977" fill="none" rx="3" ry="3" style="stroke:#038048;stroke-width:1.0;"/><text fill="#000000" font-family="sans-serif" font-size="12" lengthAdjust="spacing" textLength="308" x="590" y="309.3328">agent.type = enterer | performer | author | informant</text><ellipse cx="581" cy="334.4305" fill="none" rx="3" ry="3" style="stroke:#038048;stroke-width:1.0;"/><text fill="#000000" font-family="sans-serif" font-size="12" lengthAdjust="spacing" textLength="79" x="590" y="337.4656">activity = VRF</text><ellipse cx="581" cy="348.5633" fill="none" rx="3" ry="3" style="stroke:#038048;stroke-width:1.0;"/><text fill="#000000" font-family="sans-serif" font-size="12" lengthAdjust="spacing" textLength="119" x="590" y="351.5984">agent.type = verifier</text><line style="stroke:#000000;stroke-width:1.0;" x1="571" x2="732" y1="320.8641" y2="320.8641"/><line style="stroke:#000000;stroke-width:1.0;" x1="732" x2="742" y1="320.3641" y2="320.3641"/><line style="stroke:#000000;stroke-width:1.0;" x1="742" x2="903" y1="320.8641" y2="320.8641"/><ellipse cx="581" cy="376.6961" fill="#84BE84" rx="3" ry="3" style="stroke:#038048;stroke-width:1.0;"/><text fill="#000000" font-family="sans-serif" font-size="12" lengthAdjust="spacing" textLength="114" x="590" y="379.7313">target = Reference(</text><text fill="#000000" font-family="sans-serif" font-size="12" lengthAdjust="spacing" textLength="92" x="590" y="393.8641">EPAMedication |</text><text fill="#000000" font-family="sans-serif" font-size="12" lengthAdjust="spacing" textLength="139" x="590" y="407.9969">EPAMedicationRequest |</text><text fill="#000000" font-family="sans-serif" font-size="12" lengthAdjust="spacing" textLength="145" x="590" y="422.1297">EPAMedicationDispense |</text><text fill="#000000" font-family="sans-serif" font-size="12" lengthAdjust="spacing" textLength="149" x="590" y="436.2625">EPAMedicationStatement |</text><text fill="#000000" font-family="sans-serif" font-size="12" lengthAdjust="spacing" textLength="132" x="590" y="450.3953">EPAAllergyIntolerance |</text><text fill="#000000" font-family="sans-serif" font-size="12" lengthAdjust="spacing" textLength="99" x="590" y="464.5281">EPAObservation |</text><text fill="#000000" font-family="sans-serif" font-size="12" lengthAdjust="spacing" textLength="125" x="590" y="478.6609">EPAPlanComposition |</text><text fill="#000000" font-family="sans-serif" font-size="12" lengthAdjust="spacing" textLength="192" x="590" y="492.7938">EPAPlanMedicationStatementList |</text><text fill="#000000" font-family="sans-serif" font-size="12" lengthAdjust="spacing" textLength="175" x="590" y="506.9266">EPAPlanAllergyIntoleranceList |</text><text fill="#000000" font-family="sans-serif" font-size="12" lengthAdjust="spacing" textLength="134" x="590" y="521.0594">EPAPlanObservationList</text><text fill="#000000" font-family="sans-serif" font-size="12" lengthAdjust="spacing" textLength="4" x="590" y="535.1922">)</text><line style="stroke:#000000;stroke-width:1.0;" x1="571" x2="732" y1="363.1297" y2="363.1297"/><line style="stroke:#000000;stroke-width:1.0;" x1="732" x2="742" y1="362.6297" y2="362.6297"/><line style="stroke:#000000;stroke-width:1.0;" x1="742" x2="903" y1="363.1297" y2="363.1297"/></g><g id="elem_MedicationStatement"><rect fill="#20B2AA" height="54.3984" rx="5" ry="5" style="stroke:#000000;stroke-width:0.5;" width="236" x="944" y="1063.18"/><text fill="#000000" font-family="sans-serif" font-size="12" lengthAdjust="spacing" textLength="186" x="971" y="1076.7816">&#171;Medikamentzusatzinformation&#187;</text><text fill="#000000" font-family="sans-serif" font-size="12" lengthAdjust="spacing" textLength="16" x="969" y="1090.9144">&#160;&#160;&#160;&#160;</text><text fill="#000000" font-family="sans-serif" font-size="12" font-weight="bold" lengthAdjust="spacing" textLength="154" x="985" y="1090.9144">EPAMedicationStatement</text><text fill="#000000" font-family="sans-serif" font-size="12" lengthAdjust="spacing" textLength="16" x="1139" y="1090.9144">&#160;&#160;&#160;&#160;</text><line style="stroke:#000000;stroke-width:0.5;" x1="945" x2="1179" y1="1095.4456" y2="1095.4456"/><ellipse cx="955" cy="1108.012" fill="#84BE84" rx="3" ry="3" style="stroke:#038048;stroke-width:1.0;"/><text fill="#000000" font-family="sans-serif" font-size="12" lengthAdjust="spacing" textLength="177" x="964" y="1111.0472">subject: Reference(EPAPatient)</text></g><g id="elem_PlanMedication"><rect fill="#20B2AA" height="48.2656" rx="5" ry="5" style="stroke:#000000;stroke-width:0.5;" width="146" x="989" y="1191.58"/><text fill="#000000" font-family="sans-serif" font-size="12" lengthAdjust="spacing" textLength="132" x="996" y="1205.1816">&#171;Medikament Planung&#187;</text><text fill="#000000" font-family="sans-serif" font-size="12" font-weight="bold" lengthAdjust="spacing" textLength="91" x="1016.5" y="1219.3144">EPAMedication</text><line style="stroke:#000000;stroke-width:0.5;" x1="990" x2="1134" y1="1223.8456" y2="1223.8456"/></g><g id="elem_Medication"><rect fill="#8FBC8F" height="96.7969" rx="5" ry="5" style="stroke:#000000;stroke-width:0.5;" width="418" x="1392" y="339.06"/><text fill="#000000" font-family="sans-serif" font-size="12" lengthAdjust="spacing" textLength="174" x="1514" y="352.6616">&#171;Verschriebenes Arzneimittel&#187;</text><text fill="#000000" font-family="sans-serif" font-size="12" lengthAdjust="spacing" textLength="206" x="1498" y="366.7944">&#171;Verschreibungsfreies Arzneimittel&#187;</text><text fill="#000000" font-family="sans-serif" font-size="12" font-weight="bold" lengthAdjust="spacing" textLength="91" x="1555.5" y="380.9272">EPAMedication</text><line style="stroke:#000000;stroke-width:0.5;" x1="1393" x2="1809" y1="385.4584" y2="385.4584"/><ellipse cx="1403" cy="412.1577" fill="#84BE84" rx="3" ry="3" style="stroke:#038048;stroke-width:1.0;"/><text fill="#000000" font-family="sans-serif" font-size="12" lengthAdjust="spacing" textLength="190" x="1412" y="401.06">ingredient: Reference(Contained(</text><text fill="#000000" font-family="sans-serif" font-size="12" lengthAdjust="spacing" textLength="392" x="1412" y="415.1928">EPAMedicationPharmaceuticalProduct | EPAMedicationPZNIngredient</text><text fill="#000000" font-family="sans-serif" font-size="12" lengthAdjust="spacing" textLength="8" x="1412" y="429.3256">))</text></g><g id="elem_MedicationRequest"><rect fill="#8FBC8F" height="54.3984" rx="5" ry="5" style="stroke:#000000;stroke-width:0.5;" width="203" x="1198.5" y="921.78"/><text fill="#000000" font-family="sans-serif" font-size="12" lengthAdjust="spacing" textLength="162" x="1219" y="935.3816">&#171;Arzneimittelverschreibung&#187;</text><text fill="#000000" font-family="sans-serif" font-size="12" font-weight="bold" lengthAdjust="spacing" textLength="141" x="1229.5" y="949.5144">EPAMedicationRequest</text><line style="stroke:#000000;stroke-width:0.5;" x1="1199.5" x2="1400.5" y1="954.0456" y2="954.0456"/><ellipse cx="1209.5" cy="966.612" fill="#84BE84" rx="3" ry="3" style="stroke:#038048;stroke-width:1.0;"/><text fill="#000000" font-family="sans-serif" font-size="12" lengthAdjust="spacing" textLength="177" x="1218.5" y="969.6472">subject: Reference(EPAPatient)</text></g><g id="elem_MedicationPharmaceuticalProduct"><rect fill="#8FBC8F" height="48.2656" rx="5" ry="5" style="stroke:#000000;stroke-width:0.5;" width="291" x="1113.5" y="52.46"/><text fill="#000000" font-family="sans-serif" font-size="12" lengthAdjust="spacing" textLength="277" x="1120.5" y="66.0616">&#171;Pharmazeutisches Produkt bei Kombipackung&#187;</text><text fill="#000000" font-family="sans-serif" font-size="12" font-weight="bold" lengthAdjust="spacing" textLength="231" x="1143.5" y="80.1944">EPAMedicationPharmaceuticalProduct</text><line style="stroke:#000000;stroke-width:0.5;" x1="1114.5" x2="1403.5" y1="84.7256" y2="84.7256"/></g><g id="elem_MedicationPZNIngredient"><rect fill="#8FBC8F" height="48.2656" rx="5" ry="5" style="stroke:#000000;stroke-width:0.5;" width="211" x="1797.5" y="52.46"/><text fill="#000000" font-family="sans-serif" font-size="12" lengthAdjust="spacing" textLength="197" x="1804.5" y="66.0616">&#171;Inhaltsstoff bei PZN-Rezepturen&#187;</text><text fill="#000000" font-family="sans-serif" font-size="12" font-weight="bold" lengthAdjust="spacing" textLength="179" x="1813.5" y="80.1944">EPAMedicationPZNIngredient</text><line style="stroke:#000000;stroke-width:0.5;" x1="1798.5" x2="2007.5" y1="84.7256" y2="84.7256"/></g><g id="elem_MedicationPharmaceuticalProductPlanning"><rect fill="#20B2AA" height="48.2656" rx="5" ry="5" style="stroke:#000000;stroke-width:0.5;" width="291" x="654.5" y="1387.15"/><text fill="#000000" font-family="sans-serif" font-size="12" lengthAdjust="spacing" textLength="277" x="661.5" y="1400.7516">&#171;Pharmazeutisches Produkt bei Kombipackung&#187;</text><text fill="#000000" font-family="sans-serif" font-size="12" font-weight="bold" lengthAdjust="spacing" textLength="231" x="684.5" y="1414.8844">EPAMedicationPharmaceuticalProduct</text><line style="stroke:#000000;stroke-width:0.5;" x1="655.5" x2="944.5" y1="1419.4156" y2="1419.4156"/></g><g id="elem_MedicationPZNIngredientPlanning"><rect fill="#20B2AA" height="48.2656" rx="5" ry="5" style="stroke:#000000;stroke-width:0.5;" width="211" x="1118.5" y="1387.15"/><text fill="#000000" font-family="sans-serif" font-size="12" lengthAdjust="spacing" textLength="197" x="1125.5" y="1400.7516">&#171;Inhaltsstoff bei PZN-Rezepturen&#187;</text><text fill="#000000" font-family="sans-serif" font-size="12" font-weight="bold" lengthAdjust="spacing" textLength="179" x="1134.5" y="1414.8844">EPAMedicationPZNIngredient</text><line style="stroke:#000000;stroke-width:0.5;" x1="1119.5" x2="1328.5" y1="1419.4156" y2="1419.4156"/></g><g id="elem_MedicationDispense"><rect fill="#8FBC8F" height="62.3984" rx="5" ry="5" style="stroke:#000000;stroke-width:0.5;" width="190" x="1296" y="631.79"/><text fill="#000000" font-family="sans-serif" font-size="12" lengthAdjust="spacing" textLength="94" x="1344" y="645.3916">&#171;Dispensierung&#187;</text><text fill="#000000" font-family="sans-serif" font-size="12" lengthAdjust="spacing" textLength="176" x="1303" y="659.5244">&#171;Verschreibungsfreie Abgabe&#187;</text><text fill="#000000" font-family="sans-serif" font-size="12" font-weight="bold" lengthAdjust="spacing" textLength="149" x="1316.5" y="673.6572">EPAMedicationDispense</text><line style="stroke:#000000;stroke-width:0.5;" x1="1297" x2="1485" y1="678.1884" y2="678.1884"/></g><g id="elem_AltMedication"><rect fill="#8FBC8F" height="48.2656" rx="5" ry="5" style="stroke:#000000;stroke-width:0.5;" width="176" x="1181" y="363.32"/><text fill="#000000" font-family="sans-serif" font-size="12" lengthAdjust="spacing" textLength="162" x="1188" y="376.9216">&#171;Substituiertes Arzneimittel&#187;</text><text fill="#000000" font-family="sans-serif" font-size="12" font-weight="bold" lengthAdjust="spacing" textLength="91" x="1223.5" y="391.0544">EPAMedication</text><line style="stroke:#000000;stroke-width:0.5;" x1="1182" x2="1356" y1="395.5856" y2="395.5856"/></g><g id="elem_N1"><path d="M1439.5,68.94 L1439.5,84.2505 A5,5 0 0 0 1444.5,89.2505 L1757.5,89.2505 A5,5 0 0 0 1762.5,84.2505 L1762.5,73.94 L1752.5,63.94 L1444.5,63.94 A5,5 0 0 0 1439.5,68.94 " fill="#FEFFDD" style="stroke:#181818;stroke-width:0.5;"/><path d="M1752.5,63.94 L1752.5,71.44 A2.5,2.5 0 0 0 1755,73.94 L1762.5,73.94 L1752.5,63.94 " fill="#FEFFDD" style="stroke:#181818;stroke-width:1.0;"/><text fill="#000000" font-family="sans-serif" font-size="13" lengthAdjust="spacing" textLength="302" x="1445.5" y="81.5084">Hinweis: Kombipackungen und PZN-Rezepturen</text></g><g id="elem_N3"><path d="M900.5,1305.84 L900.5,1321.1505 A5,5 0 0 0 905.5,1326.1505 L1218.5,1326.1505 A5,5 0 0 0 1223.5,1321.1505 L1223.5,1310.84 L1213.5,1300.84 L905.5,1300.84 A5,5 0 0 0 900.5,1305.84 " fill="#FEFFDD" style="stroke:#181818;stroke-width:0.5;"/><path d="M1213.5,1300.84 L1213.5,1308.34 A2.5,2.5 0 0 0 1216,1310.84 L1223.5,1310.84 L1213.5,1300.84 " fill="#FEFFDD" style="stroke:#181818;stroke-width:1.0;"/><text fill="#000000" font-family="sans-serif" font-size="13" lengthAdjust="spacing" textLength="302" x="906.5" y="1318.4084">Hinweis: Kombipackungen und PZN-Rezepturen</text></g><g id="elem_N2"><path d="M2043.5,53.63 L2043.5,99.5616 A5,5 0 0 0 2048.5,104.5616 L2259.5,104.5616 A5,5 0 0 0 2264.5,99.5616 L2264.5,58.63 L2254.5,48.63 L2048.5,48.63 A5,5 0 0 0 2043.5,53.63 " fill="#FEFFDD" style="stroke:#181818;stroke-width:0.5;"/><path d="M2254.5,48.63 L2254.5,56.13 A2.5,2.5 0 0 0 2257,58.63 L2264.5,58.63 L2254.5,48.63 " fill="#FEFFDD" style="stroke:#181818;stroke-width:1.0;"/><text fill="#000000" font-family="sans-serif" font-size="13" lengthAdjust="spacing" textLength="190" x="2049.5" y="66.1984">Aus &#220;bersichtsgr&#252;nden ist die</text><text fill="#000000" font-family="sans-serif" font-size="13" lengthAdjust="spacing" textLength="123" x="2049.5" y="81.5089">versicherte Person (</text><text fill="#000000" font-family="sans-serif" font-size="13" font-weight="bold" lengthAdjust="spacing" textLength="73" x="2172.5" y="81.5089">EPAPatient</text><text fill="#000000" font-family="sans-serif" font-size="13" lengthAdjust="spacing" textLength="4" x="2245.5" y="81.5089">)</text><text fill="#000000" font-family="sans-serif" font-size="13" lengthAdjust="spacing" textLength="134" x="2049.5" y="96.8195">hier nicht abgebildet.</text></g><g id="elem_N4"><path d="M630,30.67 L630,122.5333 A5,5 0 0 0 635,127.5333 L798.29,127.5333 L775.83,232.71 L806.29,127.5333 L995,127.5333 A5,5 0 0 0 1000,122.5333 L1000,35.67 L990,25.67 L635,25.67 A5,5 0 0 0 630,30.67 " fill="#FEFFDD" style="stroke:#181818;stroke-width:0.5;"/><path d="M990,25.67 L990,33.17 A2.5,2.5 0 0 0 992.5,35.67 L1000,35.67 L990,25.67 " fill="#FEFFDD" style="stroke:#181818;stroke-width:0.5;"/><text fill="#000000" font-family="sans-serif" font-size="13" lengthAdjust="spacing" textLength="21" x="636" y="43.2384">Die</text><text fill="#000000" font-family="sans-serif" font-size="13" font-weight="bold" lengthAdjust="spacing" textLength="105" x="661" y="43.2384">EPAProvenance</text><text fill="#000000" font-family="sans-serif" font-size="13" lengthAdjust="spacing" textLength="211" x="766" y="43.2384">-Instanzen werden im Medication</text><text fill="#000000" font-family="sans-serif" font-size="13" lengthAdjust="spacing" textLength="345" x="636" y="58.5489">Service sowohl f&#252;r den Herkunftsnachweis als auch als</text><text fill="#000000" font-family="sans-serif" font-size="13" lengthAdjust="spacing" textLength="341" x="636" y="73.8595">Verifizierungsnachweis im Kontext des elektronischen</text><text fill="#000000" font-family="sans-serif" font-size="13" lengthAdjust="spacing" textLength="295" x="636" y="89.17">Medikationsplans verwendet. Dabei werden die</text><text fill="#000000" font-family="sans-serif" font-size="13" lengthAdjust="spacing" textLength="317" x="636" y="104.4805">Ressource-Instanzen versioniert &#252;ber die Referenz</text><text fill="#000000" font-family="sans-serif" font-size="13" font-weight="bold" lengthAdjust="spacing" textLength="41" x="636" y="119.7911">target</text><text fill="#000000" font-family="sans-serif" font-size="13" lengthAdjust="spacing" textLength="76" x="681" y="119.7911">referenziert.</text></g><!--reverse link MedicationPZNIngredient to Medication--><g id="link_MedicationPZNIngredient_Medication"><path codeLine="79" d="M1875.8552,105.3599 C1826.4452,155.8899 1713.33,271.58 1647.63,338.77 " fill="none" id="MedicationPZNIngredient-backto-Medication" style="stroke:#5C7AAB;stroke-width:1.0;"/><polygon fill="#5C7AAB" points="1880.05,101.07,1870.8978,104.7083,1876.5543,104.6449,1876.6177,110.3014,1880.05,101.07" style="stroke:#5C7AAB;stroke-width:1.0;"/><text fill="#777777" font-family="sans-serif" font-size="11" lengthAdjust="spacing" textLength="134" x="1806" y="194.3348">ingredient.itemReference</text></g><!--reverse link MedicationPharmaceuticalProduct to Medication--><g id="link_MedicationPharmaceuticalProduct_Medication"><path codeLine="80" d="M1289.4432,105.0911 C1345.4032,155.6211 1473.8,271.58 1548.2,338.77 " fill="none" id="MedicationPharmaceuticalProduct-backto-Medication" style="stroke:#5C7AAB;stroke-width:1.0;"/><polygon fill="#5C7AAB" points="1284.99,101.07,1288.9891,110.0704,1288.701,104.4209,1294.3505,104.1328,1284.99,101.07" style="stroke:#5C7AAB;stroke-width:1.0;"/><text fill="#777777" font-family="sans-serif" font-size="11" lengthAdjust="spacing" textLength="134" x="1390" y="194.3348">ingredient.itemReference</text></g><!--link MedicationPharmaceuticalProduct to N1--><g id="link_MedicationPharmaceuticalProduct_N1"><path codeLine="84" d="M1404.95,76.6 C1416.31,76.6 1427.67,76.6 1439.03,76.6 " fill="none" id="MedicationPharmaceuticalProduct-N1" style="stroke:#5C7AAB;stroke-width:1.0;stroke-dasharray:7.0,7.0;"/></g><!--link N1 to MedicationPZNIngredient--><g id="link_N1_MedicationPZNIngredient"><path codeLine="85" d="M1762.91,76.6 C1774.31,76.6 1785.71,76.6 1797.11,76.6 " fill="none" id="N1-MedicationPZNIngredient" style="stroke:#5C7AAB;stroke-width:1.0;stroke-dasharray:7.0,7.0;"/></g><!--link N1 to Medication--><g id="link_N1_Medication"><path codeLine="86" d="M1601,89.71 C1601,130.69 1601,265.73 1601,338.68 " fill="none" id="N1-Medication" style="stroke:#5C7AAB;stroke-width:1.0;stroke-dasharray:7.0,7.0;"/></g><!--link MedicationStatement to PlanMedication--><g id="link_MedicationStatement_PlanMedication"><path codeLine="90" d="M1062,1117.84 C1062,1139.64 1062,1164.27 1062,1185.21 " fill="none" id="MedicationStatement-to-PlanMedication" style="stroke:#5C7AAB;stroke-width:1.0;"/><polygon fill="#5C7AAB" points="1062,1191.21,1066,1182.21,1062,1186.21,1058,1182.21,1062,1191.21" style="stroke:#5C7AAB;stroke-width:1.0;"/><text fill="#777777" font-family="sans-serif" font-size="11" lengthAdjust="spacing" textLength="112" x="1063" y="1159.2148">medicationReference</text></g><!--reverse link PractitionerRole to MedicationStatement--><g id="link_PractitionerRole_MedicationStatement"><path codeLine="91" d="M904.7562,979.241 C909.8462,997.561 917.68,1016.78 934,1033.18 C946.07,1045.31 961.19,1055.02 976.78,1062.73 " fill="none" id="PractitionerRole-backto-MedicationStatement" style="stroke:#5C7AAB;stroke-width:1.0;"/><polygon fill="#5C7AAB" points="903.15,973.46,901.7053,983.2023,904.4885,978.2775,909.4133,981.0607,903.15,973.46" style="stroke:#5C7AAB;stroke-width:1.0;"/><text fill="#777777" font-family="sans-serif" font-size="11" lengthAdjust="spacing" textLength="100" x="935" y="1024.3148">informationSource</text></g><!--link MedicationStatement to Organization--><g id="link_MedicationStatement_Organization"><path codeLine="92" d="M1061.91,1062.84 C1061.17,1022.27 1057.38,942.71 1040,877.78 C1037.35,867.9 1035.8355,863.1267 1031.6955,853.6667 " fill="none" id="MedicationStatement-to-Organization" style="stroke:#5C7AAB;stroke-width:1.0;"/><polygon fill="#5C7AAB" points="1029.29,848.17,1029.2338,858.0187,1031.2946,852.7506,1036.5627,854.8113,1029.29,848.17" style="stroke:#5C7AAB;stroke-width:1.0;"/><text fill="#777777" font-family="sans-serif" font-size="11" lengthAdjust="spacing" textLength="100" x="1057" y="953.6148">informationSource</text></g><!--link PlanMedication to MedicationPharmaceuticalProductPlanning--><g id="link_PlanMedication_MedicationPharmaceuticalProductPlanning"><path codeLine="95" d="M988.79,1225.95 C905.22,1238.18 776.26,1262.74 747,1300.84 C726.43,1327.63 748.1206,1359.3562 770.4006,1382.6262 " fill="none" id="PlanMedication-to-MedicationPharmaceuticalProductPlanning" style="stroke:#5C7AAB;stroke-width:1.0;"/><polygon fill="#5C7AAB" points="774.55,1386.96,771.215,1377.693,771.0921,1383.3485,765.4366,1383.2256,774.55,1386.96" style="stroke:#5C7AAB;stroke-width:1.0;"/><text fill="#777777" font-family="sans-serif" font-size="11" lengthAdjust="spacing" textLength="134" x="748" y="1318.1348">ingredient.itemReference</text></g><!--link PlanMedication to MedicationPZNIngredientPlanning--><g id="link_PlanMedication_MedicationPZNIngredientPlanning"><path codeLine="96" d="M1135.2,1231.37 C1173.74,1243.2 1217.72,1264.17 1241,1300.84 C1257.59,1326.98 1249.0253,1358.0465 1238.5753,1381.5765 " fill="none" id="PlanMedication-to-MedicationPZNIngredientPlanning" style="stroke:#5C7AAB;stroke-width:1.0;"/><polygon fill="#5C7AAB" points="1236.14,1387.06,1243.4487,1380.4582,1238.1694,1382.4904,1236.1373,1377.2111,1236.14,1387.06" style="stroke:#5C7AAB;stroke-width:1.0;"/><text fill="#777777" font-family="sans-serif" font-size="11" lengthAdjust="spacing" textLength="134" x="1250" y="1318.1348">ingredient.itemReference</text></g><!--link N3 to MedicationPharmaceuticalProductPlanning--><g id="link_N3_MedicationPharmaceuticalProductPlanning"><path codeLine="98" d="M1028.82,1326.63 C987.65,1341.68 916.53,1367.68 864.48,1386.71 " fill="none" id="N3-MedicationPharmaceuticalProductPlanning" style="stroke:#5C7AAB;stroke-width:1.0;stroke-dasharray:7.0,7.0;"/></g><!--link N3 to MedicationPZNIngredientPlanning--><g id="link_N3_MedicationPZNIngredientPlanning"><path codeLine="99" d="M1082.52,1326.63 C1107.97,1341.68 1151.95,1367.68 1184.13,1386.71 " fill="none" id="N3-MedicationPZNIngredientPlanning" style="stroke:#5C7AAB;stroke-width:1.0;stroke-dasharray:7.0,7.0;"/></g><!--link PlanMedication to N3--><g id="link_PlanMedication_N3"><path codeLine="100" d="M1062,1239.9 C1062,1259.06 1062,1285.48 1062,1300.59 " fill="none" id="PlanMedication-N3" style="stroke:#5C7AAB;stroke-width:1.0;stroke-dasharray:7.0,7.0;"/></g><!--reverse link Medication to MedicationRequest--><g id="link_Medication_MedicationRequest"><path codeLine="103" d="M1603.0041,442.0995 C1604.1241,532.8095 1593.91,726.07 1493,847.78 C1464.93,881.64 1422.44,905.43 1384.46,921.31 " fill="none" id="Medication-backto-MedicationRequest" style="stroke:#5C7AAB;stroke-width:1.0;"/><polygon fill="#5C7AAB" points="1602.93,436.1,1599.0414,445.1487,1602.9917,441.0996,1607.0408,445.0499,1602.93,436.1" style="stroke:#5C7AAB;stroke-width:1.0;"/><text fill="#777777" font-family="sans-serif" font-size="11" lengthAdjust="spacing" textLength="112" x="1560" y="738.8848">medicationReference</text></g><!--reverse link PractitionerRole to MedicationRequest--><g id="link_PractitionerRole_MedicationRequest"><path codeLine="104" d="M928.5079,920.7972 C944.7079,907.2872 962.18,895.64 985,888.48 C1072.94,860.91 1178.83,894.27 1242.7,921.31 " fill="none" id="PractitionerRole-backto-MedicationRequest" style="stroke:#5C7AAB;stroke-width:1.0;"/><polygon fill="#5C7AAB" points="923.9,924.64,933.3737,921.9478,927.7399,921.4377,928.25,915.8039,923.9,924.64" style="stroke:#5C7AAB;stroke-width:1.0;"/><text fill="#777777" font-family="sans-serif" font-size="11" lengthAdjust="spacing" textLength="52" x="986" y="889.4148">requester</text></g><!--link MedicationRequest to MedicationStatement--><g id="link_MedicationRequest_MedicationStatement"><path codeLine="105" d="M1254.67,976.53 C1212.46,1001.25 1155.0273,1034.8876 1112.7373,1059.6576 " fill="none" id="MedicationRequest-to-MedicationStatement" style="stroke:#5C7AAB;stroke-width:1.0;"/><polygon fill="#5C7AAB" points="1107.56,1062.69,1117.3476,1061.5929,1111.8744,1060.163,1113.3043,1054.6898,1107.56,1062.69" style="stroke:#5C7AAB;stroke-width:1.0;"/><text fill="#777777" font-family="sans-serif" font-size="11" lengthAdjust="spacing" textLength="189" x="1203" y="1017.8148">MedicationRequestLinkedStatement</text><text fill="#777777" font-family="sans-serif" font-size="11" lengthAdjust="spacing" textLength="61" x="1267" y="1030.7698">(Extension)</text></g><!--reverse link Medication to MedicationDispense--><g id="link_Medication_MedicationDispense"><path codeLine="107" d="M1555.2125,440.8431 C1524.0425,477.1631 1484.92,524.23 1450,571.72 C1435.8,591.02 1421.05,613.59 1409.85,631.33 " fill="none" id="Medication-backto-MedicationDispense" style="stroke:#5C7AAB;stroke-width:1.0;"/><polygon fill="#5C7AAB" points="1559.12,436.29,1550.2233,440.5147,1555.8637,440.0843,1556.2941,445.7247,1559.12,436.29" style="stroke:#5C7AAB;stroke-width:1.0;"/><text fill="#777777" font-family="sans-serif" font-size="11" lengthAdjust="spacing" textLength="112" x="1451" y="589.8548">medicationReference</text></g><!--reverse link AltMedication to MedicationDispense--><g id="link_AltMedication_MedicationDispense"><path codeLine="108" d="M1263.4232,417.9516 C1256.6832,459.2316 1249.55,539.88 1286,598.72 C1294.13,611.84 1306.07,622.6 1319.02,631.29 " fill="none" id="AltMedication-backto-MedicationDispense" style="stroke:#5C7AAB;stroke-width:1.0;"/><polygon fill="#5C7AAB" points="1264.39,412.03,1258.992,420.2678,1263.5843,416.9647,1266.8875,421.5569,1264.39,412.03" style="stroke:#5C7AAB;stroke-width:1.0;"/><text fill="#777777" font-family="sans-serif" font-size="11" lengthAdjust="spacing" textLength="112" x="1287" y="589.8548">medicationReference</text></g><!--link MedicationDispense to MedicationRequest--><g id="link_MedicationDispense_MedicationRequest"><path codeLine="109" d="M1381.17,694.65 C1363.21,750.73 1327.1706,863.1861 1310.2806,915.9061 " fill="none" id="MedicationDispense-to-MedicationRequest" style="stroke:#5C7AAB;stroke-width:1.0;"/><polygon fill="#5C7AAB" points="1308.45,921.62,1315.0052,914.2695,1309.9755,916.8584,1307.3866,911.8287,1308.45,921.62" style="stroke:#5C7AAB;stroke-width:1.0;"/><text fill="#777777" font-family="sans-serif" font-size="11" lengthAdjust="spacing" textLength="127" x="1357" y="814.1548">authorizingPrescription</text></g><!--link MedicationDispense to Organization--><g id="link_MedicationDispense_Organization"><path codeLine="110" d="M1310.2,694.64 C1244.12,719.7 1156.9399,752.7718 1092.0699,777.3818 " fill="none" id="MedicationDispense-to-Organization" style="stroke:#5C7AAB;stroke-width:1.0;"/><polygon fill="#5C7AAB" points="1086.46,779.51,1096.2936,780.0576,1091.1349,777.7365,1093.456,772.5777,1086.46,779.51" style="stroke:#5C7AAB;stroke-width:1.0;"/><text fill="#777777" font-family="sans-serif" font-size="11" lengthAdjust="spacing" textLength="81" x="1224" y="738.8848">perfomer.actor</text></g><!--link PractitionerRole to Practitioner--><g id="link_PractitionerRole_Practitioner"><path codeLine="112" d="M868.54,973.31 C836.05,999.04 788.7838,1036.4852 756.2538,1062.2452 " fill="none" id="PractitionerRole-to-Practitioner" style="stroke:#5C7AAB;stroke-width:1.0;"/><polygon fill="#5C7AAB" points="751.55,1065.97,761.0889,1063.5186,755.4698,1062.866,756.1224,1057.2469,751.55,1065.97" style="stroke:#5C7AAB;stroke-width:1.0;"/><text fill="#777777" font-family="sans-serif" font-size="11" lengthAdjust="spacing" textLength="63" x="826" y="1024.3148">practitioner</text></g><!--reverse link Organization to PractitionerRole--><g id="link_Organization_PractitionerRole"><path codeLine="113" d="M930.0885,851.8067 C919.2685,860.1967 914.15,866.38 907,877.78 C898.32,891.63 896.23,910.03 896.23,924.53 " fill="none" id="Organization-backto-PractitionerRole" style="stroke:#5C7AAB;stroke-width:1.0;"/><polygon fill="#5C7AAB" points="934.83,848.13,925.2666,850.484,930.8787,851.1939,930.1688,856.806,934.83,848.13" style="stroke:#5C7AAB;stroke-width:1.0;"/><text fill="#777777" font-family="sans-serif" font-size="11" lengthAdjust="spacing" textLength="68" x="908" y="889.4148">organization</text></g><!--link Provenance to Organization--><g id="link_Provenance_Organization"><path codeLine="121" d="M768.93,541.87 C785.21,594.81 809.18,652.1 844,697.25 C867.62,727.88 896.9894,749.8962 928.4494,768.4162 " fill="none" id="Provenance-to-Organization" style="stroke:#5C7AAB;stroke-width:1.0;"/><polygon fill="#5C7AAB" points="933.62,771.46,927.8933,763.4472,929.3112,768.9235,923.8349,770.3413,933.62,771.46" style="stroke:#5C7AAB;stroke-width:1.0;"/></g><!--link Provenance to PractitionerRole--><g id="link_Provenance_PractitionerRole"><path codeLine="122" d="M761.38,541.97 C764.76,561.11 768.34,580.39 772,598.72 C780.81,642.82 781.3,654.42 795,697.25 C822.45,783.09 863.9322,875.3731 884.3722,919.1631 " fill="none" id="Provenance-to-PractitionerRole" style="stroke:#5C7AAB;stroke-width:1.0;"/><polygon fill="#5C7AAB" points="886.91,924.6,886.7279,914.7528,884.7952,920.0693,879.4787,918.1365,886.91,924.6" style="stroke:#5C7AAB;stroke-width:1.0;"/></g><!--reverse link Practitioner to Provenance--><g id="link_Practitioner_Provenance"><path codeLine="123" d="M702.95,1060.7534 C686.4,1033.9234 666,993.27 666,949.98 C666,661.98 666,661.98 666,661.98 C666,622.49 673.02,580.79 682.65,542.17 " fill="none" id="Practitioner-backto-Provenance" style="stroke:#5C7AAB;stroke-width:1.0;"/><polygon fill="#5C7AAB" points="706.1,1065.86,704.7794,1056.1001,703.475,1061.6045,697.9706,1060.3001,706.1,1065.86" style="stroke:#5C7AAB;stroke-width:1.0;"/></g><!--link Provenance to RelatedPerson--><g id="link_Provenance_RelatedPerson"><path codeLine="124" d="M904.34,387.46 C915.9,387.46 921.45,387.46 933.01,387.46 " fill="none" id="Provenance-to-RelatedPerson" style="stroke:#5C7AAB;stroke-width:1.0;"/><polygon fill="#5C7AAB" points="939.01,387.46,930.01,383.46,934.01,387.46,930.01,391.46,939.01,387.46" style="stroke:#5C7AAB;stroke-width:1.0;"/></g><!--reverse link Observation to Provenance--><g id="link_Observation_Provenance"><path codeLine="126" d="M472.6962,150.5255 C502.8662,177.4555 534.24,205.46 569.77,237.18 " fill="none" id="Observation-backto-Provenance" style="stroke:#5C7AAB;stroke-width:1.0;"/><polygon fill="#5C7AAB" points="468.22,146.53,472.2706,155.5073,471.9501,149.8596,477.5979,149.5391,468.22,146.53" style="stroke:#5C7AAB;stroke-width:1.0;"/><text fill="#777777" font-family="sans-serif" font-size="11" lengthAdjust="spacing" textLength="32" x="565.5" y="187.8348">target</text><text fill="#777777" font-family="sans-serif" font-size="11" lengthAdjust="spacing" textLength="115" x="527" y="200.7898">[versioned reference]</text></g><!--reverse link ManagementNote to Provenance--><g id="link_ManagementNote_Provenance"><path codeLine="127" d="M421.49,387.46 C472.58,387.46 520.77,387.46 569.81,387.46 " fill="none" id="ManagementNote-backto-Provenance" style="stroke:#5C7AAB;stroke-width:1.0;"/><polygon fill="#5C7AAB" points="415.49,387.46,424.49,391.46,420.49,387.46,424.49,383.46,415.49,387.46" style="stroke:#5C7AAB;stroke-width:1.0;"/><text fill="#777777" font-family="sans-serif" font-size="11" lengthAdjust="spacing" textLength="32" x="475" y="369.0948">target</text><text fill="#777777" font-family="sans-serif" font-size="11" lengthAdjust="spacing" textLength="115" x="436.5" y="382.0498">[versioned reference]</text></g><!--link Provenance to AllergyIntolerance--><g id="link_Provenance_AllergyIntolerance"><path codeLine="128" d="M904.22,529.63 C948.01,566.6 986.7051,599.2598 1016.6651,624.5498 " fill="none" id="Provenance-to-AllergyIntolerance" style="stroke:#5C7AAB;stroke-width:1.0;"/><polygon fill="#5C7AAB" points="1021.25,628.42,1016.9528,619.5581,1017.4292,625.1948,1011.7925,625.6713,1021.25,628.42" style="stroke:#5C7AAB;stroke-width:1.0;"/><text fill="#777777" font-family="sans-serif" font-size="11" lengthAdjust="spacing" textLength="32" x="1024.5" y="583.3548">target</text><text fill="#777777" font-family="sans-serif" font-size="11" lengthAdjust="spacing" textLength="115" x="986" y="596.3098">[versioned reference]</text></g><rect fill="none" height="96.4414" id="_legend" rx="5" ry="5" style="stroke:#000000;stroke-width:1.0;" width="271" x="1974.5" y="1452.4156"/><text fill="#000000" font-family="sans-serif" font-size="14" lengthAdjust="spacing" textLength="39" x="1983.5" y="1472.9508">Farbe</text><text fill="#000000" font-family="sans-serif" font-size="14" lengthAdjust="spacing" textLength="99" x="2030.5" y="1472.9508">Datenherkunft</text><rect fill="#8FBC8F" height="16.4883" style="stroke:none;stroke-width:1.0;" width="47" x="1979.5" y="1475.9039"/><text fill="#000000" font-family="sans-serif" font-size="14" lengthAdjust="spacing" textLength="4" x="1979.5" y="1489.4391">&#160;</text><text fill="#000000" font-family="sans-serif" font-size="14" lengthAdjust="spacing" textLength="206" x="2030.5" y="1489.4391">Verschreibung/Dispensierung</text><rect fill="#20B2AA" height="16.4883" style="stroke:none;stroke-width:1.0;" width="47" x="1979.5" y="1492.3922"/><text fill="#000000" font-family="sans-serif" font-size="14" lengthAdjust="spacing" textLength="4" x="1979.5" y="1505.9273">&#160;</text><text fill="#000000" font-family="sans-serif" font-size="14" lengthAdjust="spacing" textLength="140" x="2030.5" y="1505.9273">Medikationsplanung</text><rect fill="#696969" height="16.4883" style="stroke:none;stroke-width:1.0;" width="47" x="1979.5" y="1508.8805"/><text fill="#000000" font-family="sans-serif" font-size="14" lengthAdjust="spacing" textLength="4" x="1979.5" y="1522.4156">&#160;</text><text fill="#000000" font-family="sans-serif" font-size="14" lengthAdjust="spacing" textLength="46" x="2030.5" y="1522.4156">Akteur</text><rect fill="#C2F0FF" height="16.4883" style="stroke:none;stroke-width:1.0;" width="47" x="1979.5" y="1525.3688"/><text fill="#000000" font-family="sans-serif" font-size="14" lengthAdjust="spacing" textLength="4" x="1979.5" y="1538.9039">&#160;</text><text fill="#000000" font-family="sans-serif" font-size="14" lengthAdjust="spacing" textLength="135" x="2030.5" y="1538.9039">Nichtabstreitbarkeit</text><line style="stroke:#000000;stroke-width:1.0;" x1="1979.5" x2="2240.5" y1="1459.4156" y2="1459.4156"/><line style="stroke:#000000;stroke-width:1.0;" x1="1979.5" x2="2240.5" y1="1475.9039" y2="1475.9039"/><line style="stroke:#000000;stroke-width:1.0;" x1="1979.5" x2="2240.5" y1="1492.3922" y2="1492.3922"/><line style="stroke:#000000;stroke-width:1.0;" x1="1979.5" x2="2240.5" y1="1508.8805" y2="1508.8805"/><line style="stroke:#000000;stroke-width:1.0;" x1="1979.5" x2="2240.5" y1="1525.3688" y2="1525.3688"/><line style="stroke:#000000;stroke-width:1.0;" x1="1979.5" x2="2240.5" y1="1541.857" y2="1541.857"/><line style="stroke:#000000;stroke-width:1.0;" x1="1979.5" x2="1979.5" y1="1459.4156" y2="1541.857"/><line style="stroke:#000000;stroke-width:1.0;" x1="2026.5" x2="2026.5" y1="1459.4156" y2="1541.857"/><line style="stroke:#000000;stroke-width:1.0;" x1="2240.5" x2="2240.5" y1="1459.4156" y2="1541.857"/><!--SRC=[pHXTRzisy5s_Wd0UbdYmkpGTEWHP02TEsg2POpXT2tJP0oMTBSuovL5K77lfFncmb_s6FlNDVsn7IfP8YKwJOHic8B74-pxU7U-OJXcVKq5dPCpkJfa8OhYaFiHNjo1YEfypFY5Z6gVWfIMcI38U1edW8CZ-DmOWyN-1G9BVF8BF2Gsc4urwciI987qsUoLWcSCI4OB8rqzYHDIhFI6IHRwuystmab9VBvydN5wp5P3zv-LtZaKpcSoeP85U7oGIwa9t3bvyTm1-nRuYtdcf7nkKozdtFXfMNS84U5Zd_3vY4ZolCBbrT8HCLf8y8nzenAbwFJw-uUtsKD10CiaIz5QV2KHEnBBTRX6Q4XDcSiBrEvPg1lZrHb0-1HxHh5pgpHCPmHGA6LTYGZbRKSMfBiE4cJ9-W92j66Tf404vfq4aM1393BSxvtasx9dgZP8O75ghPPFh6_GXdSeEIN1_oGciiaaw1v4YBjUCaUq8OYeX7EfbpT5QiNpwPlr98Fr4h3-j_r3c4cHmvQSWRhL59qcuV0ri4idSLGKwB9GnRlJt5VgrP76SIYgrP-ku0cWgnu1-ufDhZPGJWSXcKmHAz1xll0VX47IwWKDE4qGBoYTeNn3HiKotoHmAc73AWwKXxunBd_4GToQL86QCDydEKibcoeDz_7SrxaFCC7sNclnLdCnGutZzfy1zPh4KcYJ57uS_NvsFYiqt5ZUHLAsGdKlbn6kWcDAuitd6VqtGz-D4eBn3tDCn2E01x3eYYTmJPypkOU8Pkx_-tLTx3soC2OZnz9hn1HI9KLTInNEGlr5E9p03BbL5A9It5_zD_QsI4CTe08Cy7IwuH5hCvbLbGOwnB471Hk4cOAlIg0FQLLSvNzqha511NNF_8SDUWvXc72EPO-KezmG1xq2mCHOM33cxb2Itm0tpgWMoqniEBozEUsylhWQbKKgjMoQNv7joEZhhlJr3pNuSzl5bWu15MNRbSWw8Wgzeaq2SSWVn7O-7A54lZAirogMcxHHFKzAxqRcB-wss2KkqWrfIh3OIaIgtQeXwqEugAb4DDs04lsQGogtmFiCAobFOYg1gXOxi6eOZWcm4Cw5jo32c_3IPpPEKRO4wn5yoPKKTiQb5ZjVWQ6YZC4gm5NfwfJYzfbH9NMKfbQjYXxMoMDJmkU7glmu-XwxjjeBcbS7Xo2sPbcPQZMsPzh5-lkOQ4cKTPaEP39N4JJ9O3gr9j_BkdJv210CVEAIgvU30PanAY8qCL2Z0V7LaZF75XUXMn5IYJyMquG4y2WNYrChDgJhryQmBT_K1Nt4PHXHt9O0CUpGQOyw7MQ3staRwCBWesTxmlPeZJTLlJTjSTXJ9r31dasHkgvwohxb9AsMIQfrq9GkpgIG-C6n_PZwROwUuHJsdFnhAkhrcgswgT86zOQoQYcGyrcgWHpiZMC5SPgBek-gAc3vlAc12RS7U_y4NAb-ucangcVAV-MIR0fPtYi9j78Nkx2GzVu8ZbqkbJUrlQ5CU2gw0_Wf3Ua7Jwyp7lb1cs1SU4YaoA81sF6-mK4tv-4BHY-MsMe5EC42Th7EypOk7HZdfuZGrAzFl8GwkW7Y0a-TnrV2rYjxnq8fBT1aETBNOq0OEzhql9MHNT6jeLjfqOmqUx9Dks3KCy2m7LMTE9qGxQoV18MdDZ1fMsDHoqyUAljxF7HBZQBnECc4vjoRTRFsSb7_JbmTUpIujxR59_i3cVe6jCsKVYfN7gjJDkiggBuagq0O7-irMreg2pV5KY_L7x7z9kMNtMo970E6aiXrMXGCIDh0l6Pz2MEBSyDspEwaANCBtMXxn7DNfwVROf7QPUGgri0Hlx4KE-L2WhZucE6sdWM1pXU7cuaYAbfumSC3eKZKPjJoluVKyaurLJMPyjnmqcKDKOdotYkHJ-VJSwsLfFXsdwg8ZdOZrPvoGEL6jDSQWTvj3L4qd-RKAsJtoZwkkvkYPVxpdHLZr2TTt9TIVWC_Y46JNmscRA67Ajd9CwpIyqOGshePCZAo6O07LVjMkWUgqvhY2pYacB-ppVzBM8iiGnzmYAdvkMVGgEsfN04zb4UfuR8nKZs5JxTmBhuy7VcCaxbpmL5A-mXrSWD0REJFpnhj6onbAIvD54iLalFuiY49hpk4qnhyiYFIBPutZ5H9oLpTrS8VHWeS-n32L8ial0tcUoTFyccYEHIjL4_12NS78BkbJrKqLMcAe4My4QQgF1yEAmW-ggI3hpnYd6hN8sHNnsktSQJY75OvIEfgXDtYXpytAIvuNwujO8bJBfNkPUt9EXQ_6MdNnnQF26SKGUdzazIN7ztRpzSpkpqeQgwD3efepBDpYJXknUbC9cQWWnfq6GWSgnIWsMYXR-gWK_Y0kMfFRXDMJ_0K0]--></g></svg>