<?xml version="1.0" encoding="us-ascii" standalone="no"?><svg xmlns="http://www.w3.org/2000/svg" xmlns:xlink="http://www.w3.org/1999/xlink" contentStyleType="text/css" height="798px" preserveAspectRatio="none" style="width:1493px;height:798px;background:#FFFFFF;" version="1.1" viewBox="0 0 1493 798" width="1493px" zoomAndPan="magnify"><defs/><g><rect fill="#D3D3D3" height="779.4219" style="stroke:#181818;stroke-width:0.5;" width="193" x="873" y="6"/><text fill="#000000" font-family="sans-serif" font-size="13" font-weight="bold" lengthAdjust="spacing" textLength="130" x="904.5" y="18.0669">ePA-Aktensystem</text><rect fill="#F5F5DC" height="779.4219" style="stroke:#181818;stroke-width:0.5;" width="346" x="1088" y="6"/><text fill="#000000" font-family="sans-serif" font-size="13" font-weight="bold" lengthAdjust="spacing" textLength="175" x="1173.5" y="18.0669">ePA-Aktensystem / VAU</text><rect fill="none" height="408.3672" style="stroke:#000000;stroke-width:1.5;" width="1255.5" x="231" y="366.0547"/><rect fill="none" height="132.5313" style="stroke:#000000;stroke-width:1.5;" width="1199" x="241" y="634.8906"/><line style="stroke:#0000FF;stroke-width:0.5;stroke-dasharray:5.0,5.0;" x1="58" x2="58" y1="89.0234" y2="791.4219"/><line style="stroke:#0000FF;stroke-width:0.5;stroke-dasharray:5.0,5.0;" x1="350" x2="350" y1="89.0234" y2="791.4219"/><line style="stroke:#0000FF;stroke-width:0.5;stroke-dasharray:5.0,5.0;" x1="969" x2="969" y1="89.0234" y2="791.4219"/><line style="stroke:#0000FF;stroke-width:0.5;stroke-dasharray:5.0,5.0;" x1="1164" x2="1164" y1="89.0234" y2="791.4219"/><line style="stroke:#0000FF;stroke-width:0.5;stroke-dasharray:5.0,5.0;" x1="1338" x2="1338" y1="89.0234" y2="791.4219"/><rect fill="#3483EB" height="30.2969" rx="2.5" ry="2.5" style="stroke:#3483EB;stroke-width:0.5;" width="67" x="25" y="57.7266"/><text fill="#FFFFFF" font-family="sans-serif" font-size="14" lengthAdjust="spacing" textLength="53" x="32" y="77.7217">PVS/KIS</text><rect fill="#3483EB" height="30.2969" rx="2.5" ry="2.5" style="stroke:#3483EB;stroke-width:0.5;" width="159" x="271" y="57.7266"/><text fill="#FFFFFF" font-family="sans-serif" font-size="14" lengthAdjust="spacing" textLength="145" x="278" y="77.7217">E-Rezept-Fachdienst</text><rect fill="#3483EB" height="30.2969" rx="2.5" ry="2.5" style="stroke:#3483EB;stroke-width:0.5;" width="145" x="897" y="57.7266"/><text fill="#FFFFFF" font-family="sans-serif" font-size="14" lengthAdjust="spacing" textLength="131" x="904" y="77.7217">Information Service</text><rect fill="#EB5E34" height="62.8906" rx="2.5" ry="2.5" style="stroke:#3483EB;stroke-width:0.5;" width="105" x="1112" y="25.1328"/><text fill="#FFFFFF" font-family="sans-serif" font-size="14" lengthAdjust="spacing" textLength="28" x="1148.5" y="45.1279">VAU</text><text fill="#FFFFFF" font-family="sans-serif" font-size="14" lengthAdjust="spacing" textLength="55" x="1135" y="61.4248">Session</text><text fill="#FFFFFF" font-family="sans-serif" font-size="14" lengthAdjust="spacing" textLength="91" x="1119" y="77.7217">Management</text><rect fill="#3483EB" height="30.2969" rx="2.5" ry="2.5" style="stroke:#3483EB;stroke-width:0.5;" width="143" x="1267" y="57.7266"/><text fill="#FFFFFF" font-family="sans-serif" font-size="14" lengthAdjust="spacing" textLength="129" x="1274" y="77.7217">Medication Service</text><polygon fill="#1E90FF" points="338.5,116.1563,348.5,120.1563,338.5,124.1563,342.5,120.1563" style="stroke:#1E90FF;stroke-width:1.0;"/><line style="stroke:#1E90FF;stroke-width:1.0;" x1="58.5" x2="344.5" y1="120.1563" y2="120.1563"/><text fill="#000000" font-family="sans-serif" font-size="13" font-weight="bold" lengthAdjust="spacing" textLength="9" x="65.5" y="115.0903">1</text><text fill="#000000" font-family="sans-serif" font-size="13" lengthAdjust="spacing" textLength="255" x="78.5" y="115.0903">Anfrage: Verordnungsdaten &#252;bermitteln</text><line style="stroke:#1E90FF;stroke-width:1.0;" x1="350.5" x2="392.5" y1="149.2891" y2="149.2891"/><line style="stroke:#1E90FF;stroke-width:1.0;" x1="392.5" x2="392.5" y1="149.2891" y2="162.2891"/><line style="stroke:#1E90FF;stroke-width:1.0;" x1="351.5" x2="392.5" y1="162.2891" y2="162.2891"/><polygon fill="#1E90FF" points="361.5,158.2891,351.5,162.2891,361.5,166.2891,357.5,162.2891" style="stroke:#1E90FF;stroke-width:1.0;"/><text fill="#000000" font-family="sans-serif" font-size="13" font-weight="bold" lengthAdjust="spacing" textLength="9" x="357.5" y="144.2231">2</text><text fill="#000000" font-family="sans-serif" font-size="13" lengthAdjust="spacing" textLength="495" x="370.5" y="144.2231">Durchf&#252;hren der standardm&#228;&#223;igen Workflow-Logik des E-Rezept-Fachdienstes</text><polygon fill="#1E90FF" points="69.5,187.4219,59.5,191.4219,69.5,195.4219,65.5,191.4219" style="stroke:#1E90FF;stroke-width:1.0;"/><line style="stroke:#1E90FF;stroke-width:1.0;stroke-dasharray:2.0,2.0;" x1="63.5" x2="349.5" y1="191.4219" y2="191.4219"/><text fill="#000000" font-family="sans-serif" font-size="13" font-weight="bold" lengthAdjust="spacing" textLength="9" x="75.5" y="186.356">3</text><text fill="#000000" font-family="sans-serif" font-size="13" lengthAdjust="spacing" textLength="93" x="88.5" y="186.356">Antwort: Erfolg</text><line style="stroke:#1E90FF;stroke-width:1.0;" x1="350.5" x2="392.5" y1="235.6875" y2="235.6875"/><line style="stroke:#1E90FF;stroke-width:1.0;" x1="392.5" x2="392.5" y1="235.6875" y2="248.6875"/><line style="stroke:#1E90FF;stroke-width:1.0;" x1="351.5" x2="392.5" y1="248.6875" y2="248.6875"/><polygon fill="#1E90FF" points="361.5,244.6875,351.5,248.6875,361.5,252.6875,357.5,248.6875" style="stroke:#1E90FF;stroke-width:1.0;"/><text fill="#000000" font-family="sans-serif" font-size="13" font-weight="bold" lengthAdjust="spacing" textLength="9" x="357.5" y="223.0552">4</text><text fill="#000000" font-family="sans-serif" font-size="13" lengthAdjust="spacing" textLength="372" x="370.5" y="215.4888">Persistieren der Verordnungsdaten in einer Warteschlange</text><text fill="#000000" font-family="sans-serif" font-size="13" lengthAdjust="spacing" textLength="203" x="370.5" y="230.6216">f&#252;r die asynchrone &#220;bertragung</text><rect fill="none" height="39.1016" style="stroke:#000000;stroke-width:1.5;" width="817" x="248" y="256.6875"/><path d="M248,256.6875 L314,256.6875 L314,263.6875 L304,273.6875 L248,273.6875 L248,256.6875 " fill="#EEEEEE" style="stroke:#000000;stroke-width:2.0;"/><text fill="#000000" font-family="sans-serif" font-size="13" font-weight="bold" lengthAdjust="spacing" textLength="21" x="261" y="270.7544">ref</text><text fill="#000000" font-family="sans-serif" font-size="12" lengthAdjust="spacing" textLength="488" x="412.5" y="288.8262">Lokalisierung der Service-Endpunkte der ePA und der Akte eines Versicherten</text><polygon fill="#1E90FF" points="957.5,317.9219,967.5,321.9219,957.5,325.9219,961.5,321.9219" style="stroke:#1E90FF;stroke-width:1.0;"/><line style="stroke:#1E90FF;stroke-width:1.0;" x1="350.5" x2="963.5" y1="321.9219" y2="321.9219"/><text fill="#000000" font-family="sans-serif" font-size="13" font-weight="bold" lengthAdjust="spacing" textLength="9" x="357.5" y="316.856">5</text><text fill="#000000" font-family="sans-serif" font-size="13" lengthAdjust="spacing" textLength="504" x="370.5" y="316.856">Anfrage: Widerspruchsinformationen zum Einstellen durch E-Rezept-Fachdienst</text><polygon fill="#1E90FF" points="361.5,347.0547,351.5,351.0547,361.5,355.0547,357.5,351.0547" style="stroke:#1E90FF;stroke-width:1.0;"/><line style="stroke:#1E90FF;stroke-width:1.0;stroke-dasharray:2.0,2.0;" x1="355.5" x2="968.5" y1="351.0547" y2="351.0547"/><text fill="#000000" font-family="sans-serif" font-size="13" font-weight="bold" lengthAdjust="spacing" textLength="9" x="367.5" y="345.9888">6</text><text fill="#000000" font-family="sans-serif" font-size="13" lengthAdjust="spacing" textLength="231" x="380.5" y="345.9888">Antwort: Widerspruchsinformationen</text><path d="M231,366.0547 L295,366.0547 L295,373.1875 L285,383.1875 L231,383.1875 L231,366.0547 " fill="#EEEEEE" style="stroke:#000000;stroke-width:1.5;"/><rect fill="none" height="408.3672" style="stroke:#000000;stroke-width:1.5;" width="1255.5" x="231" y="366.0547"/><text fill="#000000" font-family="sans-serif" font-size="13" font-weight="bold" lengthAdjust="spacing" textLength="19" x="246" y="379.1216">alt</text><text fill="#000000" font-family="sans-serif" font-size="11" font-weight="bold" lengthAdjust="spacing" textLength="438" x="310" y="378.2651">[Widerspruch zum Einstellen durch E-Rezept-Fachdienst vorhanden]</text><line style="stroke:#1E90FF;stroke-width:1.0;" x1="350.5" x2="392.5" y1="404.3203" y2="404.3203"/><line style="stroke:#1E90FF;stroke-width:1.0;" x1="392.5" x2="392.5" y1="404.3203" y2="417.3203"/><line style="stroke:#1E90FF;stroke-width:1.0;" x1="351.5" x2="392.5" y1="417.3203" y2="417.3203"/><polygon fill="#1E90FF" points="361.5,413.3203,351.5,417.3203,361.5,421.3203,357.5,417.3203" style="stroke:#1E90FF;stroke-width:1.0;"/><text fill="#000000" font-family="sans-serif" font-size="13" font-weight="bold" lengthAdjust="spacing" textLength="9" x="357.5" y="399.2544">7</text><text fill="#000000" font-family="sans-serif" font-size="13" lengthAdjust="spacing" textLength="412" x="370.5" y="399.2544">Abbruch. L&#246;schen der Verordnungsdaten aus der Warteschlange</text><line style="stroke:#000000;stroke-width:1.0;stroke-dasharray:2.0,2.0;" x1="231" x2="1486.5" y1="426.3203" y2="426.3203"/><text fill="#000000" font-family="sans-serif" font-size="11" font-weight="bold" lengthAdjust="spacing" textLength="399" x="236" y="436.5308">[Kein Widerspruch zum Einstellen durch E-Rezept-Fachdienst]</text><rect fill="none" height="39.1016" style="stroke:#000000;stroke-width:1.5;" width="992" x="248" y="440.125"/><path d="M248,440.125 L314,440.125 L314,447.125 L304,457.125 L248,457.125 L248,440.125 " fill="#EEEEEE" style="stroke:#000000;stroke-width:2.0;"/><text fill="#000000" font-family="sans-serif" font-size="13" font-weight="bold" lengthAdjust="spacing" textLength="21" x="261" y="454.1919">ref</text><text fill="#000000" font-family="sans-serif" font-size="12" lengthAdjust="spacing" textLength="214" x="637" y="472.2637">Login in die Akte des Versicherten</text><line style="stroke:#1E90FF;stroke-width:1.0;" x1="350.5" x2="392.5" y1="520.4922" y2="520.4922"/><line style="stroke:#1E90FF;stroke-width:1.0;" x1="392.5" x2="392.5" y1="520.4922" y2="533.4922"/><line style="stroke:#1E90FF;stroke-width:1.0;" x1="351.5" x2="392.5" y1="533.4922" y2="533.4922"/><polygon fill="#1E90FF" points="361.5,529.4922,351.5,533.4922,361.5,537.4922,357.5,533.4922" style="stroke:#1E90FF;stroke-width:1.0;"/><text fill="#000000" font-family="sans-serif" font-size="13" font-weight="bold" lengthAdjust="spacing" textLength="9" x="357.5" y="507.8599">8</text><text fill="#000000" font-family="sans-serif" font-size="13" lengthAdjust="spacing" textLength="568" x="370.5" y="500.2935">Erzeugen der FHIR-Ressourcen MedicationRequest, Medication, Practitioner, Organization</text><text fill="#000000" font-family="sans-serif" font-size="13" lengthAdjust="spacing" textLength="473" x="370.5" y="515.4263">auf Grundlage der Verordnungsdaten sowie rxPrescriptionProcessIdentifier</text><polygon fill="#1E90FF" points="1326.5,558.625,1336.5,562.625,1326.5,566.625,1330.5,562.625" style="stroke:#1E90FF;stroke-width:1.0;"/><line style="stroke:#1E90FF;stroke-width:1.0;" x1="350.5" x2="1332.5" y1="562.625" y2="562.625"/><text fill="#000000" font-family="sans-serif" font-size="13" font-weight="bold" lengthAdjust="spacing" textLength="9" x="357.5" y="557.5591">9</text><text fill="#000000" font-family="sans-serif" font-size="13" lengthAdjust="spacing" textLength="509" x="370.5" y="557.5591">&#220;bermittlung der erzeugten FHIR-Ressourcen als FHIR Operation per HTTP POST</text><line style="stroke:#1E90FF;stroke-width:1.0;" x1="1338.5" x2="1380.5" y1="606.8906" y2="606.8906"/><line style="stroke:#1E90FF;stroke-width:1.0;" x1="1380.5" x2="1380.5" y1="606.8906" y2="619.8906"/><line style="stroke:#1E90FF;stroke-width:1.0;" x1="1339.5" x2="1380.5" y1="619.8906" y2="619.8906"/><polygon fill="#1E90FF" points="1349.5,615.8906,1339.5,619.8906,1349.5,623.8906,1345.5,619.8906" style="stroke:#1E90FF;stroke-width:1.0;"/><text fill="#000000" font-family="sans-serif" font-size="13" font-weight="bold" lengthAdjust="spacing" textLength="18" x="1345.5" y="594.2583">10</text><text fill="#000000" font-family="sans-serif" font-size="13" lengthAdjust="spacing" textLength="107" x="1367.5" y="586.6919">FHIR-Ressourcen</text><text fill="#000000" font-family="sans-serif" font-size="13" lengthAdjust="spacing" textLength="75" x="1367.5" y="601.8247">persistieren</text><path d="M241,634.8906 L305,634.8906 L305,642.0234 L295,652.0234 L241,652.0234 L241,634.8906 " fill="#EEEEEE" style="stroke:#000000;stroke-width:1.5;"/><rect fill="none" height="132.5313" style="stroke:#000000;stroke-width:1.5;" width="1199" x="241" y="634.8906"/><text fill="#000000" font-family="sans-serif" font-size="13" font-weight="bold" lengthAdjust="spacing" textLength="19" x="256" y="647.9575">alt</text><text fill="#000000" font-family="sans-serif" font-size="11" font-weight="bold" lengthAdjust="spacing" textLength="112" x="320" y="647.1011">[successful case]</text><polygon fill="#1E90FF" points="361.5,669.1563,351.5,673.1563,361.5,677.1563,357.5,673.1563" style="stroke:#1E90FF;stroke-width:1.0;"/><line style="stroke:#1E90FF;stroke-width:1.0;stroke-dasharray:2.0,2.0;" x1="355.5" x2="1337.5" y1="673.1563" y2="673.1563"/><text fill="#000000" font-family="sans-serif" font-size="13" font-weight="bold" lengthAdjust="spacing" textLength="18" x="367.5" y="668.0903">11</text><text fill="#000000" font-family="sans-serif" font-size="13" lengthAdjust="spacing" textLength="202" x="389.5" y="668.0903">Antwort: Transaktion erfolgreich</text><line style="stroke:#1E90FF;stroke-width:1.0;" x1="350.5" x2="392.5" y1="702.2891" y2="702.2891"/><line style="stroke:#1E90FF;stroke-width:1.0;" x1="392.5" x2="392.5" y1="702.2891" y2="715.2891"/><line style="stroke:#1E90FF;stroke-width:1.0;" x1="351.5" x2="392.5" y1="715.2891" y2="715.2891"/><polygon fill="#1E90FF" points="361.5,711.2891,351.5,715.2891,361.5,719.2891,357.5,715.2891" style="stroke:#1E90FF;stroke-width:1.0;"/><text fill="#000000" font-family="sans-serif" font-size="13" font-weight="bold" lengthAdjust="spacing" textLength="18" x="357.5" y="697.2231">12</text><text fill="#000000" font-family="sans-serif" font-size="13" lengthAdjust="spacing" textLength="351" x="379.5" y="697.2231">L&#246;schen der Verordnungsdaten aus der Warteschlange</text><line style="stroke:#000000;stroke-width:1.0;stroke-dasharray:2.0,2.0;" x1="241" x2="1440" y1="724.2891" y2="724.2891"/><line style="stroke:#1E90FF;stroke-width:1.0;" x1="350.5" x2="392.5" y1="746.4219" y2="746.4219"/><line style="stroke:#1E90FF;stroke-width:1.0;" x1="392.5" x2="392.5" y1="746.4219" y2="759.4219"/><line style="stroke:#1E90FF;stroke-width:1.0;" x1="351.5" x2="392.5" y1="759.4219" y2="759.4219"/><polygon fill="#1E90FF" points="361.5,755.4219,351.5,759.4219,361.5,763.4219,357.5,759.4219" style="stroke:#1E90FF;stroke-width:1.0;"/><text fill="#000000" font-family="sans-serif" font-size="13" font-weight="bold" lengthAdjust="spacing" textLength="18" x="357.5" y="741.356">13</text><text fill="#000000" font-family="sans-serif" font-size="13" lengthAdjust="spacing" textLength="583" x="379.5" y="741.356">Abbruch. Die Verordnungsdaten bleiben in der Warteschlange f&#252;r eine sp&#228;tere &#220;bertragung</text><!--SRC=[dLLDRziu4BtpLmoIQxpzI1PO-530tZYjKNSZHDdauWijZIJ2CgaEgNous7-om5xw6_RKc_zOXvGTovPT5FL9u0pVl7dpEBPpfIj9SW5n8LFpg7GEcImj2liIYIGvbQXAQXV9DFKfRr-tuaFpj3b_yrgq0XO_rwWJX2y2-3SWCez_cj8GN9eqHngMDJQHn1aQ6agH3iOdAiE9qjXE2S4GRV4RocIUawbrsYITdb_ySOwpJbeBvqZAbT4kLak4DnU7GitT-qAvDOccXH-K3mdxg7yPXySk_ID4eLA4p1WtCqz2rixeUZ534gBQie6Jw2v-zN4Sdu2qmD-xmL7l1fTOkTwLJ8fKeROk98vkhYw5O5mumMZG6ymTXvwjmyK9d4vKNhZt99y3oHsyiSuCBQHJHaECzA0I37ZZMA1EmHCzY0glu6xmDsCFKUNOnUKWJ7MCrdhagVuajSnnWRgXwyEdEFiTpo-wTpzXgf8kfL4qs79YOQ3tBhJTXu7EYD7xS8V4Lj2rpcqgcIkilh6-2-KSbbhuvEsbovgI8bjzAuZps3vWdTIff7In-hhwZvlIS6zedfNciJSnkPfp4fFewezsZSpGJClJSO-6N1z6b9ao5tk58oIhh5EuATnXhJGWFmys9Ck2DYbAgNESQcPBm4LPZMUT56GqmkfVxj1n-tnT2C8Cp0FVzANEU8fzc9YvB9NbSfmHwgr5xOrqMjMQPnfEUS30fWtVVj21WlNah4eAhe5wsyauRgb-pxOcMr6T55Pj_SIDBEi5Z9JNg2nzirxoGnAASHpasunphTzHO25awThXdwu43uOAdZDZUD_jJcOmctcmts2o-fzLFpOUMTiGs9cEGDwoy955-oLUpTRP6n-_4Z-_N0LB-C4FccdjZwNRoeYMMEVh3gu-Z6-ufBM6o_FPze7T-9LktLdhw0mYaebJGMawWslAfLRB49jgMMVmdfsKbZpwm_9O_jj1eAU8M1nIbRyOaKcu_fXrTofZB-vIZWRzniZ-gPORdsBemKFkDy3_QE4ChYkaPbFm1toulOqWkevl6tGsz0Py3s2ggzOZRFJpZh9rucbcTGc9jCrQUu7g-lEMfBPo7kfZUEk4F9JjjPsH_8gfF8etrX785yDUik8To5c9QjQiamuoX5tYdpZOQlNLiGwxgoHKrgdmArTy1m00]--></g></svg>