<?xml version="1.0" encoding="us-ascii" standalone="no"?><svg xmlns="http://www.w3.org/2000/svg" xmlns:xlink="http://www.w3.org/1999/xlink" contentStyleType="text/css" height="760px" preserveAspectRatio="none" style="width:1684px;height:760px;background:#FFFFFF;" version="1.1" viewBox="0 0 1684 760" width="1684px" zoomAndPan="magnify"><defs/><g><rect fill="#D3D3D3" height="741.8965" style="stroke:#181818;stroke-width:0.5;" width="195" x="932" y="6"/><text fill="#000000" font-family="sans-serif" font-size="13" font-weight="bold" lengthAdjust="spacing" textLength="122" x="968.5" y="18.5684">ePA-Aktensystem</text><rect fill="#F5F5DC" height="741.8965" style="stroke:#181818;stroke-width:0.5;" width="342" x="1149" y="6"/><text fill="#000000" font-family="sans-serif" font-size="13" font-weight="bold" lengthAdjust="spacing" textLength="166" x="1237" y="18.5684">ePA-Aktensystem / VAU</text><rect fill="none" height="368.5039" style="stroke:#000000;stroke-width:1.5;" width="1450.5" x="227" y="368.3926"/><rect fill="none" height="148.5527" style="stroke:#000000;stroke-width:1.5;" width="1260" x="237" y="581.3438"/><line style="stroke:#0000FF;stroke-width:0.5;stroke-dasharray:5.0,5.0;" x1="58" x2="58" y1="89.7754" y2="753.8965"/><line style="stroke:#0000FF;stroke-width:0.5;stroke-dasharray:5.0,5.0;" x1="346" x2="346" y1="89.7754" y2="753.8965"/><line style="stroke:#0000FF;stroke-width:0.5;stroke-dasharray:5.0,5.0;" x1="1029" x2="1029" y1="89.7754" y2="753.8965"/><line style="stroke:#0000FF;stroke-width:0.5;stroke-dasharray:5.0,5.0;" x1="1224" x2="1224" y1="89.7754" y2="753.8965"/><line style="stroke:#0000FF;stroke-width:0.5;stroke-dasharray:5.0,5.0;" x1="1396" x2="1396" y1="89.7754" y2="753.8965"/><rect fill="#3483EB" height="30.4883" rx="2.5" ry="2.5" style="stroke:#3483EB;stroke-width:0.5;" width="67" x="25" y="58.2871"/><text fill="#FFFFFF" font-family="sans-serif" font-size="14" lengthAdjust="spacing" textLength="53" x="32" y="78.8223">PVS/KIS</text><rect fill="#3483EB" height="30.4883" rx="2.5" ry="2.5" style="stroke:#3483EB;stroke-width:0.5;" width="159" x="267" y="58.2871"/><text fill="#FFFFFF" font-family="sans-serif" font-size="14" lengthAdjust="spacing" textLength="145" x="274" y="78.8223">E-Rezept-Fachdienst</text><rect fill="#3483EB" height="30.4883" rx="2.5" ry="2.5" style="stroke:#3483EB;stroke-width:0.5;" width="147" x="956" y="58.2871"/><text fill="#FFFFFF" font-family="sans-serif" font-size="14" lengthAdjust="spacing" textLength="133" x="963" y="78.8223">Information Service</text><rect fill="#EB5E34" height="63.4648" rx="2.5" ry="2.5" style="stroke:#3483EB;stroke-width:0.5;" width="103" x="1173" y="25.3105"/><text fill="#FFFFFF" font-family="sans-serif" font-size="14" lengthAdjust="spacing" textLength="29" x="1208" y="45.8457">VAU</text><text fill="#FFFFFF" font-family="sans-serif" font-size="14" lengthAdjust="spacing" textLength="52" x="1196.5" y="62.334">Session</text><text fill="#FFFFFF" font-family="sans-serif" font-size="14" lengthAdjust="spacing" textLength="89" x="1180" y="78.8223">Management</text><rect fill="#3483EB" height="30.4883" rx="2.5" ry="2.5" style="stroke:#3483EB;stroke-width:0.5;" width="141" x="1326" y="58.2871"/><text fill="#FFFFFF" font-family="sans-serif" font-size="14" lengthAdjust="spacing" textLength="127" x="1333" y="78.8223">Medication Service</text><polygon fill="#1E90FF" points="334.5,117.0859,344.5,121.0859,334.5,125.0859,338.5,121.0859" style="stroke:#1E90FF;stroke-width:1.0;"/><line style="stroke:#1E90FF;stroke-width:1.0;" x1="58.5" x2="340.5" y1="121.0859" y2="121.0859"/><text fill="#000000" font-family="sans-serif" font-size="13" font-weight="bold" lengthAdjust="spacing" textLength="9" x="65.5" y="116.3438">1</text><text fill="#000000" font-family="sans-serif" font-size="13" lengthAdjust="spacing" textLength="251" x="78.5" y="116.3438">Anfrage: Verordnungsdatensatz l&#246;schen</text><line style="stroke:#1E90FF;stroke-width:1.0;" x1="346.5" x2="388.5" y1="150.3965" y2="150.3965"/><line style="stroke:#1E90FF;stroke-width:1.0;" x1="388.5" x2="388.5" y1="150.3965" y2="163.3965"/><line style="stroke:#1E90FF;stroke-width:1.0;" x1="347.5" x2="388.5" y1="163.3965" y2="163.3965"/><polygon fill="#1E90FF" points="357.5,159.3965,347.5,163.3965,357.5,167.3965,353.5,163.3965" style="stroke:#1E90FF;stroke-width:1.0;"/><text fill="#000000" font-family="sans-serif" font-size="13" font-weight="bold" lengthAdjust="spacing" textLength="9" x="353.5" y="145.6543">2</text><text fill="#000000" font-family="sans-serif" font-size="13" lengthAdjust="spacing" textLength="492" x="366.5" y="145.6543">Durchf&#252;hren der standardisierten Workflow-Logik des E-Rezept-Fachdienstes</text><polygon fill="#1E90FF" points="69.5,188.707,59.5,192.707,69.5,196.707,65.5,192.707" style="stroke:#1E90FF;stroke-width:1.0;"/><line style="stroke:#1E90FF;stroke-width:1.0;stroke-dasharray:2.0,2.0;" x1="63.5" x2="345.5" y1="192.707" y2="192.707"/><text fill="#000000" font-family="sans-serif" font-size="13" font-weight="bold" lengthAdjust="spacing" textLength="9" x="75.5" y="187.9648">3</text><text fill="#000000" font-family="sans-serif" font-size="13" lengthAdjust="spacing" textLength="95" x="88.5" y="187.9648">Antwort: Erfolg</text><line style="stroke:#1E90FF;stroke-width:1.0;" x1="346.5" x2="388.5" y1="237.3281" y2="237.3281"/><line style="stroke:#1E90FF;stroke-width:1.0;" x1="388.5" x2="388.5" y1="237.3281" y2="250.3281"/><line style="stroke:#1E90FF;stroke-width:1.0;" x1="347.5" x2="388.5" y1="250.3281" y2="250.3281"/><polygon fill="#1E90FF" points="357.5,246.3281,347.5,250.3281,357.5,254.3281,353.5,250.3281" style="stroke:#1E90FF;stroke-width:1.0;"/><text fill="#000000" font-family="sans-serif" font-size="13" font-weight="bold" lengthAdjust="spacing" textLength="9" x="353.5" y="224.9307">4</text><text fill="#000000" font-family="sans-serif" font-size="13" lengthAdjust="spacing" textLength="628" x="366.5" y="217.2754">Persistieren der Resource ID des zu stornierenden Verordnungsdatensatzes (aus MedicationRequest)</text><text fill="#000000" font-family="sans-serif" font-size="13" lengthAdjust="spacing" textLength="345" x="366.5" y="232.5859">in einer Warteschlange f&#252;r die asynchrone &#220;bertragung</text><rect fill="none" height="39.4434" style="stroke:#000000;stroke-width:1.5;" width="882" x="244" y="258.3281"/><path d="M244,258.3281 L308,258.3281 L308,265.3281 L298,275.3281 L244,275.3281 L244,258.3281 " fill="#EEEEEE" style="stroke:#000000;stroke-width:2.0;"/><text fill="#000000" font-family="sans-serif" font-size="13" font-weight="bold" lengthAdjust="spacing" textLength="19" x="257" y="272.8965">ref</text><text fill="#000000" font-family="sans-serif" font-size="12" lengthAdjust="spacing" textLength="452" x="459" y="290.9297">Lokalisierung der Service-Endpunkte der ePA und der Akte eines Versicherten</text><polygon fill="#1E90FF" points="1017.5,320.082,1027.5,324.082,1017.5,328.082,1021.5,324.082" style="stroke:#1E90FF;stroke-width:1.0;"/><line style="stroke:#1E90FF;stroke-width:1.0;" x1="346.5" x2="1023.5" y1="324.082" y2="324.082"/><text fill="#000000" font-family="sans-serif" font-size="13" font-weight="bold" lengthAdjust="spacing" textLength="9" x="353.5" y="319.3398">5</text><text fill="#000000" font-family="sans-serif" font-size="13" lengthAdjust="spacing" textLength="574" x="366.5" y="319.3398">Anfrage: Widerspruchsinformationen zum Einstellen durch E-Rezept-Fachdienst vorhanden</text><polygon fill="#1E90FF" points="357.5,349.3926,347.5,353.3926,357.5,357.3926,353.5,353.3926" style="stroke:#1E90FF;stroke-width:1.0;"/><line style="stroke:#1E90FF;stroke-width:1.0;stroke-dasharray:2.0,2.0;" x1="351.5" x2="1028.5" y1="353.3926" y2="353.3926"/><text fill="#000000" font-family="sans-serif" font-size="13" font-weight="bold" lengthAdjust="spacing" textLength="9" x="363.5" y="348.6504">6</text><text fill="#000000" font-family="sans-serif" font-size="13" lengthAdjust="spacing" textLength="232" x="376.5" y="348.6504">Antwort: Widerspruchsinformationen</text><path d="M227,368.3926 L289,368.3926 L289,375.7031 L279,385.7031 L227,385.7031 L227,368.3926 " fill="#EEEEEE" style="stroke:#000000;stroke-width:1.5;"/><rect fill="none" height="368.5039" style="stroke:#000000;stroke-width:1.5;" width="1450.5" x="227" y="368.3926"/><text fill="#000000" font-family="sans-serif" font-size="13" font-weight="bold" lengthAdjust="spacing" textLength="17" x="242" y="381.9609">alt</text><text fill="#000000" font-family="sans-serif" font-size="11" font-weight="bold" lengthAdjust="spacing" textLength="385" x="304" y="381.0273">[Widerspruch zum Einstellen durch E-Rezept-Fachdienst vorhanden]</text><line style="stroke:#1E90FF;stroke-width:1.0;" x1="346.5" x2="388.5" y1="407.0137" y2="407.0137"/><line style="stroke:#1E90FF;stroke-width:1.0;" x1="388.5" x2="388.5" y1="407.0137" y2="420.0137"/><line style="stroke:#1E90FF;stroke-width:1.0;" x1="347.5" x2="388.5" y1="420.0137" y2="420.0137"/><polygon fill="#1E90FF" points="357.5,416.0137,347.5,420.0137,357.5,424.0137,353.5,420.0137" style="stroke:#1E90FF;stroke-width:1.0;"/><text fill="#000000" font-family="sans-serif" font-size="13" font-weight="bold" lengthAdjust="spacing" textLength="9" x="353.5" y="402.2715">7</text><text fill="#000000" font-family="sans-serif" font-size="13" lengthAdjust="spacing" textLength="656" x="366.5" y="402.2715">Abbruch. L&#246;schen der Resource ID des zu stornierenden Verordnungsdatensatzes aus der Warteschlange</text><line style="stroke:#000000;stroke-width:1.0;stroke-dasharray:2.0,2.0;" x1="227" x2="1677.5" y1="429.0137" y2="429.0137"/><text fill="#000000" font-family="sans-serif" font-size="11" font-weight="bold" lengthAdjust="spacing" textLength="351" x="232" y="439.6484">[Kein Widerspruch zum Einstellen durch E-Rezept-Fachdienst]</text><rect fill="none" height="39.4434" style="stroke:#000000;stroke-width:1.5;" width="1055" x="244" y="442.9688"/><path d="M244,442.9688 L308,442.9688 L308,449.9688 L298,459.9688 L244,459.9688 L244,442.9688 " fill="#EEEEEE" style="stroke:#000000;stroke-width:2.0;"/><text fill="#000000" font-family="sans-serif" font-size="13" font-weight="bold" lengthAdjust="spacing" textLength="19" x="257" y="457.5371">ref</text><text fill="#000000" font-family="sans-serif" font-size="12" lengthAdjust="spacing" textLength="197" x="673" y="475.5703">Login in die Akte des Versicherten</text><polygon fill="#1E90FF" points="1384.5,504.7227,1394.5,508.7227,1384.5,512.7227,1388.5,508.7227" style="stroke:#1E90FF;stroke-width:1.0;"/><line style="stroke:#1E90FF;stroke-width:1.0;" x1="346.5" x2="1390.5" y1="508.7227" y2="508.7227"/><text fill="#000000" font-family="sans-serif" font-size="13" font-weight="bold" lengthAdjust="spacing" textLength="9" x="353.5" y="503.9805">8</text><text fill="#000000" font-family="sans-serif" font-size="13" lengthAdjust="spacing" textLength="542" x="366.5" y="503.9805">&#220;bermittlung des rxPrescriptionProcessIdentifier in der FHIR Operation per HTTP POST</text><line style="stroke:#1E90FF;stroke-width:1.0;" x1="1396.5" x2="1438.5" y1="553.3438" y2="553.3438"/><line style="stroke:#1E90FF;stroke-width:1.0;" x1="1438.5" x2="1438.5" y1="553.3438" y2="566.3438"/><line style="stroke:#1E90FF;stroke-width:1.0;" x1="1397.5" x2="1438.5" y1="566.3438" y2="566.3438"/><polygon fill="#1E90FF" points="1407.5,562.3438,1397.5,566.3438,1407.5,570.3438,1403.5,566.3438" style="stroke:#1E90FF;stroke-width:1.0;"/><text fill="#000000" font-family="sans-serif" font-size="13" font-weight="bold" lengthAdjust="spacing" textLength="9" x="1403.5" y="540.9463">9</text><text fill="#000000" font-family="sans-serif" font-size="13" lengthAdjust="spacing" textLength="249" x="1416.5" y="533.291">MedicationRequest.status = "cancelled"</text><text fill="#000000" font-family="sans-serif" font-size="13" lengthAdjust="spacing" textLength="81" x="1416.5" y="548.6016">aktualisieren</text><path d="M237,581.3438 L299,581.3438 L299,588.6543 L289,598.6543 L237,598.6543 L237,581.3438 " fill="#EEEEEE" style="stroke:#000000;stroke-width:1.5;"/><rect fill="none" height="148.5527" style="stroke:#000000;stroke-width:1.5;" width="1260" x="237" y="581.3438"/><text fill="#000000" font-family="sans-serif" font-size="13" font-weight="bold" lengthAdjust="spacing" textLength="17" x="252" y="594.9121">alt</text><text fill="#000000" font-family="sans-serif" font-size="11" font-weight="bold" lengthAdjust="spacing" textLength="95" x="314" y="593.9785">[successful case]</text><polygon fill="#1E90FF" points="357.5,615.9648,347.5,619.9648,357.5,623.9648,353.5,619.9648" style="stroke:#1E90FF;stroke-width:1.0;"/><line style="stroke:#1E90FF;stroke-width:1.0;stroke-dasharray:2.0,2.0;" x1="351.5" x2="1395.5" y1="619.9648" y2="619.9648"/><text fill="#000000" font-family="sans-serif" font-size="13" font-weight="bold" lengthAdjust="spacing" textLength="18" x="363.5" y="615.2227">10</text><text fill="#000000" font-family="sans-serif" font-size="13" lengthAdjust="spacing" textLength="205" x="385.5" y="615.2227">Antwort: Transaktion erfolgreich</text><line style="stroke:#1E90FF;stroke-width:1.0;" x1="346.5" x2="388.5" y1="649.2754" y2="649.2754"/><line style="stroke:#1E90FF;stroke-width:1.0;" x1="388.5" x2="388.5" y1="649.2754" y2="662.2754"/><line style="stroke:#1E90FF;stroke-width:1.0;" x1="347.5" x2="388.5" y1="662.2754" y2="662.2754"/><polygon fill="#1E90FF" points="357.5,658.2754,347.5,662.2754,357.5,666.2754,353.5,662.2754" style="stroke:#1E90FF;stroke-width:1.0;"/><text fill="#000000" font-family="sans-serif" font-size="13" font-weight="bold" lengthAdjust="spacing" textLength="18" x="353.5" y="644.5332">11</text><text fill="#000000" font-family="sans-serif" font-size="13" lengthAdjust="spacing" textLength="595" x="375.5" y="644.5332">L&#246;schen der Resource ID des zu stornierenden Verordnungsdatensatzes aus der Warteschlange</text><line style="stroke:#000000;stroke-width:1.0;stroke-dasharray:2.0,2.0;" x1="237" x2="1497" y1="671.2754" y2="671.2754"/><line style="stroke:#1E90FF;stroke-width:1.0;" x1="346.5" x2="388.5" y1="708.8965" y2="708.8965"/><line style="stroke:#1E90FF;stroke-width:1.0;" x1="388.5" x2="388.5" y1="708.8965" y2="721.8965"/><line style="stroke:#1E90FF;stroke-width:1.0;" x1="347.5" x2="388.5" y1="721.8965" y2="721.8965"/><polygon fill="#1E90FF" points="357.5,717.8965,347.5,721.8965,357.5,725.8965,353.5,721.8965" style="stroke:#1E90FF;stroke-width:1.0;"/><text fill="#000000" font-family="sans-serif" font-size="13" font-weight="bold" lengthAdjust="spacing" textLength="18" x="353.5" y="696.499">12</text><text fill="#000000" font-family="sans-serif" font-size="13" lengthAdjust="spacing" textLength="631" x="375.5" y="688.8438">Abbruch. Die Resource ID des zu stornierenden Verordnungsdatensatzes bleibt in der Warteschlange</text><text fill="#000000" font-family="sans-serif" font-size="13" lengthAdjust="spacing" textLength="180" x="375.5" y="704.1543">f&#252;r eine sp&#228;tere &#220;bertragung</text><!--SRC=[jLNBRkis4DtpAmREfWNg-sXIe33G0dRjz1hNjrUmqcJZ3IsE9C8ogGwfF5pqJxhiDtHrT_wn3YaxVgQB53KCMD0CPywSSuPs2srgIN89QIcLVT2cW5nM3eLxZYIIlCvqBOrFf58XvTjtU_61VTo-V_zEx0KS_jQWoH1-5y2VFf5z-CbMbc1eLO4qg1fi8vctDB2aaCx69ph7YJQudnA3CRg7Ro2pHK6sCQfDkhYy-luIvoTfUtLUIBcsngTwXV3-wboeFNjNQhy1qOxmB-rZmd7LNwp7bmxz8KIf5K9khP_RHo4RRqspd2C9KU_GG2UvJTz-7ASTa0xu-J0uwavnXRNlNikiL1gDyp5nDBqU2i5reOD9lzjVU0uzEO_B3bnCT57wdqa-HP07zSOcjxIKNbi3ATAzpZ3M6wS2ZO80z6nLU0kt_L-vzW1rWQTrEGWpaw9peVBCV9965hX4qy8DuGkSVuUNLwTdFw7IsIcaKTBVOM9YeFjZ7Bi7VPCJL-_1BH9RmJIcS4e6hDAle5h_xR8IZGZ9kqF3Xh8oNtyf2GsmVS1vQPGafPr6uiDmPscHL_QXEx65Nd0EOpYb7zscC5TcL06DVx3aUp2Yt5Q5EEgR83djFFVOz9sYium5OJoCFLODGx5aOeRYf7DJSTvNid6museQjjFvhsT66q3UBlOpiueyUoLDmSPRVo5WpCpbaybAiWPX_IVxppDvN5m8mXpiFHyCIBzX3_HWOXUoYenmHeIxaQGxCgfk33iYlcLx05i-FWURH0GkG7UQoGzyxeWOftkQtV5IaAkfoKgdTsxakLVD4aOwK5nLWQiWs3a5uDvIAGDLOfn67RQss0ZnOWiXPENtmw_f6VnxA75_FW_5ti1aOxt_f7EGMHshAP0lTVZ8BByAVdl97UdDIna4BxWcVuDJ-gsynpeUJ9pqUwsDbjhxgdM90tfCYC6IhWFJ2TcChu8nJ-brpWF71lnp_M4yXSyrKhlk_00VRcuII3wdDsqRzjMsoudNt_3AUcRd1-Xaal-OU6RLcHcvyCt6j5kqGMRNP054tbIGITVUMSyjJarpGv8LM4HS63UPa2dO7JkG_7zKEZGBQh_G-TbiGnRijPtd5Ugvtwfoq7zcuiKHzXbSlVxBSwd3UoC2D4g4srdy0m00]--></g></svg>