<?xml version="1.0" encoding="us-ascii" standalone="no"?><svg xmlns="http://www.w3.org/2000/svg" xmlns:xlink="http://www.w3.org/1999/xlink" contentStyleType="text/css" height="818px" preserveAspectRatio="none" style="width:1681px;height:818px;background:#FFFFFF;" version="1.1" viewBox="0 0 1681 818" width="1681px" zoomAndPan="magnify"><defs/><g><g id="elem_Practitioner"><rect fill="#696969" height="48.2656" rx="5" ry="5" style="stroke:#000000;stroke-width:0.5;" width="142" x="900" y="653.52"/><text fill="#FFFFFF" font-family="sans-serif" font-size="12" lengthAdjust="spacing" textLength="101" x="920.5" y="667.1216">&#171;Arzt / Zahnarzt&#187;</text><text fill="#FFFFFF" font-family="sans-serif" font-size="12" font-weight="bold" lengthAdjust="spacing" textLength="128" x="907" y="681.2544">PractitionerDirectory</text><line style="stroke:#000000;stroke-width:0.5;" x1="901" x2="1041" y1="685.7856" y2="685.7856"/></g><g id="elem_Organization"><rect fill="#696969" height="48.2656" rx="5" ry="5" style="stroke:#000000;stroke-width:0.5;" width="152" x="1138" y="521.13"/><text fill="#FFFFFF" font-family="sans-serif" font-size="12" lengthAdjust="spacing" textLength="84" x="1172" y="534.7316">&#171;Organisation&#187;</text><text fill="#FFFFFF" font-family="sans-serif" font-size="12" font-weight="bold" lengthAdjust="spacing" textLength="138" x="1145" y="548.8644">OrganizationDirectory</text><line style="stroke:#000000;stroke-width:0.5;" x1="1139" x2="1289" y1="553.3956" y2="553.3956"/></g><g id="elem_DispenserOrganization"><rect fill="#696969" height="48.2656" rx="5" ry="5" style="stroke:#000000;stroke-width:0.5;" width="152" x="1515" y="653.52"/><text fill="#FFFFFF" font-family="sans-serif" font-size="12" lengthAdjust="spacing" textLength="67" x="1557.5" y="667.1216">&#171;Apotheke&#187;</text><text fill="#FFFFFF" font-family="sans-serif" font-size="12" font-weight="bold" lengthAdjust="spacing" textLength="138" x="1522" y="681.2544">OrganizationDirectory</text><line style="stroke:#000000;stroke-width:0.5;" x1="1516" x2="1666" y1="685.7856" y2="685.7856"/></g><g id="elem_PractitionerRole"><rect fill="#696969" height="34.1328" rx="5" ry="5" style="stroke:#000000;stroke-width:0.5;" width="126" x="908" y="528.19"/><text fill="#FFFFFF" font-family="sans-serif" font-size="12" lengthAdjust="spacing" textLength="112" x="915" y="541.7916">EPAPractitionerRole</text><line style="stroke:#000000;stroke-width:0.5;" x1="909" x2="1033" y1="546.3228" y2="546.3228"/></g><g id="elem_Observation"><rect fill="#20B2AA" height="153.3281" rx="5" ry="5" style="stroke:#000000;stroke-width:0.5;" width="372" x="7" y="270.67"/><text fill="#FFFFFF" font-family="sans-serif" font-size="12" lengthAdjust="spacing" textLength="245" x="70.5" y="284.2716">&#171;K&#246;rpergr&#246;&#223;e&#187; EPAObservationBodyHeight</text><text fill="#FFFFFF" font-family="sans-serif" font-size="12" lengthAdjust="spacing" textLength="256" x="65" y="298.4044">&#171;K&#246;rpergewicht&#187; EPAObservationBodyWeight</text><text fill="#FFFFFF" font-family="sans-serif" font-size="12" lengthAdjust="spacing" textLength="273" x="56.5" y="312.5372">&#171;Stillstatus&#187; EPAObservationBreastfeedingStatus</text><text fill="#FFFFFF" font-family="sans-serif" font-size="12" lengthAdjust="spacing" textLength="284" x="51" y="326.67">&#171;Serumkreatinin-Wert&#187; EPAObservationCreatinine</text><text fill="#FFFFFF" font-family="sans-serif" font-size="12" lengthAdjust="spacing" textLength="335" x="25.5" y="340.8028">&#171;Schwangerschaftsstatus&#187; EPAObservationPregnancyStatus</text><text fill="#FFFFFF" font-family="sans-serif" font-size="12" lengthAdjust="spacing" textLength="358" x="14" y="354.9356">&#171;Entbindungstermin&#187; EPAObservationEstimatedDateOfDelivery</text><text fill="#FFFFFF" font-family="sans-serif" font-size="12" lengthAdjust="spacing" textLength="283" x="51.5" y="369.0684">&#171;Glomerul&#228;re Filtrationsrate&#187; EPAObservationGFR</text><text fill="#FFFFFF" font-family="sans-serif" font-size="12" font-weight="bold" lengthAdjust="spacing" textLength="99" x="140.5" y="383.2012">EPAObservation</text><text fill="#FFFFFF" font-family="sans-serif" font-size="12" lengthAdjust="spacing" textLength="6" x="239.5" y="383.2012">*</text><line style="stroke:#000000;stroke-width:0.5;" x1="8" x2="378" y1="387.7325" y2="387.7325"/><ellipse cx="18" cy="407.3653" fill="#84BE84" rx="3" ry="3" style="stroke:#038048;stroke-width:1.0;"/><text fill="#FFFFFF" font-family="sans-serif" font-size="12" lengthAdjust="spacing" textLength="249" x="27" y="403.3341">performer: Reference(EPAPractitionerRole |</text><text fill="#FFFFFF" font-family="sans-serif" font-size="12" lengthAdjust="spacing" textLength="129" x="31" y="417.4669">OrganizationDirectory)</text></g><g id="elem_ManagementNote"><rect fill="#20B2AA" height="54.3984" rx="5" ry="5" style="stroke:#000000;stroke-width:0.5;" width="271" x="409.5" y="129.27"/><text fill="#FFFFFF" font-family="sans-serif" font-size="12" lengthAdjust="spacing" textLength="148" x="471" y="142.8716">&#171;&#220;bergreifender Hinweis&#187;</text><text fill="#FFFFFF" font-family="sans-serif" font-size="12" font-weight="bold" lengthAdjust="spacing" textLength="99" x="495.5" y="157.0044">EPAObservation</text><line style="stroke:#000000;stroke-width:0.5;" x1="410.5" x2="679.5" y1="161.5356" y2="161.5356"/><ellipse cx="420.5" cy="174.102" fill="#84BE84" rx="3" ry="3" style="stroke:#038048;stroke-width:1.0;"/><text fill="#FFFFFF" font-family="sans-serif" font-size="12" lengthAdjust="spacing" textLength="245" x="429.5" y="177.1372">performer: Reference(EPAPractitionerRole)</text></g><g id="elem_AllergyIntolerance"><rect fill="#20B2AA" height="68.5313" rx="5" ry="5" style="stroke:#000000;stroke-width:0.5;" width="262" x="537" y="510.99"/><text fill="#FFFFFF" font-family="sans-serif" font-size="12" lengthAdjust="spacing" textLength="147" x="594.5" y="524.5916">&#171;Allergie oder Intoleranz&#187;</text><text fill="#FFFFFF" font-family="sans-serif" font-size="12" font-weight="bold" lengthAdjust="spacing" textLength="136" x="600" y="538.7244">EPAAllergyIntolerance</text><line style="stroke:#000000;stroke-width:0.5;" x1="538" x2="798" y1="543.2556" y2="543.2556"/><ellipse cx="548" cy="555.822" fill="#84BE84" rx="3" ry="3" style="stroke:#038048;stroke-width:1.0;"/><text fill="#FFFFFF" font-family="sans-serif" font-size="12" lengthAdjust="spacing" textLength="175" x="557" y="558.8572">patient: Reference(EPAPatient)</text><ellipse cx="548" cy="569.9548" fill="#84BE84" rx="3" ry="3" style="stroke:#038048;stroke-width:1.0;"/><text fill="#FFFFFF" font-family="sans-serif" font-size="12" lengthAdjust="spacing" textLength="236" x="557" y="572.99">recorder: Reference(EPAPractitionerRole)</text></g><g id="elem_Provenance"><rect fill="#20B2AA" height="129.0625" rx="5" ry="5" style="stroke:#000000;stroke-width:0.5;" width="334" x="534" y="282.8"/><text fill="#FFFFFF" font-family="sans-serif" font-size="12" lengthAdjust="spacing" textLength="120" x="641" y="296.4016">&#171;Herkunftsnachweis&#187;</text><text fill="#FFFFFF" font-family="sans-serif" font-size="12" lengthAdjust="spacing" textLength="85" x="658.5" y="310.5344">&#171;Verifizierung&#187;</text><text fill="#FFFFFF" font-family="sans-serif" font-size="12" font-weight="bold" lengthAdjust="spacing" textLength="93" x="654.5" y="324.6672">EPAProvenance</text><line style="stroke:#000000;stroke-width:0.5;" x1="535" x2="867" y1="329.1984" y2="329.1984"/><ellipse cx="545" cy="341.7648" fill="none" rx="3" ry="3" style="stroke:#038048;stroke-width:1.0;"/><text fill="#FFFFFF" font-family="sans-serif" font-size="12" lengthAdjust="spacing" textLength="162" x="554" y="344.8">activity = CREATE | UPDATE</text><ellipse cx="545" cy="355.8977" fill="none" rx="3" ry="3" style="stroke:#038048;stroke-width:1.0;"/><text fill="#FFFFFF" font-family="sans-serif" font-size="12" lengthAdjust="spacing" textLength="308" x="554" y="358.9328">agent.type = enterer | performer | author | informant</text><ellipse cx="545" cy="388.1633" fill="none" rx="3" ry="3" style="stroke:#038048;stroke-width:1.0;"/><text fill="#FFFFFF" font-family="sans-serif" font-size="12" lengthAdjust="spacing" textLength="79" x="554" y="391.1984">activity = VRF</text><ellipse cx="545" cy="402.2961" fill="none" rx="3" ry="3" style="stroke:#038048;stroke-width:1.0;"/><text fill="#FFFFFF" font-family="sans-serif" font-size="12" lengthAdjust="spacing" textLength="119" x="554" y="405.3312">agent.type = verifier</text><line style="stroke:#000000;stroke-width:1.0;" x1="535" x2="694" y1="372.5305" y2="372.5305"/><text fill="#FFFFFF" font-family="sans-serif" font-size="12" lengthAdjust="spacing" textLength="14" x="694" y="376.5656">--</text><line style="stroke:#000000;stroke-width:1.0;" x1="708" x2="867" y1="372.5305" y2="372.5305"/></g><g id="elem_MedicationStatement"><rect fill="#20B2AA" height="54.3984" rx="5" ry="5" style="stroke:#000000;stroke-width:0.5;" width="203" x="715.5" y="129.27"/><text fill="#FFFFFF" font-family="sans-serif" font-size="12" lengthAdjust="spacing" textLength="186" x="724" y="142.8716">&#171;Medikamentzusatzinformation&#187;</text><text fill="#FFFFFF" font-family="sans-serif" font-size="12" font-weight="bold" lengthAdjust="spacing" textLength="154" x="740" y="157.0044">EPAMedicationStatement</text><line style="stroke:#000000;stroke-width:0.5;" x1="716.5" x2="917.5" y1="161.5356" y2="161.5356"/><ellipse cx="726.5" cy="174.102" fill="#84BE84" rx="3" ry="3" style="stroke:#038048;stroke-width:1.0;"/><text fill="#FFFFFF" font-family="sans-serif" font-size="12" lengthAdjust="spacing" textLength="177" x="735.5" y="177.1372">subject: Reference(EPAPatient)</text></g><g id="elem_PlanMedication"><rect fill="#20B2AA" height="48.2656" rx="5" ry="5" style="stroke:#000000;stroke-width:0.5;" width="105" x="764.5" y="7"/><text fill="#FFFFFF" font-family="sans-serif" font-size="12" lengthAdjust="spacing" textLength="83" x="775.5" y="20.6016">&#171;Medikament&#187;</text><text fill="#FFFFFF" font-family="sans-serif" font-size="12" font-weight="bold" lengthAdjust="spacing" textLength="91" x="771.5" y="34.7344">EPAMedication</text><line style="stroke:#000000;stroke-width:0.5;" x1="765.5" x2="868.5" y1="39.2656" y2="39.2656"/></g><g id="elem_Medication"><rect fill="#8FBC8F" height="48.2656" rx="5" ry="5" style="stroke:#000000;stroke-width:0.5;" width="186" x="1277" y="7"/><text fill="#FFFFFF" font-family="sans-serif" font-size="12" lengthAdjust="spacing" textLength="172" x="1284" y="20.6016">&#171;verschriebenes Arzneimittel&#187;</text><text fill="#FFFFFF" font-family="sans-serif" font-size="12" font-weight="bold" lengthAdjust="spacing" textLength="91" x="1324.5" y="34.7344">EPAMedication</text><line style="stroke:#000000;stroke-width:0.5;" x1="1278" x2="1462" y1="39.2656" y2="39.2656"/></g><g id="elem_MedicationRequest"><rect fill="#8FBC8F" height="54.3984" rx="5" ry="5" style="stroke:#000000;stroke-width:0.5;" width="203" x="1143.5" y="129.27"/><text fill="#FFFFFF" font-family="sans-serif" font-size="12" lengthAdjust="spacing" textLength="162" x="1164" y="142.8716">&#171;Arzneimittelverschreibung&#187;</text><text fill="#FFFFFF" font-family="sans-serif" font-size="12" font-weight="bold" lengthAdjust="spacing" textLength="141" x="1174.5" y="157.0044">EPAMedicationRequest</text><line style="stroke:#000000;stroke-width:0.5;" x1="1144.5" x2="1345.5" y1="161.5356" y2="161.5356"/><ellipse cx="1154.5" cy="174.102" fill="#84BE84" rx="3" ry="3" style="stroke:#038048;stroke-width:1.0;"/><text fill="#FFFFFF" font-family="sans-serif" font-size="12" lengthAdjust="spacing" textLength="177" x="1163.5" y="177.1372">subject: Reference(EPAPatient)</text></g><g id="elem_MedicationDispense"><rect fill="#8FBC8F" height="48.2656" rx="5" ry="5" style="stroke:#000000;stroke-width:0.5;" width="163" x="1509.5" y="132.33"/><text fill="#FFFFFF" font-family="sans-serif" font-size="12" lengthAdjust="spacing" textLength="94" x="1544" y="145.9316">&#171;Dispensierung&#187;</text><text fill="#FFFFFF" font-family="sans-serif" font-size="12" font-weight="bold" lengthAdjust="spacing" textLength="149" x="1516.5" y="160.0644">EPAMedicationDispense</text><line style="stroke:#000000;stroke-width:0.5;" x1="1510.5" x2="1671.5" y1="164.5956" y2="164.5956"/></g><!--reverse link ManagementNote to Provenance--><g id="link_ManagementNote_Provenance"><path codeLine="67" d="M570.8414,188.7457 C591.8414,214.1657 620.45,248.81 648.15,282.35 " fill="none" id="ManagementNote-backto-Provenance" style="stroke:#5C7AAB;stroke-width:1.0;"/><polygon fill="#5C7AAB" points="567.02,184.12,569.6683,193.6061,570.2045,187.9747,575.8359,188.511,567.02,184.12" style="stroke:#5C7AAB;stroke-width:1.0;"/><text fill="#777777" font-family="sans-serif" font-size="11" lengthAdjust="spacing" textLength="32" x="656.5" y="225.3048">target</text><text fill="#777777" font-family="sans-serif" font-size="11" lengthAdjust="spacing" textLength="115" x="618" y="238.2598">[versioned reference]</text></g><!--reverse link Observation to Provenance--><g id="link_Observation_Provenance"><path codeLine="68" d="M385.28,347.33 C435.82,347.33 484.23,347.33 533.66,347.33 " fill="none" id="Observation-backto-Provenance" style="stroke:#5C7AAB;stroke-width:1.0;"/><polygon fill="#5C7AAB" points="379.28,347.33,388.28,351.33,384.28,347.33,388.28,343.33,379.28,347.33" style="stroke:#5C7AAB;stroke-width:1.0;"/><text fill="#777777" font-family="sans-serif" font-size="11" lengthAdjust="spacing" textLength="32" x="439" y="328.9648">target</text><text fill="#777777" font-family="sans-serif" font-size="11" lengthAdjust="spacing" textLength="115" x="400.5" y="341.9198">[versioned reference]</text></g><!--link Provenance to AllergyIntolerance--><g id="link_Provenance_AllergyIntolerance"><path codeLine="69" d="M675.48,412.29 C671.13,425.85 667.28,440.23 665,453.99 C663.04,465.83 664.72,469 665,480.99 C665.23,490.67 665.3731,495.1769 665.8331,504.7869 " fill="none" id="Provenance-to-AllergyIntolerance" style="stroke:#5C7AAB;stroke-width:1.0;"/><polygon fill="#5C7AAB" points="666.12,510.78,669.6851,501.599,665.8809,505.7857,661.6943,501.9815,666.12,510.78" style="stroke:#5C7AAB;stroke-width:1.0;"/><text fill="#777777" font-family="sans-serif" font-size="11" lengthAdjust="spacing" textLength="32" x="707.5" y="465.6248">target</text><text fill="#777777" font-family="sans-serif" font-size="11" lengthAdjust="spacing" textLength="115" x="669" y="478.5798">[versioned reference]</text></g><!--reverse link MedicationStatement to Provenance--><g id="link_MedicationStatement_Provenance"><path codeLine="70" d="M797.4888,189.232 C781.8688,214.652 760.89,248.81 740.3,282.35 " fill="none" id="MedicationStatement-backto-Provenance" style="stroke:#5C7AAB;stroke-width:1.0;"/><polygon fill="#5C7AAB" points="800.63,184.12,792.5102,189.6939,798.0123,188.38,799.3262,193.8822,800.63,184.12" style="stroke:#5C7AAB;stroke-width:1.0;"/><text fill="#777777" font-family="sans-serif" font-size="11" lengthAdjust="spacing" textLength="32" x="822.5" y="225.3048">target</text><text fill="#777777" font-family="sans-serif" font-size="11" lengthAdjust="spacing" textLength="115" x="784" y="238.2598">[versioned reference]</text></g><!--link Provenance to PractitionerRole--><g id="link_Provenance_PractitionerRole"><path codeLine="71" d="M750.99,412.1 C771.98,435.93 797.82,461.83 825,480.99 C853.79,501.29 884.4873,514.9928 913.6973,525.7128 " fill="none" id="Provenance-to-PractitionerRole" style="stroke:#5C7AAB;stroke-width:1.0;"/><polygon fill="#5C7AAB" points="919.33,527.78,912.2591,520.9241,914.6361,526.0574,909.5029,528.4343,919.33,527.78" style="stroke:#5C7AAB;stroke-width:1.0;"/><text fill="#777777" font-family="sans-serif" font-size="11" lengthAdjust="spacing" textLength="63" x="852" y="465.6248">agent[].who</text><text fill="#777777" font-family="sans-serif" font-size="11" lengthAdjust="spacing" textLength="115" x="829" y="478.5798">[versioned reference]</text></g><!--reverse link PlanMedication to MedicationStatement--><g id="link_PlanMedication_MedicationStatement"><path codeLine="74" d="M817,61.62 C817,82.59 817,107.26 817,129.07 " fill="none" id="PlanMedication-backto-MedicationStatement" style="stroke:#5C7AAB;stroke-width:1.0;"/><polygon fill="#5C7AAB" points="817,55.62,813,64.62,817,60.62,821,64.62,817,55.62" style="stroke:#5C7AAB;stroke-width:1.0;"/><text fill="#777777" font-family="sans-serif" font-size="11" lengthAdjust="spacing" textLength="112" x="818" y="96.9048">medicationReference</text></g><!--link MedicationStatement to PractitionerRole--><g id="link_MedicationStatement_PractitionerRole"><path codeLine="75" d="M875.89,183.89 C888.13,191.86 899.79,201.74 908,213.67 C978.41,315.93 975.6981,470.2207 972.6181,521.7307 " fill="none" id="MedicationStatement-to-PractitionerRole" style="stroke:#5C7AAB;stroke-width:1.0;"/><polygon fill="#5C7AAB" points="972.26,527.72,976.7901,518.9748,972.5584,522.7289,968.8043,518.4973,972.26,527.72" style="stroke:#5C7AAB;stroke-width:1.0;"/><text fill="#777777" font-family="sans-serif" font-size="11" lengthAdjust="spacing" textLength="100" x="972" y="351.9648">informationSource</text></g><!--reverse link Medication to MedicationRequest--><g id="link_Medication_MedicationRequest"><path codeLine="88" d="M1341.9193,59.8344 C1320.6693,80.8044 1293.85,107.26 1271.75,129.07 " fill="none" id="Medication-backto-MedicationRequest" style="stroke:#5C7AAB;stroke-width:1.0;"/><polygon fill="#5C7AAB" points="1346.19,55.62,1336.9744,59.0945,1342.6311,59.132,1342.5936,64.7887,1346.19,55.62" style="stroke:#5C7AAB;stroke-width:1.0;"/><text fill="#777777" font-family="sans-serif" font-size="11" lengthAdjust="spacing" textLength="112" x="1316" y="96.9048">medicationReference</text></g><!--link MedicationRequest to PractitionerRole--><g id="link_MedicationRequest_PractitionerRole"><path codeLine="89" d="M1230.95,183.88 C1204.34,233 1143.65,340.93 1081,423.99 C1051.01,463.75 1014.5225,501.4673 991.9925,523.7873 " fill="none" id="MedicationRequest-to-PractitionerRole" style="stroke:#5C7AAB;stroke-width:1.0;"/><polygon fill="#5C7AAB" points="987.73,528.01,996.9388,524.5175,991.282,524.4911,991.3085,518.8343,987.73,528.01" style="stroke:#5C7AAB;stroke-width:1.0;"/><text fill="#777777" font-family="sans-serif" font-size="11" lengthAdjust="spacing" textLength="52" x="1183" y="351.9648">requester</text></g><!--reverse link MedicationStatement to MedicationRequest--><g id="link_MedicationStatement_MedicationRequest"><path codeLine="90" d="M924.97,156.47 C992.72,156.47 1075.33,156.47 1143.07,156.47 " fill="none" id="MedicationStatement-backto-MedicationRequest" style="stroke:#5C7AAB;stroke-width:1.0;"/><polygon fill="#5C7AAB" points="918.97,156.47,927.97,160.47,923.97,156.47,927.97,152.47,918.97,156.47" style="stroke:#5C7AAB;stroke-width:1.0;"/><text fill="#777777" font-family="sans-serif" font-size="11" lengthAdjust="spacing" textLength="189" x="936.5" y="138.1048">MedicationRequestLinkedStatement</text><text fill="#777777" font-family="sans-serif" font-size="11" lengthAdjust="spacing" textLength="61" x="1000.5" y="151.0598">(Extension)</text></g><!--reverse link Medication to MedicationDispense--><g id="link_Medication_MedicationDispense"><path codeLine="92" d="M1417.3291,58.5443 C1456.5291,80.4243 1509.42,109.94 1548.69,131.86 " fill="none" id="Medication-backto-MedicationDispense" style="stroke:#5C7AAB;stroke-width:1.0;"/><polygon fill="#5C7AAB" points="1412.09,55.62,1417.9992,63.4992,1416.4559,58.0569,1421.8982,56.5137,1412.09,55.62" style="stroke:#5C7AAB;stroke-width:1.0;"/><text fill="#777777" font-family="sans-serif" font-size="11" lengthAdjust="spacing" textLength="112" x="1489" y="96.9048">medicationReference</text></g><!--reverse link MedicationRequest to MedicationDispense--><g id="link_MedicationRequest_MedicationDispense"><path codeLine="93" d="M1352.94,156.47 C1404.67,156.47 1460.66,156.47 1509.22,156.47 " fill="none" id="MedicationRequest-backto-MedicationDispense" style="stroke:#5C7AAB;stroke-width:1.0;"/><polygon fill="#5C7AAB" points="1346.94,156.47,1355.94,160.47,1351.94,156.47,1355.94,152.47,1346.94,156.47" style="stroke:#5C7AAB;stroke-width:1.0;"/><text fill="#777777" font-family="sans-serif" font-size="11" lengthAdjust="spacing" textLength="127" x="1364.5" y="151.1048">authorizingPrescription</text></g><!--link MedicationDispense to DispenserOrganization--><g id="link_MedicationDispense_DispenserOrganization"><path codeLine="94" d="M1591,180.78 C1591,266.91 1591,560.6 1591,647.11 " fill="none" id="MedicationDispense-to-DispenserOrganization" style="stroke:#5C7AAB;stroke-width:1.0;"/><polygon fill="#5C7AAB" points="1591,653.11,1595,644.11,1591,648.11,1587,644.11,1591,653.11" style="stroke:#5C7AAB;stroke-width:1.0;"/><text fill="#777777" font-family="sans-serif" font-size="11" lengthAdjust="spacing" textLength="81" x="1592" y="472.1248">perfomer.actor</text></g><!--link PractitionerRole to Practitioner--><g id="link_PractitionerRole_Practitioner"><path codeLine="96" d="M971,562.77 C971,585.66 971,621.15 971,647.23 " fill="none" id="PractitionerRole-to-Practitioner" style="stroke:#5C7AAB;stroke-width:1.0;"/><polygon fill="#5C7AAB" points="971,653.23,975,644.23,971,648.23,967,644.23,971,653.23" style="stroke:#5C7AAB;stroke-width:1.0;"/><text fill="#777777" font-family="sans-serif" font-size="11" lengthAdjust="spacing" textLength="63" x="972" y="621.1548">practitioner</text></g><!--link PractitionerRole to Organization--><g id="link_PractitionerRole_Organization"><path codeLine="97" d="M1034.21,545.26 C1065.85,545.26 1098.4,545.26 1131.68,545.26 " fill="none" id="PractitionerRole-to-Organization" style="stroke:#5C7AAB;stroke-width:1.0;"/><polygon fill="#5C7AAB" points="1137.68,545.26,1128.68,541.26,1132.68,545.26,1128.68,549.26,1137.68,545.26" style="stroke:#5C7AAB;stroke-width:1.0;"/><text fill="#777777" font-family="sans-serif" font-size="11" lengthAdjust="spacing" textLength="68" x="1052" y="539.8948">organization</text></g><rect fill="none" height="79.9531" id="_legend" rx="5" ry="5" style="stroke:#000000;stroke-width:1.0;" width="181" x="1474" y="718.7856"/><text fill="#000000" font-family="sans-serif" font-size="14" lengthAdjust="spacing" textLength="38" x="1483" y="739.3208">Color</text><text fill="#000000" font-family="sans-serif" font-size="14" lengthAdjust="spacing" textLength="31" x="1529" y="739.3208">Data</text><rect fill="#8FBC8F" height="16.4883" style="stroke:none;stroke-width:1.0;" width="46" x="1479" y="742.2739"/><text fill="#000000" font-family="sans-serif" font-size="14" lengthAdjust="spacing" textLength="4" x="1479" y="755.8091">&#160;</text><text fill="#000000" font-family="sans-serif" font-size="14" lengthAdjust="spacing" textLength="117" x="1529" y="755.8091">Prescription Data</text><rect fill="#20B2AA" height="16.4883" style="stroke:none;stroke-width:1.0;" width="46" x="1479" y="758.7622"/><text fill="#000000" font-family="sans-serif" font-size="14" lengthAdjust="spacing" textLength="4" x="1479" y="772.2973">&#160;</text><text fill="#000000" font-family="sans-serif" font-size="14" lengthAdjust="spacing" textLength="64" x="1529" y="772.2973">Plan Data</text><rect fill="#696969" height="16.4883" style="stroke:none;stroke-width:1.0;" width="46" x="1479" y="775.2505"/><text fill="#000000" font-family="sans-serif" font-size="14" lengthAdjust="spacing" textLength="4" x="1479" y="788.7856">&#160;</text><text fill="#000000" font-family="sans-serif" font-size="14" lengthAdjust="spacing" textLength="37" x="1529" y="788.7856">Actor</text><line style="stroke:#000000;stroke-width:1.0;" x1="1479" x2="1650" y1="725.7856" y2="725.7856"/><line style="stroke:#000000;stroke-width:1.0;" x1="1479" x2="1650" y1="742.2739" y2="742.2739"/><line style="stroke:#000000;stroke-width:1.0;" x1="1479" x2="1650" y1="758.7622" y2="758.7622"/><line style="stroke:#000000;stroke-width:1.0;" x1="1479" x2="1650" y1="775.2505" y2="775.2505"/><line style="stroke:#000000;stroke-width:1.0;" x1="1479" x2="1650" y1="791.7388" y2="791.7388"/><line style="stroke:#000000;stroke-width:1.0;" x1="1479" x2="1479" y1="725.7856" y2="791.7388"/><line style="stroke:#000000;stroke-width:1.0;" x1="1525" x2="1525" y1="725.7856" y2="791.7388"/><line style="stroke:#000000;stroke-width:1.0;" x1="1650" x2="1650" y1="725.7856" y2="791.7388"/><!--SRC=[fLXHJoCt47xFhx320mSLjFHQNNMYI402LCqL5Aw7rECUdCrausRNJcrlkAJmJohrfR_X_W1_h6Dxa_NkUaCuyW2RySmttundnjwe2UDJAcbAHkppAPDH0ZqwWEHo1ZAXqodZCHdHH45BhJIboFWm4fA390VVUGjYy2T4clpT8lWveT4ajggd8X6IT5XwBc7kreGSWdJoamGLhVHOId7dX5i_Hcye7LZncU3wcYs077o_-kwqRiPCWvNz9ZHK7Mwz_k6drp0ee0l3hJVsKrvoFWvQ3rv4FOY13wl8kTzM7c_xy11H5ffyI_wWOqxDuz7HBT_TlP8qqampWQdgC8dAGivtTzk4AkAl-KYNCgQSAMfMSXWdMbXH5SPVAn6Q2Zs62Mm0qM5g2bo1369rhuvzgdsHG8s_4RPyxxy-Vf5JaB5y_FBuh-504EPoW3vc5lr43ESNmEAnlkMUEjonQAp3wZU5-hLcIQ8qrPaAw4gWIey0XbYxrrR96O7CqWakQiOPtxi16N1qkbm7PnEDxoYFGQfeJ4TQDVcyaX1pogEvvw_BzO3nOSPZfK6cZDVDkagpb6eOTl3FvQW32SEscrlpyqIao3Xv_4y2EME9bjP4uRz0Fi_F-cQNoyBTPOaK8hBLCrcy1egz23nlrMy89dya93fyI_em0WayWbU1dIVtv9QJO37jOEDu5V3upy3iFx0HDX0EYWl6xu2fl1ohH2tFTvJJ65BWshJpIwaQFgM6I18an808G-SNhb57Khue63cD-MefWfnOVQ6H7CQ3_AlKd7GdLyA4sVctIG3Rn0lX0kGaurY7d69XBhFf1esO0VSe5u8wrMtYU1XtCwRdv6ToskyUl-_Yxlv-rN4FdMwl-xwBkWzb3Xz0iX5RCAnDF1eQ_JkrgA7e0Wm-zCyACGvTlQ_dKy25cKN26MceU5pAJXkpipdbbwKiLzcpdnS4-EHs1mEozVkiY9wC9y0K7x5S9UgicX2VQQR7mZmmRcIKwvQNYM0UrcMXd8DtECOdrCo4HOPduYBtuHsE6BXHSgLcvg-T8CkHKb-ffcAL2vLPjqsz-n2c5MAnJ7z2UI6i-2r5ERCdZ6Gm00xAN2Oui9Hf3SaQV1-xG-La1Ls-bwoWSY_01gMoAM3wy5S6gfwxN5xsybLvowyQrSejN2tl8ZKEouLAg2slnlUolQFg8VAMj3N5YuKsvzP7am4pNuSuWtEkdzebY0GX_FFokVP3j0yS5y-5iP44QlThwDJES0InhVVnq_xTMAn1sYRRfChAHwiWjLkj46TdLku5D4ozyifTjiFs3K5ue-1QP382SpeK03scSjk6HE8_EKVcU9TFroQXlfy5TdYlDuRsIirXPlNwsn0CqKv5EXNAPYcFlDOC2ZiHbn7EmgubLuSh9_UbS0rvVIbiDQVFn5kF642haSYQciuTb6ksi3voAvDWWyPPMJRrldGA88DMINF3rBHxZ4zWkDAvvQ-wdxKPxuBljF7zE32zdnzFOLgcjcIyIYnUY7YCRs8gacngDC8eGxoL78NVUGsMlTdWnMQVchUQjZbWAYci9TQQUT_R0HjfogZYIdZVRV_wTRONthtLnIiubvgibcySPa2MHyAJRbg9_Gc4I7DviIV-FN6_Wk0x0jMKt3lXOUbSFhed_avKD4iN8QEAXqCLpFrQX8l7PXzm0KauAbXOv7y0]--></g></svg>