<?xml version="1.0" encoding="us-ascii" standalone="no"?><svg xmlns="http://www.w3.org/2000/svg" xmlns:xlink="http://www.w3.org/1999/xlink" contentStyleType="text/css" height="541px" preserveAspectRatio="none" style="width:982px;height:541px;background:#FFFFFF;" version="1.1" viewBox="0 0 982 541" width="982px" zoomAndPan="magnify"><defs/><g><g id="elem_Patient"><rect fill="#696969" height="47.9375" rx="5" ry="5" style="stroke:#000000;stroke-width:0.5;" width="105" x="410.5" y="394"/><text fill="#FFFFFF" font-family="sans-serif" font-size="12" lengthAdjust="spacing" textLength="91" x="417.5" y="407.1387">&#171;Versicherter&#187;</text><text fill="#FFFFFF" font-family="sans-serif" font-size="12" font-weight="bold" lengthAdjust="spacing" textLength="78" x="424" y="421.1074">EPAPatient</text><line style="stroke:#000000;stroke-width:0.5;" x1="411.5" x2="514.5" y1="425.9375" y2="425.9375"/></g><g id="elem_PrescribingPractitioner"><rect fill="#696969" height="47.9375" rx="5" ry="5" style="stroke:#000000;stroke-width:0.5;" width="163" x="605.5" y="394"/><text fill="#FFFFFF" font-family="sans-serif" font-size="12" lengthAdjust="spacing" textLength="136" x="619" y="407.1387">&#171;Verschreibender LE&#187;</text><text fill="#FFFFFF" font-family="sans-serif" font-size="12" font-weight="bold" lengthAdjust="spacing" textLength="149" x="612.5" y="421.1074">PractitionerDirectory</text><line style="stroke:#000000;stroke-width:0.5;" x1="606.5" x2="767.5" y1="425.9375" y2="425.9375"/></g><g id="elem_PrescribingOrganization"><rect fill="#696969" height="47.9375" rx="5" ry="5" style="stroke:#000000;stroke-width:0.5;" width="172" x="804" y="394"/><text fill="#FFFFFF" font-family="sans-serif" font-size="12" lengthAdjust="spacing" textLength="134" x="823" y="407.1387">&#171;Verschreibende LEI&#187;</text><text fill="#FFFFFF" font-family="sans-serif" font-size="12" font-weight="bold" lengthAdjust="spacing" textLength="158" x="811" y="421.1074">OrganizationDirectory</text><line style="stroke:#000000;stroke-width:0.5;" x1="805" x2="975" y1="425.9375" y2="425.9375"/></g><g id="elem_PharmOrganization"><rect fill="#696969" height="47.9375" rx="5" ry="5" style="stroke:#000000;stroke-width:0.5;" width="172" x="377" y="7"/><text fill="#FFFFFF" font-family="sans-serif" font-size="12" lengthAdjust="spacing" textLength="107" x="409.5" y="20.1387">&#171;Abgebende LEI&#187;</text><text fill="#FFFFFF" font-family="sans-serif" font-size="12" font-weight="bold" lengthAdjust="spacing" textLength="158" x="384" y="34.1074">OrganizationDirectory</text><line style="stroke:#000000;stroke-width:0.5;" x1="378" x2="548" y1="38.9375" y2="38.9375"/></g><g id="elem_PractionerRole"><rect fill="#696969" height="33.9688" rx="5" ry="5" style="stroke:#000000;stroke-width:0.5;" width="138" x="673" y="273"/><text fill="#FFFFFF" font-family="sans-serif" font-size="12" lengthAdjust="spacing" textLength="124" x="680" y="286.1387">EPAPractitionerRole</text><line style="stroke:#000000;stroke-width:0.5;" x1="674" x2="810" y1="290.9688" y2="290.9688"/></g><g id="elem_Medication"><rect fill="#8FBC8F" height="47.9375" rx="5" ry="5" style="stroke:#000000;stroke-width:0.5;" width="118" x="62" y="266"/><text fill="#FFFFFF" font-family="sans-serif" font-size="12" lengthAdjust="spacing" textLength="86" x="78" y="279.1387">&#171;Arzneimittel&#187;</text><text fill="#FFFFFF" font-family="sans-serif" font-size="12" font-weight="bold" lengthAdjust="spacing" textLength="104" x="69" y="293.1074">EPAMedication</text><line style="stroke:#000000;stroke-width:0.5;" x1="63" x2="179" y1="297.9375" y2="297.9375"/></g><g id="elem_MedicationRequest"><rect fill="#8FBC8F" height="53.9063" rx="5" ry="5" style="stroke:#000000;stroke-width:0.5;" width="223" x="351.5" y="263"/><text fill="#FFFFFF" font-family="sans-serif" font-size="12" lengthAdjust="spacing" textLength="175" x="375.5" y="276.1387">&#171;Arzneimittelverschreibung&#187;</text><text fill="#FFFFFF" font-family="sans-serif" font-size="12" font-weight="bold" lengthAdjust="spacing" textLength="163" x="381.5" y="290.1074">EPAMedicationRequest</text><line style="stroke:#000000;stroke-width:0.5;" x1="352.5" x2="573.5" y1="294.9375" y2="294.9375"/><ellipse cx="362.5" cy="307.4219" fill="#84BE84" rx="3" ry="3" style="stroke:#038048;stroke-width:1.0;"/><text fill="#FFFFFF" font-family="sans-serif" font-size="12" lengthAdjust="spacing" textLength="197" x="371.5" y="310.0762">subject: Reference(EPAPatient)</text></g><g id="elem_AltMedication"><rect fill="#8FBC8F" height="47.9375" rx="5" ry="5" style="stroke:#000000;stroke-width:0.5;" width="192" x="7" y="135"/><text fill="#FFFFFF" font-family="sans-serif" font-size="12" lengthAdjust="spacing" textLength="178" x="14" y="148.1387">&#171;Substituiertes Arzneimittel&#187;</text><text fill="#FFFFFF" font-family="sans-serif" font-size="12" font-weight="bold" lengthAdjust="spacing" textLength="104" x="51" y="162.1074">EPAMedication</text><line style="stroke:#000000;stroke-width:0.5;" x1="8" x2="198" y1="166.9375" y2="166.9375"/></g><g id="elem_MedicationDispense"><rect fill="#8FBC8F" height="53.9063" rx="5" ry="5" style="stroke:#000000;stroke-width:0.5;" width="184" x="371" y="132"/><text fill="#FFFFFF" font-family="sans-serif" font-size="12" lengthAdjust="spacing" textLength="151" x="387.5" y="145.1387">&#171;Dispensierinformation&#187;</text><text fill="#FFFFFF" font-family="sans-serif" font-size="12" font-weight="bold" lengthAdjust="spacing" textLength="170" x="378" y="159.1074">EPAMedicationDispense</text><line style="stroke:#000000;stroke-width:0.5;" x1="372" x2="554" y1="163.9375" y2="163.9375"/><ellipse cx="382" cy="176.4219" fill="none" rx="3" ry="3" style="stroke:#038048;stroke-width:1.0;"/><text fill="#FFFFFF" font-family="sans-serif" font-size="12" lengthAdjust="spacing" textLength="131" x="391" y="179.0762">wasSubstituted: true</text></g><!--link MedicationRequest to Patient--><g id="link_MedicationRequest_Patient"><path codeLine="28" d="M463,317.11 C463,339.74 463,366.18 463,387.89 " fill="none" id="MedicationRequest-to-Patient" style="stroke:#5C7AAB;stroke-width:1.0;"/><polygon fill="#5C7AAB" points="463,393.89,467,384.89,463,388.89,459,384.89,463,393.89" style="stroke:#5C7AAB;stroke-width:1.0;"/><text fill="#777777" font-family="sans-serif" font-size="13" lengthAdjust="spacing" textLength="46" x="464" y="360.0669">subject</text></g><!--reverse link Medication to MedicationRequest--><g id="link_Medication_MedicationRequest"><path codeLine="29" d="M186.18,290 C233.21,290 294.34,290 351.39,290 " fill="none" id="Medication-backto-MedicationRequest" style="stroke:#5C7AAB;stroke-width:1.0;"/><polygon fill="#5C7AAB" points="180.18,290,189.18,294,185.18,290,189.18,286,180.18,290" style="stroke:#5C7AAB;stroke-width:1.0;"/><text fill="#777777" font-family="sans-serif" font-size="13" lengthAdjust="spacing" textLength="135" x="198.25" y="283.0669">medicationReference</text></g><!--link MedicationRequest to PractionerRole--><g id="link_MedicationRequest_PractionerRole"><path codeLine="30" d="M574.87,290 C607.92,290 637.13,290 666.66,290 " fill="none" id="MedicationRequest-to-PractionerRole" style="stroke:#5C7AAB;stroke-width:1.0;"/><polygon fill="#5C7AAB" points="672.66,290,663.66,286,667.66,290,663.66,294,672.66,290" style="stroke:#5C7AAB;stroke-width:1.0;"/><text fill="#777777" font-family="sans-serif" font-size="13" lengthAdjust="spacing" textLength="62" x="592.75" y="283.0669">requester</text></g><!--link PractionerRole to PrescribingPractitioner--><g id="link_PractionerRole_PrescribingPractitioner"><path codeLine="32" d="M734.92,307.21 C725.35,329.15 710.6115,362.9216 699.6315,388.0616 " fill="none" id="PractionerRole-to-PrescribingPractitioner" style="stroke:#5C7AAB;stroke-width:1.0;"/><polygon fill="#5C7AAB" points="697.23,393.56,704.4978,386.9133,699.2312,388.978,697.1666,383.7113,697.23,393.56" style="stroke:#5C7AAB;stroke-width:1.0;"/><text fill="#777777" font-family="sans-serif" font-size="13" lengthAdjust="spacing" textLength="73" x="718" y="360.0669">practitioner</text></g><!--link PractionerRole to PrescribingOrganization--><g id="link_PractionerRole_PrescribingOrganization"><path codeLine="33" d="M761.05,307.21 C786.89,329.21 828.6414,364.7606 858.1714,389.9006 " fill="none" id="PractionerRole-to-PrescribingOrganization" style="stroke:#5C7AAB;stroke-width:1.0;"/><polygon fill="#5C7AAB" points="862.74,393.79,858.48,384.9101,858.9328,390.5488,853.2941,391.0016,862.74,393.79" style="stroke:#5C7AAB;stroke-width:1.0;"/><text fill="#777777" font-family="sans-serif" font-size="13" lengthAdjust="spacing" textLength="79" x="825" y="360.0669">organization</text></g><!--reverse link AltMedication to MedicationDispense--><g id="link_AltMedication_MedicationDispense"><path codeLine="35" d="M205,159 C258.32,159 318.32,159 370.99,159 " fill="none" id="AltMedication-backto-MedicationDispense" style="stroke:#5C7AAB;stroke-width:1.0;"/><polygon fill="#5C7AAB" points="199,159,208,163,204,159,208,155,199,159" style="stroke:#5C7AAB;stroke-width:1.0;"/><text fill="#777777" font-family="sans-serif" font-size="13" lengthAdjust="spacing" textLength="135" x="217.5" y="152.0669">medicationReference</text></g><!--link MedicationDispense to MedicationRequest--><g id="link_MedicationDispense_MedicationRequest"><path codeLine="36" d="M463,186.11 C463,208.49 463,234.56 463,256.93 " fill="none" id="MedicationDispense-to-MedicationRequest" style="stroke:#5C7AAB;stroke-width:1.0;"/><polygon fill="#5C7AAB" points="463,262.93,467,253.93,463,257.93,459,253.93,463,262.93" style="stroke:#5C7AAB;stroke-width:1.0;"/><text fill="#777777" font-family="sans-serif" font-size="13" lengthAdjust="spacing" textLength="146" x="464" y="229.0669">authorizingPrescription</text></g><!--reverse link PharmOrganization to MedicationDispense--><g id="link_PharmOrganization_MedicationDispense"><path codeLine="37" d="M463,61.11 C463,82.85 463,109.36 463,131.99 " fill="none" id="PharmOrganization-backto-MedicationDispense" style="stroke:#5C7AAB;stroke-width:1.0;"/><polygon fill="#5C7AAB" points="463,55.11,459,64.11,463,60.11,467,64.11,463,55.11" style="stroke:#5C7AAB;stroke-width:1.0;"/><text fill="#777777" font-family="sans-serif" font-size="13" lengthAdjust="spacing" textLength="96" x="464" y="98.0669">perfomer.actor</text></g><rect fill="none" height="62.8906" id="_legend" rx="5" ry="5" style="stroke:#000000;stroke-width:1.0;" width="180" x="12" y="458.9375"/><text fill="#000000" font-family="sans-serif" font-size="14" lengthAdjust="spacing" textLength="36" x="21" y="478.9326">Color</text><text fill="#000000" font-family="sans-serif" font-size="14" lengthAdjust="spacing" textLength="32" x="65" y="478.9326">Data</text><rect fill="#8FBC8F" height="16.2969" style="stroke:none;stroke-width:1.0;" width="44" x="17" y="482.2344"/><text fill="#000000" font-family="sans-serif" font-size="14" lengthAdjust="spacing" textLength="4" x="17" y="495.2295">&#160;</text><text fill="#000000" font-family="sans-serif" font-size="14" lengthAdjust="spacing" textLength="118" x="65" y="495.2295">Prescription Data</text><rect fill="#696969" height="16.2969" style="stroke:none;stroke-width:1.0;" width="44" x="17" y="498.5313"/><text fill="#000000" font-family="sans-serif" font-size="14" lengthAdjust="spacing" textLength="4" x="17" y="511.5264">&#160;</text><text fill="#000000" font-family="sans-serif" font-size="14" lengthAdjust="spacing" textLength="44" x="65" y="511.5264">Actors</text><line style="stroke:#000000;stroke-width:1.0;" x1="17" x2="187" y1="465.9375" y2="465.9375"/><line style="stroke:#000000;stroke-width:1.0;" x1="17" x2="187" y1="482.2344" y2="482.2344"/><line style="stroke:#000000;stroke-width:1.0;" x1="17" x2="187" y1="498.5313" y2="498.5313"/><line style="stroke:#000000;stroke-width:1.0;" x1="17" x2="187" y1="514.8281" y2="514.8281"/><line style="stroke:#000000;stroke-width:1.0;" x1="17" x2="17" y1="465.9375" y2="514.8281"/><line style="stroke:#000000;stroke-width:1.0;" x1="61" x2="61" y1="465.9375" y2="514.8281"/><line style="stroke:#000000;stroke-width:1.0;" x1="187" x2="187" y1="465.9375" y2="514.8281"/><!--SRC=[bLHHRzCm47xFhpYjBr0qn1XegAegTUj0I6EhMWbUU76IIslgsE7iRAoK_uxZ98sJfcpaBNVVzzrzvxFrXikC4KiXuR-kE4K2RrY8ukuUIR0iut852HCQ8T1xAAbSnf4YYGHdRxo42dzWPE1t0FQxPD5cvQ1NIYY26Ky_4JwMEKKnKXc_51ReebCYzL061- -Z2yP25_wef5doBSBPs_r_YVgsvWPTx5OPx1OSdB_xS8vX8zqG1nVk2_vupT_W2cNS5IbB19Mpa_4OlY9f7gsHZBK_cNoNm-7rV3fdXgCqm-49C0tL7tHvqPgGXxQCfTvSL-mviSXmmvMTvuoJnIjwh8K8TKGyjEVWmuxhMjdFbUuThPZaMrPG_g7hmtpTQRZ2_v9SCqfxnOhnUCqlbC2gYI9OXrgrQIkHfzmO5CsCls3C8oTTbMm2C9WnsYoHsHL3UKpgVZ-gtEvrZ-u2V-QepO5y5MzNgVRy5UZSbHl10XCab16-Q3RYfLqohvrb7cexY9mN-wEVQtGgp7EyphZEK6ghpMMYA2tXFR8L40-CreaZJX-OhWqOZ4TWA4VhBpYSr6byEe7zFHZLC-f32elqt8qWzJ3LGFjuP7dj5R9SAhFsYWITdEleo7sonCo_NazG_IstLEKlVT0pJ6UnVOPFkMouSMiyjViHiDoi5V6ji-9Qorm3VHfvqN_tVXQcaHAL8hrcnKqE0k7UG12O67VYEoXVmHtCc66mAuFZrd9CTk3NxoBBLz-2faK9RJEsGbddBm00]--></g></svg>