<?xml version="1.0" encoding="us-ascii" standalone="no"?><svg xmlns="http://www.w3.org/2000/svg" xmlns:xlink="http://www.w3.org/1999/xlink" contentStyleType="text/css" height="584px" preserveAspectRatio="none" style="width:615px;height:584px;background:#FFFFFF;" version="1.1" viewBox="0 0 615 584" width="615px" zoomAndPan="magnify"><defs/><g><g id="elem_MedicationStatement"><rect fill="#20B2AA" height="54.3984" rx="5" ry="5" style="stroke:#000000;stroke-width:0.5;" width="203" x="315.5" y="290.93"/><text fill="#FFFFFF" font-family="sans-serif" font-size="12" lengthAdjust="spacing" textLength="186" x="324" y="304.5316">&#171;Medikamentzusatzinformation&#187;</text><text fill="#FFFFFF" font-family="sans-serif" font-size="12" font-weight="bold" lengthAdjust="spacing" textLength="131" x="351.5" y="318.6644">MedicationStatement</text><line style="stroke:#000000;stroke-width:0.5;" x1="316.5" x2="517.5" y1="323.1956" y2="323.1956"/><ellipse cx="326.5" cy="335.762" fill="#84BE84" rx="3" ry="3" style="stroke:#038048;stroke-width:1.0;"/><text fill="#FFFFFF" font-family="sans-serif" font-size="12" lengthAdjust="spacing" textLength="177" x="335.5" y="338.7972">subject: Reference(EPAPatient)</text></g><g id="elem_PlanMedication"><rect fill="#20B2AA" height="48.2656" rx="5" ry="5" style="stroke:#000000;stroke-width:0.5;" width="105" x="364.5" y="419.32"/><text fill="#FFFFFF" font-family="sans-serif" font-size="12" lengthAdjust="spacing" textLength="83" x="375.5" y="432.9216">&#171;Medikament&#187;</text><text fill="#FFFFFF" font-family="sans-serif" font-size="12" font-weight="bold" lengthAdjust="spacing" textLength="91" x="371.5" y="447.0544">EPAMedication</text><line style="stroke:#000000;stroke-width:0.5;" x1="365.5" x2="468.5" y1="451.5856" y2="451.5856"/></g><g id="elem_Medication"><rect fill="#8FBC8F" height="48.2656" rx="5" ry="5" style="stroke:#000000;stroke-width:0.5;" width="188" x="67" y="293.99"/><text fill="#FFFFFF" font-family="sans-serif" font-size="12" lengthAdjust="spacing" textLength="174" x="74" y="307.5916">&#171;Verschriebenes Arzneimittel&#187;</text><text fill="#FFFFFF" font-family="sans-serif" font-size="12" font-weight="bold" lengthAdjust="spacing" textLength="91" x="115.5" y="321.7244">EPAMedication</text><line style="stroke:#000000;stroke-width:0.5;" x1="68" x2="254" y1="326.2556" y2="326.2556"/></g><g id="elem_MedicationRequest"><rect fill="#8FBC8F" height="68.5313" rx="5" ry="5" style="stroke:#000000;stroke-width:0.5;" width="268" x="283" y="135.39"/><text fill="#FFFFFF" font-family="sans-serif" font-size="12" lengthAdjust="spacing" textLength="162" x="336" y="148.9916">&#171;Arzneimittelverschreibung&#187;</text><text fill="#FFFFFF" font-family="sans-serif" font-size="12" font-weight="bold" lengthAdjust="spacing" textLength="141" x="346.5" y="163.1244">EPAMedicationRequest</text><line style="stroke:#000000;stroke-width:0.5;" x1="284" x2="550" y1="167.6556" y2="167.6556"/><ellipse cx="294" cy="180.222" fill="#84BE84" rx="3" ry="3" style="stroke:#038048;stroke-width:1.0;"/><text fill="#FFFFFF" font-family="sans-serif" font-size="12" lengthAdjust="spacing" textLength="177" x="303" y="183.2572">subject: Reference(EPAPatient)</text><ellipse cx="294" cy="194.3548" fill="#84BE84" rx="3" ry="3" style="stroke:#038048;stroke-width:1.0;"/><text fill="#FFFFFF" font-family="sans-serif" font-size="12" lengthAdjust="spacing" textLength="242" x="303" y="197.39">requester: Reference(EPAPractitionerRole)</text></g><g id="elem_MedicationDispense"><rect fill="#8FBC8F" height="54.3984" rx="5" ry="5" style="stroke:#000000;stroke-width:0.5;" width="312" x="7" y="7"/><text fill="#FFFFFF" font-family="sans-serif" font-size="12" lengthAdjust="spacing" textLength="94" x="116" y="20.6016">&#171;Dispensierung&#187;</text><text fill="#FFFFFF" font-family="sans-serif" font-size="12" font-weight="bold" lengthAdjust="spacing" textLength="149" x="88.5" y="34.7344">EPAMedicationDispense</text><line style="stroke:#000000;stroke-width:0.5;" x1="8" x2="318" y1="39.2656" y2="39.2656"/><ellipse cx="18" cy="51.832" fill="#84BE84" rx="3" ry="3" style="stroke:#038048;stroke-width:1.0;"/><text fill="#FFFFFF" font-family="sans-serif" font-size="12" lengthAdjust="spacing" textLength="286" x="27" y="54.8672">perfomer.actor: Reference(OrganizationDirectory)</text></g><!--link MedicationStatement to PlanMedication--><g id="link_MedicationStatement_PlanMedication"><path codeLine="29" d="M417,345.58 C417,367.38 417,392.01 417,412.96 " fill="none" id="MedicationStatement-to-PlanMedication" style="stroke:#5C7AAB;stroke-width:1.0;"/><polygon fill="#5C7AAB" points="417,418.96,421,409.96,417,413.96,413,409.96,417,418.96" style="stroke:#5C7AAB;stroke-width:1.0;"/><text fill="#777777" font-family="sans-serif" font-size="11" lengthAdjust="spacing" textLength="112" x="418" y="386.9548">medicationReference</text></g><!--link MedicationRequest to Medication--><g id="link_MedicationRequest_Medication"><path codeLine="31" d="M349.7,204.38 C331.77,213.68 312.53,223.96 295,233.93 C261.32,253.08 228.9826,273.2441 202.2826,290.3441 " fill="none" id="MedicationRequest-to-Medication" style="stroke:#5C7AAB;stroke-width:1.0;"/><polygon fill="#5C7AAB" points="197.23,293.58,206.9662,292.0945,201.4405,290.8834,202.6516,285.3577,197.23,293.58" style="stroke:#5C7AAB;stroke-width:1.0;"/><text fill="#777777" font-family="sans-serif" font-size="11" lengthAdjust="spacing" textLength="112" x="296" y="252.0648">medicationReference</text></g><!--link MedicationRequest to MedicationStatement--><g id="link_MedicationRequest_MedicationStatement"><path codeLine="32" d="M417,204.26 C417,230.44 417,260.3 417,284.51 " fill="none" id="MedicationRequest-to-MedicationStatement" style="stroke:#5C7AAB;stroke-width:1.0;"/><polygon fill="#5C7AAB" points="417,290.51,421,281.51,417,285.51,413,281.51,417,290.51" style="stroke:#5C7AAB;stroke-width:1.0;"/><text fill="#777777" font-family="sans-serif" font-size="11" lengthAdjust="spacing" textLength="189" x="418" y="245.5648">MedicationRequestLinkedStatement</text><text fill="#777777" font-family="sans-serif" font-size="11" lengthAdjust="spacing" textLength="61" x="482" y="258.5198">(Extension)</text></g><!--link MedicationDispense to Medication--><g id="link_MedicationDispense_Medication"><path codeLine="34" d="M159.32,61.5 C156.69,81.67 153.38,110.23 152,135.39 C148.89,192.17 153.968,252.9834 157.638,287.6334 " fill="none" id="MedicationDispense-to-Medication" style="stroke:#5C7AAB;stroke-width:1.0;"/><polygon fill="#5C7AAB" points="158.27,293.6,161.2998,284.2288,157.7434,288.6278,153.3443,285.0714,158.27,293.6" style="stroke:#5C7AAB;stroke-width:1.0;"/><text fill="#777777" font-family="sans-serif" font-size="11" lengthAdjust="spacing" textLength="112" x="153" y="174.2948">medicationReference</text></g><!--link MedicationDispense to MedicationRequest--><g id="link_MedicationDispense_MedicationRequest"><path codeLine="35" d="M213.79,61.88 C253.75,82.88 304.3685,109.4792 347.4385,132.1092 " fill="none" id="MedicationDispense-to-MedicationRequest" style="stroke:#5C7AAB;stroke-width:1.0;"/><polygon fill="#5C7AAB" points="352.75,134.9,346.6433,127.1729,348.3238,132.5744,342.9223,134.2548,352.75,134.9" style="stroke:#5C7AAB;stroke-width:1.0;"/><text fill="#777777" font-family="sans-serif" font-size="11" lengthAdjust="spacing" textLength="127" x="291" y="103.0248">authorizingPrescription</text></g><rect fill="none" height="79.9531" id="_legend" rx="5" ry="5" style="stroke:#000000;stroke-width:1.0;" width="181" x="12" y="484.5856"/><text fill="#000000" font-family="sans-serif" font-size="14" lengthAdjust="spacing" textLength="38" x="21" y="505.1208">Color</text><text fill="#000000" font-family="sans-serif" font-size="14" lengthAdjust="spacing" textLength="31" x="67" y="505.1208">Data</text><rect fill="#8FBC8F" height="16.4883" style="stroke:none;stroke-width:1.0;" width="46" x="17" y="508.0739"/><text fill="#000000" font-family="sans-serif" font-size="14" lengthAdjust="spacing" textLength="4" x="17" y="521.6091">&#160;</text><text fill="#000000" font-family="sans-serif" font-size="14" lengthAdjust="spacing" textLength="117" x="67" y="521.6091">Prescription Data</text><rect fill="#20B2AA" height="16.4883" style="stroke:none;stroke-width:1.0;" width="46" x="17" y="524.5622"/><text fill="#000000" font-family="sans-serif" font-size="14" lengthAdjust="spacing" textLength="4" x="17" y="538.0973">&#160;</text><text fill="#000000" font-family="sans-serif" font-size="14" lengthAdjust="spacing" textLength="64" x="67" y="538.0973">Plan Data</text><rect fill="#696969" height="16.4883" style="stroke:none;stroke-width:1.0;" width="46" x="17" y="541.0505"/><text fill="#000000" font-family="sans-serif" font-size="14" lengthAdjust="spacing" textLength="4" x="17" y="554.5856">&#160;</text><text fill="#000000" font-family="sans-serif" font-size="14" lengthAdjust="spacing" textLength="37" x="67" y="554.5856">Actor</text><line style="stroke:#000000;stroke-width:1.0;" x1="17" x2="188" y1="491.5856" y2="491.5856"/><line style="stroke:#000000;stroke-width:1.0;" x1="17" x2="188" y1="508.0739" y2="508.0739"/><line style="stroke:#000000;stroke-width:1.0;" x1="17" x2="188" y1="524.5622" y2="524.5622"/><line style="stroke:#000000;stroke-width:1.0;" x1="17" x2="188" y1="541.0505" y2="541.0505"/><line style="stroke:#000000;stroke-width:1.0;" x1="17" x2="188" y1="557.5387" y2="557.5387"/><line style="stroke:#000000;stroke-width:1.0;" x1="17" x2="17" y1="491.5856" y2="557.5387"/><line style="stroke:#000000;stroke-width:1.0;" x1="63" x2="63" y1="491.5856" y2="557.5387"/><line style="stroke:#000000;stroke-width:1.0;" x1="188" x2="188" y1="491.5856" y2="557.5387"/><!--SRC=[bLJ1Rjf04Btp5IEu95IfIjCgLOIGI4XxeGq2gRtaihR7PifwrvrTfmcb_zwrru1je4rzyyoRzzw-iTUiI6M2HGenFTqIXnAd8a1v_uWiHPQHIY0Mqc37x92iSnM5cXKo3DxK6ZhuZg65Nnrmpuq8Lqa9lTLICqme_SJux7kQ8sHVlv4EM5R7pFgdB_RUXrT216NverPsGMk4mTlTkqTzMvB5ilP5MsmBzYxVVRZ4O4-z7-nTbK-pvJK6dT-r4qqnGHMrcIlTJdNUxd08dp6YbKXHsNLkX5sJYZMdmf9MC1ezg7w_G8HbOM65nGBQxtT163ZIWTwKagLTe72PeO8gqrTWybBp6kOO8wCAyUnkDfwvQJTrxhmVzLHPSCYzLYK-aqBjYotTEjjNP1CkcJ10XSR5jbP8ALcByY_qTUg9uDKnvZhLerT12dBtvHtXdUEF7CrXT5MzgVBIs3o8FGLo6yOYj5I88C-rn5RC4p8PAaF89onN03pml6sSC9qXnpf5VktaTSFKFIT2qReYOIpwpuMjph5lwIAw6BNtV0tTj9PTHToj4smJBSTVCFhFoRqZHt60df9QORJ3FAYpkoTRvAhLUSFNBhN_DtPgT6lOCOZSBZMJ-u6J6QC9cR82uHp8yYu0YR4j5xG1VnjiO2AiW8ql3Xkx76sWpj92Dlwr0kfsr2RpjwPhZeibkuRpu9su2mZ-0000]--></g></svg>