<?xml version="1.0" encoding="us-ascii" standalone="no"?><svg xmlns="http://www.w3.org/2000/svg" xmlns:xlink="http://www.w3.org/1999/xlink" contentStyleType="text/css" height="795px" preserveAspectRatio="none" style="width:1504px;height:795px;background:#FFFFFF;" version="1.1" viewBox="0 0 1504 795" width="1504px" zoomAndPan="magnify"><defs/><g><rect fill="#87CEEB" height="26.4883" id="_title" style="stroke:#808080;stroke-width:1.0;" width="191" x="655.25" y="15"/><text fill="#000000" font-family="sans-serif" font-size="14" font-weight="bold" lengthAdjust="spacing" textLength="181" x="660.25" y="33.5352">$cancel-prescription-erp</text><ellipse cx="720" cy="57.4883" fill="#222222" rx="10" ry="10" style="stroke:#222222;stroke-width:1.0;"/><rect fill="#F1F1F1" height="62.3984" rx="12.5" ry="12.5" style="stroke:#181818;stroke-width:0.5;" width="396" x="522" y="141.6211"/><text fill="#000000" font-family="sans-serif" font-size="12" lengthAdjust="spacing" textLength="53" x="541" y="163.2227">Generate</text><text fill="#000000" font-family="sans-serif" font-size="12" font-weight="bold" lengthAdjust="spacing" textLength="193" x="598" y="163.2227">RxPrescriptionProcessIdentifier</text><text fill="#000000" font-family="sans-serif" font-size="12" lengthAdjust="spacing" textLength="104" x="795" y="163.2227">from the values of</text><text fill="#000000" font-family="sans-serif" font-size="12" font-weight="bold" lengthAdjust="spacing" textLength="110" x="532" y="177.3555">Input-Parameters</text><text fill="#000000" font-family="sans-serif" font-size="12" lengthAdjust="spacing" textLength="19" x="642" y="177.3555">[x].</text><text fill="#000000" font-family="sans-serif" font-size="12" font-weight="bold" lengthAdjust="spacing" textLength="89" x="661" y="177.3555">RxPrescription</text><text fill="#000000" font-family="sans-serif" font-size="12" lengthAdjust="spacing" textLength="32" x="750" y="177.3555">.part.</text><text fill="#000000" font-family="sans-serif" font-size="12" font-weight="bold" lengthAdjust="spacing" textLength="74" x="782" y="177.3555">authoredOn</text><text fill="#000000" font-family="sans-serif" font-size="12" lengthAdjust="spacing" textLength="44" x="860" y="177.3555">and the</text><text fill="#000000" font-family="sans-serif" font-size="12" font-weight="bold" lengthAdjust="spacing" textLength="110" x="552" y="191.4883">Input-Parameters</text><text fill="#000000" font-family="sans-serif" font-size="12" lengthAdjust="spacing" textLength="19" x="662" y="191.4883">[x].</text><text fill="#000000" font-family="sans-serif" font-size="12" font-weight="bold" lengthAdjust="spacing" textLength="89" x="681" y="191.4883">RxPrescription</text><text fill="#000000" font-family="sans-serif" font-size="12" lengthAdjust="spacing" textLength="32" x="770" y="191.4883">.part.</text><text fill="#000000" font-family="sans-serif" font-size="12" font-weight="bold" lengthAdjust="spacing" textLength="86" x="802" y="191.4883">PrescriptionId</text><polygon fill="#F1F1F1" points="360,224.0195,1080,224.0195,1092,243.4521,1080,262.8848,360,262.8848,348,243.4521,360,224.0195" style="stroke:#181818;stroke-width:0.5;"/><text fill="#000000" font-family="sans-serif" font-size="11" lengthAdjust="spacing" textLength="3" x="718.5" y="234.6543">&#160;</text><text fill="#000000" font-family="sans-serif" font-size="11" lengthAdjust="spacing" textLength="95" x="360" y="247.6094">Check if there is a</text><text fill="#000000" font-family="sans-serif" font-size="11" font-weight="bold" lengthAdjust="spacing" textLength="105" x="458" y="247.6094">MedicationRequest</text><text fill="#000000" font-family="sans-serif" font-size="11" lengthAdjust="spacing" textLength="42" x="566" y="247.6094">with the</text><text fill="#000000" font-family="sans-serif" font-size="11" font-weight="bold" lengthAdjust="spacing" textLength="177" x="611" y="247.6094">RxPrescriptionProcessIdentifier</text><text fill="#000000" font-family="sans-serif" font-size="11" lengthAdjust="spacing" textLength="76" x="791" y="247.6094">and the status</text><text fill="#000000" font-family="sans-serif" font-size="11" font-weight="bold" lengthAdjust="spacing" textLength="33" x="870" y="247.6094">active</text><text fill="#000000" font-family="sans-serif" font-size="11" lengthAdjust="spacing" textLength="174" x="906" y="247.6094">already in the Medication Service</text><text fill="#000000" font-family="sans-serif" font-size="11" lengthAdjust="spacing" textLength="3" x="718.5" y="260.5645">&#160;</text><text fill="#000000" font-family="sans-serif" font-size="11" lengthAdjust="spacing" textLength="18" x="330" y="241.1318">yes</text><text fill="#000000" font-family="sans-serif" font-size="11" lengthAdjust="spacing" textLength="14" x="1092" y="241.1318">no</text><rect fill="none" height="329.8164" style="stroke:#000000;stroke-width:1.5;" width="654" x="11" y="272.8848"/><path d="M98,272.8848 L98,282.373 L88,292.373 L11,292.373 " fill="none" style="stroke:#000000;stroke-width:1.5;"/><text fill="#000000" font-family="sans-serif" font-size="14" lengthAdjust="spacing" textLength="77" x="14" y="287.4199">transaction</text><rect fill="#F1F1F1" height="62.3984" rx="12.5" ry="12.5" style="stroke:#181818;stroke-width:0.5;" width="505" x="85.5" y="309.373"/><text fill="#000000" font-family="sans-serif" font-size="12" lengthAdjust="spacing" textLength="17" x="244" y="330.9746">Set</text><text fill="#000000" font-family="sans-serif" font-size="12" font-weight="bold" lengthAdjust="spacing" textLength="118" x="265" y="330.9746">MedicationRequest</text><text fill="#000000" font-family="sans-serif" font-size="12" lengthAdjust="spacing" textLength="45" x="387" y="330.9746">with the</text><text fill="#000000" font-family="sans-serif" font-size="12" lengthAdjust="spacing" textLength="288" x="95.5" y="345.1074">identifier[RxPrescriptionProcessIdentifier] equal to</text><text fill="#000000" font-family="sans-serif" font-size="12" font-weight="bold" lengthAdjust="spacing" textLength="193" x="387.5" y="345.1074">RxPrescriptionProcessIdentifier</text><text fill="#000000" font-family="sans-serif" font-size="12" lengthAdjust="spacing" textLength="49" x="283" y="359.2402">to Status</text><text fill="#000000" font-family="sans-serif" font-size="12" font-weight="bold" lengthAdjust="spacing" textLength="57" x="336" y="359.2402">cancelled</text><rect fill="#F1F1F1" height="62.3984" rx="12.5" ry="12.5" style="stroke:#181818;stroke-width:0.5;" width="509" x="83.5" y="391.7715"/><text fill="#000000" font-family="sans-serif" font-size="12" lengthAdjust="spacing" textLength="34" x="231.5" y="413.373">Set all</text><text fill="#000000" font-family="sans-serif" font-size="12" font-weight="bold" lengthAdjust="spacing" textLength="126" x="269.5" y="413.373">MedicationDispense</text><text fill="#000000" font-family="sans-serif" font-size="12" lengthAdjust="spacing" textLength="45" x="399.5" y="413.373">with the</text><text fill="#000000" font-family="sans-serif" font-size="12" lengthAdjust="spacing" textLength="292" x="93.5" y="427.5059">extension[RxPrescriptionProcessIdentifier] equal to</text><text fill="#000000" font-family="sans-serif" font-size="12" font-weight="bold" lengthAdjust="spacing" textLength="193" x="389.5" y="427.5059">RxPrescriptionProcessIdentifier</text><text fill="#000000" font-family="sans-serif" font-size="12" lengthAdjust="spacing" textLength="49" x="283" y="441.6387">to Status</text><text fill="#000000" font-family="sans-serif" font-size="12" font-weight="bold" lengthAdjust="spacing" textLength="57" x="336" y="441.6387">cancelled</text><rect fill="#F1F1F1" height="62.3984" rx="12.5" ry="12.5" style="stroke:#181818;stroke-width:0.5;" width="509" x="83.5" y="474.1699"/><text fill="#000000" font-family="sans-serif" font-size="12" lengthAdjust="spacing" textLength="34" x="260.5" y="495.7715">Set all</text><text fill="#000000" font-family="sans-serif" font-size="12" font-weight="bold" lengthAdjust="spacing" textLength="68" x="298.5" y="495.7715">Medication</text><text fill="#000000" font-family="sans-serif" font-size="12" lengthAdjust="spacing" textLength="45" x="370.5" y="495.7715">with the</text><text fill="#000000" font-family="sans-serif" font-size="12" lengthAdjust="spacing" textLength="292" x="93.5" y="509.9043">extension[RxPrescriptionProcessIdentifier] equal to</text><text fill="#000000" font-family="sans-serif" font-size="12" font-weight="bold" lengthAdjust="spacing" textLength="193" x="389.5" y="509.9043">RxPrescriptionProcessIdentifier</text><text fill="#000000" font-family="sans-serif" font-size="12" lengthAdjust="spacing" textLength="49" x="287.5" y="524.0371">to Status</text><text fill="#000000" font-family="sans-serif" font-size="12" font-weight="bold" lengthAdjust="spacing" textLength="48" x="340.5" y="524.0371">inactive</text><rect fill="#98FB98" height="34.1328" rx="12.5" ry="12.5" style="stroke:#181818;stroke-width:0.5;" width="634" x="21" y="556.5684"/><text fill="#000000" font-family="sans-serif" font-size="12" lengthAdjust="spacing" textLength="93" x="31" y="578.1699">Add information</text><text fill="#000000" font-family="sans-serif" font-size="12" font-weight="bold" lengthAdjust="spacing" textLength="118" x="128" y="578.1699">OperationOutcome</text><text fill="#000000" font-family="sans-serif" font-size="12" lengthAdjust="spacing" textLength="270" x="250" y="578.1699">(MEDICATIONSVC_OPERATION_SUCCESS) to the</text><text fill="#000000" font-family="sans-serif" font-size="12" font-weight="bold" lengthAdjust="spacing" textLength="121" x="524" y="578.1699">Output-Parameters</text><rect fill="#FFC0CB" height="48.2656" rx="12.5" ry="12.5" style="stroke:#181818;stroke-width:0.5;" width="725" x="739.5" y="272.8848"/><text fill="#000000" font-family="sans-serif" font-size="12" lengthAdjust="spacing" textLength="57" x="749.5" y="294.4863">Add error</text><text fill="#000000" font-family="sans-serif" font-size="12" font-weight="bold" lengthAdjust="spacing" textLength="118" x="810.5" y="294.4863">OperationOutcome</text><text fill="#000000" font-family="sans-serif" font-size="12" lengthAdjust="spacing" textLength="518" x="932.5" y="294.4863">(MEDICATIONSVC_PRESCRIPTION_NO_EXIST) or (MEDICATIONSVC_PRESCRIPTION_STATUS)</text><text fill="#000000" font-family="sans-serif" font-size="12" lengthAdjust="spacing" textLength="33" x="1025" y="308.6191">to the</text><text fill="#000000" font-family="sans-serif" font-size="12" font-weight="bold" lengthAdjust="spacing" textLength="121" x="1062" y="308.6191">Output-Parameters</text><polygon fill="#F1F1F1" points="720,608.7012,732,620.7012,720,632.7012,708,620.7012,720,608.7012" style="stroke:#181818;stroke-width:0.5;"/><rect fill="#F1F1F1" height="34.1328" rx="12.5" ry="12.5" style="stroke:#181818;stroke-width:0.5;" width="329" x="555.5" y="87.4883"/><text fill="#000000" font-family="sans-serif" font-size="12" lengthAdjust="spacing" textLength="49" x="565.5" y="109.0898">Get next</text><text fill="#000000" font-family="sans-serif" font-size="12" font-weight="bold" lengthAdjust="spacing" textLength="89" x="618.5" y="109.0898">RxPrescription</text><text fill="#000000" font-family="sans-serif" font-size="12" lengthAdjust="spacing" textLength="49" x="711.5" y="109.0898">from the</text><text fill="#000000" font-family="sans-serif" font-size="12" font-weight="bold" lengthAdjust="spacing" textLength="110" x="764.5" y="109.0898">Input-Parameters</text><polygon fill="#F1F1F1" points="635,652.7012,805,652.7012,817,664.7012,805,676.7012,635,676.7012,623,664.7012,635,652.7012" style="stroke:#181818;stroke-width:0.5;"/><text fill="#000000" font-family="sans-serif" font-size="11" lengthAdjust="spacing" textLength="14" x="724" y="687.3359">no</text><text fill="#000000" font-family="sans-serif" font-size="11" lengthAdjust="spacing" textLength="34" x="635" y="668.8584">If next</text><text fill="#000000" font-family="sans-serif" font-size="11" font-weight="bold" lengthAdjust="spacing" textLength="98" x="672" y="668.8584">Input-Parameters</text><text fill="#000000" font-family="sans-serif" font-size="11" lengthAdjust="spacing" textLength="32" x="773" y="668.8584">exists</text><text fill="#000000" font-family="sans-serif" font-size="11" lengthAdjust="spacing" textLength="18" x="817" y="662.3809">yes</text><rect fill="#F1F1F1" height="34.1328" rx="12.5" ry="12.5" style="stroke:#181818;stroke-width:0.5;" width="191" x="624.5" y="708.8359"/><text fill="#000000" font-family="sans-serif" font-size="12" lengthAdjust="spacing" textLength="46" x="634.5" y="730.4375">Return "</text><text fill="#000000" font-family="sans-serif" font-size="12" font-weight="bold" lengthAdjust="spacing" textLength="121" x="680.5" y="730.4375">Output-Parameters</text><text fill="#000000" font-family="sans-serif" font-size="12" lengthAdjust="spacing" textLength="4" x="801.5" y="730.4375">"</text><ellipse cx="720" cy="773.9688" fill="none" rx="11" ry="11" style="stroke:#222222;stroke-width:1.0;"/><ellipse cx="720" cy="773.9688" fill="#222222" rx="6" ry="6" style="stroke:#222222;stroke-width:1.0;"/><line style="stroke:#181818;stroke-width:1.0;" x1="338" x2="338" y1="371.7715" y2="391.7715"/><polygon fill="#181818" points="334,381.7715,338,391.7715,342,381.7715,338,385.7715" style="stroke:#181818;stroke-width:1.0;"/><line style="stroke:#181818;stroke-width:1.0;" x1="338" x2="338" y1="454.1699" y2="474.1699"/><polygon fill="#181818" points="334,464.1699,338,474.1699,342,464.1699,338,468.1699" style="stroke:#181818;stroke-width:1.0;"/><line style="stroke:#181818;stroke-width:1.0;" x1="338" x2="338" y1="536.5684" y2="556.5684"/><polygon fill="#181818" points="334,546.5684,338,556.5684,342,546.5684,338,550.5684" style="stroke:#181818;stroke-width:1.0;"/><line style="stroke:#181818;stroke-width:1.0;" x1="348" x2="338" y1="243.4521" y2="243.4521"/><line style="stroke:#181818;stroke-width:1.0;" x1="338" x2="338" y1="243.4521" y2="309.373"/><polygon fill="#181818" points="334,299.373,338,309.373,342,299.373,338,303.373" style="stroke:#181818;stroke-width:1.0;"/><line style="stroke:#181818;stroke-width:1.0;" x1="1092" x2="1102" y1="243.4521" y2="243.4521"/><line style="stroke:#181818;stroke-width:1.0;" x1="1102" x2="1102" y1="243.4521" y2="272.8848"/><polygon fill="#181818" points="1098,262.8848,1102,272.8848,1106,262.8848,1102,266.8848" style="stroke:#181818;stroke-width:1.0;"/><line style="stroke:#181818;stroke-width:1.0;" x1="338" x2="338" y1="590.7012" y2="620.7012"/><line style="stroke:#181818;stroke-width:1.0;" x1="338" x2="708" y1="620.7012" y2="620.7012"/><polygon fill="#181818" points="698,616.7012,708,620.7012,698,624.7012,702,620.7012" style="stroke:#181818;stroke-width:1.0;"/><line style="stroke:#181818;stroke-width:1.0;" x1="1102" x2="1102" y1="321.1504" y2="620.7012"/><line style="stroke:#181818;stroke-width:1.0;" x1="1102" x2="732" y1="620.7012" y2="620.7012"/><polygon fill="#181818" points="742,616.7012,732,620.7012,742,624.7012,738,620.7012" style="stroke:#181818;stroke-width:1.0;"/><line style="stroke:#181818;stroke-width:1.0;" x1="720" x2="720" y1="204.0195" y2="224.0195"/><polygon fill="#181818" points="716,214.0195,720,224.0195,724,214.0195,720,218.0195" style="stroke:#181818;stroke-width:1.0;"/><line style="stroke:#181818;stroke-width:1.0;" x1="720" x2="720" y1="121.6211" y2="141.6211"/><polygon fill="#181818" points="716,131.6211,720,141.6211,724,131.6211,720,135.6211" style="stroke:#181818;stroke-width:1.0;"/><line style="stroke:#181818;stroke-width:1.0;" x1="817" x2="1478.5" y1="664.7012" y2="664.7012"/><polygon fill="#181818" points="1474.5,398.6279,1478.5,388.6279,1482.5,398.6279,1478.5,394.6279" style="stroke:#181818;stroke-width:1.0;"/><line style="stroke:#181818;stroke-width:1.0;" x1="1478.5" x2="1478.5" y1="104.5547" y2="664.7012"/><line style="stroke:#181818;stroke-width:1.0;" x1="1478.5" x2="884.5" y1="104.5547" y2="104.5547"/><polygon fill="#181818" points="894.5,100.5547,884.5,104.5547,894.5,108.5547,890.5,104.5547" style="stroke:#181818;stroke-width:1.0;"/><line style="stroke:#181818;stroke-width:1.0;" x1="720" x2="720" y1="632.7012" y2="652.7012"/><polygon fill="#181818" points="716,642.7012,720,652.7012,724,642.7012,720,646.7012" style="stroke:#181818;stroke-width:1.0;"/><line style="stroke:#181818;stroke-width:1.0;" x1="720" x2="720" y1="67.4883" y2="87.4883"/><polygon fill="#181818" points="716,77.4883,720,87.4883,724,77.4883,720,81.4883" style="stroke:#181818;stroke-width:1.0;"/><line style="stroke:#181818;stroke-width:1.0;" x1="720" x2="720" y1="676.7012" y2="708.8359"/><polygon fill="#181818" points="716,698.8359,720,708.8359,724,698.8359,720,702.8359" style="stroke:#181818;stroke-width:1.0;"/><line style="stroke:#181818;stroke-width:1.0;" x1="720" x2="720" y1="742.9688" y2="762.9688"/><polygon fill="#181818" points="716,752.9688,720,762.9688,724,752.9688,720,756.9688" style="stroke:#181818;stroke-width:1.0;"/><!--SRC=[pPJ1JkD038RlUGgBtKDxA7il2Ac42kK0ZPgoMWaG6XA7ZZgToNeSe4Ay-tgIaXOjNIhjXKixYUtVdpsE_KBRIf5QGe6bgWtFy9b7HZ_O9Lg6N7wG8jzviMQ3y181tAjyyK2kjaNiZ2F85gjJKsEmE2gGshVdf5RHAqHjtFTSsHpDe2BqEUcAjRC3f2gAF2lYI889ArGyF4S6AoXmV7yoVKwt_8z_t9z0IKvOvXZCYQrg7gG13mNM1uUZ80KWCXP9CVujavBBqVkaa0frgP7UwpuggSM3Aw4Hsf7c-ldsy4F0G-aM1vEgUUu8YqdBhMpHoF-VwBOXARRgrMNlXk8vvWivXaI4e3seaEe22vsh43B5tr8RDq1FckTlZTodGMy5o7rnxKEKoba_OciqXAfOWRQDpoOZP4YFEiSRwWUBXTuAVRz11bZ_XU9quyoah0-oSdw9rcQvp0nvZq8wVzsHNtzIsIs8a3B0RiysT3aa8kiwqGwtmUqRwS2LCU_XpxIlq7hSGI-pBrRn-vBmNmHQsytqRJ5_IvN1SqAqmr5Ho3YMZfRj84hGf0ehGHucDUTksLv0xs9ybiIZMJAvp7x6TvDqF6qUxhAhE1vdMJyaNdyd4hTpum2yjWSq7g5dNJlbqHkOjek62ObaE-v9aqx7MJnDqWReSd8t_fLaipw8mBySizbeTYNWD_PJTbWpsqANcoKCJtCjIxkNbDqg_cXVoQrhpxuVDatpNODrt9OU3QV8DLaus9Nwu4XMlwl-0000]--></g></svg>